<?xml version="1.0" encoding="UTF-8"?>
<svg id="Layer_1" data-name="Layer 1" xmlns="http://www.w3.org/2000/svg" viewBox="0 0 1280 256">
  <defs>
    <style>
      .cls-1 {
        fill: #f2f2f2;
      }

      .cls-2 {
        fill: #3fa9f5;
      }
    </style>
  </defs>
  <rect class="cls-2" x="-33.18" y="-544.69" width="1345.46" height="1345.46"/>
  <path class="cls-1" d="m97.87,118.37c-3.79-.43-7.06-2.37-9.82-5.84-2.76-3.46-3.93-7.09-3.5-10.88.43-3.79,2.38-7.06,5.84-9.82s7.09-3.93,10.88-3.5c3.79.43,7.06,2.38,9.82,5.84s3.93,7.09,3.5,10.88c-.43,3.79-2.38,7.06-5.84,9.82s-7.09,3.93-10.88,3.5Zm-25.23-28.93c-3.28-4.12-5.29-8.22-6.02-12.31-.73-4.09-.73-7.88,0-11.37.74-3.49,1.97-7.61,3.7-12.36,1.97-5.4,3.12-9.72,3.45-12.96.32-3.24-.59-6.22-2.76-8.94l-4.03-5.06c-2.31-2.9-5.19-4.4-8.63-4.49-3.44-.09-6.89,1.24-10.36,4l-12.08,9.62c-3.75,2.98-5.75,6.61-6.02,10.88-.27,4.27,1.24,8.47,4.52,12.59l-19.39,15.44c-4.77-5.99-7.7-12.35-8.77-19.08-1.07-6.72-.2-13.27,2.61-19.64,2.81-6.37,7.35-12.05,13.62-17.05l12.08-9.62C40.67,4.24,46.91,1.07,53.29-.42c6.39-1.49,12.45-1.27,18.2.66,5.75,1.93,10.71,5.51,14.89,10.76l4.03,5.06c3.36,4.21,5.43,8.31,6.21,12.27.78,3.97.81,7.55.06,10.74-.74,3.2-1.91,7.19-3.71,11.91-2.06,5.41-3.4,9.86-3.76,13.44-.36,3.58.87,7.15,3.71,10.71l1.57,1.97-19.39,15.44-2.46-3.09Z"/>
  <path class="cls-1" d="m116.22,143.06c-.88-3.71-.16-7.44,2.17-11.22,2.32-3.77,5.34-6.1,9.05-6.97,3.71-.88,7.45-.16,11.22,2.17s6.1,5.34,6.98,9.05c.88,3.71.15,7.45-2.17,11.22-2.33,3.77-5.34,6.1-9.05,6.98-3.71.88-7.45.16-11.22-2.17s-6.1-5.34-6.97-9.05Zm18.67-33.53c2.76-4.48,5.95-7.76,9.55-9.83,3.6-2.07,7.16-3.35,10.7-3.84,3.54-.49,7.83-.73,12.88-.71,5.75.03,10.2-.36,13.37-1.15,3.16-.79,5.65-2.67,7.48-5.62l3.39-5.5c1.95-3.16,2.38-6.37,1.3-9.64-1.08-3.27-3.51-6.07-7.28-8.39l-13.15-8.11c-4.08-2.51-8.17-3.17-12.28-1.98-4.11,1.19-7.55,4.03-10.31,8.52l-21.1-13.01c4.02-6.52,9.02-11.43,14.98-14.71,5.96-3.29,12.42-4.69,19.36-4.2,6.94.48,13.83,2.83,20.66,7.04l13.15,8.11c6.62,4.08,11.72,8.88,15.29,14.39,3.57,5.51,5.41,11.29,5.55,17.35.13,6.06-1.56,11.94-5.08,17.65l-3.39,5.5c-2.83,4.59-5.98,7.92-9.44,10-3.47,2.08-6.83,3.32-10.09,3.7-3.26.38-7.42.64-12.47.54-5.79-.11-10.43.15-13.92,1.02-3.49.87-6.43,3.24-8.82,7.12l-1.32,2.14-21.1-13.01,2.07-3.36Z"/>
  <path class="cls-1" d="m262.53,170.51c-3.6-1.26-6.36-3.88-8.28-7.87s-2.26-7.78-1-11.38c1.26-3.6,3.88-6.36,7.87-8.28s7.78-2.26,11.38-1c3.6,1.26,6.36,3.88,8.28,7.87s2.26,7.78,1,11.38c-1.26,3.6-3.88,6.36-7.87,8.28s-7.78,2.26-11.38,1Zm-18.19-33.8c-2.29-4.74-3.33-9.19-3.14-13.34.19-4.15,1.03-7.84,2.53-11.09,1.49-3.24,3.61-6.99,6.35-11.23,3.12-4.83,5.2-8.79,6.23-11.88,1.03-3.09.8-6.2-.71-9.33l-2.81-5.82c-1.61-3.34-4.09-5.44-7.42-6.29-3.34-.85-7-.31-10.99,1.61l-13.91,6.71c-4.31,2.08-7.08,5.17-8.29,9.28-1.21,4.11-.67,8.53,1.62,13.28l-22.33,10.76c-3.33-6.9-4.77-13.75-4.32-20.55.44-6.79,2.74-12.99,6.89-18.58,4.15-5.59,9.84-10.13,17.06-13.61l13.91-6.71c7.01-3.38,13.8-5.09,20.36-5.13,6.56-.04,12.43,1.52,17.6,4.67,5.18,3.15,9.22,7.75,12.13,13.79l2.81,5.82c2.34,4.85,3.45,9.3,3.34,13.34-.11,4.04-.89,7.54-2.32,10.49-1.43,2.95-3.46,6.59-6.26,10.79-3.21,4.82-5.5,8.86-6.64,12.27-1.15,3.41-.73,7.17,1.24,11.26l1.09,2.27-22.33,10.76-1.72-3.56Z"/>
  <path class="cls-1" d="m342.27,136.89c-2.31-3.03-3.17-6.74-2.58-11.13s2.4-7.74,5.43-10.05c3.03-2.31,6.74-3.17,11.13-2.58s7.74,2.4,10.05,5.43c2.31,3.03,3.17,6.74,2.58,11.13s-2.4,7.74-5.43,10.05c-3.03,2.31-6.74,3.17-11.13,2.58-4.39-.59-7.74-2.4-10.05-5.43Zm3.42-38.23c.7-5.22,2.28-9.51,4.72-12.86,2.45-3.35,5.18-5.98,8.22-7.86,3.03-1.89,6.86-3.85,11.48-5.88,5.26-2.31,9.18-4.47,11.74-6.48,2.57-2.01,4.08-4.73,4.54-8.18l.86-6.41c.49-3.68-.42-6.79-2.73-9.34-2.32-2.55-5.67-4.12-10.06-4.71l-15.31-2.06c-4.75-.64-8.75.42-12.03,3.18-3.27,2.76-5.26,6.75-5.96,11.97l-24.56-3.31c1.02-7.59,3.59-14.1,7.7-19.53,4.11-5.43,9.44-9.33,15.98-11.71,6.54-2.38,13.79-3.04,21.74-1.97l15.31,2.06c7.71,1.04,14.32,3.35,19.82,6.93,5.5,3.58,9.54,8.11,12.12,13.59,2.58,5.48,3.43,11.55,2.54,18.19l-.86,6.41c-.72,5.34-2.24,9.67-4.56,12.98-2.32,3.31-4.89,5.81-7.71,7.48-2.82,1.68-6.52,3.6-11.17,5.56-5.34,2.25-9.47,4.37-12.3,6.59-2.83,2.22-4.56,5.58-5.16,10.09l-.34,2.49-24.56-3.31.53-3.92Z"/>
  <path class="cls-1" d="m429.74,235.8c-3.14-2.15-5.13-5.4-5.94-9.76s-.15-8.1,2-11.25c2.15-3.14,5.4-5.12,9.76-5.94s8.1-.15,11.25,2c3.14,2.15,5.12,5.41,5.94,9.76s.15,8.1-2,11.25c-2.15,3.14-5.41,5.13-9.76,5.94s-8.1.15-11.25-2Zm-8.75-37.37c-.97-5.18-.82-9.74.45-13.7,1.27-3.95,3.04-7.3,5.33-10.05,2.29-2.74,5.31-5.81,9.06-9.19,4.27-3.85,7.31-7.13,9.12-9.84,1.8-2.71,2.39-5.78,1.75-9.19l-1.19-6.35c-.68-3.65-2.53-6.32-5.52-8.01-3-1.69-6.67-2.13-11.03-1.31l-15.18,2.85c-4.71.88-8.18,3.15-10.42,6.8-2.24,3.65-2.87,8.06-1.9,13.24l-24.36,4.57c-1.41-7.53-1.02-14.52,1.18-20.96,2.2-6.44,6.03-11.82,11.5-16.14,5.46-4.31,12.14-7.21,20.02-8.69l15.18-2.85c7.65-1.43,14.65-1.31,20.99.36,6.34,1.67,11.6,4.71,15.78,9.1,4.17,4.4,6.88,9.89,8.12,16.48l1.19,6.35c.99,5.3.91,9.88-.25,13.75-1.16,3.87-2.82,7.05-4.98,9.52-2.16,2.48-5.06,5.46-8.86,8.79-4.36,3.82-7.62,7.12-9.61,10.12-2,2.99-2.57,6.73-1.74,11.2l.46,2.47-24.36,4.57-.73-3.88Z"/>
  <path class="cls-1" d="m500.67,148.44c-1.12-3.64-.65-7.42,1.42-11.34s4.92-6.44,8.56-7.56c3.64-1.12,7.42-.65,11.34,1.42s6.44,4.92,7.56,8.56c1.12,3.64.65,7.42-1.42,11.34s-4.92,6.44-8.56,7.56c-3.64,1.12-7.42.65-11.34-1.42-3.92-2.07-6.44-4.92-7.56-8.56Zm16.4-34.7c2.46-4.66,5.42-8.14,8.87-10.45,3.45-2.31,6.92-3.82,10.43-4.55,3.49-.72,7.77-1.24,12.81-1.56,5.74-.35,10.16-1.03,13.26-2.03,3.1-1,5.46-3.04,7.09-6.11l3.02-5.72c1.73-3.28,1.95-6.52.66-9.71-1.3-3.19-3.9-5.82-7.82-7.89l-13.66-7.21c-4.24-2.24-8.36-2.62-12.39-1.16-4.02,1.46-7.26,4.52-9.72,9.18l-21.92-11.58c3.58-6.77,8.23-12,13.97-15.68,5.73-3.68,12.08-5.5,19.04-5.48,6.96.02,13.99,1.9,21.08,5.65l13.66,7.21c6.88,3.63,12.28,8.08,16.21,13.34,3.93,5.26,6.15,10.9,6.69,16.94.53,6.04-.76,12.02-3.89,17.95l-3.02,5.72c-2.52,4.76-5.44,8.3-8.75,10.61-3.32,2.31-6.59,3.76-9.82,4.36-3.23.6-7.36,1.13-12.4,1.37-5.79.28-10.4.84-13.82,1.94-3.43,1.1-6.2,3.67-8.32,7.69l-1.17,2.22-21.92-11.58,1.85-3.49Z"/>
  <path class="cls-1" d="m646.85,234.03c-3.51-1.48-6.11-4.26-7.78-8.37s-1.77-7.91-.3-11.42c1.48-3.51,4.26-6.11,8.37-7.78,4.1-1.67,7.91-1.77,11.42-.3,3.51,1.48,6.11,4.27,7.78,8.37,1.68,4.1,1.77,7.91.3,11.42-1.48,3.51-4.27,6.11-8.37,7.78s-7.91,1.77-11.42.3Zm-16.07-34.85c-1.99-4.88-2.76-9.38-2.31-13.51.45-4.13,1.52-7.76,3.21-10.91,1.69-3.14,4.03-6.75,7.03-10.82,3.41-4.62,5.73-8.45,6.95-11.47,1.22-3.02,1.18-6.14-.13-9.35l-2.44-5.99c-1.4-3.44-3.74-5.68-7.02-6.74-3.28-1.05-6.97-.74-11.07.93l-14.3,5.84c-4.43,1.81-7.38,4.73-8.84,8.75-1.46,4.02-1.2,8.47.8,13.35l-22.95,9.37c-2.9-7.09-3.91-14.02-3.05-20.77.86-6.75,3.54-12.79,8.03-18.12,4.49-5.32,10.44-9.5,17.87-12.53l14.3-5.84c7.2-2.94,14.08-4.23,20.63-3.87,6.55.37,12.31,2.28,17.28,5.75,4.97,3.47,8.73,8.3,11.26,14.51l2.44,5.99c2.04,4.99,2.87,9.5,2.51,13.52-.36,4.03-1.35,7.47-2.96,10.33-1.61,2.86-3.86,6.37-6.91,10.39-3.5,4.61-6.03,8.51-7.39,11.84-1.35,3.33-1.17,7.11.55,11.32l.95,2.33-22.95,9.37-1.49-3.66Z"/>
  <path class="cls-1" d="m712.22,203.56c-1.76-3.38-1.97-7.18-.64-11.41s3.69-7.21,7.07-8.97c3.38-1.76,7.18-1.97,11.41-.63s7.22,3.69,8.97,7.07c1.76,3.38,1.97,7.18.63,11.41-1.33,4.23-3.69,7.22-7.07,8.97-3.38,1.76-7.18,1.97-11.41.64-4.22-1.33-7.21-3.69-8.97-7.07Zm9.92-37.08c1.59-5.02,3.87-8.98,6.86-11.87,2.98-2.89,6.13-5,9.44-6.34,3.31-1.34,7.42-2.62,12.32-3.83,5.58-1.37,9.81-2.84,12.68-4.38,2.87-1.54,4.83-3.97,5.88-7.28l1.95-6.16c1.12-3.54.75-6.76-1.09-9.67-1.85-2.91-4.88-5.03-9.1-6.36l-14.73-4.65c-4.57-1.44-8.7-1.08-12.39,1.08-3.7,2.16-6.34,5.75-7.92,10.78l-23.63-7.46c2.31-7.3,5.95-13.28,10.93-17.92,4.98-4.64,10.9-7.58,17.75-8.8,6.85-1.23,14.1-.63,21.75,1.79l14.73,4.65c7.42,2.34,13.53,5.75,18.34,10.22,4.8,4.47,8.01,9.62,9.62,15.47,1.61,5.85,1.4,11.96-.62,18.36l-1.95,6.16c-1.62,5.14-3.86,9.14-6.71,12.01-2.85,2.87-5.81,4.88-8.88,6.05-3.07,1.17-7.04,2.43-11.96,3.57-5.64,1.31-10.08,2.69-13.25,4.38-3.17,1.7-5.44,4.72-6.81,9.05l-.76,2.4-23.63-7.46,1.19-3.77Z"/>
  <path class="cls-1" d="m843.79,242.43c-3.8-.3-7.13-2.13-10.01-5.51-2.87-3.37-4.16-6.95-3.86-10.75.3-3.8,2.14-7.13,5.51-10.01,3.37-2.87,6.95-4.16,10.75-3.86,3.8.3,7.13,2.14,10.01,5.51,2.88,3.37,4.16,6.95,3.86,10.75-.3,3.8-2.14,7.14-5.51,10.01s-6.95,4.16-10.75,3.86Zm-26.19-28.06c-3.42-4.01-5.56-8.04-6.43-12.1-.87-4.06-.99-7.85-.37-11.37.62-3.52,1.71-7.68,3.28-12.48,1.79-5.46,2.79-9.82,3.01-13.07.21-3.25-.8-6.2-3.06-8.84l-4.2-4.92c-2.41-2.82-5.33-4.22-8.78-4.2-3.44.03-6.85,1.48-10.22,4.35l-11.75,10.03c-3.64,3.11-5.53,6.8-5.65,11.08-.13,4.28,1.52,8.42,4.94,12.43l-18.85,16.09c-4.97-5.83-8.11-12.09-9.4-18.77-1.3-6.68-.65-13.26,1.94-19.72,2.59-6.46,6.94-12.29,13.04-17.5l11.75-10.03c5.92-5.05,12.05-8.43,18.38-10.14,6.34-1.71,12.4-1.69,18.21.04,5.81,1.73,10.89,5.15,15.24,10.25l4.2,4.92c3.5,4.1,5.7,8.12,6.62,12.05.92,3.94,1.06,7.52.42,10.73-.64,3.22-1.67,7.25-3.31,12.03-1.88,5.48-3.06,9.97-3.3,13.56-.24,3.59,1.11,7.12,4.07,10.58l1.63,1.91-18.85,16.09-2.56-3.01Z"/>
  <path class="cls-1" d="m923.39,162.48c-2.44-2.93-3.45-6.6-3.05-11.01s2.07-7.84,5-10.27c2.93-2.44,6.6-3.45,11.01-3.05s7.84,2.07,10.27,5c2.44,2.93,3.45,6.6,3.05,11.01s-2.07,7.84-5,10.27c-2.93,2.44-6.6,3.45-11.01,3.05-4.41-.4-7.84-2.07-10.27-5Zm1.79-38.34c.48-5.25,1.87-9.6,4.17-13.05,2.3-3.46,4.92-6.19,7.87-8.21,2.95-2.01,6.69-4.14,11.22-6.37,5.16-2.53,8.98-4.86,11.46-6.98,2.48-2.12,3.88-4.9,4.19-8.36l.59-6.44c.34-3.7-.7-6.77-3.12-9.21-2.42-2.45-5.84-3.87-10.25-4.27l-15.38-1.41c-4.77-.44-8.73.8-11.88,3.69-3.15,2.9-4.97,6.97-5.45,12.22l-24.68-2.26c.7-7.63,2.99-14.24,6.87-19.84,3.88-5.6,9.03-9.72,15.47-12.38,6.43-2.66,13.65-3.62,21.63-2.89l15.38,1.41c7.75.71,14.45,2.74,20.09,6.08,5.65,3.34,9.87,7.7,12.69,13.06,2.82,5.37,3.92,11.39,3.31,18.07l-.59,6.44c-.49,5.37-1.83,9.75-4,13.16-2.18,3.41-4.64,6.01-7.39,7.8-2.75,1.79-6.36,3.87-10.92,6.04-5.23,2.48-9.27,4.77-12.01,7.11-2.74,2.34-4.31,5.77-4.73,10.3l-.23,2.5-24.68-2.26.36-3.94Z"/>
  <path class="cls-1" d="m1045.72,138.05c-3.38-1.76-5.73-4.75-7.07-8.98-1.33-4.22-1.12-8.03.64-11.41,1.76-3.38,4.75-5.73,8.98-7.07,4.22-1.33,8.03-1.12,11.41.64,3.38,1.76,5.73,4.75,7.07,8.98s1.12,8.03-.64,11.41c-1.76,3.38-4.75,5.74-8.98,7.07s-8.03,1.12-11.41-.64Zm-13.16-36.06c-1.58-5.02-1.98-9.57-1.2-13.65.79-4.08,2.15-7.61,4.09-10.61,1.94-2.99,4.57-6.4,7.89-10.21,3.78-4.33,6.4-7.95,7.87-10.86,1.47-2.91,1.68-6.02.64-9.33l-1.94-6.17c-1.12-3.54-3.26-5.97-6.44-7.29-3.18-1.32-6.88-1.31-11.1.02l-14.73,4.64c-4.57,1.44-7.74,4.11-9.53,7.99-1.79,3.89-1.89,8.35-.3,13.37l-23.64,7.45c-2.3-7.31-2.75-14.29-1.33-20.95,1.41-6.66,4.58-12.46,9.49-17.4,4.91-4.94,11.19-8.61,18.84-11.02l14.73-4.64c7.42-2.34,14.38-3.06,20.88-2.16,6.5.9,12.08,3.29,16.75,7.15,4.67,3.86,8.01,8.99,10.03,15.39l1.94,6.17c1.62,5.14,2.08,9.7,1.39,13.68-.69,3.98-1.96,7.33-3.8,10.05-1.84,2.72-4.37,6.03-7.74,9.79-3.87,4.31-6.71,7.98-8.34,11.2-1.62,3.21-1.75,6.99-.38,11.32l.76,2.4-23.64,7.45-1.19-3.77Z"/>
  <path class="cls-1" d="m1160.74,139.13c-3.61-1.21-6.41-3.8-8.38-7.76-1.97-3.96-2.36-7.75-1.15-11.37,1.21-3.61,3.8-6.41,7.76-8.38,3.96-1.97,7.75-2.36,11.37-1.15,3.61,1.21,6.41,3.8,8.38,7.76,1.98,3.97,2.36,7.75,1.15,11.37-1.21,3.61-3.8,6.41-7.76,8.38-3.97,1.98-7.75,2.36-11.37,1.15Zm-18.63-33.56c-2.35-4.71-3.45-9.15-3.31-13.3.14-4.15.93-7.85,2.39-11.12,1.45-3.26,3.52-7.03,6.2-11.32,3.06-4.87,5.08-8.85,6.08-11.96.99-3.1.72-6.21-.83-9.32l-2.88-5.79c-1.65-3.32-4.16-5.39-7.5-6.2-3.35-.81-7-.22-10.97,1.75l-13.83,6.89c-4.29,2.14-7.01,5.27-8.17,9.38-1.16,4.12-.56,8.54,1.79,13.25l-22.18,11.05c-3.42-6.86-4.95-13.69-4.59-20.49.36-6.8,2.57-13.02,6.65-18.66,4.08-5.64,9.71-10.25,16.89-13.83l13.83-6.89c6.96-3.47,13.73-5.27,20.29-5.39,6.56-.12,12.45,1.36,17.66,4.44,5.22,3.09,9.32,7.63,12.31,13.63l2.88,5.79c2.4,4.82,3.57,9.26,3.51,13.3-.06,4.04-.79,7.55-2.18,10.52-1.4,2.97-3.37,6.64-6.12,10.87-3.15,4.86-5.38,8.93-6.48,12.36-1.1,3.43-.64,7.17,1.39,11.25l1.12,2.25-22.18,11.05-1.76-3.54Z"/>
  <path class="cls-1" d="m1217.46,200.97c-3.12-2.18-5.08-5.45-5.85-9.81-.78-4.36-.07-8.1,2.1-11.23,2.18-3.12,5.45-5.07,9.81-5.85,4.36-.78,8.1-.08,11.23,2.1,3.12,2.18,5.07,5.45,5.85,9.81.78,4.36.08,8.1-2.1,11.23-2.18,3.12-5.45,5.08-9.81,5.85-4.36.78-8.1.07-11.23-2.11Zm-8.4-37.45c-.92-5.19-.73-9.75.57-13.69,1.31-3.94,3.11-7.27,5.43-10,2.31-2.72,5.36-5.76,9.14-9.11,4.31-3.81,7.38-7.06,9.21-9.76,1.83-2.7,2.44-5.75,1.83-9.17l-1.13-6.36c-.65-3.65-2.47-6.34-5.45-8.06-2.98-1.72-6.65-2.19-11.01-1.41l-15.21,2.71c-4.72.84-8.21,3.07-10.48,6.7-2.27,3.63-2.95,8.04-2.02,13.22l-24.4,4.35c-1.34-7.54-.88-14.53,1.38-20.95,2.26-6.42,6.14-11.77,11.65-16.03,5.5-4.26,12.2-7.1,20.1-8.51l15.21-2.71c7.66-1.36,14.66-1.18,20.99.55,6.33,1.73,11.56,4.81,15.69,9.25,4.13,4.43,6.79,9.95,7.97,16.55l1.13,6.36c.94,5.3.82,9.89-.38,13.75-1.2,3.86-2.89,7.02-5.06,9.48-2.18,2.46-5.11,5.42-8.94,8.71-4.39,3.78-7.68,7.05-9.71,10.03-2.02,2.98-2.64,6.7-1.84,11.18l.44,2.48-24.4,4.35-.69-3.89Z"/>
</svg>