<?xml version="1.0" encoding="UTF-8"?>
<svg id="Layer_2" data-name="Layer 2" xmlns="http://www.w3.org/2000/svg" viewBox="0 0 1729.46 1629.65">
  <defs>
    <style>
      .cls-1 {
        font-size: 228.5px;
      }

      .cls-1, .cls-2 {
        fill: #3f3f3f;
        font-family: CHULALONGKORN-Bold, CHULALONGKORN;
        font-weight: 700;
      }

      .cls-3 {
        fill: #686868;
      }

      .cls-4 {
        fill: #c1e5e5;
      }

      .cls-5 {
        fill: #bce2ba;
      }

      .cls-6 {
        fill: #d8a9bb;
      }

      .cls-7 {
        fill: #c0d6e2;
      }

      .cls-8 {
        fill: #ddc9b6;
      }

      .cls-9 {
        fill: #c4b6e0;
      }

      .cls-10 {
        fill: #d4b6db;
      }

      .cls-11 {
        fill: #d6aac7;
      }

      .cls-12 {
        fill: #d6b6d0;
      }

      .cls-2 {
        font-size: 198.39px;
      }
    </style>
  </defs>
  <g id="Pavo">
    <g>
      <path class="cls-3" d="m652.54,53.77c10.26-7.24,37.78-2.11,63.37-3.35,10.29-.5,29.74-12.98,46.72-12.98,21.73,0,47.59,15.78,60.24,31.6,13.28,16.6,25.36,44.98,25.36,88.45s-27.03,150.8-51.07,248.1c-26.03,105.34-4.29,170.79,36.23,206.28,31.53,27.62,88,3.19,166.19,25.99,46.06,13.43,130.41,57.01,158.87,75.21-80.05,7.28-143.07,24.8-218.9,60.62-93.87,44.34-141.68,92.91-211.35,92.91-63.45,0-136.36-27.99-171.57-110.19-58.73-137.1,106.46-386.31,150.33-465.49,43.87-79.17,45.01-141.51,44.68-156.37-.66-29.46-26.98-59.04-99.09-80.78Z"/>
      <path class="cls-3" d="m822.53,58.33c32.59-9.08,59.16,2.21,72.36,11.78,17.25,12.5,22.04,28.4,20.51,30.71-.89,1.34-1.66,3.06-16.73-1.27-18.75-5.38-30.25-36.92-76.14-41.22Z"/>
      <path class="cls-3" d="m823.73,53.78c19.19-21.7,43.54-25.95,57.49-25.22,18.21.95,29.06,10.15,29.03,12.52-.02,1.38.23,2.97-12.61,6.88-15.98,4.86-38.93-12.45-73.91,5.82Z"/>
      <path class="cls-3" d="m822.54,50.06c5.42-25.44,22.58-39.51,33.8-45.1,14.66-7.3,27.2-4.9,28.23-3.03.6,1.09,1.49,2.22-6.82,10.94-10.35,10.86-35.93,7.46-55.2,37.19Z"/>
      <path class="cls-11" d="m1518.94,1099.59c-50.75-9.32-124.88-57.69-169.81-103.03-71.56-72.2-245.48-153.91-509.06-131.91,134.96-84.42,330-133.69,467.91-133.69,148.2,0,303.3,93.36,366.69,192.66,31.83,49.86,52.54,138.15,52.82,138.76-14.76,7.61-160.39,46.05-208.54,37.21Z"/>
      <path class="cls-6" d="m1074.48,608.12c61.98-42.77,139.12-69.49,191.39-84.77,99.59-29.11,190.53-31.99,236.47-21.94,1.37.3,2.7.61,4,.93,113.35,28.16,204.8,119.27,223.12,138.71-7.86,7.06-110,66.52-167.03,62.5-64.53-4.55-137.26-28.96-174.1-32.42-75.4-7.09-133.32,2.84-171.45-2.2-38.13-5.05-115.13-45.25-142.4-60.82Z"/>
      <path class="cls-8" d="m999.58,581.66c28.36-56.82,72.14-116.62,123.3-167.83,58.33-58.39,117.84-96.14,159.2-100.97,35.49-4.15,75.33-2.33,115.21,5.26,33.12,6.3,57.3,14.77,66.91,18.84-8.58,15.54-48.89,65.3-93,103.25-12.69,10.92-50.81,20.58-94.94,31.76-81.07,20.54-189.44,48.01-276.67,109.68Z"/>
      <path class="cls-5" d="m910.64,545.64c18.06-93.84,78.17-214.79,109.55-237.92,40.16-29.61,100.46-27.84,128.62-25-.64,16.9-11.23,70.25-25.53,85.72-11.59,12.53-33.62,30.27-59.13,50.82-46.23,37.24-114.58,75.61-153.52,126.38Z"/>
      <path class="cls-4" d="m845.21,517.47c-10.48-76.38-4.44-190.35,13.55-216.15,23.03-33.02,69.56-47.27,91.82-52.38,3.88,13.08,12.48,68.56,5.55,84.08-5.61,12.57-31.84,44.84-46.01,67.15-25.7,40.42-48.29,68.43-64.91,117.31Z"/>
      <path class="cls-12" d="m120.17,855.3c-42.4,0-106.34-30.14-120.17-40.6,7.28-11.64,37.77-52.63,128.28-99.93,20.2-10.56,54-16.37,95.18-16.37,102.67,0,237.48,36.34,307.21,115.58-55.31-17.16-105.29-25.53-152.17-25.53-75.28,0-129.21,21.94-176.8,41.29-23.5,9.56-45.71,18.59-68.42,24.18-3.7.91-8.11,1.37-13.11,1.37h0Z"/>
      <path class="cls-10" d="m492.24,710.26c-28.44-9.37-77.23-25.46-122.9-32.75-51.18-8.17-99.81-7.67-138.54-21.4-24.39-8.65-69.67-57.63-77.96-87.23,14.83-8.21,63.37-30.55,112.63-36.74,10.77-1.35,21.09-1.87,30.65-1.54,25.02.87,69.05,26.24,109.57,63.14,39.32,35.8,69.87,77.16,86.54,116.52Z"/>
      <path class="cls-9" d="m498.53,606.7c-17.31-15.98-53.11-35.71-75.47-51.27-37.35-26-75.61-38.43-82.24-47.92-8.95-12.8-7.12-60.98-4.18-73.89.01,0,.03,0,.04,0,13.16-3.01,53.2-12.16,86.7,17.07,28.42,24.81,55.67,95.48,75.15,156.01Z"/>
      <path class="cls-7" d="m537.51,540.96c-34.73-37.52-65.51-89.23-81.26-118.12-6.27-11.49,8.56-64.79,15.56-80.07,15.74,5.45,45.98,19.72,63.5,52.5,16.49,30.86,5.6,101.47,2.21,145.68Z"/>
      <path class="cls-4" d="m599.08,440.99c-20.99-31.3-38.79-72.06-45.63-95.33-3.93-13.38,13.66-46.2,20.51-56.52,10.83,5.77,31.22,19.63,40.22,45.52,8.47,24.37-7.56,74.53-15.1,106.34Z"/>
    </g>
  </g>
  <g id="Text">
    <g>
      <text class="cls-1" transform="translate(271.6 1322.92)"><tspan x="0" y="0">คณะกรรมการ</tspan></text>
      <text class="cls-2" transform="translate(246.54 1549.5)"><tspan x="0" y="0">นิสิตอักษรศาสตร์</tspan></text>
    </g>
  </g>
</svg>