<?xml version="1.0" encoding="UTF-8"?>
<svg xmlns="http://www.w3.org/2000/svg" xmlns:xlink="http://www.w3.org/1999/xlink" viewBox="0 0 1280 300">
  <defs>
    <style>
      .cls-1 {
        fill: url(#linear-gradient);
      }

      .cls-2 {
        fill: #f2f2f2;
      }

      .cls-3 {
        fill: #f8e1ea;
      }

      .cls-4 {
        fill: #de5c8e;
      }

      .cls-5 {
        fill: #3fa9f5;
      }
    </style>
    <linearGradient id="linear-gradient" x1="61.5" y1="498.5" x2="276.5" y2="498.5" gradientTransform="translate(471 -241)" gradientUnits="userSpaceOnUse">
      <stop offset="0" stop-color="#fff" stop-opacity="0"/>
      <stop offset="1" stop-color="#000"/>
    </linearGradient>
  </defs>
  <g id="Layer_1" data-name="Layer 1">
    <rect class="cls-3" x="-42" y="-39" width="1414" height="391"/>
    <path class="cls-4" d="m-1.02,1.43l14.86-39.97-15.49-5.76,3.5-9.42c2.15.87,4.31,1.49,6.47,1.86,2.17.37,4.24.37,6.21,0,1.97-.37,3.81-1.14,5.52-2.31,1.7-1.17,3.17-2.86,4.39-5.08l9.95,3.7L11.48,6.08-1.02,1.43Z"/>
    <g>
      <path class="cls-4" d="m69,38.51c.47-1.39.61-2.8.44-4.22-.18-1.42-.63-2.8-1.36-4.15-.73-1.35-1.67-2.6-2.82-3.76-1.06-1.06-2.28-1.95-3.65-2.66-1.37-.71-2.79-1.15-4.25-1.33-1.46-.18-2.9-.05-4.32.39-1.42.44-2.72,1.26-3.92,2.45-1.11,1.11-1.86,2.35-2.26,3.72-.4,1.37-.51,2.77-.34,4.18.17,1.42.62,2.79,1.32,4.12.71,1.33,1.59,2.53,2.65,3.59s2.32,2.04,3.65,2.79c1.33.75,2.69,1.25,4.08,1.5,1.39.25,2.8.17,4.22-.23,1.42-.4,2.72-1.19,3.92-2.39,1.28-1.28,2.16-2.62,2.63-4.01Zm7.18,23.15c2.26.05,4.21-.75,5.85-2.38,1.73-1.72,2.65-3.64,2.76-5.74.11-2.1-.22-4.21-.99-6.31-.77-2.1-1.83-4.12-3.18-6.05-1.35-1.93-2.62-3.58-3.81-4.95h-.27c.57,3.14.39,5.98-.54,8.5-.93,2.52-2.53,4.91-4.79,7.17-1.99,1.99-4.38,3.5-7.14,4.54-2.77,1.04-5.55,1.51-8.34,1.35s-5.18-.89-7.57-2.13c-2.39-1.24-4.51-2.79-6.37-4.66-2.39-2.39-4.22-5.01-5.5-7.84-1.28-2.83-1.96-5.74-2.05-8.7-.09-2.97.43-5.89,1.54-8.76,1.11-2.88,2.88-5.53,5.32-7.96,3.55-3.54,7.16-5.75,10.83-6.63,3.68-.88,7.34-.87,10.99.05,3.65.91,7.18,2.54,10.59,4.89,3.41,2.35,6.57,4.99,9.49,7.91s5.42,6.09,7.63,9.64c2.21,3.55,3.74,7.21,4.6,11,.86,3.79.85,7.55-.01,11.29-.87,3.74-2.96,7.27-6.29,10.59-1.99,1.99-4.13,3.57-6.41,4.74s-4.64,1.87-7.08,2.08c-2.43.22-4.87-.05-7.3-.81-2.43-.75-4.8-2.02-7.1-3.79l8.98-8.96c1.86,1.24,3.92,1.89,6.17,1.93Z"/>
      <path class="cls-4" d="m124.36,29.37L94.24-.81l-11.7,11.68-7.1-7.11c1.68-1.59,3.15-3.29,4.39-5.11,1.24-1.81,2.11-3.69,2.6-5.64.49-1.95.56-3.94.21-5.98-.35-2.04-1.28-4.07-2.78-6.11l7.51-7.5,46.44,46.54-9.44,9.42Z"/>
    </g>
    <g>
      <path class="cls-4" d="m237.42,119.86c1.47.05,2.86-.21,4.17-.78,1.31-.57,2.51-1.4,3.59-2.48,1.09-1.08,2.02-2.34,2.8-3.77.72-1.32,1.22-2.74,1.51-4.26.29-1.52.31-3,.07-4.45-.25-1.45-.78-2.79-1.61-4.03-.83-1.23-1.98-2.25-3.47-3.06-1.38-.75-2.78-1.12-4.21-1.11-1.43,0-2.8.3-4.11.87-1.31.57-2.5,1.39-3.57,2.44-1.07,1.06-1.97,2.24-2.68,3.56s-1.29,2.81-1.64,4.29c-.35,1.49-.44,2.93-.27,4.34.16,1.41.64,2.73,1.42,3.98.78,1.25,1.92,2.27,3.41,3.08,1.6.87,3.13,1.32,4.6,1.37Zm-20.15,13.48c.6,2.18,1.92,3.82,3.95,4.92,2.15,1.16,4.24,1.5,6.29,1.01,2.05-.49,3.97-1.41,5.77-2.75,1.8-1.34,3.43-2.93,4.89-4.77,1.46-1.84,2.68-3.53,3.66-5.07l-.07-.25c-2.85,1.44-5.62,2.08-8.3,1.9-2.68-.18-5.43-1.02-8.23-2.55-2.48-1.34-4.61-3.2-6.39-5.55-1.78-2.36-3.03-4.89-3.67-7.6s-.62-5.22-.11-7.86c.51-2.64,1.39-5.12,2.65-7.43,1.61-2.97,3.6-5.47,5.95-7.51,2.35-2.04,4.94-3.52,7.76-4.44,2.82-.93,5.76-1.27,8.84-1.02,3.07.24,6.12,1.19,9.15,2.83,4.4,2.39,7.55,5.22,9.44,8.49,1.89,3.27,2.92,6.79,3.09,10.55.17,3.76-.39,7.61-1.67,11.54-1.28,3.94-2.91,7.72-4.88,11.35s-4.3,6.93-7.06,10.06c-2.77,3.13-5.84,5.64-9.23,7.55-3.38,1.9-6.99,2.97-10.82,3.21-3.83.23-7.81-.77-11.94-3.01-2.48-1.34-4.6-2.94-6.37-4.8-1.77-1.85-3.11-3.92-4.01-6.19-.9-2.27-1.34-4.68-1.31-7.23.03-2.55.57-5.18,1.61-7.89l11.14,6.05c-.66,2.13-.69,4.29-.09,6.47Z"/>
      <path class="cls-4" d="m261.96,170.32l20.35-37.47-14.53-7.89,4.8-8.83c2,1.16,4.05,2.08,6.15,2.75,2.09.67,4.14.97,6.15.88,2.01-.09,3.93-.59,5.79-1.51,1.85-.92,3.54-2.39,5.07-4.41l9.33,5.06-31.37,57.77-11.72-6.36Z"/>
    </g>
    <g>
      <path class="cls-4" d="m62.74,176.22c1.13.95,2.38,1.6,3.76,1.95,1.38.36,2.84.45,4.36.26,1.52-.18,3.03-.6,4.53-1.24,1.38-.6,2.65-1.4,3.82-2.42,1.16-1.01,2.1-2.17,2.8-3.46.7-1.29,1.11-2.68,1.22-4.16.11-1.48-.17-3-.84-4.55-.62-1.44-1.5-2.59-2.63-3.47-1.13-.88-2.39-1.49-3.77-1.85-1.38-.36-2.82-.45-4.32-.28-1.5.17-2.93.55-4.31,1.15s-2.75,1.41-3.94,2.37c-1.19.96-2.15,2.04-2.89,3.25-.74,1.21-1.19,2.54-1.34,4.01-.15,1.46.11,2.97.78,4.52.72,1.67,1.64,2.97,2.77,3.92Zm-24.17-1.83c-.87,2.08-.85,4.19.07,6.31.97,2.24,2.41,3.8,4.32,4.68,1.91.88,3.99,1.34,6.23,1.4,2.24.06,4.5-.19,6.79-.74,2.29-.55,4.29-1.12,6.01-1.73l.1-.25c-3.13-.62-5.7-1.83-7.71-3.63-2-1.79-3.64-4.16-4.91-7.09-1.12-2.59-1.65-5.36-1.6-8.31.05-2.96.63-5.72,1.81-8.25,1.12-2.41,2.73-4.49,4.76-6.26,2.03-1.77,4.26-3.17,6.67-4.21,3.1-1.34,6.21-2.09,9.32-2.24,3.11-.15,6.06.28,8.85,1.29,2.79,1.01,5.32,2.56,7.59,4.65,2.27,2.09,4.08,4.71,5.45,7.88,1.99,4.6,2.72,8.77,2.19,12.51-.53,3.74-1.89,7.14-4.08,10.2-2.19,3.06-5,5.74-8.44,8.05-3.44,2.3-7.05,4.28-10.85,5.92-3.74,1.62-7.66,2.8-11.77,3.55-4.11.75-8.08.83-11.92.24-3.84-.59-7.34-1.98-10.5-4.16-3.16-2.18-5.67-5.43-7.54-9.74-1.12-2.59-1.8-5.16-2.05-7.71s-.03-5,.66-7.35c.69-2.34,1.84-4.51,3.43-6.5,1.6-1.99,3.64-3.72,6.14-5.21l5.03,11.64c-1.84,1.27-3.19,2.95-4.07,5.03Z"/>
      <path class="cls-4" d="m50.9,231.07l39.14-16.92-6.56-15.17,9.22-3.99c.86,2.15,1.91,4.14,3.14,5.96,1.23,1.82,2.66,3.32,4.29,4.49,1.63,1.17,3.46,1.97,5.48,2.39,2.02.42,4.26.31,6.71-.34l4.21,9.74-60.35,26.09-5.29-12.24Z"/>
    </g>
    <path class="cls-4" d="m15.77,267.36l-10.51-41.32-16.02,4.08-2.48-9.74c2.26-.51,4.39-1.23,6.38-2.16,1.99-.93,3.7-2.1,5.11-3.53,1.41-1.43,2.49-3.1,3.23-5.04.73-1.93.98-4.16.72-6.68l10.28-2.62,16.21,63.71-12.92,3.29Z"/>
    <path class="cls-4" d="m30.11,312.75c1.47-.01,2.85-.33,4.13-.96,1.28-.63,2.45-1.5,3.49-2.63,1.04-1.13,1.92-2.42,2.64-3.89.66-1.35,1.1-2.79,1.33-4.32.23-1.53.19-3.01-.12-4.45-.31-1.44-.9-2.76-1.77-3.96-.88-1.2-2.08-2.17-3.59-2.91-1.41-.69-2.82-1-4.25-.93-1.43.07-2.78.41-4.07,1.04-1.28.63-2.44,1.49-3.47,2.59-1.03,1.1-1.87,2.32-2.53,3.67s-1.18,2.86-1.46,4.36c-.28,1.5-.31,2.95-.09,4.35.22,1.4.75,2.7,1.59,3.91.83,1.21,2.01,2.19,3.53,2.93,1.63.8,3.18,1.19,4.65,1.18Zm-19.56,14.31c.69,2.15,2.07,3.74,4.15,4.76,2.19,1.07,4.3,1.32,6.33.75,2.02-.58,3.91-1.57,5.65-2.98,1.74-1.41,3.3-3.07,4.69-4.97,1.38-1.9,2.53-3.64,3.44-5.21l-.09-.25c-2.79,1.56-5.53,2.31-8.21,2.25-2.69-.06-5.47-.8-8.33-2.2-2.53-1.24-4.74-3-6.62-5.28-1.88-2.28-3.23-4.75-3.99-7.44s-.84-5.19-.44-7.85c.4-2.66,1.18-5.18,2.33-7.54,1.49-3.04,3.36-5.62,5.63-7.75,2.26-2.13,4.79-3.72,7.56-4.76,2.78-1.04,5.71-1.51,8.79-1.39,3.08.12,6.17.93,9.26,2.45,4.5,2.2,7.76,4.9,9.79,8.09,2.03,3.19,3.2,6.66,3.53,10.41.32,3.75-.07,7.62-1.19,11.6-1.12,3.99-2.58,7.83-4.4,11.54s-4,7.1-6.64,10.34c-2.63,3.24-5.6,5.88-8.91,7.92-3.3,2.04-6.86,3.26-10.68,3.66-3.82.39-7.84-.44-12.05-2.51-2.53-1.24-4.72-2.75-6.57-4.53s-3.27-3.78-4.27-6.01c-1-2.23-1.54-4.62-1.61-7.17-.08-2.55.35-5.2,1.28-7.95l11.39,5.58c-.57,2.16-.51,4.32.18,6.47Z"/>
    <path class="cls-4" d="m221.74,25.49l35.95-22.94-8.89-13.93,8.47-5.41c1.19,1.99,2.54,3.78,4.05,5.38,1.5,1.6,3.16,2.85,4.95,3.75,1.8.9,3.73,1.39,5.79,1.48,2.06.09,4.25-.38,6.57-1.41l5.71,8.95-55.42,35.36-7.17-11.24Z"/>
    <g>
      <path class="cls-4" d="m138.71,41.73c1.08-1,1.89-2.16,2.42-3.48.53-1.33.8-2.76.82-4.29.01-1.53-.2-3.08-.65-4.65-.42-1.44-1.05-2.81-1.91-4.09-.86-1.28-1.88-2.36-3.08-3.22-1.19-.86-2.52-1.44-3.97-1.74-1.45-.3-2.99-.21-4.62.25-1.5.43-2.76,1.15-3.78,2.16-1.01,1.01-1.79,2.18-2.32,3.5-.53,1.33-.81,2.74-.83,4.25-.02,1.51.17,2.98.59,4.42s1.05,2.91,1.85,4.21c.8,1.3,1.75,2.4,2.85,3.28,1.1.89,2.37,1.5,3.8,1.84,1.43.34,2.96.27,4.59-.2,1.74-.5,3.16-1.25,4.24-2.25Zm-4.89,23.74c1.95,1.13,4.04,1.38,6.27.74,2.35-.68,4.08-1.91,5.19-3.69,1.11-1.79,1.84-3.79,2.18-6,.34-2.21.38-4.49.14-6.83-.25-2.34-.57-4.4-.95-6.18l-.23-.13c-1.02,3.03-2.54,5.42-4.58,7.18-2.04,1.76-4.59,3.08-7.66,3.96-2.71.78-5.52.95-8.45.53-2.93-.43-5.59-1.35-7.95-2.84s-4.1-3.28-5.6-5.52c-1.49-2.24-2.6-4.63-3.33-7.15-.94-3.25-1.28-6.42-1.03-9.52.25-3.1,1.05-5.97,2.41-8.61,1.36-2.64,3.22-4.95,5.58-6.93,2.36-1.98,5.2-3.45,8.51-4.4,4.81-1.39,9.04-1.58,12.69-.57,3.64,1,6.84,2.79,9.6,5.35,2.76,2.56,5.06,5.7,6.91,9.4,1.85,3.7,3.34,7.54,4.49,11.51s1.8,7.95,2.02,12.12c.22,4.17-.2,8.12-1.28,11.85-1.08,3.73-2.9,7.02-5.46,9.88-2.57,2.86-6.11,4.93-10.62,6.23-2.71.78-5.34,1.13-7.91,1.05s-4.96-.61-7.2-1.59c-2.24-.98-4.24-2.4-6.01-4.23-1.77-1.84-3.23-4.09-4.39-6.75l12.18-3.51c1.03,1.99,2.52,3.54,4.47,4.67Z"/>
      <path class="cls-4" d="m191.6,60.47l-11.79-40.98-15.88,4.57-2.78-9.66c2.24-.58,4.35-1.36,6.31-2.35,1.96-.99,3.63-2.22,5-3.69,1.37-1.47,2.39-3.18,3.07-5.13.67-1.95.85-4.19.52-6.7l10.2-2.94,18.18,63.18-12.82,3.69Z"/>
    </g>
    <g>
      <path class="cls-4" d="m155.75,110.83c-.08-1.47-.46-2.83-1.14-4.08-.68-1.25-1.61-2.38-2.78-3.37-1.17-.99-2.51-1.81-4-2.46-1.38-.6-2.83-.98-4.37-1.14-1.54-.16-3.02-.05-4.44.31-1.42.37-2.71,1.02-3.87,1.95-1.16.93-2.07,2.17-2.75,3.72-.63,1.44-.87,2.86-.75,4.29.13,1.42.54,2.76,1.22,4.02.68,1.25,1.6,2.37,2.74,3.35,1.14.98,2.4,1.77,3.78,2.37s2.91,1.05,4.42,1.26c1.51.22,2.96.18,4.35-.1,1.39-.28,2.67-.87,3.84-1.76,1.17-.89,2.1-2.11,2.77-3.66.73-1.66,1.05-3.23.98-4.7Zm15.16,18.92c2.12-.78,3.64-2.24,4.57-4.36.98-2.24,1.13-4.35.47-6.35-.66-2-1.74-3.83-3.23-5.51-1.49-1.67-3.21-3.16-5.17-4.46-1.96-1.3-3.75-2.37-5.36-3.21l-.25.1c1.68,2.72,2.55,5.42,2.61,8.11.06,2.69-.56,5.5-1.83,8.42-1.13,2.58-2.79,4.86-4.99,6.84-2.2,1.98-4.61,3.44-7.26,4.31s-5.14,1.07-7.82.79c-2.68-.28-5.22-.95-7.63-2-3.1-1.35-5.76-3.11-7.99-5.28-2.23-2.17-3.93-4.62-5.09-7.35-1.17-2.73-1.76-5.64-1.78-8.72-.02-3.08.66-6.2,2.04-9.36,2-4.59,4.56-7.97,7.65-10.13,3.1-2.17,6.51-3.49,10.24-3.98,3.73-.49,7.61-.26,11.64.68,4.03.94,7.94,2.24,11.73,3.89s7.27,3.69,10.63,6.18c3.35,2.49,6.12,5.34,8.31,8.55,2.19,3.21,3.56,6.71,4.12,10.51.56,3.8-.1,7.85-1.98,12.15-1.13,2.58-2.54,4.84-4.23,6.76-1.69,1.92-3.63,3.43-5.82,4.53-2.19,1.09-4.55,1.74-7.09,1.92-2.54.19-5.21-.12-8-.93l5.07-11.62c2.18.48,4.33.32,6.45-.46Z"/>
      <path class="cls-4" d="m203.92,82.06l-39.08-17.06-6.61,15.15-9.21-4.02c.98-2.1,1.72-4.22,2.21-6.36.49-2.14.61-4.21.35-6.2-.26-1.99-.92-3.87-2-5.64-1.07-1.77-2.68-3.32-4.83-4.67l4.25-9.73,60.25,26.31-5.34,12.22Z"/>
    </g>
    <g>
      <path class="cls-4" d="m186.87,177.13c1.43.34,2.84.37,4.24.07,1.4-.3,2.74-.87,4.02-1.71,1.28-.84,2.45-1.89,3.5-3.13.97-1.15,1.74-2.44,2.33-3.87.59-1.43.91-2.88.96-4.35.05-1.47-.21-2.89-.77-4.27-.56-1.37-1.49-2.6-2.79-3.69-1.2-1.01-2.5-1.65-3.9-1.93-1.4-.28-2.8-.27-4.2.03-1.4.3-2.73.86-3.99,1.68-1.26.82-2.38,1.8-3.34,2.95s-1.83,2.49-2.46,3.88c-.64,1.39-1.02,2.79-1.14,4.2-.12,1.41.07,2.81.59,4.18.52,1.38,1.43,2.61,2.72,3.7,1.39,1.17,2.8,1.92,4.23,2.27Zm-22.44,9.17c.15,2.25,1.11,4.13,2.88,5.62,1.87,1.57,3.85,2.32,5.96,2.25,2.1-.07,4.17-.58,6.2-1.53,2.03-.95,3.94-2.19,5.75-3.7,1.8-1.51,3.33-2.92,4.6-4.23l-.02-.26c-3.08.84-5.92.91-8.51.2-2.59-.71-5.11-2.09-7.56-4.15-2.16-1.81-3.87-4.05-5.15-6.72-1.27-2.67-1.99-5.39-2.07-8.19s.44-5.24,1.47-7.73c1.03-2.49,2.39-4.74,4.08-6.75,2.18-2.59,4.62-4.64,7.33-6.16,2.71-1.52,5.54-2.46,8.49-2.8,2.95-.34,5.9-.09,8.86.77,2.96.86,5.76,2.39,8.4,4.61,3.83,3.22,6.35,6.63,7.55,10.21,1.2,3.58,1.5,7.24.91,10.95-.59,3.72-1.91,7.38-3.95,10.97-2.05,3.6-4.4,6.98-7.06,10.14-2.62,3.12-5.6,5.93-8.94,8.44-3.34,2.51-6.86,4.36-10.55,5.54-3.7,1.19-7.45,1.51-11.25.97-3.8-.54-7.5-2.32-11.09-5.34-2.16-1.81-3.92-3.81-5.28-5.98s-2.26-4.46-2.69-6.87c-.43-2.41-.37-4.86.17-7.35.54-2.49,1.59-4.96,3.16-7.4l9.7,8.16c-1.08,1.96-1.54,4.07-1.39,6.32Z"/>
      <path class="cls-4" d="m200.79,231.49l27.45-32.63-12.65-10.64,6.47-7.69c1.73,1.54,3.56,2.85,5.47,3.93,1.91,1.08,3.86,1.78,5.85,2.1,1.98.32,3.97.21,5.97-.32,2-.53,3.95-1.63,5.85-3.3l8.12,6.83-42.32,50.31-10.21-8.58Z"/>
    </g>
    <g>
      <path class="cls-4" d="m150.44,254.19c1.39-.49,2.58-1.23,3.6-2.24,1.01-1.01,1.83-2.21,2.45-3.62.62-1.4,1.03-2.91,1.24-4.53.19-1.49.14-2.99-.14-4.51-.28-1.52-.8-2.91-1.55-4.17-.76-1.26-1.74-2.32-2.96-3.17-1.22-.85-2.67-1.38-4.34-1.59-1.55-.2-2.99-.03-4.32.49-1.33.53-2.5,1.29-3.51,2.3-1.01,1.01-1.83,2.2-2.44,3.57-.62,1.37-1.02,2.81-1.21,4.3s-.19,3.09.03,4.6c.22,1.51.66,2.89,1.32,4.14.66,1.25,1.58,2.32,2.77,3.19,1.18.88,2.61,1.42,4.29,1.63,1.8.23,3.4.1,4.78-.39Zm-13.88,19.87c1.35,1.81,3.17,2.86,5.47,3.15,2.42.31,4.5-.14,6.23-1.34,1.73-1.2,3.19-2.75,4.38-4.65,1.19-1.9,2.13-3.97,2.82-6.22.69-2.25,1.22-4.26,1.57-6.05l-.16-.21c-2.13,2.38-4.48,3.98-7.04,4.79-2.56.81-5.43,1.02-8.6.61-2.8-.35-5.45-1.31-7.97-2.86-2.52-1.55-4.6-3.45-6.18-5.75s-2.47-4.64-2.96-7.29c-.49-2.65-.56-5.28-.23-7.89.43-3.35,1.36-6.41,2.82-9.16,1.45-2.75,3.32-5.07,5.62-6.96,2.29-1.89,4.91-3.27,7.86-4.16,2.95-.89,6.14-1.11,9.55-.68,4.97.63,8.93,2.13,11.88,4.49,2.95,2.36,5.19,5.27,6.71,8.71,1.52,3.44,2.4,7.23,2.63,11.36.23,4.13.09,8.25-.43,12.35s-1.49,8.02-2.93,11.94c-1.44,3.92-3.4,7.38-5.86,10.38-2.46,3-5.44,5.31-8.92,6.92-3.49,1.61-7.56,2.12-12.22,1.53-2.8-.35-5.35-1.07-7.68-2.16s-4.32-2.52-5.99-4.31c-1.67-1.79-2.95-3.88-3.84-6.26-.9-2.39-1.35-5.03-1.36-7.94l12.58,1.59c.16,2.23.91,4.25,2.26,6.06Z"/>
      <path class="cls-4" d="m191.62,292.31l5.36-42.3-16.4-2.08,1.26-9.97c2.29.35,4.53.47,6.73.33,2.19-.13,4.21-.6,6.05-1.41,1.84-.81,3.45-1.98,4.85-3.5,1.39-1.53,2.43-3.51,3.12-5.95l10.53,1.33-8.27,65.22-13.23-1.68Z"/>
    </g>
    <g>
      <path class="cls-4" d="m242.68,310.13c1.31-.68,2.39-1.58,3.25-2.72.86-1.14,1.5-2.45,1.92-3.92.42-1.48.62-3.03.59-4.66-.02-1.5-.28-2.99-.77-4.45-.49-1.46-1.2-2.77-2.12-3.92-.92-1.15-2.05-2.05-3.37-2.72-1.32-.67-2.83-.99-4.52-.97-1.57.02-2.97.39-4.21,1.09-1.24.71-2.3,1.63-3.16,2.77-.86,1.14-1.5,2.43-1.92,3.88-.42,1.45-.62,2.92-.6,4.42s.24,3.08.67,4.55c.43,1.47,1.06,2.77,1.89,3.92.83,1.15,1.89,2.07,3.19,2.77,1.29.7,2.79,1.04,4.48,1.02,1.82-.02,3.38-.38,4.68-1.05Zm-10.97,21.61c1.59,1.61,3.54,2.39,5.86,2.36,2.44-.03,4.43-.76,5.98-2.2,1.55-1.43,2.77-3.17,3.69-5.22.91-2.05,1.55-4.23,1.93-6.55.37-2.32.61-4.39.71-6.21l-.19-.19c-1.78,2.65-3.88,4.56-6.31,5.72-2.43,1.16-5.24,1.76-8.43,1.81-2.82.04-5.58-.53-8.29-1.72-2.71-1.18-5.04-2.78-6.92-4.84s-3.1-4.25-3.94-6.8c-.85-2.56-1.29-5.15-1.33-7.78-.05-3.38.46-6.53,1.51-9.46,1.05-2.93,2.59-5.48,4.59-7.67,2-2.19,4.41-3.93,7.21-5.22,2.8-1.29,5.92-1.96,9.37-2.01,5.01-.07,9.14.86,12.39,2.79,3.25,1.93,5.87,4.49,7.85,7.69,1.98,3.2,3.38,6.83,4.19,10.89.81,4.06,1.24,8.16,1.3,12.29s-.36,8.15-1.24,12.23c-.88,4.08-2.34,7.78-4.36,11.1-2.02,3.32-4.65,6.01-7.87,8.09-3.23,2.08-7.19,3.15-11.88,3.22-2.82.04-5.45-.32-7.9-1.07s-4.63-1.89-6.53-3.43c-1.9-1.54-3.46-3.43-4.68-5.67-1.22-2.24-2.04-4.79-2.45-7.67l12.68-.17c.47,2.19,1.5,4.08,3.08,5.69Z"/>
      <path class="cls-4" d="m288.77,342.14l-.59-42.64-16.53.23-.14-10.05c2.32.03,4.55-.17,6.71-.61,2.15-.44,4.08-1.18,5.79-2.24,1.71-1.06,3.14-2.44,4.31-4.14,1.17-1.71,1.92-3.81,2.26-6.32l10.61-.15.9,65.74-13.34.18Z"/>
    </g>
    <path class="cls-4" d="m348.4-22.62c.26-1.45.2-2.86-.18-4.23-.38-1.38-1.03-2.68-1.95-3.91-.92-1.23-2.03-2.33-3.33-3.31-1.2-.9-2.54-1.6-4-2.1-1.46-.5-2.93-.74-4.4-.7-1.47.04-2.87.38-4.21,1.02-1.34.64-2.51,1.64-3.52,3-.94,1.26-1.5,2.59-1.7,4.01-.2,1.42-.1,2.81.28,4.19.38,1.38,1.02,2.67,1.91,3.88.89,1.21,1.94,2.27,3.15,3.17s2.59,1.68,4.02,2.23c1.42.55,2.84.85,4.26.89,1.42.04,2.8-.24,4.14-.84,1.34-.6,2.52-1.58,3.53-2.93,1.08-1.46,1.76-2.91,2.02-4.35Zm10.47,21.86c2.24-.28,4.05-1.35,5.44-3.21,1.46-1.96,2.09-3.98,1.9-6.08-.19-2.1-.83-4.13-1.9-6.1-1.07-1.97-2.41-3.81-4.03-5.52-1.61-1.71-3.11-3.16-4.49-4.34l-.26.04c1.02,3.03,1.26,5.86.7,8.49-.56,2.63-1.79,5.23-3.7,7.79-1.68,2.26-3.82,4.1-6.41,5.53-2.59,1.43-5.27,2.31-8.05,2.55s-5.25-.13-7.8-1.01c-2.54-.88-4.87-2.11-6.98-3.68-2.71-2.02-4.91-4.34-6.58-6.96-1.68-2.62-2.78-5.39-3.29-8.31-.52-2.92-.43-5.89.25-8.89.68-3.01,2.05-5.89,4.11-8.65,2.99-4.02,6.24-6.73,9.75-8.13,3.51-1.41,7.14-1.92,10.88-1.55,3.75.37,7.47,1.47,11.19,3.3,3.71,1.83,7.23,3.98,10.54,6.45s6.25,5.24,8.95,8.43c2.7,3.19,4.75,6.59,6.15,10.21,1.4,3.62,1.94,7.35,1.63,11.17-.32,3.83-1.87,7.62-4.68,11.39-1.68,2.26-3.57,4.13-5.66,5.62s-4.32,2.52-6.7,3.09c-2.38.57-4.83.66-7.34.27-2.52-.39-5.04-1.3-7.58-2.72l7.58-10.17c2.02.96,4.15,1.3,6.39,1.01Z"/>
    <g>
      <path class="cls-4" d="m300.06,44.44c.19-1.46.05-2.86-.39-4.22-.45-1.36-1.16-2.62-2.14-3.81-.98-1.18-2.14-2.23-3.5-3.13-1.25-.84-2.61-1.47-4.1-1.9-1.48-.43-2.96-.59-4.43-.48-1.47.11-2.85.52-4.16,1.23-1.3.71-2.43,1.77-3.37,3.17-.87,1.3-1.37,2.66-1.5,4.09-.12,1.43.04,2.81.48,4.17.45,1.36,1.15,2.62,2.1,3.78.95,1.17,2.05,2.17,3.3,3s2.68,1.55,4.12,2.03c1.45.48,2.88.71,4.3.67,1.42-.03,2.78-.38,4.09-1.05,1.31-.66,2.44-1.7,3.38-3.1,1.01-1.51,1.61-2.99,1.8-4.45Zm11.55,21.31c2.22-.39,3.98-1.55,5.27-3.48,1.36-2.03,1.89-4.08,1.59-6.17-.3-2.08-1.03-4.08-2.2-6-1.17-1.91-2.6-3.68-4.3-5.31-1.7-1.63-3.27-3-4.7-4.11l-.26.05c1.17,2.97,1.55,5.79,1.13,8.44-.42,2.66-1.52,5.31-3.3,7.96-1.57,2.34-3.61,4.29-6.12,5.85-2.51,1.56-5.15,2.57-7.91,2.95s-5.25.14-7.84-.62c-2.59-.75-4.97-1.86-7.16-3.33-2.81-1.88-5.12-4.09-6.93-6.62-1.81-2.53-3.04-5.24-3.71-8.14-.66-2.89-.73-5.86-.2-8.9.53-3.04,1.75-5.99,3.67-8.85,2.79-4.16,5.9-7.03,9.33-8.61,3.43-1.58,7.03-2.28,10.79-2.1,3.76.18,7.54,1.1,11.34,2.74,3.8,1.64,7.42,3.61,10.85,5.91s6.5,4.92,9.36,7.97c2.86,3.05,5.08,6.34,6.66,9.89,1.58,3.55,2.31,7.24,2.19,11.08-.12,3.84-1.49,7.71-4.1,11.61-1.57,2.34-3.36,4.31-5.37,5.9s-4.19,2.73-6.53,3.42c-2.35.69-4.79.9-7.32.63-2.53-.27-5.1-1.05-7.7-2.34l7.06-10.53c2.06.86,4.21,1.09,6.43.69Z"/>
      <path class="cls-4" d="m352.58,24.69L317.16.96l-9.2,13.73-8.35-5.59c1.34-1.89,2.45-3.84,3.31-5.87.87-2.02,1.35-4.03,1.45-6.04.1-2-.22-3.97-.96-5.9-.74-1.93-2.05-3.75-3.92-5.45l5.91-8.82,54.61,36.6-7.42,11.08Z"/>
    </g>
    <g>
      <path class="cls-4" d="m363.99,181.21c1.41-.41,2.65-1.1,3.71-2.05,1.06-.95,1.94-2.11,2.63-3.48.69-1.37,1.18-2.86,1.47-4.46.27-1.48.3-2.98.1-4.52-.2-1.53-.65-2.95-1.33-4.25-.69-1.3-1.62-2.41-2.79-3.32-1.17-.91-2.59-1.52-4.25-1.82-1.54-.28-2.99-.19-4.34.27-1.36.46-2.56,1.16-3.63,2.11-1.06.95-1.94,2.1-2.62,3.44-.69,1.34-1.16,2.75-1.43,4.23s-.35,3.07-.21,4.59c.14,1.52.51,2.92,1.1,4.21.59,1.29,1.46,2.4,2.6,3.33,1.13.94,2.53,1.55,4.2,1.86,1.79.32,3.39.28,4.8-.14Zm-14.9,19.12c1.25,1.88,3.02,3.03,5.3,3.44,2.4.43,4.5.1,6.29-1.01,1.79-1.11,3.33-2.58,4.61-4.42,1.29-1.83,2.33-3.86,3.15-6.06.81-2.21,1.44-4.19,1.89-5.96l-.15-.22c-2.26,2.27-4.68,3.74-7.29,4.41-2.6.67-5.48.73-8.62.16-2.77-.5-5.38-1.59-7.81-3.27-2.43-1.68-4.41-3.69-5.87-6.07s-2.23-4.76-2.57-7.43c-.35-2.67-.28-5.3.18-7.89.6-3.33,1.7-6.33,3.29-9,1.59-2.67,3.59-4.89,5.97-6.65,2.39-1.76,5.08-3.01,8.07-3.74,2.99-.73,6.19-.79,9.58-.18,4.93.89,8.8,2.59,11.63,5.1,2.82,2.51,4.9,5.53,6.24,9.05,1.34,3.52,2.01,7.35,2.03,11.49.02,4.14-.34,8.24-1.08,12.31s-1.91,7.93-3.55,11.77c-1.65,3.84-3.78,7.19-6.4,10.06-2.62,2.87-5.71,5.01-9.27,6.44-3.57,1.42-7.66,1.72-12.28.89-2.77-.5-5.29-1.35-7.56-2.56s-4.18-2.74-5.75-4.62c-1.57-1.87-2.74-4.03-3.51-6.46-.77-2.43-1.08-5.09-.94-8l12.48,2.25c.04,2.23.69,4.29,1.94,6.17Z"/>
      <path class="cls-4" d="m403.11,221.43l7.57-41.96-16.27-2.94,1.78-9.89c2.27.47,4.5.7,6.7.68,2.2-.02,4.24-.38,6.11-1.09,1.88-.71,3.55-1.79,5.02-3.24,1.47-1.45,2.61-3.38,3.43-5.78l10.44,1.88-11.68,64.7-13.12-2.37Z"/>
    </g>
    <g>
      <path class="cls-4" d="m359.06,241.85c1.11.96,2.35,1.63,3.73,2.02,1.38.38,2.83.49,4.36.33,1.53-.16,3.04-.55,4.55-1.17,1.39-.57,2.67-1.36,3.85-2.36,1.18-1,2.13-2.13,2.86-3.42.72-1.28,1.15-2.66,1.29-4.14.13-1.48-.12-3-.77-4.56-.6-1.45-1.45-2.62-2.57-3.51-1.12-.89-2.36-1.53-3.74-1.91-1.38-.38-2.81-.5-4.31-.35-1.5.14-2.94.5-4.33,1.08s-2.77,1.37-3.98,2.3c-1.21.94-2.19,2-2.95,3.2-.76,1.19-1.23,2.52-1.4,3.98-.18,1.46.06,2.97.71,4.54.69,1.68,1.59,3,2.7,3.96Zm-24.14-2.22c-.91,2.07-.92,4.17-.03,6.31.93,2.26,2.35,3.84,4.25,4.75,1.9.91,3.97,1.41,6.21,1.5,2.24.09,4.51-.12,6.8-.63,2.3-.51,4.31-1.05,6.03-1.63l.1-.24c-3.12-.67-5.67-1.92-7.65-3.75-1.97-1.83-3.57-4.21-4.79-7.17-1.08-2.6-1.56-5.38-1.46-8.34.1-2.95.72-5.7,1.94-8.22s2.8-4.44,4.87-6.18c2.06-1.73,4.31-3.1,6.74-4.11,3.13-1.29,6.24-1.99,9.35-2.09,3.11-.1,6.05.38,8.82,1.43,2.77,1.05,5.28,2.65,7.51,4.77,2.23,2.13,4.01,4.78,5.32,7.96,1.91,4.63,2.57,8.81,1.98,12.54-.59,3.73-2.01,7.11-4.25,10.14-2.24,3.03-5.1,5.66-8.57,7.91-3.48,2.25-7.12,4.16-10.94,5.74-3.76,1.55-7.7,2.67-11.82,3.36-4.12.69-8.09.7-11.92.05-3.83-.65-7.3-2.1-10.43-4.33-3.12-2.23-5.58-5.52-7.38-9.86-1.08-2.6-1.72-5.18-1.93-7.74s.05-5,.78-7.33c.73-2.33,1.91-4.48,3.54-6.44,1.63-1.96,3.7-3.66,6.22-5.11l4.84,11.72c-1.86,1.24-3.24,2.9-4.15,4.97Z"/>
      <path class="cls-4" d="m346.33,296.5l39.41-16.28-6.31-15.28,9.29-3.84c.83,2.16,1.84,4.17,3.04,6.01,1.2,1.84,2.61,3.36,4.22,4.56,1.61,1.2,3.43,2.02,5.44,2.48,2.02.45,4.25.38,6.71-.23l4.05,9.81-60.76,25.11-5.09-12.33Z"/>
    </g>
    <path class="cls-4" d="m396.37,312.6c1.47-.12,2.81-.53,4.05-1.25,1.24-.71,2.33-1.67,3.29-2.87.96-1.2,1.74-2.55,2.36-4.06.56-1.39.91-2.86,1.02-4.4.12-1.54-.03-3.02-.43-4.43-.41-1.41-1.09-2.69-2.05-3.82-.96-1.13-2.22-2.02-3.79-2.65-1.45-.59-2.89-.8-4.3-.63-1.42.17-2.75.61-3.98,1.32-1.24.71-2.33,1.66-3.27,2.83-.95,1.17-1.7,2.45-2.27,3.84s-.97,2.93-1.15,4.45c-.18,1.52-.1,2.96.22,4.34.32,1.38.94,2.64,1.86,3.79.92,1.15,2.16,2.04,3.73,2.68,1.68.68,3.26.97,4.72.85Zm-18.51,15.65c.84,2.1,2.33,3.58,4.48,4.45,2.26.92,4.38,1.02,6.36.3,1.98-.72,3.79-1.84,5.42-3.38,1.63-1.53,3.08-3.3,4.32-5.29,1.25-1.99,2.27-3.81,3.07-5.44l-.1-.24c-2.67,1.75-5.35,2.7-8.04,2.82-2.69.13-5.51-.41-8.47-1.61-2.61-1.06-4.94-2.66-6.97-4.8-2.04-2.14-3.56-4.52-4.5-7.15s-1.2-5.11-.99-7.8c.21-2.68.81-5.25,1.8-7.68,1.27-3.13,2.96-5.84,5.07-8.13,2.11-2.29,4.51-4.05,7.21-5.29,2.7-1.24,5.59-1.91,8.67-2.01,3.08-.1,6.22.49,9.41,1.79,4.64,1.88,8.09,4.34,10.33,7.38,2.25,3.04,3.66,6.42,4.25,10.14.59,3.72.46,7.6-.37,11.66-.83,4.05-2.03,8-3.58,11.83-1.53,3.77-3.49,7.37-5.89,10.79-2.4,3.42-5.17,6.26-8.32,8.53-3.15,2.27-6.62,3.74-10.4,4.4-3.78.66-7.85.11-12.2-1.65-2.61-1.06-4.9-2.41-6.87-4.05s-3.53-3.54-4.68-5.7c-1.15-2.16-1.86-4.5-2.11-7.04-.26-2.54-.02-5.21.72-8.02l11.75,4.76c-.42,2.2-.21,4.34.63,6.44Z"/>
    <g>
      <path class="cls-4" d="m473.54-23.43c1.46-.17,2.79-.64,4-1.4,1.21-.76,2.27-1.76,3.18-3,.91-1.24,1.64-2.62,2.19-4.15.51-1.41.79-2.89.85-4.44.06-1.54-.15-3.01-.61-4.41-.46-1.4-1.19-2.64-2.2-3.74-1-1.09-2.3-1.93-3.89-2.5-1.47-.53-2.92-.68-4.33-.46-1.41.22-2.72.72-3.93,1.48-1.21.76-2.26,1.75-3.16,2.95-.9,1.21-1.61,2.52-2.11,3.93s-.85,2.97-.97,4.49c-.12,1.52.01,2.97.39,4.33.37,1.37,1.04,2.61,2.01,3.72.96,1.11,2.24,1.95,3.83,2.53,1.71.62,3.29.84,4.75.66Zm-17.88,16.37c.92,2.06,2.47,3.49,4.65,4.27,2.3.83,4.42.84,6.37.05,1.95-.8,3.71-1.99,5.28-3.59,1.57-1.6,2.94-3.42,4.11-5.46,1.17-2.04,2.12-3.89,2.85-5.56l-.11-.24c-2.6,1.86-5.24,2.9-7.92,3.14-2.68.23-5.52-.19-8.53-1.27-2.65-.95-5.04-2.46-7.16-4.52-2.12-2.06-3.74-4.37-4.78-6.96s-1.4-5.06-1.3-7.76c.1-2.69.6-5.27,1.49-7.75,1.15-3.18,2.73-5.96,4.74-8.32,2.02-2.37,4.35-4.22,7-5.57,2.65-1.34,5.51-2.12,8.58-2.35,3.07-.22,6.23.25,9.47,1.42,4.71,1.7,8.25,4.02,10.62,6.97,2.36,2.95,3.91,6.27,4.65,9.96.73,3.69.76,7.58.09,11.66-.67,4.08-1.71,8.07-3.11,11.96s-3.2,7.5-5.46,11.01c-2.26,3.51-4.92,6.46-7.98,8.85-3.06,2.39-6.46,3.99-10.22,4.81-3.75.81-7.84.42-12.26-1.17-2.65-.95-4.99-2.21-7.02-3.78s-3.67-3.4-4.9-5.51c-1.24-2.11-2.03-4.43-2.39-6.95-.36-2.52-.22-5.2.4-8.04l11.93,4.3c-.33,2.21-.04,4.35.89,6.41Z"/>
      <path class="cls-4" d="m505.43,22.74l14.45-40.12-15.55-5.6,3.4-9.45c2.16.84,4.32,1.44,6.49,1.79,2.17.35,4.24.33,6.21-.06,1.97-.39,3.8-1.18,5.49-2.36,1.69-1.19,3.14-2.9,4.34-5.12l9.98,3.6-22.28,61.85-12.55-4.52Z"/>
    </g>
    <g>
      <path class="cls-4" d="m440.28,53.04c1.38-.52,2.56-1.29,3.55-2.32.99-1.03,1.78-2.25,2.37-3.67.59-1.42.97-2.94,1.14-4.56.16-1.49.08-3-.23-4.51-.31-1.51-.86-2.89-1.64-4.14-.78-1.25-1.79-2.28-3.03-3.1-1.24-.82-2.69-1.32-4.38-1.5-1.56-.16-2.99.03-4.31.59-1.32.56-2.47,1.35-3.46,2.38-.99,1.03-1.78,2.24-2.36,3.62-.59,1.39-.96,2.83-1.12,4.32s-.12,3.09.13,4.59c.25,1.51.72,2.88,1.41,4.11.69,1.24,1.63,2.28,2.83,3.13,1.2.85,2.64,1.36,4.32,1.54,1.81.19,3.4.03,4.77-.49Zm-13.45,20.16c1.39,1.78,3.23,2.8,5.54,3.04,2.43.26,4.49-.24,6.2-1.47,1.7-1.24,3.13-2.82,4.28-4.74,1.15-1.92,2.04-4.02,2.69-6.28.65-2.26,1.13-4.29,1.44-6.08l-.17-.21c-2.08,2.43-4.39,4.07-6.94,4.94-2.55.87-5.41,1.13-8.58.8-2.8-.29-5.48-1.19-8.03-2.69-2.55-1.5-4.67-3.35-6.3-5.62s-2.57-4.58-3.11-7.22c-.54-2.64-.67-5.26-.4-7.88.35-3.36,1.23-6.43,2.62-9.21,1.39-2.78,3.22-5.14,5.47-7.08,2.25-1.94,4.84-3.38,7.77-4.33,2.93-.95,6.11-1.25,9.54-.89,4.98.52,8.97,1.93,11.97,4.23,3,2.3,5.3,5.15,6.89,8.56,1.59,3.41,2.55,7.18,2.87,11.3.32,4.13.27,8.24-.16,12.35s-1.32,8.05-2.68,12c-1.36,3.95-3.24,7.45-5.64,10.5-2.4,3.05-5.32,5.42-8.77,7.11-3.45,1.68-7.51,2.28-12.18,1.79-2.8-.29-5.38-.96-7.72-1.99s-4.37-2.43-6.08-4.18c-1.7-1.75-3.03-3.81-3.98-6.18-.95-2.37-1.46-5-1.53-7.9l12.61,1.33c.21,2.23,1,4.23,2.39,6.01Z"/>
      <path class="cls-4" d="m482.26,90.27l4.46-42.41-16.44-1.73,1.05-9.99c2.3.31,4.54.37,6.73.19,2.19-.18,4.2-.69,6.02-1.54,1.82-.85,3.41-2.05,4.77-3.61,1.36-1.56,2.36-3.56,2.99-6.01l10.55,1.11-6.87,65.38-13.26-1.39Z"/>
    </g>
    <g>
      <path class="cls-4" d="m455.4,136.36c.36-1.42.41-2.84.13-4.24-.28-1.4-.83-2.75-1.65-4.04-.83-1.29-1.85-2.47-3.08-3.54-1.14-.98-2.41-1.78-3.83-2.39-1.42-.61-2.86-.95-4.33-1.02-1.47-.07-2.89.16-4.28.71-1.38.54-2.63,1.45-3.73,2.73-1.03,1.18-1.69,2.47-1.99,3.87-.3,1.4-.31,2.8-.03,4.2.28,1.4.82,2.74,1.62,4.01.8,1.27,1.77,2.4,2.91,3.39s2.46,1.87,3.84,2.52c1.38.66,2.77,1.06,4.18,1.2,1.41.14,2.81-.03,4.19-.53,1.38-.5,2.63-1.39,3.74-2.67,1.19-1.37,1.96-2.77,2.33-4.2Zm8.85,22.57c2.26-.12,4.14-1.05,5.66-2.8,1.6-1.85,2.38-3.82,2.34-5.93-.04-2.1-.52-4.18-1.45-6.22-.92-2.04-2.13-3.97-3.61-5.8-1.48-1.82-2.87-3.38-4.16-4.66l-.26.02c.8,3.1.83,5.93.08,8.52-.75,2.58-2.16,5.08-4.26,7.5-1.84,2.13-4.11,3.81-6.8,5.05-2.69,1.24-5.42,1.91-8.22,1.96s-5.23-.51-7.7-1.58c-2.47-1.06-4.7-2.46-6.69-4.18-2.56-2.21-4.58-4.69-6.06-7.42-1.48-2.73-2.38-5.58-2.68-8.53-.3-2.95,0-5.9.9-8.85.9-2.95,2.47-5.73,4.73-8.33,3.28-3.79,6.72-6.25,10.32-7.4,3.6-1.15,7.26-1.4,10.96-.75,3.71.64,7.35,2.01,10.92,4.11,3.57,2.1,6.92,4.5,10.04,7.2s5.85,5.68,8.31,9.06c2.46,3.37,4.26,6.92,5.39,10.63,1.13,3.71,1.4,7.47.81,11.26-.59,3.79-2.43,7.47-5.5,11.02-1.84,2.13-3.86,3.86-6.05,5.2-2.19,1.33-4.49,2.2-6.9,2.59-2.41.39-4.86.3-7.34-.27-2.48-.58-4.93-1.66-7.36-3.27l8.3-9.58c1.94,1.1,4.04,1.6,6.3,1.48Z"/>
      <path class="cls-4" d="m509.95,123.22l-32.23-27.91-10.82,12.5-7.6-6.58c1.56-1.71,2.9-3.51,4.01-5.41,1.11-1.9,1.83-3.84,2.18-5.82.35-1.98.27-3.97-.23-5.98-.5-2.01-1.57-3.97-3.22-5.89l6.95-8.02,49.7,43.04-8.73,10.08Z"/>
    </g>
    <g>
      <path class="cls-4" d="m527.75,245.48c1.31.67,2.67,1.03,4.1,1.07,1.43.04,2.86-.2,4.31-.72,1.44-.52,2.82-1.26,4.14-2.22,1.21-.89,2.27-1.96,3.18-3.21.91-1.25,1.56-2.58,1.96-4,.4-1.42.48-2.86.26-4.33-.22-1.47-.83-2.88-1.83-4.25-.93-1.26-2.04-2.19-3.33-2.8-1.3-.6-2.66-.92-4.09-.96-1.43-.04-2.85.19-4.27.69-1.42.5-2.74,1.19-3.95,2.08s-2.37,1.99-3.31,3.19c-.95,1.2-1.64,2.47-2.1,3.81-.45,1.34-.59,2.74-.41,4.2.18,1.46.77,2.87,1.77,4.24,1.07,1.46,2.26,2.53,3.57,3.2Zm-23.97,3.61c-.39,2.22.11,4.27,1.48,6.14,1.44,1.97,3.2,3.17,5.26,3.6,2.06.43,4.19.42,6.39-.03,2.2-.45,4.35-1.19,6.46-2.23,2.11-1.04,3.93-2.05,5.47-3.02l.04-.26c-3.2.09-5.97-.51-8.32-1.82-2.35-1.3-4.47-3.24-6.36-5.81-1.67-2.27-2.8-4.85-3.41-7.75-.61-2.89-.66-5.71-.08-8.44s1.66-4.99,3.25-7.16c1.59-2.18,3.44-4.04,5.56-5.6,2.73-2,5.59-3.42,8.58-4.26,3-.84,5.97-1.08,8.91-.71,2.94.36,5.76,1.31,8.43,2.84,2.68,1.53,5.03,3.68,7.07,6.46,2.96,4.04,4.6,7.94,4.92,11.71.32,3.77-.25,7.39-1.7,10.86-1.45,3.47-3.6,6.72-6.43,9.73-2.84,3.01-5.92,5.74-9.25,8.19s-6.84,4.44-10.68,6.09c-3.84,1.65-7.69,2.61-11.56,2.89-3.87.28-7.59-.29-11.16-1.71-3.57-1.42-6.74-4.02-9.52-7.81-1.67-2.27-2.91-4.62-3.72-7.06s-1.15-4.87-.99-7.31c.15-2.44.78-4.81,1.9-7.1,1.11-2.29,2.72-4.44,4.82-6.45l7.5,10.22c-1.51,1.65-2.46,3.59-2.84,5.81Z"/>
      <path class="cls-4" d="m528.44,301.59l34.38-25.23-9.78-13.33,8.1-5.95c1.32,1.9,2.78,3.61,4.39,5.11,1.61,1.5,3.33,2.64,5.19,3.42,1.85.78,3.81,1.14,5.88,1.1,2.07-.04,4.22-.65,6.46-1.83l6.28,8.56-53,38.89-7.89-10.75Z"/>
    </g>
    <g>
      <path class="cls-4" d="m459.49,311.1c1.41-.43,2.64-1.12,3.69-2.09,1.05-.96,1.92-2.13,2.6-3.51.68-1.38,1.16-2.87,1.43-4.47.25-1.48.27-2.99.05-4.52-.22-1.53-.67-2.94-1.37-4.24-.7-1.29-1.64-2.39-2.82-3.29-1.18-.9-2.6-1.49-4.27-1.77-1.54-.26-2.99-.16-4.34.31-1.35.47-2.55,1.18-3.61,2.15-1.05.96-1.92,2.12-2.59,3.46-.67,1.35-1.14,2.76-1.39,4.24s-.32,3.07-.16,4.59c.15,1.52.54,2.92,1.14,4.2.61,1.28,1.48,2.38,2.63,3.31,1.14.93,2.55,1.53,4.22,1.81,1.79.3,3.39.24,4.79-.18Zm-14.71,19.26c1.27,1.87,3.05,3,5.33,3.38,2.41.41,4.5.05,6.28-1.07,1.78-1.13,3.3-2.61,4.57-4.46,1.27-1.85,2.3-3.88,3.09-6.1.79-2.21,1.4-4.21,1.83-5.98l-.15-.22c-2.23,2.29-4.65,3.78-7.24,4.48-2.6.7-5.47.78-8.62.25-2.78-.47-5.39-1.54-7.84-3.19-2.45-1.66-4.45-3.64-5.93-6.01s-2.27-4.74-2.64-7.41c-.37-2.67-.34-5.3.1-7.89.57-3.33,1.64-6.34,3.21-9.03,1.57-2.69,3.54-4.92,5.91-6.71,2.37-1.79,5.05-3.06,8.03-3.82,2.99-.76,6.18-.85,9.57-.27,4.94.84,8.83,2.5,11.68,4.99,2.85,2.49,4.96,5.48,6.33,8.99,1.37,3.51,2.09,7.33,2.14,11.46.06,4.14-.26,8.24-.95,12.32s-1.83,7.95-3.44,11.8c-1.61,3.86-3.71,7.23-6.3,10.12-2.59,2.89-5.66,5.07-9.21,6.53-3.55,1.46-7.64,1.8-12.27,1.01-2.78-.47-5.3-1.3-7.58-2.48s-4.21-2.7-5.8-4.56c-1.59-1.86-2.78-4-3.57-6.42-.79-2.42-1.13-5.08-1.02-7.99l12.5,2.13c.06,2.23.73,4.28,2,6.15Z"/>
      <path class="cls-4" d="m499.01,350.94l7.16-42.03-16.3-2.78,1.69-9.91c2.27.45,4.51.66,6.71.62,2.2-.04,4.23-.42,6.1-1.15,1.87-.73,3.53-1.83,4.99-3.29,1.46-1.47,2.58-3.4,3.37-5.81l10.46,1.78-11.04,64.81-13.15-2.24Z"/>
    </g>
    <g>
      <path class="cls-4" d="m570.88,16.12c1.31-.66,2.4-1.56,3.28-2.69.87-1.13,1.53-2.43,1.96-3.9.43-1.47.65-3.02.64-4.65,0-1.5-.24-2.99-.72-4.46-.47-1.47-1.17-2.78-2.08-3.94-.91-1.16-2.03-2.07-3.34-2.76-1.32-.68-2.82-1.02-4.51-1.02-1.57,0-2.97.35-4.22,1.05-1.25.69-2.31,1.6-3.19,2.73-.87,1.13-1.53,2.42-1.96,3.86-.43,1.44-.65,2.91-.65,4.42s.21,3.08.62,4.55c.41,1.47,1.03,2.78,1.84,3.94.82,1.16,1.87,2.09,3.15,2.81,1.28.72,2.77,1.07,4.46,1.07,1.82,0,3.38-.34,4.69-1Zm-11.21,21.49c1.57,1.62,3.51,2.43,5.83,2.42,2.44,0,4.44-.72,6-2.13,1.56-1.41,2.81-3.14,3.74-5.18.93-2.04,1.6-4.22,2-6.53.4-2.32.66-4.38.78-6.2l-.19-.19c-1.81,2.64-3.93,4.52-6.37,5.65-2.44,1.13-5.25,1.71-8.45,1.72-2.82,0-5.58-.59-8.27-1.81-2.7-1.21-5.01-2.83-6.87-4.91s-3.05-4.28-3.87-6.84c-.82-2.56-1.24-5.16-1.24-7.79,0-3.38.53-6.53,1.62-9.44,1.09-2.92,2.64-5.46,4.67-7.62,2.03-2.17,4.45-3.88,7.26-5.14,2.81-1.26,5.94-1.9,9.39-1.91,5.01-.01,9.13.96,12.36,2.92,3.23,1.96,5.82,4.55,7.77,7.77,1.95,3.22,3.31,6.86,4.07,10.93.76,4.07,1.15,8.17,1.16,12.3.01,4.07-.45,8.14-1.37,12.21-.93,4.07-2.42,7.75-4.48,11.05-2.06,3.29-4.71,5.96-7.96,8.01-3.25,2.04-7.22,3.07-11.92,3.09-2.82,0-5.45-.38-7.89-1.15s-4.61-1.94-6.49-3.5c-1.88-1.56-3.42-3.47-4.62-5.72-1.2-2.25-1.99-4.81-2.37-7.69l12.68-.04c.44,2.19,1.45,4.1,3.02,5.72Z"/>
      <path class="cls-4" d="m616.62,48.62l-.13-42.64-16.53.05-.03-10.05c2.32.06,4.55-.12,6.71-.54,2.16-.41,4.1-1.14,5.82-2.18,1.72-1.04,3.17-2.4,4.36-4.1,1.18-1.69,1.96-3.79,2.33-6.3l10.61-.03.19,65.74-13.34.04Z"/>
    </g>
    <g>
      <path class="cls-4" d="m676.59,36.13c1.43.36,2.84.39,4.24.11,1.4-.28,2.74-.84,4.03-1.67,1.29-.83,2.47-1.86,3.53-3.1.98-1.14,1.77-2.42,2.37-3.85.6-1.42.93-2.87,1-4.34.06-1.47-.18-2.89-.73-4.27-.55-1.38-1.47-2.62-2.75-3.72-1.19-1.02-2.48-1.67-3.88-1.97-1.4-.29-2.8-.3-4.2-.01-1.4.28-2.73.83-4,1.64-1.27.81-2.39,1.78-3.37,2.92s-1.85,2.47-2.5,3.86c-.65,1.38-1.04,2.78-1.18,4.19-.14,1.41.05,2.81.55,4.19.5,1.38,1.4,2.62,2.68,3.72,1.38,1.18,2.78,1.95,4.21,2.31Zm-22.53,8.95c.13,2.25,1.07,4.14,2.83,5.64,1.85,1.59,3.83,2.36,5.94,2.31,2.1-.05,4.18-.54,6.21-1.47,2.04-.93,3.96-2.15,5.78-3.64,1.82-1.49,3.36-2.89,4.64-4.19l-.02-.26c-3.09.81-5.93.85-8.52.12-2.59-.73-5.09-2.14-7.52-4.22-2.14-1.83-3.83-4.09-5.08-6.77-1.25-2.68-1.94-5.41-1.99-8.21s.49-5.23,1.54-7.71c1.05-2.48,2.44-4.72,4.15-6.71,2.2-2.57,4.67-4.6,7.39-6.09,2.73-1.5,5.57-2.4,8.52-2.72,2.95-.32,5.9-.03,8.86.85,2.95.88,5.74,2.45,8.35,4.69,3.8,3.26,6.28,6.69,7.45,10.29,1.16,3.6,1.43,7.25.81,10.96-.63,3.71-1.98,7.36-4.06,10.93-2.08,3.58-4.46,6.94-7.15,10.07-2.65,3.09-5.66,5.87-9.02,8.35-3.36,2.48-6.9,4.29-10.61,5.44-3.71,1.15-7.46,1.44-11.26.86-3.8-.58-7.48-2.39-11.04-5.45-2.14-1.83-3.88-3.84-5.22-6.03s-2.22-4.48-2.63-6.89c-.41-2.41-.33-4.86.24-7.34.56-2.49,1.64-4.94,3.23-7.37l9.62,8.25c-1.1,1.95-1.58,4.05-1.45,6.3Z"/>
      <path class="cls-4" d="m689.98,90.62l27.76-32.37-12.55-10.76,6.54-7.63c1.72,1.56,3.53,2.88,5.43,3.98,1.9,1.1,3.85,1.81,5.83,2.15,1.98.34,3.97.25,5.97-.26,2-.51,3.96-1.59,5.88-3.25l8.06,6.91-42.8,49.9-10.12-8.68Z"/>
    </g>
    <g>
      <path class="cls-4" d="m639.68,118.07c1.32-.64,2.43-1.51,3.33-2.63.89-1.11,1.57-2.4,2.03-3.87.46-1.46.7-3.01.73-4.64.02-1.5-.19-2.99-.64-4.47-.45-1.48-1.12-2.8-2.01-3.98-.89-1.17-1.99-2.11-3.29-2.82-1.3-.71-2.8-1.08-4.49-1.1-1.57-.02-2.98.3-4.24.97-1.26.67-2.34,1.56-3.23,2.67-.89,1.11-1.57,2.39-2.03,3.82-.46,1.43-.7,2.9-.73,4.4s.16,3.09.54,4.56c.38,1.48.97,2.8,1.77,3.97.8,1.17,1.83,2.13,3.1,2.87,1.27.74,2.75,1.12,4.44,1.15,1.82.03,3.39-.28,4.71-.91Zm-11.6,21.28c1.54,1.65,3.47,2.5,5.79,2.53,2.44.04,4.45-.64,6.04-2.02,1.59-1.38,2.86-3.09,3.84-5.11.97-2.02,1.68-4.19,2.12-6.5.44-2.31.74-4.37.89-6.19l-.18-.19c-1.86,2.6-4.01,4.45-6.47,5.54-2.46,1.09-5.28,1.61-8.48,1.56-2.82-.04-5.56-.7-8.24-1.96-2.67-1.26-4.95-2.92-6.78-5.04-1.74-2.01-2.97-4.33-3.74-6.91-.78-2.58-1.14-5.18-1.1-7.81.05-3.38.65-6.52,1.79-9.41,1.14-2.89,2.74-5.41,4.81-7.54,2.07-2.13,4.52-3.8,7.36-5.01,2.84-1.21,5.98-1.79,9.42-1.73,5.01.08,9.11,1.13,12.3,3.15,3.19,2.02,5.74,4.66,7.63,7.91,1.89,3.26,3.18,6.92,3.87,11,.69,4.08,1,8.19.94,12.32s-.59,8.13-1.6,12.19c-1,4.06-2.56,7.71-4.68,10.96-2.12,3.26-4.82,5.88-8.1,7.86-3.29,1.98-7.28,2.94-11.97,2.87-2.82-.04-5.44-.47-7.87-1.29-2.43-.82-4.57-2.03-6.43-3.62-1.85-1.59-3.36-3.53-4.51-5.8-1.16-2.27-1.9-4.85-2.23-7.74l12.68.19c.4,2.2,1.38,4.12,2.92,5.77Z"/>
      <path class="cls-4" d="m684.81,151.4l.65-42.63-16.53-.25.15-10.05c2.31.1,4.56-.04,6.72-.41,2.17-.37,4.12-1.06,5.86-2.07,1.74-1.01,3.21-2.35,4.43-4.02,1.21-1.67,2.03-3.76,2.44-6.26l10.61.16-1.01,65.74-13.33-.2Z"/>
    </g>
    <g>
      <path class="cls-4" d="m707.64,182.32c1.37.53,2.76.75,4.19.64,1.42-.11,2.83-.49,4.21-1.15,1.38-.66,2.68-1.54,3.89-2.63,1.11-1.01,2.06-2.18,2.84-3.52.78-1.33,1.29-2.73,1.54-4.18.25-1.45.19-2.89-.18-4.33-.37-1.44-1.12-2.78-2.26-4.04-1.05-1.16-2.25-1.98-3.6-2.44-1.35-.47-2.74-.65-4.16-.54-1.42.1-2.82.48-4.18,1.12-1.36.64-2.6,1.46-3.72,2.47s-2.15,2.22-2.97,3.51c-.82,1.29-1.38,2.62-1.7,4-.31,1.38-.31,2.79.02,4.22.33,1.43,1.06,2.78,2.19,4.03,1.22,1.35,2.51,2.29,3.88,2.82Zm-23.48,6.04c-.16,2.25.54,4.24,2.09,5.96,1.64,1.81,3.5,2.82,5.6,3.04,2.09.22,4.21,0,6.35-.68,2.14-.67,4.2-1.63,6.2-2.88,1.99-1.25,3.7-2.44,5.13-3.57v-.26c-3.16.42-5.98.1-8.45-.96-2.47-1.06-4.78-2.77-6.92-5.14-1.89-2.09-3.29-4.54-4.19-7.36-.9-2.82-1.24-5.62-.94-8.39s1.14-5.13,2.5-7.45c1.36-2.33,3.01-4.37,4.96-6.13,2.51-2.27,5.21-3.97,8.1-5.11,2.89-1.14,5.83-1.68,8.79-1.62,2.97.06,5.86.72,8.68,1.97,2.82,1.25,5.38,3.15,7.69,5.71,3.36,3.71,5.39,7.43,6.09,11.14.7,3.71.5,7.37-.58,10.98-1.09,3.6-2.89,7.05-5.41,10.33-2.52,3.29-5.3,6.32-8.37,9.09-3.02,2.73-6.35,5.11-10,7.15-3.65,2.03-7.38,3.39-11.21,4.06-3.82.67-7.58.48-11.28-.57-3.69-1.05-7.11-3.32-10.26-6.8-1.89-2.09-3.36-4.3-4.42-6.64s-1.64-4.73-1.73-7.17c-.1-2.44.29-4.86,1.16-7.26.87-2.39,2.25-4.7,4.14-6.91l8.5,9.4c-1.33,1.79-2.08,3.82-2.23,6.07Z"/>
      <path class="cls-4" d="m714.05,238.07l31.62-28.6-11.09-12.26,7.45-6.74c1.51,1.76,3.14,3.31,4.89,4.63,1.75,1.33,3.59,2.29,5.51,2.87,1.92.58,3.91.75,5.96.5,2.05-.25,4.13-1.08,6.24-2.48l7.12,7.87-48.76,44.1-8.95-9.89Z"/>
    </g>
    <g>
      <path class="cls-4" d="m574.55,174.83c1.44.29,2.85.26,4.24-.09,1.38-.35,2.7-.97,3.95-1.86,1.25-.89,2.38-1.98,3.38-3.26.93-1.18,1.66-2.5,2.19-3.95.54-1.45.8-2.91.8-4.38,0-1.47-.31-2.88-.92-4.24-.61-1.35-1.58-2.55-2.92-3.59-1.23-.96-2.56-1.56-3.97-1.79-1.41-.23-2.81-.17-4.19.18-1.39.35-2.69.95-3.92,1.82-1.23.87-2.31,1.89-3.24,3.07s-1.74,2.56-2.32,3.97c-.59,1.41-.91,2.82-.99,4.24-.07,1.41.18,2.8.75,4.16.57,1.36,1.52,2.56,2.85,3.6,1.43,1.12,2.87,1.82,4.31,2.11Zm-22.09,9.97c.23,2.25,1.26,4.08,3.09,5.51,1.92,1.5,3.94,2.18,6.04,2.04,2.1-.15,4.15-.73,6.14-1.76,1.99-1.02,3.86-2.33,5.61-3.9,1.75-1.57,3.23-3.04,4.44-4.39l-.03-.26c-3.05.95-5.88,1.12-8.5.51-2.62-.62-5.19-1.91-7.7-3.87-2.22-1.73-4.02-3.91-5.39-6.53-1.37-2.62-2.19-5.32-2.37-8.11s.25-5.25,1.19-7.77c.94-2.52,2.22-4.82,3.84-6.89,2.08-2.66,4.45-4.81,7.11-6.43,2.66-1.62,5.45-2.66,8.38-3.1,2.93-.45,5.9-.3,8.89.45,2.99.75,5.84,2.18,8.56,4.3,3.95,3.08,6.58,6.39,7.91,9.93,1.33,3.54,1.76,7.18,1.31,10.91-.46,3.74-1.64,7.44-3.55,11.11-1.91,3.67-4.14,7.13-6.69,10.39s-5.38,6.13-8.63,8.75c-3.25,2.63-6.69,4.6-10.35,5.92-3.65,1.32-7.39,1.78-11.21,1.38-3.82-.4-7.58-2.05-11.28-4.94-2.22-1.73-4.05-3.66-5.49-5.78s-2.42-4.38-2.94-6.77c-.52-2.39-.55-4.84-.1-7.35.45-2.51,1.41-5.01,2.89-7.51l9.99,7.81c-1.01,2-1.39,4.12-1.16,6.36Z"/>
      <path class="cls-4" d="m590.42,228.65l26.25-33.6-13.03-10.18,6.19-7.92c1.79,1.48,3.66,2.72,5.61,3.73,1.95,1.01,3.92,1.64,5.92,1.88,1.99.25,3.98.07,5.96-.53,1.98-.6,3.89-1.77,5.72-3.51l8.36,6.53-40.47,51.81-10.51-8.21Z"/>
    </g>
    <g>
      <path class="cls-4" d="m602.55,312.62c1.22-.82,2.18-1.85,2.91-3.09.72-1.23,1.2-2.61,1.44-4.12.24-1.52.25-3.08.04-4.7-.2-1.49-.63-2.93-1.29-4.33-.66-1.4-1.51-2.61-2.57-3.64-1.05-1.03-2.28-1.8-3.67-2.31-1.39-.51-2.93-.65-4.6-.43-1.55.21-2.9.73-4.05,1.58-1.15.85-2.09,1.89-2.81,3.12-.72,1.23-1.2,2.59-1.45,4.08-.25,1.49-.27,2.97-.07,4.46s.61,3.03,1.2,4.44c.6,1.41,1.37,2.63,2.33,3.67.96,1.04,2.12,1.84,3.49,2.38,1.37.55,2.89.71,4.56.48,1.8-.24,3.31-.77,4.53-1.59Zm-8.35,22.76c1.77,1.41,3.8,1.96,6.09,1.66,2.42-.32,4.31-1.28,5.68-2.89,1.37-1.6,2.38-3.47,3.04-5.61.66-2.14,1.04-4.39,1.14-6.74.1-2.35.09-4.43-.02-6.25l-.21-.16c-1.46,2.85-3.32,4.99-5.59,6.43-2.27,1.44-4.99,2.37-8.16,2.79-2.79.37-5.61.13-8.43-.73-2.83-.86-5.33-2.16-7.44-3.99-2.02-1.74-3.57-3.85-4.72-6.29-1.15-2.44-1.89-4.96-2.24-7.57-.44-3.35-.31-6.54.39-9.57.7-3.03,1.92-5.75,3.65-8.16,1.73-2.41,3.91-4.42,6.54-6.03,2.63-1.61,5.65-2.64,9.06-3.1,4.97-.66,9.18-.22,12.63,1.31,3.46,1.53,6.36,3.77,8.71,6.71,2.35,2.94,4.16,6.38,5.44,10.32,1.28,3.94,2.19,7.95,2.74,12.05s.6,8.13.21,12.29c-.4,4.16-1.4,8-3.02,11.53-1.62,3.53-3.9,6.52-6.86,8.96-2.96,2.45-6.77,3.98-11.42,4.59-2.79.37-5.45.33-7.98-.13s-4.82-1.33-6.89-2.64c-2.07-1.3-3.84-3-5.32-5.07-1.48-2.08-2.59-4.52-3.34-7.33l12.57-1.67c.72,2.12,1.97,3.88,3.73,5.28Z"/>
      <path class="cls-4" d="m652.09,338.97l-5.61-42.27-16.39,2.17-1.32-9.96c2.3-.24,4.5-.71,6.59-1.4,2.09-.69,3.92-1.66,5.49-2.91,1.57-1.25,2.83-2.79,3.79-4.62.96-1.83,1.46-4.01,1.5-6.55l10.52-1.4,8.64,65.17-13.22,1.75Z"/>
    </g>
    <g>
      <path class="cls-4" d="m854.53-23.73c1.45.23,2.86.14,4.23-.27,1.37-.41,2.66-1.09,3.87-2.03,1.21-.94,2.29-2.08,3.23-3.4.87-1.22,1.54-2.57,2.02-4.04.47-1.47.67-2.94.61-4.41-.07-1.47-.44-2.87-1.11-4.19-.67-1.32-1.7-2.48-3.07-3.46-1.28-.91-2.62-1.45-4.04-1.61-1.42-.17-2.81-.04-4.18.36-1.37.41-2.65,1.07-3.84,1.99-1.19.92-2.23,1.99-3.1,3.21s-1.63,2.63-2.15,4.06c-.52,1.43-.79,2.86-.8,4.28-.01,1.42.3,2.79.93,4.12.63,1.33,1.63,2.49,3.01,3.47,1.48,1.05,2.94,1.69,4.4,1.92Zm-21.63,10.93c.33,2.23,1.44,4.02,3.32,5.37,1.99,1.42,4.03,2.01,6.12,1.77,2.09-.24,4.11-.91,6.06-2.03,1.95-1.11,3.76-2.49,5.43-4.14,1.68-1.65,3.09-3.18,4.25-4.58l-.04-.26c-3.01,1.09-5.83,1.38-8.47.88-2.64-.5-5.26-1.68-7.86-3.53-2.29-1.64-4.18-3.73-5.67-6.29-1.48-2.56-2.42-5.22-2.72-7.99-.29-2.65.02-5.25.84-7.82.83-2.56,2-4.92,3.53-7.06,1.96-2.75,4.23-5,6.82-6.73,2.58-1.74,5.33-2.89,8.24-3.47,2.91-.58,5.88-.56,8.9.06,3.02.62,5.93,1.92,8.74,3.92,4.08,2.91,6.86,6.1,8.34,9.58,1.48,3.48,2.08,7.09,1.78,10.84-.29,3.75-1.31,7.5-3.06,11.25-1.75,3.75-3.82,7.31-6.22,10.67-2.36,3.31-5.11,6.36-8.23,9.13-3.13,2.77-6.49,4.89-10.08,6.37-3.59,1.48-7.3,2.1-11.13,1.87-3.83-.23-7.66-1.71-11.48-4.44-2.29-1.64-4.21-3.48-5.74-5.54s-2.61-4.26-3.23-6.63c-.62-2.36-.76-4.81-.42-7.34.34-2.53,1.19-5.07,2.56-7.63l10.32,7.36c-.92,2.04-1.21,4.18-.88,6.41Z"/>
      <path class="cls-4" d="m872.76,29.34l24.75-34.72-13.46-9.59,5.83-8.18c1.85,1.4,3.77,2.56,5.77,3.48,1.99.92,3.99,1.46,6,1.62,2,.16,3.98-.11,5.93-.79,1.95-.69,3.8-1.94,5.56-3.76l8.64,6.16-38.16,53.54-10.86-7.74Z"/>
    </g>
    <g>
      <path class="cls-4" d="m838.04,41.31c1.45-.21,2.77-.71,3.96-1.51,1.19-.79,2.22-1.82,3.1-3.08.88-1.26,1.57-2.66,2.09-4.21.47-1.43.72-2.91.73-4.46.02-1.54-.22-3.01-.72-4.39-.5-1.38-1.26-2.61-2.29-3.68-1.03-1.07-2.35-1.87-3.95-2.4-1.49-.49-2.93-.61-4.34-.35-1.41.26-2.7.79-3.89,1.58-1.19.79-2.21,1.81-3.08,3.04-.87,1.23-1.54,2.56-2.01,3.98s-.78,2.99-.85,4.52c-.08,1.53.09,2.97.5,4.32.41,1.36,1.11,2.58,2.1,3.66.99,1.09,2.29,1.9,3.9,2.43,1.72.57,3.31.75,4.77.54Zm-17.45,16.83c.97,2.04,2.56,3.42,4.76,4.15,2.32.77,4.44.73,6.37-.12,1.93-.85,3.66-2.09,5.19-3.72,1.53-1.64,2.85-3.49,3.97-5.56,1.11-2.07,2.02-3.95,2.71-5.63l-.12-.24c-2.55,1.93-5.16,3.04-7.83,3.34-2.67.3-5.52-.05-8.56-1.05-2.68-.89-5.1-2.33-7.27-4.34-2.17-2.01-3.85-4.27-4.96-6.84-1.06-2.44-1.54-5.03-1.5-7.72.03-2.69.46-5.29,1.29-7.78,1.06-3.21,2.57-6.02,4.53-8.44,1.95-2.42,4.24-4.34,6.85-5.75,2.61-1.41,5.45-2.27,8.52-2.57,3.07-.3,6.24.09,9.51,1.17,4.75,1.57,8.35,3.81,10.79,6.69,2.44,2.89,4.07,6.17,4.9,9.84.83,3.67.96,7.56.39,11.66-.57,4.1-1.5,8.11-2.8,12.03-1.28,3.86-3.01,7.58-5.18,11.15-2.17,3.57-4.75,6.59-7.75,9.06-2.99,2.47-6.36,4.16-10.09,5.07-3.73.91-7.82.62-12.28-.85-2.68-.89-5.05-2.08-7.12-3.59s-3.75-3.3-5.04-5.38c-1.29-2.08-2.15-4.37-2.57-6.89-.42-2.51-.36-5.2.19-8.05l12.04,3.99c-.27,2.22.08,4.35,1.05,6.38Z"/>
      <path class="cls-4" d="m871.11,86.64l13.41-40.48-15.69-5.2,3.16-9.54c2.18.79,4.36,1.33,6.54,1.62,2.18.29,4.25.22,6.21-.22,1.96-.44,3.77-1.27,5.43-2.5,1.66-1.23,3.06-2.98,4.21-5.24l10.07,3.34-20.67,62.41-12.66-4.19Z"/>
    </g>
    <g>
      <path class="cls-4" d="m777.15,95.55c1.38-.5,2.58-1.25,3.58-2.27,1-1.01,1.81-2.23,2.42-3.64.61-1.41,1.01-2.92,1.2-4.54.18-1.49.12-3-.17-4.51-.29-1.52-.82-2.9-1.58-4.16-.76-1.26-1.76-2.31-2.98-3.15-1.22-.84-2.68-1.36-4.35-1.56-1.56-.19-2.99-.01-4.32.52-1.33.54-2.49,1.31-3.49,2.33-1,1.01-1.81,2.21-2.41,3.59-.61,1.38-1,2.81-1.18,4.3s-.16,3.09.07,4.6c.23,1.51.68,2.89,1.35,4.13.67,1.25,1.6,2.3,2.79,3.17,1.19.87,2.62,1.4,4.3,1.6,1.8.22,3.4.07,4.78-.42Zm-13.73,19.97c1.36,1.8,3.19,2.84,5.49,3.12,2.42.29,4.5-.17,6.22-1.39,1.72-1.21,3.17-2.77,4.34-4.68,1.17-1.91,2.1-3.99,2.78-6.24.68-2.25,1.19-4.27,1.53-6.06l-.16-.21c-2.12,2.4-4.45,4.01-7.01,4.84-2.56.83-5.42,1.06-8.59.68-2.8-.33-5.46-1.27-7.99-2.8-2.53-1.53-4.62-3.42-6.22-5.71-1.52-2.18-2.51-4.62-3.01-7.26-.5-2.65-.6-5.27-.29-7.89.4-3.36,1.32-6.42,2.75-9.18,1.43-2.76,3.29-5.09,5.56-7,2.28-1.9,4.89-3.31,7.83-4.22,2.95-.91,6.13-1.16,9.55-.75,4.97.59,8.94,2.06,11.91,4.4,2.97,2.34,5.22,5.23,6.77,8.66,1.54,3.43,2.45,7.21,2.71,11.34.26,4.13.15,8.25-.34,12.35-.48,4.04-1.43,8.03-2.85,11.96-1.42,3.93-3.34,7.4-5.78,10.42-2.44,3.02-5.4,5.35-8.87,6.98-3.47,1.63-7.54,2.17-12.21,1.62-2.8-.33-5.36-1.03-7.69-2.1-2.33-1.07-4.34-2.49-6.02-4.27-1.68-1.78-2.98-3.86-3.89-6.23-.91-2.38-1.39-5.02-1.42-7.93l12.59,1.5c.17,2.23.94,4.24,2.31,6.04Z"/>
      <path class="cls-4" d="m818.61,133.37l5.05-42.34-16.41-1.96,1.19-9.98c2.29.34,4.54.43,6.73.28,2.19-.15,4.21-.63,6.04-1.45,1.83-.82,3.44-2,4.82-3.54,1.38-1.54,2.41-3.53,3.08-5.97l10.54,1.26-7.79,65.28-13.24-1.58Z"/>
    </g>
    <g>
      <path class="cls-4" d="m832.38,181.66c.56-1.36.79-2.75.71-4.18-.08-1.43-.45-2.84-1.09-4.23-.64-1.39-1.5-2.7-2.57-3.93-.99-1.13-2.15-2.09-3.47-2.89-1.32-.8-2.71-1.33-4.15-1.6-1.45-.27-2.89-.23-4.33.11-1.44.35-2.8,1.08-4.07,2.2-1.18,1.03-2.01,2.22-2.5,3.56-.49,1.35-.69,2.73-.61,4.15.08,1.43.44,2.82,1.06,4.2.62,1.37,1.42,2.62,2.42,3.75s2.19,2.19,3.46,3.02c1.28.84,2.6,1.42,3.98,1.76,1.38.34,2.78.35,4.22.04,1.44-.3,2.8-1.01,4.07-2.13,1.36-1.2,2.33-2.48,2.88-3.84Zm5.67,23.57c2.25.19,4.25-.48,5.99-2,1.84-1.61,2.88-3.46,3.13-5.55.25-2.09.05-4.21-.58-6.36-.63-2.15-1.56-4.23-2.79-6.24-1.22-2.01-2.38-3.74-3.49-5.19l-.26-.02c.37,3.18,0,5.99-1.09,8.45-1.09,2.46-2.84,4.74-5.24,6.84-2.12,1.86-4.59,3.22-7.42,4.07-2.83.86-5.63,1.15-8.41.81s-5.11-1.22-7.42-2.62c-2.3-1.39-4.32-3.08-6.06-5.06-2.23-2.54-3.89-5.27-4.99-8.18-1.1-2.91-1.59-5.85-1.49-8.82.11-2.96.81-5.85,2.1-8.65,1.29-2.8,3.23-5.33,5.82-7.6,3.77-3.3,7.51-5.27,11.24-5.92,3.72-.64,7.38-.39,10.96.75,3.59,1.15,7,3,10.25,5.56,3.25,2.57,6.23,5.4,8.96,8.51s5.01,6.43,6.99,10.11c1.98,3.68,3.27,7.44,3.89,11.27.61,3.83.37,7.59-.74,11.27-1.11,3.68-3.42,7.06-6.96,10.16-2.12,1.86-4.35,3.3-6.71,4.32s-4.75,1.56-7.19,1.62c-2.44.06-4.86-.36-7.24-1.27-2.38-.91-4.66-2.32-6.84-4.24l9.53-8.36c1.77,1.36,3.79,2.13,6.04,2.33Z"/>
      <path class="cls-4" d="m888.22,176.11l-28.11-32.06-12.43,10.9-6.63-7.56c1.78-1.48,3.35-3.08,4.71-4.82,1.36-1.73,2.34-3.55,2.95-5.46.61-1.91.81-3.89.59-5.95-.22-2.05-1.01-4.15-2.38-6.28l7.98-7,43.34,49.43-10.03,8.79Z"/>
    </g>
    <g>
      <path class="cls-4" d="m850.62,227.66c1.2.85,2.5,1.41,3.9,1.65,1.41.25,2.86.22,4.37-.08,1.5-.3,2.98-.83,4.42-1.59,1.33-.7,2.53-1.6,3.61-2.71,1.08-1.1,1.92-2.33,2.52-3.67.6-1.34.89-2.76.89-4.24,0-1.48-.4-2.97-1.19-4.47-.73-1.38-1.7-2.47-2.89-3.25-1.2-.79-2.49-1.3-3.9-1.55-1.41-.25-2.85-.23-4.33.06-1.48.29-2.88.78-4.21,1.48s-2.63,1.62-3.74,2.67c-1.11,1.05-1.99,2.2-2.63,3.46-.64,1.26-.98,2.63-1.02,4.1-.04,1.47.34,2.95,1.13,4.45.85,1.6,1.87,2.83,3.07,3.69Zm-24.24.07c-.71,2.14-.52,4.24.56,6.29,1.14,2.16,2.7,3.6,4.68,4.33,1.98.72,4.08,1.03,6.32.91,2.24-.12,4.48-.54,6.71-1.27,2.24-.72,4.19-1.45,5.85-2.19l.08-.25c-3.17-.38-5.83-1.38-7.97-3.01-2.14-1.63-3.95-3.86-5.45-6.68-1.32-2.49-2.07-5.21-2.24-8.16-.18-2.95.18-5.75,1.15-8.37s2.37-4.69,4.26-6.61c1.89-1.92,3.99-3.49,6.32-4.72,2.99-1.58,6.03-2.57,9.11-2.96,3.09-.39,6.06-.2,8.92.59,2.86.79,5.5,2.14,7.93,4.04,2.42,1.91,4.44,4.38,6.05,7.42,2.34,4.43,3.39,8.53,3.16,12.3-.24,3.77-1.33,7.27-3.27,10.49-1.94,3.22-4.54,6.12-7.78,8.69-3.25,2.57-6.7,4.82-10.35,6.75-3.6,1.9-7.42,3.39-11.45,4.46-4.04,1.07-7.99,1.46-11.86,1.17-3.87-.29-7.47-1.4-10.79-3.32-3.32-1.93-6.08-4.97-8.28-9.12-1.32-2.49-2.2-5-2.65-7.52s-.42-4.98.08-7.38c.51-2.39,1.48-4.64,2.91-6.75,1.44-2.11,3.34-4,5.71-5.68l5.93,11.21c-1.73,1.41-2.95,3.19-3.66,5.33Z"/>
      <path class="cls-4" d="m843.11,283.27l37.69-19.94-7.73-14.61,8.88-4.7c1.03,2.08,2.23,3.98,3.6,5.69,1.37,1.72,2.91,3.1,4.63,4.14,1.72,1.04,3.6,1.69,5.65,1.95,2.05.26,4.27-.03,6.66-.87l4.96,9.38-58.11,30.74-6.24-11.79Z"/>
    </g>
    <g>
      <path class="cls-4" d="m761.33,306.93c1.42-.39,2.66-1.05,3.74-1.99,1.08-.93,1.98-2.08,2.69-3.44.72-1.36,1.23-2.83,1.55-4.43.29-1.47.35-2.98.18-4.51-.17-1.53-.59-2.96-1.26-4.27-.67-1.31-1.58-2.43-2.73-3.37-1.16-.93-2.56-1.56-4.22-1.89-1.54-.3-2.98-.24-4.35.19-1.36.43-2.58,1.12-3.66,2.05-1.08.93-1.97,2.07-2.68,3.39-.71,1.33-1.21,2.73-1.5,4.2s-.4,3.07-.29,4.59c.11,1.52.46,2.93,1.03,4.23.57,1.3,1.42,2.42,2.54,3.38,1.12.96,2.51,1.6,4.17,1.93,1.78.35,3.38.34,4.8-.05Zm-15.23,18.86c1.22,1.9,2.96,3.08,5.24,3.53,2.39.48,4.5.17,6.31-.9,1.81-1.08,3.37-2.52,4.69-4.34,1.32-1.81,2.4-3.82,3.25-6.01.85-2.19,1.51-4.17,1.99-5.92l-.15-.22c-2.29,2.23-4.75,3.65-7.36,4.28-2.61.63-5.49.63-8.62.01-2.76-.55-5.35-1.68-7.75-3.41-2.4-1.72-4.35-3.76-5.77-6.17s-2.14-4.8-2.44-7.47c-.3-2.68-.19-5.3.32-7.88.66-3.32,1.81-6.3,3.45-8.94,1.64-2.64,3.67-4.83,6.09-6.55,2.42-1.72,5.13-2.92,8.14-3.6,3.01-.68,6.2-.68,9.58-.01,4.91.97,8.76,2.74,11.54,5.31,2.78,2.56,4.81,5.61,6.08,9.15,1.28,3.54,1.89,7.38,1.83,11.52-.06,4.14-.48,8.23-1.29,12.29-.79,3.99-2.05,7.89-3.76,11.7-1.71,3.81-3.9,7.12-6.57,9.95-2.67,2.82-5.8,4.91-9.38,6.28-3.59,1.36-7.69,1.59-12.29.67-2.76-.55-5.27-1.44-7.51-2.69s-4.13-2.81-5.67-4.72c-1.54-1.9-2.67-4.07-3.4-6.52-.73-2.44-1-5.11-.8-8.01l12.44,2.47c0,2.24.61,4.3,1.83,6.2Z"/>
      <path class="cls-4" d="m799.75,347.82l8.3-41.82-16.21-3.22,1.96-9.86c2.26.51,4.49.78,6.69.8,2.2.02,4.24-.31,6.13-.99,1.89-.68,3.58-1.73,5.08-3.16,1.49-1.43,2.67-3.33,3.53-5.72l10.41,2.07-12.8,64.49-13.08-2.6Z"/>
    </g>
    <path class="cls-4" d="m948.23-31.35c.5-1.38.68-2.78.54-4.2-.14-1.42-.56-2.81-1.26-4.18-.7-1.37-1.61-2.64-2.73-3.82-1.04-1.09-2.23-2-3.59-2.75-1.35-.74-2.76-1.22-4.22-1.43-1.46-.21-2.9-.12-4.33.29-1.43.41-2.75,1.19-3.98,2.36-1.13,1.08-1.92,2.3-2.35,3.66-.43,1.36-.58,2.75-.44,4.17.14,1.42.55,2.8,1.23,4.15.68,1.35,1.53,2.56,2.57,3.65s2.27,2.1,3.58,2.88c1.31.79,2.66,1.32,4.05,1.6,1.39.28,2.8.24,4.22-.13,1.43-.36,2.75-1.13,3.98-2.29,1.32-1.25,2.22-2.57,2.72-3.95Zm6.63,23.32c2.26.1,4.22-.65,5.9-2.24,1.77-1.68,2.73-3.57,2.9-5.67.16-2.1-.12-4.21-.84-6.33-.72-2.12-1.74-4.16-3.04-6.12-1.3-1.96-2.53-3.64-3.69-5.04h-.27c.5,3.15.25,5.98-.74,8.48-.99,2.5-2.64,4.85-4.96,7.05-2.04,1.94-4.46,3.4-7.25,4.37-2.79.97-5.58,1.38-8.37,1.15s-5.16-1.01-7.52-2.31c-2.36-1.3-4.45-2.9-6.26-4.81-2.33-2.45-4.1-5.11-5.31-7.97-1.21-2.86-1.83-5.78-1.84-8.75-.02-2.97.57-5.88,1.74-8.73,1.18-2.85,3.01-5.46,5.51-7.83,3.63-3.45,7.29-5.58,10.99-6.37,3.7-.79,7.36-.69,10.99.31,3.63,1,7.12,2.71,10.47,5.14,3.35,2.43,6.45,5.14,9.3,8.14s5.27,6.22,7.4,9.82c2.13,3.6,3.57,7.3,4.34,11.1.77,3.81.68,7.57-.28,11.29-.96,3.72-3.14,7.2-6.54,10.43-2.04,1.94-4.22,3.47-6.52,4.59s-4.68,1.75-7.12,1.92c-2.44.16-4.87-.17-7.28-.98-2.42-.81-4.75-2.13-7.01-3.96l9.19-8.74c1.83,1.29,3.87,1.98,6.13,2.08Z"/>
    <g>
      <path class="cls-4" d="m1008.71,60.64c-.3-1.44-.88-2.73-1.74-3.87-.86-1.14-1.95-2.11-3.26-2.91-1.31-.8-2.75-1.41-4.32-1.83-1.45-.39-2.95-.54-4.49-.47-1.54.07-2.99.4-4.34.98-1.35.58-2.53,1.41-3.54,2.51-1,1.09-1.72,2.46-2.16,4.09-.4,1.51-.43,2.96-.09,4.35.34,1.39.94,2.65,1.81,3.79.86,1.14,1.93,2.1,3.21,2.9,1.28.8,2.64,1.39,4.09,1.77s3.03.6,4.56.59c1.53-.01,2.95-.26,4.28-.75,1.33-.49,2.51-1.26,3.53-2.31,1.03-1.05,1.76-2.4,2.19-4.03.47-1.75.55-3.35.26-4.79Zm17.83,16.43c1.98-1.09,3.26-2.76,3.86-5,.63-2.36.47-4.48-.49-6.35-.96-1.87-2.3-3.53-4.02-4.96-1.72-1.43-3.65-2.64-5.79-3.63-2.13-.99-4.06-1.78-5.78-2.37l-.23.13c2.07,2.43,3.34,4.97,3.8,7.62.46,2.65.28,5.52-.55,8.6-.73,2.72-2.03,5.23-3.9,7.51-1.87,2.29-4.04,4.09-6.53,5.35s-4.93,1.83-7.62,1.95c-2.69.13-5.31-.15-7.85-.83-3.27-.87-6.16-2.21-8.69-4.02-2.53-1.81-4.58-3.98-6.14-6.5-1.56-2.52-2.58-5.31-3.07-8.35-.48-3.04-.28-6.23.61-9.56,1.29-4.84,3.31-8.56,6.04-11.17,2.74-2.61,5.91-4.43,9.53-5.47,3.62-1.04,7.49-1.4,11.61-1.08,4.13.32,8.19,1.02,12.18,2.08,3.93,1.05,7.74,2.55,11.43,4.51,3.69,1.96,6.86,4.36,9.5,7.2,2.64,2.84,4.53,6.1,5.65,9.77,1.13,3.67,1.08,7.77-.13,12.31-.73,2.72-1.78,5.16-3.17,7.32s-3.08,3.94-5.07,5.35c-2,1.41-4.24,2.4-6.72,2.97-2.48.57-5.17.66-8.05.28l3.27-12.25c2.23.14,4.33-.33,6.31-1.43Z"/>
      <path class="cls-4" d="m1052.02,24.96l-41.2-11-4.26,15.97-9.71-2.59c.66-2.22,1.07-4.43,1.23-6.62.17-2.19-.03-4.25-.58-6.18-.55-1.93-1.49-3.69-2.82-5.27-1.33-1.58-3.15-2.88-5.47-3.89l2.74-10.25,63.52,16.96-3.44,12.88Z"/>
    </g>
    <g>
      <path class="cls-4" d="m1034.01,115.56c1.44-.28,2.74-.84,3.89-1.69,1.15-.85,2.13-1.92,2.95-3.22.82-1.3,1.45-2.73,1.89-4.3.41-1.45.58-2.94.53-4.49-.05-1.54-.36-2.99-.92-4.36-.56-1.36-1.38-2.55-2.46-3.57-1.08-1.02-2.43-1.76-4.06-2.21-1.51-.42-2.96-.47-4.35-.15-1.39.33-2.66.91-3.81,1.76-1.15.85-2.13,1.91-2.94,3.17-.81,1.27-1.42,2.62-1.83,4.07s-.64,3.02-.65,4.55c0,1.53.23,2.96.7,4.29.47,1.34,1.22,2.52,2.27,3.56,1.04,1.04,2.37,1.79,4,2.25,1.75.49,3.34.6,4.79.32Zm-16.66,17.61c1.07,1.99,2.71,3.3,4.94,3.93,2.35.66,4.47.53,6.36-.41,1.89-.93,3.56-2.25,5.01-3.96,1.45-1.7,2.69-3.62,3.71-5.74,1.02-2.12,1.83-4.04,2.45-5.75l-.13-.23c-2.46,2.04-5.02,3.27-7.67,3.7-2.66.42-5.52.2-8.59-.66-2.71-.76-5.2-2.1-7.46-4-2.26-1.9-4.04-4.09-5.27-6.6-1.17-2.39-1.76-4.95-1.85-7.64-.09-2.69.22-5.3.93-7.83.92-3.26,2.29-6.14,4.14-8.64,1.84-2.51,4.04-4.52,6.58-6.05,2.54-1.53,5.34-2.51,8.39-2.96,3.05-.44,6.23-.2,9.55.73,4.82,1.36,8.52,3.42,11.09,6.19,2.57,2.77,4.35,5.97,5.35,9.6.99,3.63,1.3,7.51.93,11.63-.38,4.12-1.13,8.17-2.24,12.15s-2.66,7.71-4.66,11.37c-2.01,3.66-4.45,6.8-7.33,9.4-2.88,2.61-6.16,4.45-9.85,5.52-3.69,1.08-7.79.98-12.31-.29-2.71-.76-5.14-1.85-7.28-3.27-2.14-1.41-3.9-3.13-5.29-5.14-1.38-2.02-2.35-4.27-2.88-6.76-.54-2.49-.59-5.17-.18-8.05l12.21,3.43c-.17,2.23.28,4.34,1.34,6.33Z"/>
      <path class="cls-4" d="m1069.11,159.33l11.54-41.05-15.91-4.47,2.72-9.67c2.21.69,4.41,1.13,6.6,1.32,2.19.19,4.25.03,6.19-.5,1.94-.53,3.71-1.45,5.31-2.75,1.6-1.31,2.92-3.11,3.96-5.42l10.22,2.87-17.8,63.29-12.84-3.61Z"/>
    </g>
    <g>
      <path class="cls-4" d="m982.53,173.7c1.4.45,2.81.58,4.22.39,1.41-.19,2.79-.66,4.14-1.4,1.34-.74,2.58-1.7,3.72-2.86,1.05-1.07,1.92-2.3,2.62-3.68.69-1.38,1.12-2.8,1.28-4.26.16-1.46.01-2.9-.44-4.31-.46-1.41-1.29-2.71-2.5-3.89-1.12-1.1-2.37-1.84-3.74-2.22-1.38-.38-2.77-.48-4.19-.29-1.42.19-2.78.65-4.1,1.37-1.32.72-2.51,1.62-3.56,2.69s-2.01,2.35-2.75,3.68c-.74,1.34-1.22,2.7-1.45,4.1-.23,1.4-.14,2.8.28,4.21.41,1.41,1.22,2.71,2.43,3.89,1.3,1.27,2.64,2.13,4.04,2.58Zm-23.07,7.44c-.02,2.26.8,4.2,2.45,5.82,1.74,1.71,3.67,2.61,5.77,2.7,2.1.09,4.2-.26,6.3-1.06,2.09-.8,4.1-1.88,6.01-3.25,1.91-1.37,3.55-2.66,4.91-3.87v-.27c-3.14.61-5.97.46-8.51-.44-2.53-.9-4.94-2.47-7.22-4.71-2.01-1.97-3.55-4.34-4.62-7.09-1.07-2.76-1.58-5.53-1.45-8.32s.83-5.19,2.05-7.59c1.21-2.4,2.74-4.54,4.58-6.42,2.37-2.42,4.96-4.28,7.78-5.59,2.82-1.31,5.71-2.03,8.68-2.15,2.96-.12,5.89.36,8.78,1.44,2.89,1.08,5.56,2.82,8.02,5.23,3.58,3.51,5.83,7.09,6.75,10.76.92,3.67.95,7.33.08,10.99-.87,3.66-2.46,7.21-4.77,10.64-2.31,3.43-4.91,6.63-7.8,9.58-2.85,2.91-6.03,5.49-9.55,7.74-3.52,2.25-7.17,3.83-10.94,4.73-3.78.9-7.54.94-11.29.12-3.75-.83-7.3-2.88-10.66-6.17-2.01-1.97-3.62-4.09-4.81-6.36-1.2-2.27-1.92-4.62-2.16-7.05-.25-2.43,0-4.87.72-7.31.73-2.44,1.97-4.82,3.71-7.14l9.06,8.87c-1.22,1.87-1.84,3.94-1.86,6.2Z"/>
      <path class="cls-4" d="m992.3,228.96l29.84-30.46-11.81-11.57,7.03-7.18c1.61,1.67,3.33,3.11,5.16,4.33,1.83,1.22,3.72,2.06,5.67,2.53,1.95.47,3.94.51,5.98.14,2.03-.38,4.06-1.33,6.08-2.85l7.58,7.43-46.01,46.96-9.53-9.33Z"/>
    </g>
    <g>
      <path class="cls-4" d="m1000.29,254.69c1.46-.19,2.78-.67,3.98-1.45,1.2-.78,2.25-1.79,3.15-3.03.9-1.24,1.61-2.64,2.15-4.17.49-1.42.76-2.9.8-4.44.04-1.54-.18-3.01-.65-4.4-.48-1.39-1.22-2.63-2.24-3.71-1.02-1.08-2.32-1.9-3.92-2.46-1.48-.52-2.92-.65-4.33-.42-1.41.24-2.71.75-3.91,1.52-1.2.78-2.24,1.77-3.13,2.99-.89,1.22-1.58,2.53-2.07,3.95s-.82,2.98-.92,4.5c-.1,1.52.04,2.97.43,4.33.39,1.36,1.07,2.59,2.04,3.7.97,1.1,2.26,1.93,3.86,2.49,1.71.6,3.3.8,4.76.61Zm-17.7,16.56c.94,2.05,2.51,3.46,4.7,4.22,2.31.8,4.43.8,6.37-.02,1.94-.82,3.69-2.03,5.25-3.64,1.56-1.61,2.91-3.45,4.05-5.5,1.15-2.05,2.08-3.92,2.79-5.59l-.11-.24c-2.58,1.89-5.21,2.96-7.89,3.22-2.68.26-5.52-.13-8.54-1.18-2.66-.93-5.06-2.41-7.2-4.45-2.14-2.04-3.78-4.33-4.85-6.91-1.02-2.46-1.46-5.05-1.38-7.74.08-2.69.55-5.28,1.41-7.76,1.11-3.19,2.67-5.98,4.66-8.37,1.99-2.39,4.31-4.27,6.94-5.64,2.63-1.37,5.48-2.18,8.56-2.44,3.07-.25,6.23.18,9.49,1.32,4.73,1.65,8.29,3.93,10.69,6.86,2.4,2.92,3.98,6.23,4.75,9.91.77,3.69.84,7.57.21,11.66-.63,4.09-1.62,8.09-2.98,11.99s-3.12,7.53-5.35,11.07c-2.23,3.53-4.86,6.51-7.89,8.94-3.03,2.42-6.42,4.06-10.16,4.91-3.74.85-7.83.5-12.27-1.04-2.66-.93-5.02-2.16-7.06-3.7s-3.7-3.36-4.96-5.46c-1.26-2.1-2.08-4.41-2.46-6.92-.38-2.52-.28-5.2.32-8.04l11.97,4.17c-.31,2.21,0,4.35.95,6.4Z"/>
      <path class="cls-4" d="m1032.66,300.53l14.03-40.26-15.61-5.44,3.31-9.49c2.17.82,4.34,1.4,6.51,1.72,2.17.33,4.24.29,6.21-.12,1.97-.41,3.79-1.22,5.47-2.42,1.68-1.21,3.11-2.93,4.29-5.17l10.02,3.49-21.63,62.08-12.59-4.39Z"/>
    </g>
    <g>
      <path class="cls-4" d="m932.96,305.46c1.39-.49,2.58-1.23,3.6-2.24,1.01-1.01,1.83-2.21,2.45-3.62.62-1.4,1.03-2.91,1.24-4.53.19-1.49.14-3-.14-4.51-.28-1.52-.8-2.91-1.55-4.17-.76-1.26-1.74-2.32-2.96-3.17-1.22-.85-2.67-1.38-4.34-1.59-1.55-.2-2.99-.03-4.32.49-1.33.53-2.5,1.29-3.51,2.3-1.01,1.01-1.83,2.2-2.44,3.57-.62,1.37-1.02,2.81-1.21,4.3s-.19,3.09.03,4.6c.22,1.51.66,2.89,1.32,4.14.66,1.25,1.58,2.32,2.77,3.19,1.18.88,2.61,1.42,4.29,1.63,1.8.23,3.4.1,4.78-.39Zm-13.87,19.88c1.35,1.81,3.17,2.86,5.47,3.15,2.42.31,4.5-.14,6.23-1.34,1.73-1.2,3.19-2.75,4.37-4.65,1.19-1.9,2.13-3.98,2.82-6.22.69-2.25,1.22-4.26,1.57-6.05l-.16-.21c-2.13,2.38-4.48,3.98-7.04,4.79-2.56.81-5.43,1.02-8.6.62-2.8-.35-5.45-1.31-7.97-2.85-2.52-1.55-4.6-3.45-6.18-5.75s-2.48-4.63-2.96-7.28c-.49-2.65-.56-5.28-.23-7.89.42-3.35,1.36-6.41,2.82-9.16,1.45-2.75,3.32-5.07,5.61-6.96,2.29-1.89,4.91-3.27,7.86-4.17,2.95-.89,6.14-1.12,9.55-.68,4.97.63,8.93,2.12,11.88,4.48,2.95,2.36,5.19,5.26,6.71,8.71,1.52,3.44,2.4,7.23,2.63,11.36.23,4.13.09,8.25-.42,12.35-.51,4.04-1.49,8.02-2.93,11.94-1.44,3.92-3.39,7.38-5.86,10.38-2.46,3-5.44,5.31-8.92,6.92-3.49,1.61-7.56,2.12-12.22,1.53-2.8-.35-5.36-1.07-7.68-2.15-2.32-1.08-4.32-2.52-5.99-4.31-1.67-1.79-2.95-3.88-3.85-6.26-.9-2.39-1.35-5.03-1.36-7.93l12.58,1.59c.16,2.23.91,4.25,2.26,6.06Z"/>
      <path class="cls-4" d="m974.15,343.56l5.35-42.3-16.4-2.07,1.26-9.97c2.29.35,4.53.46,6.73.33,2.19-.13,4.21-.6,6.05-1.41,1.84-.81,3.45-1.98,4.85-3.51,1.39-1.53,2.43-3.51,3.12-5.95l10.53,1.33-8.25,65.22-13.23-1.67Z"/>
    </g>
    <path class="cls-4" d="m1167.26-18.31c.26-1.45.19-2.86-.19-4.23-.38-1.38-1.03-2.68-1.95-3.91-.92-1.23-2.03-2.33-3.34-3.3-1.21-.9-2.54-1.59-4-2.09-1.46-.5-2.93-.73-4.4-.69-1.47.04-2.87.38-4.21,1.03-1.34.65-2.51,1.65-3.52,3-.93,1.26-1.5,2.59-1.69,4.01-.19,1.42-.1,2.81.28,4.19.38,1.38,1.02,2.67,1.92,3.88.9,1.21,1.95,2.26,3.15,3.16s2.6,1.68,4.02,2.22c1.42.55,2.84.84,4.26.88,1.42.04,2.8-.24,4.14-.85,1.34-.6,2.52-1.58,3.53-2.94,1.08-1.46,1.75-2.91,2.01-4.36Zm10.52,21.84c2.24-.29,4.05-1.36,5.43-3.22,1.45-1.96,2.08-3.99,1.89-6.09-.2-2.1-.83-4.13-1.91-6.09-1.07-1.97-2.42-3.8-4.04-5.51-1.62-1.71-3.12-3.15-4.5-4.33l-.26.04c1.03,3.03,1.27,5.85.72,8.49-.55,2.63-1.78,5.23-3.68,7.8-1.68,2.26-3.81,4.11-6.4,5.55-2.58,1.43-5.26,2.32-8.05,2.57s-5.25-.12-7.8-.99c-2.55-.88-4.88-2.1-6.99-3.66-2.72-2.02-4.91-4.33-6.6-6.95-1.69-2.61-2.79-5.38-3.31-8.3-.52-2.92-.44-5.89.23-8.9.67-3.01,2.04-5.9,4.09-8.66,2.98-4.02,6.23-6.74,9.74-8.15,3.51-1.41,7.13-1.94,10.88-1.58,3.75.36,7.48,1.46,11.19,3.28,3.72,1.82,7.23,3.96,10.55,6.43s6.26,5.23,8.97,8.41c2.71,3.18,4.77,6.58,6.17,10.2,1.41,3.62,1.96,7.34,1.65,11.17-.31,3.83-1.86,7.63-4.66,11.4-1.68,2.26-3.56,4.14-5.64,5.64s-4.31,2.53-6.69,3.1c-2.38.58-4.83.67-7.34.28-2.52-.39-5.05-1.29-7.58-2.7l7.56-10.18c2.02.96,4.15,1.29,6.39,1Z"/>
    <g>
      <path class="cls-4" d="m1152.16,23.18c1.03,1.05,2.22,1.81,3.56,2.29,1.34.48,2.78.71,4.32.67,1.53-.04,3.08-.31,4.62-.82,1.43-.47,2.77-1.15,4.02-2.05,1.25-.9,2.29-1.97,3.11-3.19.82-1.22,1.35-2.56,1.6-4.03.25-1.46.11-3-.42-4.61-.49-1.49-1.25-2.72-2.29-3.7-1.04-.98-2.24-1.71-3.58-2.19-1.34-.48-2.77-.71-4.27-.68-1.51.03-2.97.28-4.4.74s-2.87,1.15-4.14,1.99c-1.27.84-2.33,1.83-3.18,2.96-.85,1.13-1.42,2.42-1.7,3.87-.29,1.44-.17,2.97.36,4.58.56,1.73,1.36,3.11,2.39,4.16Zm-23.9-4.06c-1.06,1.99-1.23,4.09-.52,6.29.76,2.32,2.05,4.01,3.87,5.06,1.82,1.05,3.85,1.71,6.08,1.97,2.22.26,4.5.23,6.83-.1,2.33-.33,4.37-.72,6.14-1.16l.12-.24c-3.06-.91-5.51-2.35-7.34-4.32-1.83-1.97-3.24-4.48-4.23-7.51-.87-2.68-1.15-5.49-.82-8.43.33-2.94,1.16-5.63,2.56-8.05s3.13-4.22,5.32-5.79c2.19-1.57,4.53-2.76,7.03-3.58,3.21-1.05,6.38-1.5,9.48-1.36,3.11.14,6,.84,8.69,2.1,2.68,1.26,5.06,3.04,7.12,5.33,2.06,2.29,3.63,5.07,4.7,8.35,1.55,4.76,1.89,8.98,1.02,12.66-.88,3.68-2.55,6.94-5.01,9.78-2.47,2.85-5.51,5.26-9.15,7.23-3.64,1.98-7.42,3.61-11.35,4.89s-7.88,2.08-12.04,2.45c-4.16.37-8.12.08-11.89-.86-3.77-.94-7.12-2.65-10.07-5.11-2.94-2.47-5.15-5.93-6.6-10.39-.87-2.68-1.32-5.3-1.33-7.86s.43-4.98,1.34-7.25c.91-2.27,2.25-4.32,4.02-6.15,1.77-1.83,3.97-3.37,6.59-4.62l3.93,12.05c-1.95,1.1-3.45,2.64-4.51,4.63Z"/>
      <path class="cls-4" d="m1135.28,76.69l40.54-13.22-5.13-15.71,9.55-3.12c.66,2.22,1.52,4.3,2.57,6.22,1.06,1.93,2.34,3.55,3.86,4.87,1.52,1.32,3.26,2.28,5.24,2.88,1.98.61,4.21.7,6.71.28l3.29,10.09-62.5,20.39-4.14-12.68Z"/>
    </g>
    <g>
      <path class="cls-4" d="m1128.04,99.39c1.13.94,2.38,1.59,3.77,1.94,1.38.35,2.84.43,4.36.25,1.52-.19,3.03-.61,4.52-1.26,1.38-.6,2.65-1.41,3.81-2.43,1.16-1.02,2.09-2.18,2.79-3.47.7-1.3,1.1-2.68,1.2-4.16.1-1.48-.18-3-.86-4.54-.63-1.44-1.51-2.59-2.64-3.46-1.13-.87-2.39-1.48-3.77-1.84-1.38-.35-2.82-.44-4.32-.27-1.5.17-2.93.56-4.31,1.16s-2.75,1.42-3.93,2.38c-1.19.96-2.15,2.05-2.88,3.26-.74,1.21-1.18,2.55-1.32,4.01-.15,1.46.12,2.97.8,4.52.73,1.66,1.65,2.97,2.78,3.91Zm-24.18-1.74c-.87,2.09-.83,4.19.09,6.31.98,2.24,2.42,3.79,4.34,4.66,1.92.87,4,1.33,6.24,1.37,2.24.05,4.5-.21,6.79-.76,2.28-.55,4.28-1.14,6-1.75l.1-.25c-3.14-.61-5.71-1.81-7.72-3.6-2.01-1.79-3.65-4.14-4.93-7.07-1.13-2.58-1.67-5.35-1.63-8.31.04-2.96.61-5.72,1.77-8.26,1.11-2.42,2.71-4.5,4.74-6.27,2.03-1.77,4.24-3.19,6.65-4.24,3.1-1.35,6.2-2.11,9.31-2.27,3.11-.16,6.06.26,8.85,1.26,2.79,1,5.33,2.54,7.6,4.62,2.27,2.08,4.1,4.7,5.48,7.85,2.01,4.59,2.75,8.76,2.23,12.5-.52,3.74-1.86,7.15-4.04,10.22-2.18,3.07-4.98,5.76-8.41,8.08-3.43,2.32-7.04,4.3-10.82,5.96s-7.65,2.83-11.75,3.6c-4.11.77-8.08.86-11.92.29-3.84-.58-7.34-1.95-10.51-4.12-3.17-2.17-5.69-5.4-7.57-9.71-1.13-2.58-1.82-5.15-2.08-7.7-.26-2.55-.05-5,.63-7.35.68-2.35,1.82-4.52,3.41-6.51,1.59-1.99,3.63-3.74,6.12-5.24l5.08,11.62c-1.83,1.28-3.18,2.96-4.05,5.05Z"/>
      <path class="cls-4" d="m1116.4,154.28l39.07-17.07-6.62-15.15,9.21-4.02c.87,2.15,1.92,4.13,3.16,5.95,1.24,1.82,2.67,3.31,4.31,4.47,1.64,1.16,3.47,1.95,5.49,2.37,2.03.41,4.26.29,6.71-.37l4.25,9.72-60.24,26.32-5.34-12.22Z"/>
    </g>
    <g>
      <path class="cls-4" d="m1084.01,204.91c.25-1.45.18-2.86-.2-4.23-.39-1.37-1.04-2.67-1.97-3.9-.92-1.22-2.04-2.32-3.35-3.29-1.21-.89-2.54-1.59-4.01-2.08-1.46-.5-2.93-.72-4.4-.68-1.47.04-2.87.39-4.21,1.04-1.33.65-2.5,1.66-3.51,3.02-.93,1.26-1.49,2.6-1.68,4.01-.19,1.42-.09,2.81.3,4.19.39,1.37,1.03,2.67,1.93,3.87.9,1.21,1.95,2.26,3.16,3.15s2.6,1.67,4.03,2.21c1.43.55,2.85.84,4.26.87,1.42.03,2.79-.25,4.14-.86,1.34-.6,2.51-1.59,3.52-2.95,1.08-1.46,1.74-2.92,1.99-4.36Zm10.58,21.81c2.24-.29,4.05-1.37,5.42-3.24,1.45-1.96,2.07-3.99,1.87-6.09-.2-2.1-.85-4.13-1.93-6.09-1.08-1.96-2.43-3.8-4.05-5.5-1.62-1.7-3.13-3.14-4.51-4.32l-.26.04c1.04,3.02,1.29,5.85.74,8.48-.54,2.63-1.76,5.24-3.66,7.81-1.67,2.27-3.8,4.12-6.38,5.56-2.58,1.44-5.26,2.33-8.04,2.59s-5.25-.1-7.8-.97c-2.55-.87-4.88-2.08-7-3.64-2.72-2.01-4.93-4.32-6.62-6.93-1.69-2.61-2.81-5.37-3.34-8.3-.53-2.92-.46-5.88.2-8.9.67-3.01,2.02-5.9,4.06-8.67,2.97-4.03,6.21-6.76,9.71-8.18,3.5-1.42,7.13-1.96,10.87-1.61,3.75.35,7.48,1.43,11.2,3.24,3.72,1.81,7.25,3.94,10.57,6.4,3.28,2.42,6.27,5.21,8.99,8.38,2.72,3.17,4.79,6.56,6.2,10.18,1.42,3.61,1.98,7.34,1.69,11.16-.3,3.83-1.84,7.63-4.62,11.41-1.67,2.27-3.55,4.15-5.63,5.65s-4.31,2.54-6.68,3.13c-2.37.58-4.82.68-7.34.3-2.52-.38-5.05-1.27-7.59-2.68l7.53-10.2c2.02.95,4.15,1.28,6.39.98Z"/>
      <path class="cls-4" d="m1137.37,187.55l-34.32-25.31-9.81,13.3-8.09-5.96c1.43-1.83,2.62-3.73,3.57-5.71.96-1.98,1.53-3.97,1.72-5.97.19-2-.04-3.98-.7-5.94-.66-1.96-1.88-3.84-3.67-5.62l6.3-8.54,52.91,39.02-7.92,10.73Z"/>
    </g>
    <g>
      <path class="cls-4" d="m1121.06,249.57c-.07-1.47-.44-2.83-1.11-4.09-.67-1.26-1.59-2.39-2.76-3.39-1.17-1-2.49-1.83-3.98-2.49-1.37-.61-2.83-1-4.36-1.17-1.53-.17-3.02-.07-4.44.29-1.43.36-2.72,1-3.89,1.92-1.16.92-2.09,2.16-2.77,3.7-.64,1.43-.89,2.86-.77,4.28.12,1.43.52,2.77,1.19,4.02.67,1.26,1.58,2.38,2.72,3.37,1.14.99,2.39,1.78,3.77,2.39s2.9,1.07,4.41,1.29c1.51.23,2.96.2,4.35-.07,1.39-.27,2.67-.85,3.85-1.73,1.18-.88,2.11-2.09,2.8-3.64.74-1.66,1.07-3.22,1.01-4.69Zm15.04,19.01c2.12-.77,3.66-2.21,4.6-4.33.99-2.23,1.16-4.35.51-6.35-.65-2-1.72-3.85-3.2-5.53-1.48-1.68-3.19-3.18-5.15-4.5-1.95-1.31-3.73-2.39-5.34-3.25l-.25.09c1.67,2.73,2.52,5.44,2.56,8.12.04,2.69-.59,5.49-1.89,8.41-1.14,2.58-2.82,4.85-5.03,6.81-2.21,1.97-4.63,3.41-7.29,4.26s-5.15,1.03-7.83.74c-2.68-.3-5.22-.98-7.62-2.05-3.09-1.37-5.74-3.15-7.96-5.33-2.22-2.18-3.9-4.64-5.05-7.38-1.15-2.74-1.72-5.65-1.72-8.73,0-3.08.7-6.2,2.1-9.35,2.03-4.58,4.61-7.94,7.72-10.09,3.11-2.15,6.54-3.45,10.27-3.92,3.74-.46,7.62-.21,11.64.75,4.03.97,7.93,2.29,11.7,3.97s7.25,3.73,10.59,6.24c3.34,2.51,6.09,5.38,8.25,8.6,2.17,3.22,3.52,6.74,4.05,10.54.54,3.8-.15,7.85-2.05,12.14-1.14,2.58-2.57,4.82-4.28,6.73s-3.66,3.41-5.85,4.49c-2.19,1.08-4.56,1.71-7.1,1.88-2.54.17-5.21-.16-7.99-.98l5.15-11.59c2.18.49,4.33.35,6.46-.42Z"/>
      <path class="cls-4" d="m1169.42,221.11l-38.97-17.31-6.71,15.11-9.18-4.08c1-2.09,1.75-4.21,2.25-6.35.51-2.14.64-4.2.39-6.2-.24-1.99-.9-3.88-1.96-5.65-1.06-1.77-2.66-3.34-4.8-4.7l4.31-9.7,60.08,26.69-5.41,12.19Z"/>
    </g>
    <g>
      <path class="cls-4" d="m1070.04,325c1.11-.96,1.95-2.1,2.52-3.4.57-1.31.89-2.73.95-4.26.06-1.53-.11-3.09-.51-4.67-.37-1.46-.96-2.84-1.78-4.15-.82-1.31-1.81-2.41-2.98-3.31-1.17-.9-2.47-1.52-3.91-1.86-1.44-.34-2.99-.31-4.62.11-1.52.39-2.8,1.07-3.84,2.04-1.04.98-1.85,2.12-2.42,3.43-.57,1.31-.89,2.71-.96,4.22-.07,1.5.08,2.98.45,4.44s.96,2.94,1.72,4.26c.76,1.33,1.67,2.45,2.75,3.37,1.07.92,2.32,1.57,3.74,1.95,1.42.38,2.95.36,4.59-.05,1.76-.45,3.19-1.15,4.31-2.11Zm-5.63,23.58c1.92,1.19,4,1.5,6.25.93,2.37-.6,4.13-1.78,5.3-3.53,1.17-1.75,1.96-3.73,2.37-5.93.41-2.2.52-4.48.35-6.82-.18-2.34-.43-4.41-.76-6.2l-.23-.14c-1.11,3-2.71,5.34-4.8,7.04-2.09,1.69-4.68,2.94-7.77,3.72-2.73.7-5.55.78-8.46.26-2.91-.52-5.54-1.53-7.86-3.09s-4-3.41-5.42-5.69c-1.42-2.29-2.46-4.7-3.11-7.25-.83-3.28-1.08-6.46-.74-9.55.34-3.09,1.23-5.94,2.67-8.53,1.44-2.6,3.37-4.85,5.79-6.76,2.42-1.91,5.3-3.29,8.64-4.14,4.85-1.24,9.09-1.3,12.7-.18,3.61,1.12,6.75,3,9.43,5.64,2.68,2.65,4.88,5.85,6.61,9.61,1.73,3.76,3.11,7.64,4.13,11.64s1.55,8,1.65,12.18c.09,4.18-.45,8.11-1.65,11.81-1.19,3.7-3.11,6.93-5.77,9.71-2.65,2.78-6.26,4.74-10.81,5.9-2.73.7-5.38.96-7.93.81-2.56-.16-4.94-.76-7.15-1.81-2.21-1.05-4.17-2.53-5.87-4.42-1.71-1.89-3.1-4.18-4.18-6.88l12.29-3.13c.96,2.02,2.41,3.62,4.33,4.81Z"/>
      <path class="cls-4" d="m1122.32,345.36l-10.52-41.32-16.02,4.08-2.48-9.74c2.26-.51,4.39-1.23,6.38-2.16,1.99-.93,3.7-2.1,5.11-3.53,1.41-1.43,2.49-3.1,3.22-5.04.73-1.93.98-4.16.72-6.68l10.28-2.62,16.22,63.71-12.92,3.29Z"/>
    </g>
    <path class="cls-4" d="m1306.89,65.37c-.23-1.45-.75-2.77-1.56-3.94-.81-1.18-1.85-2.2-3.12-3.06-1.27-.86-2.68-1.54-4.23-2.03-1.43-.45-2.92-.68-4.47-.68-1.54,0-3.01.26-4.38.78-1.38.51-2.59,1.29-3.65,2.34-1.05,1.04-1.84,2.37-2.35,3.98-.47,1.49-.57,2.94-.3,4.34.28,1.4.82,2.69,1.63,3.87.81,1.18,1.83,2.19,3.07,3.04,1.24.85,2.58,1.51,4.01,1.96s3,.74,4.53.8c1.53.06,2.96-.13,4.31-.55,1.35-.42,2.56-1.14,3.64-2.15,1.08-1,1.87-2.31,2.38-3.93.55-1.73.71-3.32.48-4.77Zm17.04,17.24c2.03-1,3.39-2.6,4.09-4.81.74-2.33.67-4.45-.19-6.37-.87-1.92-2.13-3.63-3.79-5.14-1.65-1.51-3.53-2.81-5.61-3.9-2.08-1.09-3.97-1.97-5.67-2.64l-.24.12c1.96,2.53,3.1,5.12,3.44,7.79.33,2.67.02,5.52-.95,8.57-.85,2.69-2.27,5.13-4.25,7.32-1.98,2.2-4.23,3.9-6.77,5.04s-5.01,1.6-7.7,1.59c-2.69,0-5.29-.4-7.8-1.2-3.22-1.02-6.06-2.5-8.5-4.42-2.44-1.92-4.39-4.18-5.83-6.78-1.44-2.59-2.33-5.42-2.68-8.49-.34-3.06.01-6.24,1.05-9.52,1.52-4.77,3.7-8.4,6.56-10.88,2.86-2.48,6.11-4.15,9.77-5.02,3.66-.87,7.55-1.05,11.65-.54,4.11.52,8.13,1.4,12.07,2.65s7.62,2.91,11.21,5.04c3.6,2.13,6.65,4.67,9.15,7.64,2.51,2.96,4.24,6.31,5.19,10.02.95,3.72.72,7.82-.7,12.29-.85,2.69-2.02,5.07-3.51,7.16s-3.26,3.79-5.32,5.11c-2.06,1.32-4.35,2.2-6.85,2.65-2.51.45-5.19.42-8.05-.09l3.84-12.08c2.22.25,4.34-.13,6.37-1.13Z"/>
    <g>
      <path class="cls-4" d="m1248.27,133.03c.24-1.45.16-2.86-.23-4.23-.4-1.37-1.06-2.67-1.99-3.89-.93-1.22-2.06-2.31-3.37-3.27-1.22-.88-2.56-1.57-4.02-2.05-1.47-.49-2.93-.7-4.41-.65-1.47.05-2.87.41-4.2,1.07-1.33.66-2.49,1.67-3.49,3.04-.92,1.27-1.47,2.61-1.65,4.03-.18,1.42-.07,2.81.33,4.18.4,1.37,1.05,2.66,1.95,3.86.91,1.2,1.97,2.24,3.18,3.13s2.61,1.65,4.04,2.18c1.43.54,2.85.82,4.27.84,1.42.02,2.79-.27,4.13-.89,1.34-.61,2.5-1.61,3.5-2.97,1.07-1.47,1.72-2.93,1.96-4.38Zm10.73,21.74c2.24-.31,4.04-1.4,5.4-3.27,1.44-1.97,2.04-4.01,1.83-6.1-.22-2.09-.87-4.12-1.97-6.08-1.09-1.96-2.46-3.78-4.09-5.47-1.63-1.69-3.15-3.12-4.54-4.29l-.26.04c1.06,3.02,1.33,5.84.8,8.48-.52,2.64-1.73,5.25-3.6,7.83-1.66,2.28-3.77,4.15-6.34,5.61-2.57,1.46-5.24,2.37-8.02,2.65-2.65.26-5.25-.06-7.81-.92-2.55-.85-4.9-2.05-7.02-3.6-2.73-1.99-4.96-4.28-6.67-6.88-1.71-2.6-2.84-5.36-3.39-8.27-.55-2.92-.5-5.88.14-8.9.64-3.01,1.98-5.92,4-8.7,2.95-4.05,6.16-6.8,9.66-8.25,3.49-1.45,7.11-2.01,10.86-1.68,3.75.33,7.49,1.38,11.22,3.17,3.73,1.79,7.27,3.89,10.61,6.32,3.29,2.39,6.31,5.17,9.05,8.32,2.74,3.15,4.83,6.53,6.27,10.14,1.44,3.6,2.03,7.32,1.76,11.15-.27,3.83-1.78,7.64-4.55,11.44-1.66,2.28-3.52,4.18-5.59,5.69-2.07,1.51-4.29,2.57-6.66,3.17-2.37.6-4.82.72-7.34.35-2.52-.36-5.06-1.24-7.61-2.63l7.46-10.25c2.03.94,4.16,1.25,6.4.94Z"/>
      <path class="cls-4" d="m1301.51,115.3l-34.49-25.08-9.72,13.37-8.13-5.91c1.41-1.84,2.59-3.75,3.53-5.74.94-1.99,1.5-3.98,1.68-5.98.18-2-.07-3.98-.74-5.93-.67-1.96-1.9-3.82-3.71-5.6l6.24-8.58,53.17,38.66-7.84,10.79Z"/>
    </g>
    <path class="cls-4" d="m1278.61,186.76c1.44-.31,2.72-.91,3.85-1.78,1.13-.88,2.09-1.97,2.87-3.29.79-1.32,1.38-2.76,1.78-4.34.37-1.46.51-2.95.42-4.5-.09-1.54-.44-2.98-1.03-4.33-.59-1.35-1.44-2.51-2.55-3.51-1.1-.99-2.48-1.7-4.11-2.11-1.52-.39-2.97-.4-4.35-.04-1.39.36-2.64.98-3.77,1.85-1.13.88-2.08,1.96-2.86,3.24-.78,1.29-1.36,2.66-1.73,4.11-.39,1.52-.57,3.04-.53,4.57.03,1.53.3,2.95.8,4.27.5,1.32,1.29,2.49,2.35,3.51,1.06,1.02,2.42,1.73,4.06,2.15,1.76.45,3.36.52,4.79.2Zm-16.22,18.01c1.11,1.96,2.79,3.23,5.04,3.8,2.37.6,4.48.41,6.35-.56,1.86-.98,3.5-2.34,4.92-4.08,1.41-1.74,2.6-3.68,3.57-5.83.97-2.14,1.73-4.08,2.3-5.81l-.14-.23c-2.41,2.1-4.94,3.39-7.58,3.88-2.64.49-5.51.34-8.61-.45-2.73-.7-5.25-1.97-7.56-3.82-2.31-1.85-4.14-3.99-5.43-6.47s-1.89-4.9-2.04-7.59c-.16-2.69.09-5.31.74-7.86.83-3.28,2.14-6.19,3.92-8.74,1.78-2.55,3.92-4.62,6.43-6.21,2.5-1.59,5.28-2.64,8.32-3.16,3.04-.52,6.23-.35,9.56.5,4.85,1.24,8.6,3.21,11.24,5.91,2.64,2.71,4.5,5.86,5.58,9.47,1.08,3.61,1.49,7.47,1.21,11.6-.28,4.13-.92,8.2-1.94,12.2-1,3.94-2.46,7.77-4.38,11.48-1.92,3.71-4.28,6.91-7.09,9.58-2.81,2.68-6.05,4.6-9.71,5.77-3.66,1.17-7.76,1.17-12.31.01-2.73-.7-5.18-1.72-7.36-3.08s-3.98-3.03-5.41-5.01c-1.43-1.98-2.45-4.21-3.05-6.69-.6-2.48-.72-5.16-.37-8.04l12.29,3.13c-.12,2.23.38,4.33,1.5,6.29Z"/>
    <path class="cls-4" d="m1302.67,232.3c1.25.77,2.59,1.22,4.01,1.37,1.42.15,2.87.02,4.35-.39,1.48-.41,2.91-1.04,4.29-1.9,1.27-.8,2.41-1.78,3.41-2.96,1-1.18,1.75-2.46,2.25-3.84.5-1.38.7-2.81.58-4.3-.11-1.48-.62-2.94-1.51-4.37-.83-1.33-1.87-2.34-3.11-3.04-1.25-.7-2.58-1.12-4-1.27-1.42-.15-2.86-.03-4.31.37-1.45.39-2.82.98-4.09,1.78s-2.51,1.81-3.54,2.93c-1.03,1.12-1.83,2.34-2.38,3.64-.55,1.3-.79,2.69-.72,4.16.07,1.47.55,2.92,1.45,4.36.96,1.54,2.07,2.69,3.32,3.46Zm-24.17,1.8c-.55,2.19-.21,4.27,1.01,6.23,1.29,2.07,2.95,3.4,4.98,3.98,2.02.58,4.15.73,6.37.45,2.22-.28,4.42-.86,6.61-1.74,2.18-.88,4.07-1.75,5.68-2.61l.06-.26c-3.19-.15-5.91-.96-8.16-2.43-2.25-1.47-4.22-3.57-5.91-6.27-1.49-2.39-2.43-5.05-2.82-7.98-.39-2.93-.23-5.75.55-8.43s2.03-4.85,3.78-6.9c1.75-2.05,3.73-3.77,5.97-5.16,2.87-1.79,5.83-2.99,8.88-3.6,3.05-.61,6.03-.63,8.94-.05,2.91.58,5.64,1.74,8.2,3.46,2.55,1.73,4.74,4.05,6.57,6.97,2.65,4.25,4,8.26,4.03,12.04.03,3.78-.8,7.35-2.51,10.7-1.71,3.35-4.09,6.43-7.14,9.22-3.06,2.79-6.33,5.28-9.84,7.47-3.45,2.16-7.15,3.91-11.1,5.27-3.95,1.36-7.87,2.03-11.75,2.02-3.88-.01-7.55-.86-11-2.54-3.45-1.69-6.42-4.52-8.91-8.5-1.49-2.39-2.55-4.83-3.18-7.31s-.78-4.94-.44-7.36c.33-2.42,1.14-4.74,2.42-6.94,1.28-2.2,3.04-4.23,5.29-6.07l6.71,10.76c-1.63,1.53-2.72,3.39-3.27,5.58Z"/>
  </g>
  <g id="Layer_3" data-name="Layer 3">
    <g>
      <rect class="cls-5" x="-15.16" y="-468" width="1372.58" height="1372.58"/>
      <path class="cls-2" d="m112.19,53.84c-3.87-.33-7.27-2.22-10.18-5.67s-4.21-7.12-3.88-10.99c.33-3.87,2.22-7.27,5.67-10.18s7.12-4.21,10.99-3.88c3.87.33,7.27,2.22,10.18,5.67s4.21,7.12,3.88,10.99c-.33,3.87-2.22,7.27-5.67,10.18s-7.12,4.21-10.99,3.88Zm-26.57-28.77c-3.47-4.11-5.63-8.23-6.49-12.38-.86-4.15-.97-8.01-.32-11.6.65-3.58,1.79-7.82,3.41-12.71,1.86-5.56,2.9-10,3.14-13.32.24-3.32-.79-6.33-3.07-9.04l-4.25-5.04c-2.44-2.89-5.42-4.33-8.93-4.33-3.51,0-6.99,1.47-10.45,4.38l-12.04,10.16c-3.73,3.15-5.67,6.91-5.83,11.27-.15,4.37,1.51,8.6,4.97,12.71L26.45,11.5C21.41,5.53,18.24-.87,16.95-7.7c-1.29-6.82-.59-13.53,2.09-20.11,2.68-6.58,7.14-12.51,13.4-17.79l12.04-10.16c6.07-5.12,12.34-8.53,18.81-10.24,6.47-1.71,12.66-1.66,18.58.14,5.92,1.8,11.08,5.31,15.49,10.54l4.25,5.04c3.55,4.2,5.78,8.31,6.69,12.33.92,4.02,1.04,7.67.37,10.95-.67,3.28-1.74,7.39-3.44,12.26-1.95,5.58-3.18,10.15-3.44,13.82-.26,3.66,1.1,7.27,4.09,10.81l1.66,1.96-19.32,16.31-2.6-3.08Z"/>
      <path class="cls-2" d="m300.3,51.41c-2.33-3.11-3.16-6.91-2.52-11.38s2.53-7.87,5.64-10.2c3.11-2.33,6.91-3.16,11.38-2.52,4.47.65,7.87,2.53,10.2,5.64,2.33,3.11,3.16,6.91,2.51,11.38s-2.53,7.87-5.64,10.2c-3.12,2.33-6.91,3.16-11.38,2.52s-7.87-2.53-10.2-5.64Zm3.89-38.96c.77-5.32,2.42-9.67,4.95-13.07,2.53-3.4,5.35-6.04,8.46-7.94,3.11-1.89,7.04-3.85,11.78-5.88,5.39-2.3,9.41-4.47,12.05-6.49,2.64-2.02,4.21-4.79,4.72-8.3l.95-6.53c.54-3.75-.35-6.93-2.69-9.55-2.34-2.62-5.74-4.26-10.21-4.91l-15.59-2.26c-4.84-.7-8.94.34-12.3,3.12-3.37,2.78-5.43,6.83-6.2,12.15l-25.02-3.63c1.12-7.73,3.81-14.35,8.06-19.84,4.25-5.49,9.73-9.42,16.43-11.78,6.7-2.36,14.1-2.96,22.2-1.78l15.59,2.26c7.86,1.14,14.57,3.56,20.14,7.27,5.57,3.71,9.64,8.37,12.23,13.99,2.58,5.62,3.38,11.81,2.4,18.58l-.95,6.53c-.79,5.44-2.38,9.84-4.78,13.19-2.4,3.35-5.05,5.87-7.94,7.55-2.9,1.68-6.68,3.6-11.45,5.56-5.47,2.24-9.7,4.36-12.62,6.59-2.91,2.23-4.71,5.64-5.37,10.24l-.37,2.54-25.02-3.63.58-3.99Z"/>
      <path class="cls-2" d="m560.83,3.95c-2.4-3.06-3.32-6.83-2.78-11.32s2.35-7.93,5.41-10.32c3.06-2.4,6.83-3.32,11.32-2.78s7.93,2.35,10.33,5.41c2.4,3.06,3.32,6.83,2.78,11.32-.55,4.49-2.35,7.93-5.41,10.32-3.06,2.4-6.84,3.32-11.32,2.78s-7.93-2.35-10.32-5.41Zm2.99-39.04c.65-5.33,2.2-9.73,4.65-13.18,2.45-3.45,5.21-6.16,8.28-8.13,3.07-1.96,6.95-4.01,11.64-6.15,5.34-2.43,9.3-4.68,11.9-6.77,2.59-2.08,4.1-4.88,4.53-8.4l.8-6.55c.46-3.76-.51-6.92-2.91-9.49-2.4-2.57-5.84-4.12-10.32-4.67l-15.64-1.9c-4.85-.59-8.93.55-12.23,3.4-3.3,2.86-5.28,6.96-5.92,12.29l-25.1-3.05c.94-7.76,3.48-14.43,7.6-20.02,4.12-5.59,9.51-9.64,16.15-12.16,6.64-2.51,14.02-3.28,22.15-2.29l15.64,1.9c7.88.96,14.65,3.23,20.31,6.81,5.66,3.58,9.83,8.15,12.54,13.71,2.71,5.56,3.65,11.73,2.83,18.52l-.8,6.55c-.66,5.46-2.16,9.89-4.48,13.3-2.32,3.41-4.91,5.99-7.77,7.73-2.86,1.75-6.6,3.76-11.32,5.82-5.41,2.37-9.6,4.59-12.46,6.88-2.86,2.3-4.57,5.75-5.13,10.36l-.31,2.55-25.1-3.05.49-4Z"/>
      <path class="cls-2" d="m898.61,7.96c-3.22-2.17-5.26-5.48-6.12-9.92-.86-4.43-.2-8.27,1.97-11.49,2.17-3.22,5.48-5.26,9.92-6.12,4.44-.86,8.27-.2,11.49,1.97,3.22,2.17,5.26,5.48,6.12,9.92s.2,8.27-1.97,11.49c-2.18,3.22-5.48,5.26-9.92,6.12s-8.27.2-11.49-1.97Zm-9.16-38.07c-1.02-5.27-.9-9.93.37-13.98,1.27-4.04,3.06-7.47,5.38-10.28,2.31-2.81,5.38-5.96,9.18-9.43,4.33-3.95,7.41-7.32,9.24-10.1,1.82-2.78,2.4-5.91,1.73-9.39l-1.26-6.47c-.72-3.72-2.62-6.43-5.68-8.14-3.07-1.71-6.82-2.13-11.26-1.27l-15.47,3c-4.8.93-8.32,3.27-10.59,7-2.26,3.74-2.88,8.24-1.86,13.52l-24.82,4.82c-1.49-7.67-1.13-14.8,1.08-21.39,2.2-6.59,6.08-12.1,11.63-16.53,5.55-4.43,12.34-7.43,20.37-8.99l15.47-3c7.79-1.51,14.93-1.43,21.41.23,6.48,1.67,11.86,4.73,16.15,9.18,4.29,4.46,7.08,10.04,8.38,16.76l1.26,6.47c1.05,5.4.99,10.07-.17,14.03-1.16,3.96-2.83,7.21-5.02,9.74-2.18,2.54-5.12,5.6-8.98,9.02-4.42,3.92-7.73,7.32-9.74,10.38-2.02,3.07-2.58,6.88-1.7,11.43l.49,2.52-24.82,4.82-.77-3.96Z"/>
      <path class="cls-2" d="m1080.52,11.43c-2.51-2.96-3.59-6.7-3.21-11.2.37-4.5,2.04-8.01,5-10.53,2.96-2.51,6.7-3.58,11.2-3.21s8.01,2.04,10.53,5c2.51,2.96,3.58,6.7,3.21,11.2-.37,4.51-2.04,8.01-5,10.53-2.97,2.51-6.7,3.58-11.2,3.21s-8.01-2.04-10.53-5Zm1.47-39.13c.44-5.35,1.82-9.81,4.13-13.36,2.31-3.55,4.96-6.36,7.96-8.44,2.99-2.08,6.79-4.28,11.39-6.6,5.24-2.63,9.11-5.04,11.62-7.22,2.51-2.18,3.91-5.04,4.2-8.57l.54-6.57c.31-3.77-.78-6.9-3.27-9.37-2.49-2.47-5.99-3.89-10.5-4.27l-15.7-1.29c-4.87-.4-8.9.89-12.08,3.88-3.19,2.99-5,7.16-5.44,12.51l-25.2-2.07c.64-7.79,2.91-14.56,6.82-20.3,3.9-5.75,9.13-10,15.67-12.77,6.54-2.77,13.89-3.82,22.04-3.15l15.7,1.29c7.91.65,14.76,2.66,20.55,6.01,5.79,3.36,10.14,7.76,13.07,13.21,2.92,5.45,4.1,11.58,3.54,18.4l-.54,6.57c-.45,5.48-1.77,9.97-3.96,13.46-2.19,3.5-4.68,6.17-7.46,8.03-2.79,1.86-6.45,4.01-11.08,6.26-5.32,2.58-9.42,4.95-12.19,7.36-2.77,2.41-4.35,5.92-4.73,10.55l-.21,2.56-25.2-2.07.33-4.02Z"/>
      <path class="cls-2" d="m1250.53,16.13c-3.79-.88-6.87-3.23-9.27-7.07s-3.15-7.64-2.27-11.43c.88-3.79,3.23-6.88,7.07-9.27s7.64-3.15,11.43-2.27c3.79.88,6.88,3.24,9.27,7.07s3.15,7.64,2.27,11.43c-.88,3.79-3.23,6.88-7.07,9.27-3.83,2.39-7.64,3.15-11.43,2.27Zm-22.18-32.27c-2.84-4.56-4.4-8.95-4.66-13.18-.26-4.23.18-8.07,1.34-11.53,1.15-3.45,2.89-7.49,5.2-12.09,2.63-5.24,4.3-9.49,5.01-12.73.71-3.25.13-6.38-1.75-9.38l-3.49-5.6c-2-3.21-4.74-5.06-8.22-5.56-3.48-.49-7.13.45-10.97,2.85l-13.37,8.34c-4.15,2.59-6.6,6.03-7.38,10.33-.77,4.3.26,8.73,3.11,13.29l-21.45,13.38c-4.14-6.63-6.36-13.42-6.65-20.36-.3-6.94,1.35-13.47,4.94-19.6,3.59-6.13,8.86-11.36,15.8-15.69l13.37-8.34c6.74-4.2,13.43-6.68,20.08-7.45,6.65-.76,12.77.17,18.37,2.79,5.6,2.63,10.21,6.84,13.83,12.64l3.49,5.6c2.91,4.66,4.53,9.05,4.86,13.16.33,4.11-.07,7.74-1.19,10.89-1.13,3.15-2.78,7.07-5.16,11.64-2.73,5.24-4.59,9.6-5.38,13.18-.79,3.59.05,7.35,2.51,11.28l1.36,2.18-21.45,13.38-2.13-3.42Z"/>
      <path class="cls-2" d="m118.53,208.42c-3.86-.44-7.2-2.42-10.02-5.96-2.81-3.53-4-7.23-3.57-11.1.44-3.86,2.42-7.2,5.96-10.02,3.53-2.81,7.23-4.01,11.1-3.57,3.86.44,7.2,2.43,10.02,5.96s4.01,7.23,3.57,11.09c-.44,3.86-2.43,7.2-5.96,10.02s-7.23,4-11.09,3.57Zm-25.73-29.51c-3.35-4.2-5.39-8.39-6.14-12.56-.74-4.17-.74-8.04.01-11.6.75-3.56,2.01-7.77,3.77-12.61,2.01-5.51,3.19-9.92,3.52-13.23.33-3.31-.61-6.35-2.81-9.12l-4.11-5.16c-2.36-2.96-5.29-4.49-8.8-4.58-3.51-.09-7.03,1.27-10.57,4.08l-12.32,9.82c-3.82,3.04-5.87,6.75-6.15,11.1-.28,4.36,1.26,8.64,4.61,12.84l-19.78,15.75c-4.87-6.11-7.85-12.6-8.94-19.46-1.09-6.86-.21-13.54,2.66-20.04,2.86-6.5,7.5-12.3,13.9-17.4l12.32-9.82c6.21-4.95,12.58-8.18,19.09-9.7,6.52-1.52,12.71-1.3,18.57.67,5.86,1.97,10.92,5.63,15.19,10.98l4.11,5.16c3.42,4.3,5.54,8.47,6.34,12.52.8,4.05.82,7.7.06,10.96-.76,3.26-1.95,7.34-3.79,12.15-2.11,5.52-3.46,10.06-3.83,13.71-.37,3.65.89,7.29,3.78,10.92l1.6,2.01-19.78,15.75-2.51-3.15Z"/>
      <path class="cls-2" d="m137.26,233.62c-.9-3.78-.16-7.59,2.21-11.44,2.37-3.85,5.45-6.22,9.23-7.12,3.78-.9,7.6-.16,11.44,2.21s6.22,5.45,7.12,9.23c.9,3.78.16,7.6-2.21,11.44s-5.45,6.22-9.23,7.12c-3.78.9-7.6.16-11.44-2.21-3.85-2.37-6.22-5.45-7.11-9.23Zm19.05-34.21c2.82-4.57,6.07-7.92,9.74-10.03,3.67-2.11,7.31-3.42,10.92-3.92,3.61-.5,7.99-.74,13.14-.72,5.86.03,10.41-.36,13.64-1.17,3.22-.81,5.77-2.72,7.63-5.74l3.46-5.61c1.99-3.22,2.43-6.5,1.33-9.84-1.1-3.33-3.58-6.19-7.42-8.56l-13.41-8.27c-4.16-2.56-8.34-3.24-12.53-2.02-4.19,1.22-7.7,4.11-10.52,8.69l-21.52-13.27c4.1-6.65,9.2-11.66,15.28-15.01,6.08-3.35,12.67-4.78,19.75-4.29,7.08.49,14.11,2.89,21.08,7.18l13.41,8.27c6.76,4.17,11.96,9.06,15.6,14.68,3.64,5.62,5.52,11.52,5.66,17.7.13,6.18-1.59,12.18-5.18,18.01l-3.46,5.61c-2.89,4.68-6.1,8.08-9.63,10.21-3.54,2.12-6.97,3.38-10.29,3.77-3.33.39-7.57.65-12.72.55-5.91-.11-10.64.15-14.2,1.04-3.56.89-6.56,3.31-9,7.26l-1.35,2.18-21.52-13.27,2.12-3.43Z"/>
      <path class="cls-2" d="m286.52,261.61c-3.67-1.28-6.48-3.96-8.45-8.03s-2.3-7.94-1.02-11.61c1.28-3.67,3.96-6.48,8.03-8.45,4.07-1.96,7.94-2.3,11.61-1.02,3.67,1.28,6.48,3.96,8.45,8.03,1.96,4.07,2.3,7.94,1.02,11.61-1.28,3.67-3.96,6.49-8.03,8.45s-7.94,2.3-11.61,1.02Zm-18.56-34.48c-2.33-4.84-3.4-9.37-3.2-13.61.2-4.23,1.06-8,2.58-11.31,1.52-3.31,3.68-7.13,6.48-11.46,3.18-4.92,5.3-8.96,6.36-12.12,1.06-3.15.82-6.32-.72-9.52l-2.86-5.94c-1.64-3.41-4.17-5.55-7.57-6.42-3.4-.87-7.14-.32-11.21,1.64l-14.19,6.84c-4.4,2.12-7.22,5.28-8.45,9.47-1.23,4.19-.68,8.7,1.65,13.54l-22.78,10.98c-3.39-7.04-4.86-14.03-4.41-20.96.45-6.93,2.8-13.25,7.03-18.95,4.23-5.7,10.04-10.33,17.41-13.88l14.19-6.84c7.15-3.45,14.07-5.19,20.77-5.23,6.69-.04,12.68,1.55,17.96,4.77,5.28,3.22,9.41,7.91,12.38,14.07l2.86,5.94c2.39,4.95,3.52,9.49,3.41,13.61-.12,4.12-.9,7.69-2.37,10.7-1.46,3.01-3.53,6.72-6.39,11.01-3.28,4.92-5.61,9.04-6.78,12.52-1.17,3.48-.75,7.31,1.27,11.49l1.11,2.31-22.78,10.98-1.75-3.63Z"/>
      <path class="cls-2" d="m367.86,227.32c-2.36-3.09-3.23-6.87-2.63-11.35s2.45-7.9,5.54-10.25c3.09-2.36,6.87-3.23,11.35-2.63s7.9,2.45,10.25,5.54c2.36,3.09,3.23,6.88,2.63,11.35s-2.45,7.9-5.54,10.25c-3.09,2.36-6.88,3.23-11.35,2.63-4.48-.6-7.9-2.45-10.25-5.54Zm3.49-39c.72-5.33,2.32-9.7,4.82-13.12,2.49-3.42,5.29-6.1,8.38-8.02,3.09-1.92,7-3.92,11.72-6,5.37-2.36,9.36-4.56,11.98-6.61,2.62-2.05,4.16-4.83,4.64-8.34l.88-6.54c.5-3.75-.42-6.93-2.78-9.53-2.36-2.6-5.78-4.2-10.26-4.8l-15.62-2.1c-4.84-.65-8.93.43-12.27,3.25-3.34,2.82-5.36,6.89-6.08,12.21l-25.06-3.37c1.04-7.74,3.66-14.39,7.86-19.92,4.19-5.54,9.63-9.52,16.31-11.95,6.67-2.43,14.07-3.1,22.18-2.01l15.62,2.1c7.87,1.06,14.61,3.42,20.22,7.07,5.61,3.65,9.73,8.27,12.37,13.87,2.64,5.59,3.5,11.78,2.59,18.56l-.88,6.54c-.73,5.45-2.28,9.86-4.65,13.24-2.37,3.38-4.99,5.92-7.87,7.63-2.88,1.71-6.65,3.67-11.39,5.68-5.44,2.3-9.66,4.46-12.55,6.72-2.89,2.26-4.65,5.69-5.27,10.29l-.34,2.54-25.06-3.37.54-4Z"/>
      <path class="cls-2" d="m457.1,328.23c-3.21-2.19-5.23-5.51-6.06-9.95s-.15-8.27,2.04-11.47c2.19-3.21,5.51-5.23,9.95-6.06s8.27-.15,11.48,2.04c3.21,2.19,5.23,5.51,6.06,9.95s.15,8.27-2.04,11.47c-2.2,3.21-5.51,5.23-9.96,6.06s-8.27.15-11.47-2.04Zm-8.92-38.12c-.99-5.28-.84-9.94.46-13.97,1.29-4.03,3.11-7.45,5.44-10.25,2.33-2.8,5.41-5.92,9.24-9.38,4.36-3.92,7.46-7.27,9.3-10.04,1.84-2.77,2.44-5.89,1.78-9.38l-1.22-6.48c-.7-3.72-2.58-6.44-5.63-8.17-3.06-1.72-6.81-2.17-11.25-1.34l-15.49,2.91c-4.8.9-8.34,3.21-10.63,6.93-2.28,3.72-2.93,8.22-1.94,13.51l-24.85,4.66c-1.44-7.68-1.04-14.81,1.21-21.38,2.24-6.57,6.16-12.06,11.73-16.46,5.57-4.4,12.38-7.36,20.43-8.87l15.49-2.91c7.8-1.46,14.94-1.34,21.41.36,6.47,1.71,11.83,4.8,16.09,9.28,4.26,4.48,7.02,10.09,8.28,16.81l1.22,6.48c1.01,5.4.93,10.08-.26,14.03-1.19,3.95-2.88,7.19-5.08,9.71-2.2,2.53-5.16,5.57-9.04,8.97-4.45,3.89-7.77,7.27-9.81,10.32-2.04,3.06-2.63,6.86-1.77,11.42l.47,2.52-24.85,4.66-.74-3.96Z"/>
      <path class="cls-2" d="m529.46,239.11c-1.15-3.71-.67-7.57,1.45-11.56s5.02-6.57,8.74-7.71c3.71-1.15,7.57-.66,11.56,1.45s6.57,5.02,7.72,8.74c1.15,3.71.66,7.57-1.45,11.56-2.11,4-5.02,6.57-8.74,7.71-3.71,1.15-7.57.66-11.57-1.45s-6.57-5.02-7.71-8.74Zm16.73-35.4c2.51-4.75,5.53-8.3,9.05-10.66,3.52-2.35,7.06-3.9,10.64-4.64,3.57-.74,7.92-1.27,13.07-1.59,5.85-.36,10.36-1.05,13.53-2.08,3.16-1.02,5.57-3.1,7.23-6.23l3.08-5.83c1.77-3.35,1.99-6.65.67-9.9-1.32-3.25-3.98-5.94-7.98-8.05l-13.93-7.36c-4.32-2.28-8.53-2.67-12.64-1.18-4.1,1.49-7.41,4.62-9.92,9.37l-22.36-11.81c3.65-6.91,8.4-12.24,14.25-15.99,5.85-3.75,12.32-5.61,19.43-5.59,7.1.02,14.27,1.94,21.51,5.77l13.93,7.36c7.02,3.71,12.53,8.25,16.54,13.61,4,5.36,6.28,11.12,6.83,17.28.55,6.16-.78,12.26-3.97,18.31l-3.08,5.83c-2.57,4.86-5.55,8.47-8.93,10.82-3.39,2.35-6.73,3.84-10.02,4.45-3.29.61-7.51,1.15-12.65,1.4-5.9.28-10.61.86-14.1,1.98-3.49,1.13-6.33,3.74-8.49,7.84l-1.2,2.27-22.36-11.81,1.88-3.56Z"/>
      <path class="cls-2" d="m678.58,326.42c-3.58-1.51-6.23-4.35-7.94-8.53s-1.81-8.07-.3-11.65c1.51-3.58,4.35-6.23,8.53-7.94s8.07-1.81,11.65-.31c3.58,1.51,6.23,4.35,7.94,8.53,1.71,4.19,1.81,8.07.31,11.65-1.51,3.58-4.35,6.23-8.53,7.94-4.18,1.71-8.07,1.81-11.65.3Zm-16.4-35.56c-2.03-4.97-2.82-9.57-2.36-13.78.46-4.21,1.55-7.92,3.27-11.13,1.72-3.21,4.11-6.89,7.17-11.04,3.48-4.72,5.85-8.62,7.09-11.7,1.25-3.08,1.2-6.26-.14-9.54l-2.49-6.11c-1.43-3.5-3.82-5.79-7.16-6.87-3.34-1.08-7.11-.76-11.29.95l-14.59,5.96c-4.52,1.85-7.53,4.82-9.02,8.93-1.49,4.11-1.22,8.65.81,13.62l-23.41,9.56c-2.95-7.23-3.99-14.3-3.11-21.19.88-6.89,3.61-13.05,8.19-18.48,4.58-5.43,10.65-9.69,18.23-12.79l14.59-5.96c7.35-3,14.37-4.31,21.05-3.94,6.68.37,12.56,2.33,17.63,5.86,5.07,3.54,8.9,8.47,11.49,14.8l2.49,6.11c2.08,5.09,2.93,9.69,2.56,13.8-.37,4.11-1.38,7.62-3.02,10.53-1.65,2.92-3.94,6.49-7.05,10.6-3.57,4.71-6.15,8.68-7.54,12.08-1.38,3.4-1.19,7.25.56,11.55l.97,2.38-23.41,9.56-1.52-3.73Z"/>
      <path class="cls-2" d="m745.27,295.34c-1.79-3.45-2.01-7.33-.65-11.64s3.77-7.36,7.21-9.15c3.45-1.79,7.33-2.01,11.64-.65,4.31,1.36,7.36,3.77,9.15,7.21,1.79,3.45,2.01,7.33.65,11.64-1.36,4.31-3.76,7.36-7.21,9.15-3.45,1.79-7.33,2.01-11.64.65-4.31-1.36-7.36-3.77-9.15-7.21Zm10.12-37.82c1.62-5.12,3.95-9.16,6.99-12.1,3.04-2.94,6.25-5.1,9.63-6.47,3.38-1.37,7.57-2.67,12.57-3.91,5.69-1.4,10.01-2.89,12.94-4.46,2.93-1.57,4.93-4.05,6-7.43l1.99-6.29c1.14-3.61.77-6.9-1.11-9.86-1.88-2.96-4.98-5.13-9.29-6.49l-15.03-4.75c-4.66-1.47-8.87-1.1-12.64,1.1-3.77,2.2-6.46,5.87-8.08,10.99l-24.11-7.61c2.35-7.45,6.07-13.55,11.15-18.28,5.08-4.74,11.12-7.73,18.11-8.98,6.99-1.25,14.39-.64,22.19,1.82l15.03,4.75c7.57,2.39,13.81,5.87,18.71,10.42,4.9,4.56,8.17,9.82,9.81,15.78,1.64,5.96,1.43,12.2-.63,18.73l-1.99,6.29c-1.66,5.24-3.94,9.32-6.85,12.25-2.91,2.92-5.93,4.98-9.06,6.17-3.13,1.19-7.18,2.48-12.2,3.64-5.76,1.33-10.28,2.74-13.52,4.47-3.24,1.73-5.55,4.81-6.95,9.24l-.77,2.45-24.11-7.61,1.21-3.84Z"/>
      <path class="cls-2" d="m879.5,334.99c-3.87-.31-7.28-2.18-10.21-5.62s-4.25-7.09-3.94-10.97c.31-3.87,2.18-7.28,5.62-10.21s7.09-4.25,10.97-3.94c3.87.31,7.28,2.18,10.21,5.62s4.25,7.09,3.94,10.97c-.31,3.87-2.18,7.28-5.62,10.21-3.44,2.93-7.09,4.25-10.97,3.94Zm-26.71-28.63c-3.49-4.09-5.67-8.2-6.56-12.35-.88-4.14-1.01-8.01-.38-11.6.63-3.59,1.75-7.83,3.35-12.73,1.83-5.57,2.85-10.02,3.07-13.34.22-3.32-.82-6.32-3.12-9.02l-4.28-5.02c-2.46-2.88-5.44-4.31-8.95-4.28-3.51.03-6.99,1.51-10.42,4.44l-11.99,10.23c-3.72,3.17-5.64,6.94-5.77,11.3-.13,4.37,1.55,8.59,5.04,12.68l-19.23,16.41c-5.07-5.94-8.27-12.33-9.59-19.15-1.32-6.82-.66-13.52,1.98-20.12,2.64-6.59,7.08-12.54,13.3-17.85l11.99-10.23c6.04-5.15,12.29-8.6,18.75-10.34,6.46-1.74,12.65-1.72,18.58.04,5.93,1.77,11.11,5.25,15.55,10.46l4.28,5.02c3.57,4.18,5.82,8.28,6.76,12.3.94,4.02,1.08,7.67.43,10.95-.65,3.29-1.7,7.4-3.38,12.27-1.92,5.59-3.12,10.17-3.37,13.83-.25,3.66,1.14,7.26,4.15,10.79l1.67,1.95-19.23,16.41-2.62-3.07Z"/>
      <path class="cls-2" d="m960.7,253.43c-2.49-2.99-3.52-6.73-3.11-11.23s2.11-7.99,5.1-10.48c2.99-2.49,6.73-3.52,11.23-3.11s7.99,2.11,10.48,5.1c2.49,2.99,3.52,6.73,3.11,11.23-.41,4.5-2.11,7.99-5.1,10.48-2.99,2.49-6.73,3.52-11.23,3.11-4.5-.41-7.99-2.11-10.48-5.1Zm1.83-39.11c.49-5.35,1.91-9.79,4.25-13.32,2.35-3.53,5.02-6.32,8.03-8.37,3.01-2.05,6.83-4.22,11.45-6.5,5.26-2.58,9.16-4.96,11.69-7.12,2.53-2.16,3.95-5,4.28-8.53l.6-6.57c.34-3.77-.72-6.9-3.19-9.4-2.47-2.49-5.96-3.95-10.46-4.36l-15.69-1.44c-4.87-.45-8.9.81-12.12,3.77-3.21,2.96-5.07,7.11-5.56,12.46l-25.18-2.3c.71-7.78,3.05-14.53,7-20.24,3.95-5.71,9.22-9.92,15.78-12.63,6.56-2.71,13.92-3.69,22.07-2.95l15.69,1.44c7.91.72,14.74,2.79,20.5,6.2,5.76,3.41,10.07,7.85,12.95,13.33,2.87,5.48,4,11.62,3.37,18.43l-.6,6.57c-.5,5.47-1.86,9.95-4.08,13.43-2.22,3.48-4.73,6.13-7.54,7.96-2.81,1.83-6.49,3.95-11.14,6.16-5.34,2.53-9.46,4.87-12.25,7.25-2.79,2.38-4.4,5.88-4.82,10.5l-.23,2.55-25.18-2.3.37-4.01Z"/>
      <path class="cls-2" d="m1085.5,228.51c-3.45-1.79-5.85-4.85-7.21-9.16s-1.14-8.19.65-11.64c1.79-3.45,4.85-5.85,9.16-7.21,4.31-1.36,8.19-1.14,11.64.65,3.45,1.8,5.85,4.85,7.21,9.16s1.14,8.19-.65,11.64c-1.8,3.45-4.85,5.85-9.16,7.21s-8.19,1.14-11.64-.65Zm-13.42-36.78c-1.62-5.12-2.02-9.77-1.22-13.93.8-4.16,2.19-7.77,4.18-10.83,1.98-3.06,4.67-6.53,8.05-10.41,3.86-4.42,6.53-8.11,8.03-11.08,1.5-2.97,1.71-6.14.65-9.52l-1.98-6.29c-1.14-3.61-3.33-6.09-6.57-7.44-3.24-1.35-7.02-1.34-11.33.02l-15.03,4.74c-4.66,1.47-7.9,4.19-9.72,8.16-1.82,3.97-1.93,8.52-.31,13.64l-24.11,7.6c-2.35-7.45-2.8-14.58-1.36-21.38,1.44-6.79,4.67-12.71,9.68-17.75,5.01-5.04,11.41-8.78,19.22-11.25l15.03-4.74c7.57-2.39,14.67-3.12,21.3-2.2,6.63.92,12.32,3.35,17.09,7.29,4.76,3.94,8.18,9.17,10.23,15.7l1.98,6.29c1.65,5.24,2.13,9.9,1.42,13.96-.71,4.06-2,7.48-3.88,10.25-1.88,2.77-4.46,6.15-7.9,9.98-3.95,4.4-6.85,8.15-8.5,11.42-1.66,3.28-1.79,7.13-.39,11.55l.77,2.45-24.11,7.6-1.21-3.84Z"/>
      <path class="cls-2" d="m1202.83,229.6c-3.68-1.23-6.54-3.87-8.55-7.92-2.01-4.04-2.4-7.91-1.17-11.6,1.23-3.69,3.87-6.53,7.92-8.55,4.04-2.01,7.91-2.41,11.6-1.17,3.69,1.23,6.54,3.88,8.55,7.92,2.02,4.05,2.41,7.91,1.17,11.6-1.24,3.69-3.88,6.54-7.92,8.55-4.05,2.02-7.91,2.4-11.6,1.17Zm-19-34.24c-2.4-4.81-3.52-9.33-3.38-13.57.14-4.23.95-8.01,2.43-11.34,1.48-3.33,3.59-7.18,6.33-11.54,3.12-4.96,5.19-9.03,6.2-12.2,1.01-3.17.73-6.33-.85-9.51l-2.94-5.9c-1.69-3.39-4.24-5.49-7.65-6.32-3.41-.82-7.14-.23-11.19,1.79l-14.1,7.03c-4.37,2.18-7.15,5.37-8.33,9.57-1.18,4.21-.57,8.71,1.82,13.52l-22.63,11.27c-3.48-6.99-5.05-13.96-4.68-20.9.36-6.94,2.63-13.28,6.79-19.04,4.16-5.76,9.9-10.46,17.23-14.11l14.1-7.03c7.11-3.54,14.01-5.37,20.7-5.5,6.69-.13,12.7,1.39,18.02,4.53,5.32,3.15,9.51,7.78,12.56,13.91l2.94,5.9c2.45,4.92,3.64,9.44,3.58,13.57-.06,4.12-.8,7.7-2.23,10.73-1.42,3.03-3.44,6.77-6.24,11.09-3.21,4.96-5.49,9.11-6.62,12.61-1.12,3.5-.65,7.32,1.42,11.47l1.14,2.3-22.63,11.27-1.8-3.61Z"/>
      <path class="cls-2" d="m1260.69,292.69c-3.19-2.22-5.18-5.56-5.97-10.01-.79-4.45-.08-8.27,2.15-11.46,2.22-3.19,5.56-5.18,10.01-5.97s8.27-.08,11.46,2.15c3.19,2.22,5.18,5.56,5.97,10.01.79,4.45.08,8.27-2.15,11.45-2.23,3.19-5.56,5.18-10.01,5.97-4.45.79-8.27.08-11.45-2.15Zm-8.57-38.21c-.94-5.29-.75-9.94.58-13.97,1.33-4.02,3.17-7.42,5.54-10.2,2.36-2.77,5.47-5.87,9.33-9.29,4.39-3.88,7.52-7.2,9.39-9.95,1.87-2.75,2.49-5.87,1.87-9.36l-1.16-6.49c-.66-3.73-2.52-6.47-5.56-8.22-3.04-1.75-6.79-2.23-11.24-1.44l-15.51,2.76c-4.81.86-8.37,3.14-10.69,6.84-2.32,3.7-3.01,8.2-2.06,13.49l-24.89,4.43c-1.37-7.69-.9-14.82,1.41-21.37,2.3-6.55,6.27-12,11.88-16.35,5.61-4.35,12.45-7.24,20.51-8.68l15.51-2.76c7.82-1.39,14.95-1.2,21.41.56,6.46,1.77,11.79,4.91,16.01,9.43,4.22,4.52,6.93,10.15,8.13,16.88l1.16,6.49c.96,5.41.83,10.09-.39,14.03-1.22,3.94-2.94,7.16-5.16,9.67-2.22,2.51-5.21,5.52-9.12,8.88-4.48,3.85-7.84,7.2-9.9,10.23-2.06,3.04-2.69,6.84-1.88,11.41l.45,2.53-24.89,4.43-.71-3.97Z"/>
    </g>
  </g>
  <g id="Layer_2" data-name="Layer 2">
    <rect class="cls-1" x="532.5" y="-439.5" width="215" height="1394" transform="translate(897.5 -382.5) rotate(90)"/>
  </g>
</svg>