<?xml version="1.0" encoding="UTF-8"?>
<svg id="Layer_1" data-name="Layer 1" xmlns="http://www.w3.org/2000/svg" viewBox="0 0 512 512">
  <defs>
    <style>
      .cls-1 {
        fill: #e4e4de;
      }
    </style>
  </defs>
  <g>
    <path class="cls-1" d="m138.07,114.48c18.23,0,35.21,2.91,50.94,8.72,15.72,5.82,29.33,14.54,40.83,26.17,11.5,11.63,20.48,26.16,26.96,43.6,6.47,17.44,9.71,37.92,9.71,61.44,0,20.61-2.65,39.64-7.93,57.08-5.29,17.44-13.28,32.5-23.99,45.19-10.7,12.69-24.05,22.66-40.04,29.93-15.99,7.27-34.82,10.9-56.49,10.9H15.98V114.48h122.09Zm-4.36,230.71c8.98,0,17.7-1.45,26.16-4.36,8.45-2.91,15.99-7.73,22.6-14.47,6.6-6.74,11.89-15.52,15.86-26.36,3.97-10.83,5.95-24.04,5.95-39.64,0-14.27-1.39-27.15-4.16-38.65-2.77-11.5-7.33-21.34-13.68-29.53-6.34-8.19-14.74-14.47-25.17-18.83-10.44-4.36-23.33-6.54-38.65-6.54h-44.4v178.38h55.5Z"/>
    <path class="cls-1" d="m357.28,192.57v28.54h1.19c7.13-11.89,16.38-20.54,27.75-25.96,11.36-5.41,22.99-8.13,34.89-8.13,15.06,0,27.41,2.05,37.06,6.14,9.64,4.1,17.24,9.78,22.79,17.05,5.55,7.27,9.45,16.12,11.69,26.56,2.24,10.44,3.37,22,3.37,34.68v126.06h-56.29v-115.75c0-16.91-2.65-29.53-7.93-37.86-5.29-8.33-14.67-12.49-28.14-12.49-15.33,0-26.43,4.56-33.3,13.68-6.87,9.12-10.31,24.12-10.31,44.99v107.43h-56.29v-204.94h53.51Z"/>
  </g>
  <path class="cls-1" d="m496.02,114.48v48.36h-192.26v-48.36h192.26Z"/>
</svg>