<?xml version="1.0" encoding="UTF-8"?>
<svg id="Layer_2" data-name="Layer 2" xmlns="http://www.w3.org/2000/svg" viewBox="0 0 1288.03 1287.85">
  <defs>
    <style>
      .cls-1 {
        fill: #3fa9f5;
      }
    </style>
  </defs>
  <g id="Layer_3" data-name="Layer 3">
    <g>
      <path class="cls-1" d="m59.74,156.74c1.05-5.27,2.94-9.53,5.64-12.79,2.71-3.26,5.66-5.75,8.88-7.47,3.21-1.72,7.24-3.47,12.07-5.24,5.51-2.01,9.63-3.96,12.38-5.84,2.74-1.88,4.46-4.55,5.16-8.03l1.29-6.47c.74-3.71.02-6.94-2.17-9.68-2.19-2.74-5.5-4.56-9.93-5.45l-15.45-3.09c-4.79-.96-8.94-.14-12.45,2.46-3.51,2.6-5.79,6.53-6.85,11.8l-24.79-4.96c1.53-7.66,4.57-14.13,9.11-19.38,4.54-5.26,10.22-8.88,17.03-10.88,6.81-2,14.23-2.19,22.26-.59l15.45,3.09c7.78,1.56,14.36,4.34,19.73,8.34,5.36,4,9.18,8.88,11.46,14.63,2.27,5.75,2.74,11.98,1.4,18.69l-1.29,6.47c-1.08,5.39-2.91,9.69-5.48,12.92-2.58,3.22-5.36,5.59-8.34,7.11-2.98,1.52-6.89,3.17-11.73,4.94-5.61,1.87-9.92,3.84-12.96,5.91-3.03,2.07-5,5.38-5.91,9.93l-.5,2.52-24.79-4.96.79-3.95Zm-5.97,38.7c-2.16-3.23-2.79-7.07-1.9-11.5.89-4.43,2.95-7.72,6.18-9.88,3.23-2.16,7.07-2.79,11.5-1.9,4.43.89,7.72,2.95,9.88,6.18,2.15,3.24,2.79,7.07,1.9,11.5-.89,4.43-2.95,7.72-6.18,9.88-3.24,2.16-7.07,2.79-11.5,1.9-4.43-.89-7.72-2.95-9.88-6.18Z"/>
      <path class="cls-1" d="m174.21,127.99c-3.86-.41-7.22-2.38-10.05-5.9s-4.05-7.21-3.64-11.07c.41-3.86,2.38-7.22,5.9-10.05s7.21-4.05,11.07-3.64c3.86.41,7.22,2.38,10.05,5.9s4.05,7.21,3.64,11.07c-.41,3.87-2.38,7.22-5.9,10.05s-7.21,4.05-11.07,3.64Zm-25.92-29.35c-3.37-4.18-5.45-8.35-6.22-12.52-.77-4.16-.79-8.03-.06-11.6.73-3.57,1.96-7.78,3.7-12.63,1.98-5.52,3.12-9.94,3.44-13.25.31-3.31-.64-6.34-2.87-9.1l-4.14-5.13c-2.38-2.95-5.32-4.45-8.83-4.53-3.51-.07-7.03,1.31-10.54,4.15l-12.26,9.89c-3.8,3.07-5.83,6.78-6.08,11.14-.25,4.36,1.31,8.63,4.69,12.81l-19.68,15.88c-4.91-6.08-7.93-12.55-9.06-19.41-1.14-6.85-.29-13.54,2.54-20.05,2.82-6.52,7.42-12.34,13.79-17.48l12.26-9.89c6.18-4.98,12.52-8.26,19.03-9.82,6.51-1.56,12.7-1.38,18.57.55,5.88,1.93,10.96,5.56,15.25,10.88l4.14,5.13c3.45,4.28,5.59,8.44,6.42,12.48.83,4.04.87,7.7.13,10.96-.74,3.27-1.9,7.35-3.71,12.18-2.07,5.53-3.4,10.08-3.75,13.74-.35,3.66.94,7.29,3.85,10.9l1.61,2-19.68,15.88-2.53-3.14Z"/>
      <path class="cls-1" d="m191.19,222.13c-.34-3.87.94-7.54,3.84-11.01s6.29-5.37,10.16-5.71c3.87-.34,7.54.94,11,3.84,3.46,2.9,5.37,6.29,5.71,10.16.34,3.87-.94,7.54-3.84,11-2.9,3.47-6.29,5.37-10.16,5.71-3.87.34-7.54-.94-11.01-3.84-3.47-2.9-5.37-6.29-5.71-10.16Zm23.78-31.11c3.45-4.12,7.14-6.96,11.08-8.52,3.94-1.56,7.72-2.33,11.37-2.31,3.64.02,8.01.42,13.11,1.18,5.8.87,10.35,1.14,13.66.81,3.31-.34,6.1-1.86,8.37-4.58l4.23-5.06c2.43-2.9,3.34-6.08,2.73-9.54-.61-3.46-2.65-6.64-6.11-9.54l-12.08-10.12c-3.75-3.14-7.78-4.4-12.11-3.8-4.33.6-8.21,2.96-11.66,7.08l-19.39-16.23c5.02-5.99,10.78-10.21,17.28-12.65,6.5-2.44,13.22-2.91,20.17-1.4,6.94,1.51,13.55,4.89,19.82,10.14l12.08,10.12c6.09,5.1,10.53,10.69,13.32,16.77,2.79,6.08,3.81,12.19,3.05,18.33-.76,6.14-3.33,11.83-7.72,17.07l-4.23,5.06c-3.53,4.21-7.2,7.12-11,8.71-3.81,1.59-7.38,2.34-10.73,2.25-3.35-.09-7.58-.45-12.66-1.28-5.83-.96-10.55-1.38-14.2-1.02-3.65.37-6.97,2.33-9.95,5.89l-1.65,1.97-19.39-16.23,2.59-3.09Z"/>
      <path class="cls-1" d="m298.68,102.6c-.08-3.89,1.45-7.46,4.58-10.72s6.64-4.92,10.53-5c3.89-.08,7.46,1.45,10.72,4.58s4.92,6.64,5,10.53c.08,3.89-1.45,7.46-4.58,10.71s-6.64,4.93-10.53,5c-3.89.08-7.46-1.45-10.72-4.58s-4.92-6.64-5-10.53Zm25.86-29.4c3.72-3.87,7.6-6.45,11.64-7.74,4.03-1.29,7.87-1.8,11.5-1.52,3.63.27,7.97.97,13,2.08,5.72,1.27,10.25,1.85,13.57,1.74,3.32-.11,6.21-1.44,8.67-3.99l4.57-4.75c2.62-2.73,3.75-5.84,3.38-9.33-.37-3.49-2.19-6.8-5.44-9.94l-11.36-10.92c-3.52-3.39-7.46-4.93-11.82-4.63-4.36.3-8.4,2.39-12.12,6.26l-18.23-17.52c5.42-5.63,11.46-9.45,18.11-11.43,6.65-1.99,13.39-1.99,20.21,0,6.82,1.98,13.18,5.81,19.08,11.48l11.36,10.92c5.72,5.5,9.77,11.39,12.14,17.64,2.37,6.26,2.96,12.42,1.79,18.49-1.18,6.07-4.14,11.57-8.88,16.5l-4.57,4.75c-3.81,3.96-7.67,6.61-11.57,7.94-3.91,1.33-7.52,1.83-10.86,1.51-3.33-.32-7.53-.96-12.55-2.15-5.75-1.36-10.43-2.11-14.1-1.99-3.67.12-7.11,1.85-10.33,5.19l-1.78,1.85-18.23-17.52,2.79-2.91Z"/>
      <path class="cls-1" d="m473.96,237.13c-3.89-.06-7.4-1.71-10.55-4.96s-4.69-6.81-4.62-10.7c.06-3.89,1.72-7.4,4.96-10.55s6.81-4.69,10.7-4.62c3.89.06,7.4,1.72,10.54,4.96s4.69,6.81,4.62,10.7c-.06,3.89-1.72,7.4-4.96,10.55-3.25,3.14-6.81,4.69-10.7,4.62Zm-28.47-26.88c-3.74-3.86-6.18-7.83-7.32-11.91-1.14-4.08-1.52-7.93-1.11-11.55.4-3.62,1.25-7.93,2.54-12.92,1.47-5.68,2.21-10.18,2.22-13.5,0-3.33-1.22-6.26-3.68-8.81l-4.59-4.74c-2.63-2.72-5.7-3.95-9.2-3.71-3.5.25-6.88,1.94-10.12,5.09l-11.32,10.96c-3.51,3.4-5.19,7.28-5.04,11.65.15,4.37,2.09,8.48,5.83,12.34l-18.16,17.59c-5.44-5.61-9.03-11.78-10.78-18.51-1.75-6.72-1.51-13.45.71-20.2,2.22-6.74,6.27-12.96,12.15-18.66l11.32-10.96c5.7-5.52,11.73-9.36,18.06-11.5,6.34-2.14,12.52-2.52,18.55-1.13,6.03,1.39,11.42,4.54,16.18,9.46l4.59,4.74c3.82,3.95,6.33,7.9,7.52,11.85,1.19,3.95,1.56,7.58,1.12,10.9-.44,3.32-1.23,7.49-2.59,12.46-1.56,5.7-2.47,10.35-2.49,14.02-.01,3.67,1.59,7.17,4.82,10.51l1.78,1.84-18.16,17.59-2.8-2.9Z"/>
      <path class="cls-1" d="m568.36,137.93c-3.86-.42-7.21-2.38-10.05-5.91s-4.04-7.21-3.62-11.08c.42-3.86,2.39-7.21,5.91-10.05,3.52-2.83,7.21-4.04,11.08-3.63,3.86.42,7.21,2.39,10.05,5.91s4.04,7.21,3.63,11.08c-.42,3.86-2.39,7.22-5.91,10.05s-7.21,4.04-11.08,3.62Zm-25.89-29.38c-3.37-4.19-5.44-8.36-6.2-12.53-.77-4.17-.78-8.03-.05-11.6.73-3.57,1.97-7.78,3.71-12.63,1.99-5.52,3.13-9.93,3.45-13.24.31-3.31-.64-6.34-2.86-9.11l-4.14-5.14c-2.37-2.95-5.32-4.46-8.83-4.54-3.51-.07-7.03,1.31-10.55,4.14l-12.27,9.88c-3.81,3.06-5.83,6.78-6.09,11.14-.25,4.36,1.31,8.63,4.68,12.82l-19.69,15.86c-4.9-6.09-7.92-12.56-9.04-19.42-1.13-6.85-.28-13.54,2.56-20.05,2.83-6.51,7.43-12.34,13.81-17.47l12.27-9.88c6.18-4.98,12.53-8.24,19.04-9.8,6.51-1.55,12.7-1.36,18.57.57,5.87,1.94,10.95,5.57,15.24,10.9l4.14,5.14c3.45,4.28,5.58,8.44,6.4,12.48.82,4.04.86,7.7.12,10.96-.74,3.27-1.91,7.35-3.72,12.17-2.08,5.53-3.41,10.08-3.76,13.73-.35,3.66.93,7.29,3.84,10.9l1.61,2-19.69,15.86-2.53-3.14Z"/>
      <path class="cls-1" d="m629.73,231.17c-2.49-2.98-3.54-6.72-3.13-11.23s2.1-8,5.08-10.49c2.98-2.49,6.72-3.54,11.23-3.13s8,2.1,10.49,5.08c2.49,2.98,3.53,6.73,3.13,11.23s-2.1,8-5.08,10.49c-2.98,2.49-6.73,3.54-11.23,3.13s-8-2.1-10.49-5.08Zm1.76-39.12c.48-5.35,1.89-9.79,4.23-13.32,2.34-3.53,5.01-6.32,8.02-8.39,3-2.06,6.82-4.23,11.44-6.51,5.26-2.59,9.15-4.97,11.68-7.14,2.52-2.16,3.95-5.01,4.26-8.54l.59-6.57c.34-3.77-.73-6.9-3.2-9.39-2.48-2.49-5.96-3.94-10.46-4.34l-15.69-1.41c-4.87-.44-8.9.83-12.11,3.79-3.21,2.96-5.05,7.12-5.53,12.47l-25.18-2.26c.7-7.78,3.02-14.54,6.97-20.25,3.94-5.72,9.2-9.94,15.76-12.66,6.56-2.72,13.91-3.72,22.07-2.98l15.69,1.41c7.91.71,14.74,2.77,20.51,6.16,5.76,3.4,10.09,7.84,12.97,13.31,2.88,5.47,4.02,11.61,3.41,18.43l-.59,6.57c-.49,5.47-1.85,9.95-4.06,13.43-2.22,3.48-4.72,6.14-7.52,7.97-2.8,1.84-6.48,3.96-11.13,6.17-5.34,2.54-9.45,4.88-12.24,7.27-2.79,2.39-4.39,5.89-4.81,10.51l-.23,2.55-25.18-2.26.36-4.01Z"/>
      <path class="cls-1" d="m775.27,242.27c-2.06-3.29-2.58-7.14-1.57-11.55s3.17-7.64,6.47-9.7c3.3-2.06,7.14-2.58,11.55-1.57s7.64,3.17,9.7,6.47c2.06,3.29,2.58,7.15,1.57,11.55-1.02,4.41-3.17,7.64-6.46,9.7-3.3,2.06-7.15,2.58-11.55,1.57-4.4-1.01-7.64-3.17-9.7-6.47Zm7.09-38.51c1.21-5.24,3.21-9.44,6.01-12.62,2.8-3.18,5.83-5.58,9.09-7.21,3.26-1.63,7.33-3.26,12.22-4.89,5.56-1.85,9.74-3.68,12.54-5.48,2.8-1.8,4.59-4.42,5.39-7.88l1.48-6.43c.85-3.69.22-6.94-1.89-9.74-2.11-2.8-5.37-4.72-9.77-5.73l-15.35-3.54c-4.76-1.1-8.93-.4-12.52,2.1-3.58,2.5-5.98,6.36-7.19,11.6l-24.64-5.68c1.76-7.62,4.98-13.99,9.67-19.11,4.69-5.12,10.47-8.59,17.34-10.39,6.87-1.8,14.29-1.78,22.27.06l15.35,3.54c7.74,1.78,14.23,4.75,19.48,8.91,5.25,4.16,8.92,9.14,11.03,14.95,2.11,5.81,2.39,12.05.86,18.72l-1.48,6.43c-1.23,5.36-3.19,9.61-5.85,12.75-2.67,3.14-5.52,5.44-8.54,6.87-3.03,1.44-6.96,3.04-11.87,4.6-5.63,1.79-10.03,3.55-13.12,5.53-3.09,1.98-5.15,5.24-6.2,9.76l-.58,2.5-24.64-5.68.91-3.93Z"/>
      <path class="cls-1" d="m817.6,220.43c-.75-3.81.14-7.6,2.66-11.35s5.69-6,9.5-6.75c3.81-.75,7.6.14,11.35,2.66s6,5.69,6.75,9.5c.75,3.81-.14,7.6-2.66,11.35-2.52,3.75-5.69,6-9.5,6.75-3.81.75-7.6-.14-11.35-2.66-3.75-2.52-6-5.69-6.75-9.5Zm20.37-33.44c3-4.46,6.37-7.67,10.12-9.64,3.75-1.97,7.44-3.13,11.06-3.49,3.62-.36,8.01-.43,13.16-.21,5.86.26,10.42.04,13.67-.64,3.25-.68,5.87-2.49,7.85-5.43l3.68-5.47c2.11-3.14,2.68-6.4,1.71-9.78-.97-3.37-3.33-6.32-7.08-8.84l-13.08-8.79c-4.06-2.72-8.2-3.56-12.44-2.51-4.24,1.05-7.86,3.81-10.85,8.27l-20.99-14.1c4.36-6.49,9.64-11.29,15.86-14.4,6.21-3.11,12.84-4.28,19.91-3.51,7.06.77,13.99,3.44,20.78,8l13.08,8.79c6.59,4.43,11.59,9.52,15.01,15.27,3.42,5.76,5.07,11.72,4.97,17.9-.11,6.18-2.07,12.11-5.88,17.79l-3.68,5.47c-3.07,4.56-6.41,7.84-10.02,9.82-3.62,1.98-7.09,3.11-10.43,3.37-3.34.26-7.59.36-12.73.06-5.9-.34-10.64-.27-14.23.48-3.59.75-6.68,3.05-9.27,6.9l-1.43,2.13-20.99-14.1,2.25-3.35Z"/>
      <path class="cls-1" d="m1006.83,239.98c-3.8-.8-6.94-3.09-9.41-6.88s-3.3-7.58-2.5-11.38c.8-3.8,3.09-6.94,6.88-9.41s7.58-3.3,11.38-2.5c3.8.8,6.94,3.1,9.41,6.88s3.3,7.58,2.5,11.38c-.8,3.8-3.1,6.94-6.88,9.41s-7.58,3.3-11.38,2.5Zm-22.82-31.81c-2.93-4.5-4.58-8.86-4.92-13.09-.35-4.22.02-8.07,1.11-11.55,1.09-3.48,2.74-7.54,4.95-12.2,2.53-5.29,4.11-9.57,4.75-12.83.64-3.26,0-6.38-1.94-9.35l-3.6-5.52c-2.07-3.17-4.85-4.97-8.33-5.4-3.49-.42-7.12.6-10.91,3.06l-13.2,8.61c-4.09,2.67-6.48,6.16-7.17,10.47-.69,4.31.44,8.72,3.37,13.22l-21.18,13.81c-4.27-6.55-6.62-13.29-7.06-20.22-.44-6.93,1.08-13.5,4.55-19.7,3.47-6.2,8.63-11.53,15.48-16l13.2-8.61c6.65-4.34,13.29-6.95,19.92-7.85,6.63-.9,12.77-.09,18.42,2.42,5.65,2.52,10.34,6.64,14.08,12.36l3.6,5.52c3,4.6,4.71,8.96,5.13,13.06.41,4.1.09,7.74-.98,10.92-1.07,3.18-2.64,7.12-4.92,11.74-2.62,5.3-4.4,9.69-5.12,13.29-.71,3.6.2,7.35,2.73,11.23l1.4,2.15-21.18,13.81-2.2-3.38Z"/>
      <path class="cls-1" d="m1101.07,136.31c-3.8-.81-6.93-3.11-9.39-6.9s-3.28-7.59-2.47-11.39c.81-3.8,3.11-6.93,6.9-9.39s7.59-3.28,11.39-2.47c3.8.81,6.93,3.11,9.39,6.9s3.29,7.59,2.48,11.39c-.81,3.8-3.11,6.93-6.9,9.39-3.79,2.46-7.59,3.28-11.39,2.47Zm-22.75-31.87c-2.92-4.51-4.55-8.87-4.89-13.1-.34-4.22.04-8.07,1.14-11.55,1.09-3.47,2.76-7.54,4.98-12.18,2.54-5.29,4.13-9.56,4.78-12.82.65-3.26.01-6.38-1.92-9.35l-3.59-5.53c-2.06-3.18-4.83-4.98-8.32-5.42-3.48-.43-7.12.58-10.91,3.04l-13.22,8.57c-4.1,2.66-6.5,6.15-7.19,10.45-.7,4.31.42,8.72,3.34,13.23l-21.21,13.76c-4.25-6.56-6.59-13.3-7.01-20.24-.42-6.93,1.11-13.49,4.59-19.69,3.48-6.19,8.66-11.51,15.52-15.96l13.22-8.57c6.66-4.32,13.31-6.92,19.94-7.8,6.64-.88,12.77-.06,18.42,2.47,5.64,2.53,10.33,6.66,14.05,12.4l3.59,5.53c2.99,4.61,4.69,8.97,5.09,13.07.4,4.11.07,7.74-1,10.91-1.07,3.17-2.65,7.11-4.95,11.73-2.63,5.29-4.42,9.68-5.15,13.28-.72,3.6.18,7.35,2.7,11.24l1.4,2.15-21.21,13.76-2.19-3.38Z"/>
      <path class="cls-1" d="m1155.66,161.36c-3.78-.88-6.87-3.25-9.25-7.09-2.38-3.84-3.13-7.65-2.25-11.44.88-3.78,3.25-6.87,7.08-9.25,3.84-2.38,7.65-3.13,11.44-2.25,3.78.88,6.87,3.25,9.25,7.09s3.14,7.65,2.25,11.44c-.89,3.78-3.25,6.87-7.09,9.25s-7.65,3.13-11.44,2.25Zm-22.12-32.31c-2.83-4.56-4.38-8.96-4.63-13.19-.25-4.23.2-8.07,1.36-11.52,1.16-3.45,2.9-7.48,5.22-12.08,2.64-5.23,4.32-9.48,5.04-12.72.71-3.25.14-6.38-1.73-9.39l-3.48-5.6c-2-3.22-4.73-5.07-8.21-5.58-3.48-.5-7.13.44-10.97,2.82l-13.39,8.31c-4.15,2.58-6.62,6.02-7.4,10.31-.78,4.3.24,8.73,3.08,13.29l-21.48,13.34c-4.12-6.64-6.33-13.43-6.61-20.37-.29-6.94,1.37-13.47,4.98-19.59,3.6-6.12,8.88-11.34,15.83-15.66l13.39-8.31c6.74-4.19,13.44-6.66,20.09-7.41,6.65-.75,12.77.19,18.36,2.83,5.59,2.64,10.19,6.86,13.8,12.67l3.48,5.6c2.9,4.67,4.51,9.06,4.84,13.17.32,4.11-.08,7.74-1.22,10.89-1.14,3.15-2.79,7.06-5.18,11.63-2.74,5.24-4.61,9.59-5.41,13.17-.79,3.59.04,7.35,2.48,11.29l1.35,2.18-21.48,13.34-2.13-3.42Z"/>
      <path class="cls-1" d="m1181.39,124.06c.22-5.37,1.42-9.87,3.58-13.51,2.17-3.64,4.7-6.56,7.61-8.76,2.9-2.2,6.61-4.55,11.11-7.06,5.13-2.84,8.9-5.41,11.32-7.69,2.42-2.28,3.7-5.19,3.84-8.73l.27-6.59c.16-3.78-1.06-6.86-3.65-9.23-2.59-2.37-6.15-3.65-10.66-3.83l-15.74-.65c-4.88-.2-8.85,1.26-11.92,4.37-3.06,3.11-4.7,7.36-4.92,12.72l-25.26-1.04c.32-7.81,2.32-14.67,5.98-20.57,3.66-5.9,8.71-10.37,15.13-13.4,6.42-3.03,13.72-4.38,21.9-4.05l15.74.65c7.93.33,14.86,2.05,20.78,5.17,5.92,3.12,10.45,7.34,13.6,12.66,3.14,5.33,4.57,11.41,4.29,18.24l-.27,6.59c-.23,5.49-1.36,10.03-3.4,13.61-2.04,3.58-4.42,6.36-7.13,8.33-2.71,1.97-6.32,4.2-10.82,6.7-5.25,2.72-9.21,5.34-11.88,7.85-2.67,2.52-4.1,6.1-4.29,10.73l-.11,2.56-25.26-1.04.17-4.03Zm.13,39.15c-2.63-2.86-3.85-6.54-3.67-11.06.19-4.51,1.71-8.09,4.57-10.72,2.86-2.63,6.55-3.86,11.06-3.67,4.51.19,8.09,1.71,10.72,4.57,2.63,2.86,3.85,6.55,3.67,11.06-.19,4.52-1.71,8.09-4.57,10.72-2.86,2.63-6.55,3.86-11.06,3.67-4.51-.19-8.09-1.71-10.72-4.57Z"/>
      <path class="cls-1" d="m95.87,489.84c-3.87-.33-7.27-2.22-10.18-5.67s-4.21-7.12-3.88-10.99c.33-3.87,2.22-7.27,5.67-10.18s7.12-4.21,10.99-3.88c3.87.33,7.27,2.22,10.18,5.67s4.21,7.12,3.88,10.99c-.33,3.87-2.22,7.27-5.67,10.18s-7.12,4.21-10.99,3.88Zm-26.57-28.77c-3.47-4.11-5.63-8.23-6.49-12.38-.86-4.15-.97-8.01-.32-11.6.65-3.58,1.79-7.82,3.41-12.71,1.86-5.56,2.9-10,3.14-13.32.24-3.32-.79-6.33-3.07-9.04l-4.25-5.04c-2.44-2.89-5.42-4.33-8.93-4.33-3.51,0-6.99,1.47-10.45,4.38l-12.04,10.16c-3.73,3.15-5.67,6.91-5.83,11.27-.15,4.37,1.51,8.6,4.97,12.71l-19.32,16.31c-5.04-5.97-8.21-12.37-9.49-19.2-1.29-6.82-.59-13.53,2.09-20.11,2.68-6.58,7.14-12.51,13.4-17.79l12.04-10.16c6.07-5.12,12.34-8.53,18.81-10.24,6.47-1.71,12.66-1.66,18.58.14,5.92,1.8,11.08,5.31,15.49,10.54l4.25,5.04c3.55,4.2,5.78,8.31,6.69,12.33.92,4.02,1.04,7.67.37,10.95-.67,3.28-1.74,7.39-3.44,12.26-1.95,5.58-3.18,10.15-3.44,13.82-.26,3.66,1.1,7.27,4.09,10.81l1.66,1.96-19.32,16.31-2.6-3.08Z"/>
      <path class="cls-1" d="m211.16,398.58c-3.4-1.88-5.72-5-6.97-9.34-1.25-4.34-.93-8.22.96-11.62,1.88-3.4,5-5.72,9.34-6.97s8.22-.93,11.62.96c3.4,1.88,5.72,5,6.97,9.34,1.25,4.35.93,8.22-.95,11.62-1.88,3.4-5,5.72-9.34,6.97s-8.22.93-11.61-.96Zm-12.46-37.12c-1.48-5.16-1.77-9.81-.86-13.95.91-4.14,2.39-7.71,4.46-10.71,2.06-3,4.83-6.41,8.32-10.2,3.97-4.31,6.74-7.94,8.32-10.87,1.57-2.93,1.87-6.1.9-9.5l-1.82-6.34c-1.04-3.64-3.17-6.17-6.38-7.61-3.21-1.43-6.98-1.52-11.33-.28l-15.15,4.35c-4.7,1.35-8.01,3.98-9.93,7.9-1.92,3.92-2.15,8.46-.66,13.63l-24.3,6.97c-2.16-7.51-2.42-14.65-.8-21.4,1.62-6.75,5-12.58,10.13-17.49,5.14-4.9,11.64-8.49,19.5-10.74l15.15-4.35c7.63-2.19,14.75-2.74,21.35-1.65,6.6,1.09,12.23,3.67,16.89,7.73,4.66,4.06,7.94,9.38,9.82,15.96l1.82,6.34c1.52,5.28,1.87,9.95,1.06,13.99-.81,4.04-2.19,7.43-4.14,10.15-1.95,2.72-4.61,6.03-8.15,9.77-4.06,4.29-7.05,7.97-8.8,11.2-1.74,3.23-1.97,7.08-.69,11.54l.71,2.47-24.3,6.97-1.11-3.87Z"/>
      <path class="cls-1" d="m283.97,487.41c-2.33-3.11-3.16-6.91-2.52-11.38s2.53-7.87,5.64-10.2c3.11-2.33,6.91-3.16,11.38-2.52,4.47.65,7.87,2.53,10.2,5.64,2.33,3.11,3.16,6.91,2.51,11.38s-2.53,7.87-5.64,10.2c-3.12,2.33-6.91,3.16-11.38,2.52s-7.87-2.53-10.2-5.64Zm3.89-38.96c.77-5.32,2.42-9.67,4.95-13.07,2.53-3.4,5.35-6.04,8.46-7.94,3.11-1.89,7.04-3.85,11.78-5.88,5.39-2.3,9.41-4.47,12.05-6.49,2.64-2.02,4.21-4.79,4.72-8.3l.95-6.53c.54-3.75-.35-6.93-2.69-9.55-2.34-2.62-5.74-4.26-10.21-4.91l-15.59-2.26c-4.84-.7-8.94.34-12.3,3.12-3.37,2.78-5.43,6.83-6.2,12.15l-25.02-3.63c1.12-7.73,3.81-14.35,8.06-19.84,4.25-5.49,9.73-9.42,16.43-11.78,6.7-2.36,14.1-2.96,22.2-1.78l15.59,2.26c7.86,1.14,14.57,3.56,20.14,7.27,5.57,3.71,9.64,8.37,12.23,13.99,2.58,5.62,3.38,11.81,2.4,18.58l-.95,6.53c-.79,5.44-2.38,9.84-4.78,13.19-2.4,3.35-5.05,5.87-7.94,7.55-2.9,1.68-6.68,3.6-11.45,5.56-5.47,2.24-9.7,4.36-12.62,6.59-2.91,2.23-4.71,5.64-5.37,10.24l-.37,2.54-25.02-3.63.58-3.99Z"/>
      <path class="cls-1" d="m301.02,395.99c-.64-3.83.35-7.59,2.97-11.27s5.85-5.84,9.69-6.48c3.83-.64,7.59.35,11.27,2.97s5.84,5.85,6.48,9.69c.64,3.83-.35,7.59-2.97,11.27s-5.85,5.84-9.68,6.48c-3.83.64-7.59-.35-11.27-2.97s-5.84-5.85-6.48-9.69Zm21.29-32.86c3.12-4.37,6.58-7.49,10.39-9.36,3.8-1.86,7.52-2.92,11.16-3.18,3.63-.26,8.02-.2,13.16.16,5.85.42,10.41.33,13.68-.26,3.27-.59,5.94-2.33,7.99-5.21l3.83-5.37c2.2-3.08,2.86-6.32,1.98-9.72-.88-3.4-3.15-6.41-6.83-9.04l-12.83-9.15c-3.98-2.84-8.1-3.79-12.37-2.85-4.27.93-7.96,3.59-11.08,7.96l-20.59-14.68c4.54-6.36,9.96-11.02,16.25-13.95,6.29-2.94,12.96-3.92,20-2.95,7.04.97,13.88,3.83,20.55,8.58l12.83,9.15c6.46,4.61,11.32,9.84,14.58,15.69,3.26,5.85,4.74,11.86,4.46,18.04-.28,6.18-2.4,12.05-6.38,17.62l-3.83,5.37c-3.19,4.48-6.62,7.65-10.29,9.54-3.67,1.88-7.18,2.91-10.52,3.07-3.35.17-7.59.14-12.73-.3-5.89-.51-10.62-.56-14.24.08-3.61.65-6.77,2.86-9.46,6.64l-1.49,2.09-20.59-14.68,2.34-3.28Z"/>
      <path class="cls-1" d="m497.29,400.6c-3.22-2.18-5.26-5.48-6.11-9.92-.86-4.44-.2-8.27,1.98-11.48,2.18-3.22,5.48-5.26,9.92-6.11s8.27-.2,11.49,1.98c3.22,2.18,5.26,5.49,6.11,9.92s.2,8.27-1.98,11.48c-2.18,3.22-5.49,5.26-9.92,6.11s-8.27.2-11.48-1.98Zm-9.12-38.08c-1.02-5.28-.89-9.93.38-13.97,1.27-4.04,3.07-7.46,5.39-10.28,2.32-2.81,5.38-5.95,9.19-9.42,4.34-3.95,7.42-7.31,9.25-10.09,1.83-2.78,2.41-5.91,1.73-9.39l-1.25-6.48c-.72-3.72-2.61-6.43-5.68-8.14-3.07-1.71-6.82-2.14-11.26-1.28l-15.47,2.99c-4.8.93-8.33,3.26-10.59,6.99-2.26,3.73-2.89,8.24-1.87,13.52l-24.83,4.79c-1.48-7.67-1.12-14.81,1.1-21.39,2.21-6.58,6.09-12.09,11.64-16.52,5.55-4.43,12.34-7.42,20.38-8.97l15.47-2.99c7.79-1.5,14.93-1.42,21.41.25,6.48,1.67,11.86,4.74,16.14,9.2,4.28,4.46,7.07,10.05,8.37,16.76l1.25,6.48c1.04,5.4.98,10.07-.18,14.03-1.17,3.96-2.84,7.2-5.02,9.74-2.19,2.54-5.13,5.6-8.99,9.01-4.43,3.92-7.73,7.31-9.75,10.37-2.02,3.07-2.59,6.88-1.71,11.43l.49,2.52-24.83,4.79-.76-3.96Z"/>
      <path class="cls-1" d="m544.5,439.95c-2.4-3.06-3.32-6.83-2.78-11.32s2.35-7.93,5.41-10.32c3.06-2.4,6.83-3.32,11.32-2.78s7.93,2.35,10.33,5.41c2.4,3.06,3.32,6.83,2.78,11.32-.55,4.49-2.35,7.93-5.41,10.32-3.06,2.4-6.84,3.32-11.32,2.78s-7.93-2.35-10.32-5.41Zm2.99-39.04c.65-5.33,2.2-9.73,4.65-13.18,2.45-3.45,5.21-6.16,8.28-8.13,3.07-1.96,6.95-4.01,11.64-6.15,5.34-2.43,9.3-4.68,11.9-6.77,2.59-2.08,4.1-4.88,4.53-8.4l.8-6.55c.46-3.76-.51-6.92-2.91-9.49-2.4-2.57-5.84-4.12-10.32-4.67l-15.64-1.9c-4.85-.59-8.93.55-12.23,3.4-3.3,2.86-5.28,6.96-5.92,12.29l-25.1-3.05c.94-7.76,3.48-14.43,7.6-20.02,4.12-5.59,9.51-9.64,16.15-12.16,6.64-2.51,14.02-3.28,22.15-2.29l15.64,1.9c7.88.96,14.65,3.23,20.31,6.81,5.66,3.58,9.83,8.15,12.54,13.71,2.71,5.56,3.65,11.73,2.83,18.52l-.8,6.55c-.66,5.46-2.16,9.89-4.48,13.3-2.32,3.41-4.91,5.99-7.77,7.73-2.86,1.75-6.6,3.76-11.32,5.82-5.41,2.37-9.6,4.59-12.46,6.88-2.86,2.3-4.57,5.75-5.13,10.36l-.31,2.55-25.1-3.05.49-4Z"/>
      <path class="cls-1" d="m675.97,410.35c-2.52-2.96-3.6-6.69-3.25-11.19s2.02-8.02,4.97-10.54c2.96-2.52,6.69-3.6,11.19-3.25,4.5.36,8.02,2.02,10.54,4.97,2.52,2.96,3.6,6.69,3.24,11.19-.36,4.51-2.01,8.02-4.97,10.54-2.96,2.52-6.69,3.6-11.19,3.25s-8.02-2.02-10.54-4.97Zm1.36-39.13c.43-5.36,1.79-9.81,4.1-13.37,2.3-3.55,4.95-6.38,7.93-8.47,2.98-2.09,6.77-4.3,11.37-6.63,5.23-2.65,9.1-5.07,11.6-7.26,2.5-2.19,3.89-5.05,4.17-8.58l.52-6.57c.3-3.77-.8-6.89-3.3-9.36-2.5-2.46-6-3.88-10.51-4.24l-15.71-1.25c-4.87-.39-8.89.92-12.07,3.91-3.18,3-4.98,7.17-5.41,12.53l-25.2-2c.62-7.79,2.87-14.57,6.76-20.32,3.89-5.76,9.1-10.03,15.63-12.82,6.53-2.79,13.88-3.86,22.03-3.21l15.71,1.25c7.91.63,14.77,2.62,20.57,5.95,5.8,3.34,10.17,7.73,13.1,13.17,2.94,5.44,4.14,11.57,3.59,18.39l-.52,6.57c-.44,5.48-1.74,9.97-3.92,13.47-2.18,3.5-4.66,6.19-7.44,8.05-2.78,1.86-6.44,4.03-11.07,6.29-5.31,2.59-9.4,4.98-12.17,7.4-2.76,2.42-4.33,5.94-4.7,10.56l-.2,2.56-25.2-2,.32-4.02Z"/>
      <path class="cls-1" d="m776.54,380.11c-3.88-.19-7.34-1.97-10.37-5.32-3.03-3.35-4.45-6.97-4.26-10.85.19-3.88,1.97-7.34,5.32-10.37s6.97-4.45,10.85-4.26c3.88.19,7.34,1.97,10.37,5.32s4.45,6.97,4.26,10.85c-.2,3.88-1.97,7.34-5.32,10.37-3.35,3.03-6.97,4.45-10.85,4.26Zm-27.53-27.84c-3.6-3.98-5.91-8.03-6.91-12.15-1-4.11-1.25-7.97-.72-11.58.53-3.6,1.52-7.88,2.98-12.82,1.67-5.62,2.56-10.1,2.68-13.42.12-3.32-1-6.3-3.38-8.93l-4.42-4.89c-2.54-2.81-5.56-4.15-9.07-4.02-3.51.13-6.94,1.71-10.29,4.74l-11.69,10.57c-3.62,3.28-5.43,7.1-5.44,11.47,0,4.37,1.8,8.54,5.4,12.53l-18.75,16.96c-5.24-5.8-8.63-12.08-10.15-18.86-1.52-6.78-1.05-13.5,1.4-20.17,2.45-6.66,6.71-12.74,12.78-18.23l11.69-10.57c5.89-5.33,12.04-8.95,18.45-10.88,6.41-1.93,12.6-2.09,18.57-.5,5.97,1.6,11.26,4.93,15.84,10l4.42,4.89c3.69,4.08,6.06,8.11,7.11,12.1,1.05,3.99,1.3,7.63.75,10.93-.55,3.3-1.49,7.45-3.02,12.37-1.76,5.64-2.83,10.26-2.97,13.93-.14,3.67,1.35,7.22,4.46,10.66l1.72,1.9-18.75,16.96-2.7-2.99Z"/>
      <path class="cls-1" d="m882.28,443.96c-3.22-2.17-5.26-5.48-6.12-9.92-.86-4.43-.2-8.27,1.97-11.49,2.17-3.22,5.48-5.26,9.92-6.12,4.44-.86,8.27-.2,11.49,1.97,3.22,2.17,5.26,5.48,6.12,9.92s.2,8.27-1.97,11.49c-2.18,3.22-5.48,5.26-9.92,6.12s-8.27.2-11.49-1.97Zm-9.16-38.07c-1.02-5.27-.9-9.93.37-13.98,1.27-4.04,3.06-7.47,5.38-10.28,2.31-2.81,5.38-5.96,9.18-9.43,4.33-3.95,7.41-7.32,9.24-10.1,1.82-2.78,2.4-5.91,1.73-9.39l-1.26-6.47c-.72-3.72-2.62-6.43-5.68-8.14-3.07-1.71-6.82-2.13-11.26-1.27l-15.47,3c-4.8.93-8.32,3.27-10.59,7-2.26,3.74-2.88,8.24-1.86,13.52l-24.82,4.82c-1.49-7.67-1.13-14.8,1.08-21.39,2.2-6.59,6.08-12.1,11.63-16.53,5.55-4.43,12.34-7.43,20.37-8.99l15.47-3c7.79-1.51,14.93-1.43,21.41.23,6.48,1.67,11.86,4.73,16.15,9.18,4.29,4.46,7.08,10.04,8.38,16.76l1.26,6.47c1.05,5.4.99,10.07-.17,14.03-1.16,3.96-2.83,7.21-5.02,9.74-2.18,2.54-5.12,5.6-8.98,9.02-4.42,3.92-7.73,7.32-9.74,10.38-2.02,3.07-2.58,6.88-1.7,11.43l.49,2.52-24.82,4.82-.77-3.96Z"/>
      <path class="cls-1" d="m978.67,407.66c-3.71-1.17-6.61-3.75-8.7-7.76s-2.55-7.86-1.39-11.57c1.16-3.71,3.75-6.61,7.76-8.7s7.86-2.55,11.57-1.39c3.71,1.17,6.61,3.75,8.7,7.76s2.55,7.86,1.39,11.57c-1.17,3.71-3.75,6.61-7.76,8.7-4.01,2.09-7.86,2.55-11.57,1.39Zm-19.64-33.87c-2.49-4.76-3.7-9.26-3.63-13.5.06-4.23.8-8.03,2.22-11.39,1.42-3.35,3.45-7.24,6.11-11.66,3.03-5.02,5.02-9.13,5.97-12.31.96-3.18.62-6.35-1.02-9.49l-3.05-5.85c-1.75-3.36-4.34-5.41-7.77-6.18-3.43-.76-7.15-.09-11.15,2l-13.97,7.29c-4.33,2.26-7.05,5.5-8.15,9.73-1.1,4.23-.41,8.72,2.08,13.49l-22.42,11.7c-3.61-6.93-5.31-13.87-5.07-20.81.23-6.94,2.38-13.33,6.43-19.16,4.05-5.83,9.7-10.64,16.96-14.43l13.97-7.29c7.04-3.67,13.9-5.63,20.59-5.89,6.69-.25,12.72,1.15,18.1,4.2,5.38,3.05,9.65,7.61,12.82,13.67l3.05,5.85c2.54,4.87,3.82,9.37,3.84,13.5.01,4.13-.66,7.72-2.03,10.77-1.37,3.06-3.31,6.83-6.03,11.21-3.12,5.02-5.32,9.22-6.38,12.73-1.06,3.52-.51,7.33,1.63,11.44l1.19,2.27-22.42,11.7-1.86-3.57Z"/>
      <path class="cls-1" d="m1064.19,447.43c-2.51-2.96-3.59-6.7-3.21-11.2.37-4.5,2.04-8.01,5-10.53,2.96-2.51,6.7-3.58,11.2-3.21s8.01,2.04,10.53,5c2.51,2.96,3.58,6.7,3.21,11.2-.37,4.51-2.04,8.01-5,10.53-2.97,2.51-6.7,3.58-11.2,3.21s-8.01-2.04-10.53-5Zm1.47-39.13c.44-5.35,1.82-9.81,4.13-13.36,2.31-3.55,4.96-6.36,7.96-8.44,2.99-2.08,6.79-4.28,11.39-6.6,5.24-2.63,9.11-5.04,11.62-7.22,2.51-2.18,3.91-5.04,4.2-8.57l.54-6.57c.31-3.77-.78-6.9-3.27-9.37-2.49-2.47-5.99-3.89-10.5-4.27l-15.7-1.29c-4.87-.4-8.9.89-12.08,3.88-3.19,2.99-5,7.16-5.44,12.51l-25.2-2.07c.64-7.79,2.91-14.56,6.82-20.3,3.9-5.75,9.13-10,15.67-12.77,6.54-2.77,13.89-3.82,22.04-3.15l15.7,1.29c7.91.65,14.76,2.66,20.55,6.01,5.79,3.36,10.14,7.76,13.07,13.21,2.92,5.45,4.1,11.58,3.54,18.4l-.54,6.57c-.45,5.48-1.77,9.97-3.96,13.46-2.19,3.5-4.68,6.17-7.46,8.03-2.79,1.86-6.45,4.01-11.08,6.26-5.32,2.58-9.42,4.95-12.19,7.36-2.77,2.41-4.35,5.92-4.73,10.55l-.21,2.56-25.2-2.07.33-4.02Z"/>
      <path class="cls-1" d="m1129.23,414.99c-.15-3.88,1.31-7.48,4.38-10.8,3.07-3.32,6.55-5.05,10.43-5.2,3.88-.15,7.48,1.31,10.8,4.38s5.05,6.55,5.2,10.43c.15,3.88-1.31,7.48-4.38,10.8-3.07,3.32-6.55,5.05-10.43,5.2-3.88.15-7.49-1.31-10.8-4.38s-5.05-6.55-5.2-10.43Zm25.29-29.89c3.65-3.94,7.48-6.6,11.49-7.96,4.01-1.36,7.83-1.95,11.47-1.74,3.64.21,7.98.82,13.04,1.83,5.75,1.16,10.28,1.65,13.6,1.48,3.32-.17,6.18-1.56,8.59-4.16l4.48-4.84c2.57-2.78,3.64-5.91,3.2-9.39-.44-3.48-2.32-6.76-5.63-9.83l-11.57-10.7c-3.59-3.32-7.56-4.78-11.9-4.4-4.35.39-8.35,2.55-12,6.49l-18.56-17.17c5.31-5.74,11.27-9.66,17.89-11.78,6.61-2.12,13.35-2.25,20.21-.39,6.86,1.85,13.29,5.56,19.29,11.11l11.57,10.7c5.83,5.39,9.98,11.2,12.47,17.41,2.49,6.21,3.2,12.36,2.14,18.46-1.06,6.09-3.91,11.65-8.56,16.67l-4.48,4.84c-3.73,4.03-7.54,6.75-11.42,8.16-3.88,1.4-7.49,1.98-10.82,1.72-3.34-.26-7.55-.82-12.58-1.91-5.78-1.25-10.47-1.91-14.13-1.72-3.67.19-7.08,1.98-10.23,5.39l-1.74,1.88-18.56-17.17,2.74-2.96Z"/>
      <path class="cls-1" d="m1234.2,452.14c-3.79-.88-6.87-3.23-9.27-7.07s-3.15-7.64-2.27-11.43c.88-3.79,3.23-6.88,7.07-9.27s7.64-3.15,11.43-2.27c3.79.88,6.88,3.24,9.27,7.07s3.15,7.64,2.27,11.43c-.88,3.79-3.23,6.88-7.07,9.27-3.83,2.39-7.64,3.15-11.43,2.27Zm-22.18-32.27c-2.84-4.56-4.4-8.95-4.66-13.18-.26-4.23.18-8.07,1.34-11.53,1.15-3.45,2.89-7.49,5.2-12.09,2.63-5.24,4.3-9.49,5.01-12.73.71-3.25.13-6.38-1.75-9.38l-3.49-5.6c-2-3.21-4.74-5.06-8.22-5.56-3.48-.49-7.13.45-10.97,2.85l-13.37,8.34c-4.15,2.59-6.6,6.03-7.38,10.33-.77,4.3.26,8.73,3.11,13.29l-21.45,13.38c-4.14-6.63-6.36-13.42-6.65-20.36-.3-6.94,1.35-13.47,4.94-19.6,3.59-6.13,8.86-11.36,15.8-15.69l13.37-8.34c6.74-4.2,13.43-6.68,20.08-7.45,6.65-.76,12.77.17,18.37,2.79,5.6,2.63,10.21,6.84,13.83,12.64l3.49,5.6c2.91,4.66,4.53,9.05,4.86,13.16.33,4.11-.07,7.74-1.19,10.89-1.13,3.15-2.78,7.07-5.16,11.64-2.73,5.24-4.59,9.6-5.38,13.18-.79,3.59.05,7.35,2.51,11.28l1.36,2.18-21.45,13.38-2.13-3.42Z"/>
      <path class="cls-1" d="m102.2,644.42c-3.86-.44-7.2-2.42-10.02-5.96-2.81-3.53-4-7.23-3.57-11.1.44-3.86,2.42-7.2,5.96-10.02,3.53-2.81,7.23-4.01,11.1-3.57,3.86.44,7.2,2.43,10.02,5.96s4.01,7.23,3.57,11.09c-.44,3.86-2.43,7.2-5.96,10.02s-7.23,4-11.09,3.57Zm-25.73-29.51c-3.35-4.2-5.39-8.39-6.14-12.56-.74-4.17-.74-8.04.01-11.6.75-3.56,2.01-7.77,3.77-12.61,2.01-5.51,3.19-9.92,3.52-13.23.33-3.31-.61-6.35-2.81-9.12l-4.11-5.16c-2.36-2.96-5.29-4.49-8.8-4.58-3.51-.09-7.03,1.27-10.57,4.08l-12.32,9.82c-3.82,3.04-5.87,6.75-6.15,11.1-.28,4.36,1.26,8.64,4.61,12.84l-19.78,15.75c-4.87-6.11-7.85-12.6-8.94-19.46-1.09-6.86-.21-13.54,2.66-20.04,2.86-6.5,7.5-12.3,13.9-17.4l12.32-9.82c6.21-4.95,12.58-8.18,19.09-9.7,6.52-1.52,12.71-1.3,18.57.67,5.86,1.97,10.92,5.63,15.19,10.98l4.11,5.16c3.42,4.3,5.54,8.47,6.34,12.52.8,4.05.82,7.7.06,10.96-.76,3.26-1.95,7.34-3.79,12.15-2.11,5.52-3.46,10.06-3.83,13.71-.37,3.65.89,7.29,3.78,10.92l1.6,2.01-19.78,15.75-2.51-3.15Z"/>
      <path class="cls-1" d="m120.93,669.62c-.9-3.78-.16-7.59,2.21-11.44,2.37-3.85,5.45-6.22,9.23-7.12,3.78-.9,7.6-.16,11.44,2.21s6.22,5.45,7.12,9.23c.9,3.78.16,7.6-2.21,11.44s-5.45,6.22-9.23,7.12c-3.78.9-7.6.16-11.44-2.21-3.85-2.37-6.22-5.45-7.11-9.23Zm19.05-34.21c2.82-4.57,6.07-7.92,9.74-10.03,3.67-2.11,7.31-3.42,10.92-3.92,3.61-.5,7.99-.74,13.14-.72,5.86.03,10.41-.36,13.64-1.17,3.22-.81,5.77-2.72,7.63-5.74l3.46-5.61c1.99-3.22,2.43-6.5,1.33-9.84-1.1-3.33-3.58-6.19-7.42-8.56l-13.41-8.27c-4.16-2.56-8.34-3.24-12.53-2.02-4.19,1.22-7.7,4.11-10.52,8.69l-21.52-13.27c4.1-6.65,9.2-11.66,15.28-15.01,6.08-3.35,12.67-4.78,19.75-4.29,7.08.49,14.11,2.89,21.08,7.18l13.41,8.27c6.76,4.17,11.96,9.06,15.6,14.68,3.64,5.62,5.52,11.52,5.66,17.7.13,6.18-1.59,12.18-5.18,18.01l-3.46,5.61c-2.89,4.68-6.1,8.08-9.63,10.21-3.54,2.12-6.97,3.38-10.29,3.77-3.33.39-7.57.65-12.72.55-5.91-.11-10.64.15-14.2,1.04-3.56.89-6.56,3.31-9,7.26l-1.35,2.18-21.52-13.27,2.12-3.43Z"/>
      <path class="cls-1" d="m270.19,697.62c-3.67-1.28-6.48-3.96-8.45-8.03s-2.3-7.94-1.02-11.61c1.28-3.67,3.96-6.48,8.03-8.45,4.07-1.96,7.94-2.3,11.61-1.02,3.67,1.28,6.48,3.96,8.45,8.03,1.96,4.07,2.3,7.94,1.02,11.61-1.28,3.67-3.96,6.49-8.03,8.45s-7.94,2.3-11.61,1.02Zm-18.56-34.48c-2.33-4.84-3.4-9.37-3.2-13.61.2-4.23,1.06-8,2.58-11.31,1.52-3.31,3.68-7.13,6.48-11.46,3.18-4.92,5.3-8.96,6.36-12.12,1.06-3.15.82-6.32-.72-9.52l-2.86-5.94c-1.64-3.41-4.17-5.55-7.57-6.42-3.4-.87-7.14-.32-11.21,1.64l-14.19,6.84c-4.4,2.12-7.22,5.28-8.45,9.47-1.23,4.19-.68,8.7,1.65,13.54l-22.78,10.98c-3.39-7.04-4.86-14.03-4.41-20.96.45-6.93,2.8-13.25,7.03-18.95,4.23-5.7,10.04-10.33,17.41-13.88l14.19-6.84c7.15-3.45,14.07-5.19,20.77-5.23,6.69-.04,12.68,1.55,17.96,4.77,5.28,3.22,9.41,7.91,12.38,14.07l2.86,5.94c2.39,4.95,3.52,9.49,3.41,13.61-.12,4.12-.9,7.69-2.37,10.7-1.46,3.01-3.53,6.72-6.39,11.01-3.28,4.92-5.61,9.04-6.78,12.52-1.17,3.48-.75,7.31,1.27,11.49l1.11,2.31-22.78,10.98-1.75-3.63Z"/>
      <path class="cls-1" d="m351.53,663.32c-2.36-3.09-3.23-6.87-2.63-11.35s2.45-7.9,5.54-10.25c3.09-2.36,6.87-3.23,11.35-2.63s7.9,2.45,10.25,5.54c2.36,3.09,3.23,6.88,2.63,11.35s-2.45,7.9-5.54,10.25c-3.09,2.36-6.88,3.23-11.35,2.63-4.48-.6-7.9-2.45-10.25-5.54Zm3.49-39c.72-5.33,2.32-9.7,4.82-13.12,2.49-3.42,5.29-6.1,8.38-8.02,3.09-1.92,7-3.92,11.72-6,5.37-2.36,9.36-4.56,11.98-6.61,2.62-2.05,4.16-4.83,4.64-8.34l.88-6.54c.5-3.75-.42-6.93-2.78-9.53-2.36-2.6-5.78-4.2-10.26-4.8l-15.62-2.1c-4.84-.65-8.93.43-12.27,3.25-3.34,2.82-5.36,6.89-6.08,12.21l-25.06-3.37c1.04-7.74,3.66-14.39,7.86-19.92,4.19-5.54,9.63-9.52,16.31-11.95,6.67-2.43,14.07-3.1,22.18-2.01l15.62,2.1c7.87,1.06,14.61,3.42,20.22,7.07,5.61,3.65,9.73,8.27,12.37,13.87,2.64,5.59,3.5,11.78,2.59,18.56l-.88,6.54c-.73,5.45-2.28,9.86-4.65,13.24-2.37,3.38-4.99,5.92-7.87,7.63-2.88,1.71-6.65,3.67-11.39,5.68-5.44,2.3-9.66,4.46-12.55,6.72-2.89,2.26-4.65,5.69-5.27,10.29l-.34,2.54-25.06-3.37.54-4Z"/>
      <path class="cls-1" d="m440.77,764.23c-3.21-2.19-5.23-5.51-6.06-9.95s-.15-8.27,2.04-11.47c2.19-3.21,5.51-5.23,9.95-6.06s8.27-.15,11.48,2.04c3.21,2.19,5.23,5.51,6.06,9.95s.15,8.27-2.04,11.47c-2.2,3.21-5.51,5.23-9.96,6.06s-8.27.15-11.47-2.04Zm-8.92-38.12c-.99-5.28-.84-9.94.46-13.97,1.29-4.03,3.11-7.45,5.44-10.25,2.33-2.8,5.41-5.92,9.24-9.38,4.36-3.92,7.46-7.27,9.3-10.04,1.84-2.77,2.44-5.89,1.78-9.38l-1.22-6.48c-.7-3.72-2.58-6.44-5.63-8.17-3.06-1.72-6.81-2.17-11.25-1.34l-15.49,2.91c-4.8.9-8.34,3.21-10.63,6.93-2.28,3.72-2.93,8.22-1.94,13.51l-24.85,4.66c-1.44-7.68-1.04-14.81,1.21-21.38,2.24-6.57,6.16-12.06,11.73-16.46,5.57-4.4,12.38-7.36,20.43-8.87l15.49-2.91c7.8-1.46,14.94-1.34,21.41.36,6.47,1.71,11.83,4.8,16.09,9.28,4.26,4.48,7.02,10.09,8.28,16.81l1.22,6.48c1.01,5.4.93,10.08-.26,14.03-1.19,3.95-2.88,7.19-5.08,9.71-2.2,2.53-5.16,5.57-9.04,8.97-4.45,3.89-7.77,7.27-9.81,10.32-2.04,3.06-2.63,6.86-1.77,11.42l.47,2.52-24.85,4.66-.74-3.96Z"/>
      <path class="cls-1" d="m513.13,675.11c-1.15-3.71-.67-7.57,1.45-11.56s5.02-6.57,8.74-7.71c3.71-1.15,7.57-.66,11.56,1.45s6.57,5.02,7.72,8.74c1.15,3.71.66,7.57-1.45,11.56-2.11,4-5.02,6.57-8.74,7.71-3.71,1.15-7.57.66-11.57-1.45s-6.57-5.02-7.71-8.74Zm16.73-35.4c2.51-4.75,5.53-8.3,9.05-10.66,3.52-2.35,7.06-3.9,10.64-4.64,3.57-.74,7.92-1.27,13.07-1.59,5.85-.36,10.36-1.05,13.53-2.08,3.16-1.02,5.57-3.1,7.23-6.23l3.08-5.83c1.77-3.35,1.99-6.65.67-9.9-1.32-3.25-3.98-5.94-7.98-8.05l-13.93-7.36c-4.32-2.28-8.53-2.67-12.64-1.18-4.1,1.49-7.41,4.62-9.92,9.37l-22.36-11.81c3.65-6.91,8.4-12.24,14.25-15.99,5.85-3.75,12.32-5.61,19.43-5.59,7.1.02,14.27,1.94,21.51,5.77l13.93,7.36c7.02,3.71,12.53,8.25,16.54,13.61,4,5.36,6.28,11.12,6.83,17.28.55,6.16-.78,12.26-3.97,18.31l-3.08,5.83c-2.57,4.86-5.55,8.47-8.93,10.82-3.39,2.35-6.73,3.84-10.02,4.45-3.29.61-7.51,1.15-12.65,1.4-5.9.28-10.61.86-14.1,1.98-3.49,1.13-6.33,3.74-8.49,7.84l-1.2,2.27-22.36-11.81,1.88-3.56Z"/>
      <path class="cls-1" d="m662.26,762.42c-3.58-1.51-6.23-4.35-7.94-8.53s-1.81-8.07-.3-11.65c1.51-3.58,4.35-6.23,8.53-7.94s8.07-1.81,11.65-.31c3.58,1.51,6.23,4.35,7.94,8.53,1.71,4.19,1.81,8.07.31,11.65-1.51,3.58-4.35,6.23-8.53,7.94-4.18,1.71-8.07,1.81-11.65.3Zm-16.4-35.56c-2.03-4.97-2.82-9.57-2.36-13.78.46-4.21,1.55-7.92,3.27-11.13,1.72-3.21,4.11-6.89,7.17-11.04,3.48-4.72,5.85-8.62,7.09-11.7,1.25-3.08,1.2-6.26-.14-9.54l-2.49-6.11c-1.43-3.5-3.82-5.79-7.16-6.87-3.34-1.08-7.11-.76-11.29.95l-14.59,5.96c-4.52,1.85-7.53,4.82-9.02,8.93-1.49,4.11-1.22,8.65.81,13.62l-23.41,9.56c-2.95-7.23-3.99-14.3-3.11-21.19.88-6.89,3.61-13.05,8.19-18.48,4.58-5.43,10.65-9.69,18.23-12.79l14.59-5.96c7.35-3,14.37-4.31,21.05-3.94,6.68.37,12.56,2.33,17.63,5.86,5.07,3.54,8.9,8.47,11.49,14.8l2.49,6.11c2.08,5.09,2.93,9.69,2.56,13.8-.37,4.11-1.38,7.62-3.02,10.53-1.65,2.92-3.94,6.49-7.05,10.6-3.57,4.71-6.15,8.68-7.54,12.08-1.38,3.4-1.19,7.25.56,11.55l.97,2.38-23.41,9.56-1.52-3.73Z"/>
      <path class="cls-1" d="m728.94,731.34c-1.79-3.45-2.01-7.33-.65-11.64s3.77-7.36,7.21-9.15c3.45-1.79,7.33-2.01,11.64-.65,4.31,1.36,7.36,3.77,9.15,7.21,1.79,3.45,2.01,7.33.65,11.64-1.36,4.31-3.76,7.36-7.21,9.15-3.45,1.79-7.33,2.01-11.64.65-4.31-1.36-7.36-3.77-9.15-7.21Zm10.12-37.82c1.62-5.12,3.95-9.16,6.99-12.1,3.04-2.94,6.25-5.1,9.63-6.47,3.38-1.37,7.57-2.67,12.57-3.91,5.69-1.4,10.01-2.89,12.94-4.46,2.93-1.57,4.93-4.05,6-7.43l1.99-6.29c1.14-3.61.77-6.9-1.11-9.86-1.88-2.96-4.98-5.13-9.29-6.49l-15.03-4.75c-4.66-1.47-8.87-1.1-12.64,1.1-3.77,2.2-6.46,5.87-8.08,10.99l-24.11-7.61c2.35-7.45,6.07-13.55,11.15-18.28,5.08-4.74,11.12-7.73,18.11-8.98,6.99-1.25,14.39-.64,22.19,1.82l15.03,4.75c7.57,2.39,13.81,5.87,18.71,10.42,4.9,4.56,8.17,9.82,9.81,15.78,1.64,5.96,1.43,12.2-.63,18.73l-1.99,6.29c-1.66,5.24-3.94,9.32-6.85,12.25-2.91,2.92-5.93,4.98-9.06,6.17-3.13,1.19-7.18,2.48-12.2,3.64-5.76,1.33-10.28,2.74-13.52,4.47-3.24,1.73-5.55,4.81-6.95,9.24l-.77,2.45-24.11-7.61,1.21-3.84Z"/>
      <path class="cls-1" d="m863.17,770.99c-3.87-.31-7.28-2.18-10.21-5.62s-4.25-7.09-3.94-10.97c.31-3.87,2.18-7.28,5.62-10.21s7.09-4.25,10.97-3.94c3.87.31,7.28,2.18,10.21,5.62s4.25,7.09,3.94,10.97c-.31,3.87-2.18,7.28-5.62,10.21-3.44,2.93-7.09,4.25-10.97,3.94Zm-26.71-28.63c-3.49-4.09-5.67-8.2-6.56-12.35-.88-4.14-1.01-8.01-.38-11.6.63-3.59,1.75-7.83,3.35-12.73,1.83-5.57,2.85-10.02,3.07-13.34.22-3.32-.82-6.32-3.12-9.02l-4.28-5.02c-2.46-2.88-5.44-4.31-8.95-4.28-3.51.03-6.99,1.51-10.42,4.44l-11.99,10.23c-3.72,3.17-5.64,6.94-5.77,11.3-.13,4.37,1.55,8.59,5.04,12.68l-19.23,16.41c-5.07-5.94-8.27-12.33-9.59-19.15-1.32-6.82-.66-13.52,1.98-20.12,2.64-6.59,7.08-12.54,13.3-17.85l11.99-10.23c6.04-5.15,12.29-8.6,18.75-10.34,6.46-1.74,12.65-1.72,18.58.04,5.93,1.77,11.11,5.25,15.55,10.46l4.28,5.02c3.57,4.18,5.82,8.28,6.76,12.3.94,4.02,1.08,7.67.43,10.95-.65,3.29-1.7,7.4-3.38,12.27-1.92,5.59-3.12,10.17-3.37,13.83-.25,3.66,1.14,7.26,4.15,10.79l1.67,1.95-19.23,16.41-2.62-3.07Z"/>
      <path class="cls-1" d="m944.37,689.43c-2.49-2.99-3.52-6.73-3.11-11.23s2.11-7.99,5.1-10.48c2.99-2.49,6.73-3.52,11.23-3.11s7.99,2.11,10.48,5.1c2.49,2.99,3.52,6.73,3.11,11.23-.41,4.5-2.11,7.99-5.1,10.48-2.99,2.49-6.73,3.52-11.23,3.11-4.5-.41-7.99-2.11-10.48-5.1Zm1.83-39.11c.49-5.35,1.91-9.79,4.25-13.32,2.35-3.53,5.02-6.32,8.03-8.37,3.01-2.05,6.83-4.22,11.45-6.5,5.26-2.58,9.16-4.96,11.69-7.12,2.53-2.16,3.95-5,4.28-8.53l.6-6.57c.34-3.77-.72-6.9-3.19-9.4-2.47-2.49-5.96-3.95-10.46-4.36l-15.69-1.44c-4.87-.45-8.9.81-12.12,3.77-3.21,2.96-5.07,7.11-5.56,12.46l-25.18-2.3c.71-7.78,3.05-14.53,7-20.24,3.95-5.71,9.22-9.92,15.78-12.63,6.56-2.71,13.92-3.69,22.07-2.95l15.69,1.44c7.91.72,14.74,2.79,20.5,6.2,5.76,3.41,10.07,7.85,12.95,13.33,2.87,5.48,4,11.62,3.37,18.43l-.6,6.57c-.5,5.47-1.86,9.95-4.08,13.43-2.22,3.48-4.73,6.13-7.54,7.96-2.81,1.83-6.49,3.95-11.14,6.16-5.34,2.53-9.46,4.87-12.25,7.25-2.79,2.38-4.4,5.88-4.82,10.5l-.23,2.55-25.18-2.3.37-4.01Z"/>
      <path class="cls-1" d="m1069.17,664.51c-3.45-1.79-5.85-4.85-7.21-9.16s-1.14-8.19.65-11.64c1.79-3.45,4.85-5.85,9.16-7.21,4.31-1.36,8.19-1.14,11.64.65,3.45,1.8,5.85,4.85,7.21,9.16s1.14,8.19-.65,11.64c-1.8,3.45-4.85,5.85-9.16,7.21s-8.19,1.14-11.64-.65Zm-13.42-36.78c-1.62-5.12-2.02-9.77-1.22-13.93.8-4.16,2.19-7.77,4.18-10.83,1.98-3.06,4.67-6.53,8.05-10.41,3.86-4.42,6.53-8.11,8.03-11.08,1.5-2.97,1.71-6.14.65-9.52l-1.98-6.29c-1.14-3.61-3.33-6.09-6.57-7.44-3.24-1.35-7.02-1.34-11.33.02l-15.03,4.74c-4.66,1.47-7.9,4.19-9.72,8.16-1.82,3.97-1.93,8.52-.31,13.64l-24.11,7.6c-2.35-7.45-2.8-14.58-1.36-21.38,1.44-6.79,4.67-12.71,9.68-17.75,5.01-5.04,11.41-8.78,19.22-11.25l15.03-4.74c7.57-2.39,14.67-3.12,21.3-2.2,6.63.92,12.32,3.35,17.09,7.29,4.76,3.94,8.18,9.17,10.23,15.7l1.98,6.29c1.65,5.24,2.13,9.9,1.42,13.96-.71,4.06-2,7.48-3.88,10.25-1.88,2.77-4.46,6.15-7.9,9.98-3.95,4.4-6.85,8.15-8.5,11.42-1.66,3.28-1.79,7.13-.39,11.55l.77,2.45-24.11,7.6-1.21-3.84Z"/>
      <path class="cls-1" d="m1186.5,665.6c-3.68-1.23-6.54-3.87-8.55-7.92-2.01-4.04-2.4-7.91-1.17-11.6,1.23-3.69,3.87-6.53,7.92-8.55,4.04-2.01,7.91-2.41,11.6-1.17,3.69,1.23,6.54,3.88,8.55,7.92,2.02,4.05,2.41,7.91,1.17,11.6-1.24,3.69-3.88,6.54-7.92,8.55-4.05,2.02-7.91,2.4-11.6,1.17Zm-19-34.24c-2.4-4.81-3.52-9.33-3.38-13.57.14-4.23.95-8.01,2.43-11.34,1.48-3.33,3.59-7.18,6.33-11.54,3.12-4.96,5.19-9.03,6.2-12.2,1.01-3.17.73-6.33-.85-9.51l-2.94-5.9c-1.69-3.39-4.24-5.49-7.65-6.32-3.41-.82-7.14-.23-11.19,1.79l-14.1,7.03c-4.37,2.18-7.15,5.37-8.33,9.57-1.18,4.21-.57,8.71,1.82,13.52l-22.63,11.27c-3.48-6.99-5.05-13.96-4.68-20.9.36-6.94,2.63-13.28,6.79-19.04,4.16-5.76,9.9-10.46,17.23-14.11l14.1-7.03c7.11-3.54,14.01-5.37,20.7-5.5,6.69-.13,12.7,1.39,18.02,4.53,5.32,3.15,9.51,7.78,12.56,13.91l2.94,5.9c2.45,4.92,3.64,9.44,3.58,13.57-.06,4.12-.8,7.7-2.23,10.73-1.42,3.03-3.44,6.77-6.24,11.09-3.21,4.96-5.49,9.11-6.62,12.61-1.12,3.5-.65,7.32,1.42,11.47l1.14,2.3-22.63,11.27-1.8-3.61Z"/>
      <path class="cls-1" d="m1244.37,728.69c-3.19-2.22-5.18-5.56-5.97-10.01-.79-4.45-.08-8.27,2.15-11.46,2.22-3.19,5.56-5.18,10.01-5.97s8.27-.08,11.46,2.15c3.19,2.22,5.18,5.56,5.97,10.01.79,4.45.08,8.27-2.15,11.45-2.23,3.19-5.56,5.18-10.01,5.97-4.45.79-8.27.08-11.45-2.15Zm-8.57-38.21c-.94-5.29-.75-9.94.58-13.97,1.33-4.02,3.17-7.42,5.54-10.2,2.36-2.77,5.47-5.87,9.33-9.29,4.39-3.88,7.52-7.2,9.39-9.95,1.87-2.75,2.49-5.87,1.87-9.36l-1.16-6.49c-.66-3.73-2.52-6.47-5.56-8.22-3.04-1.75-6.79-2.23-11.24-1.44l-15.51,2.76c-4.81.86-8.37,3.14-10.69,6.84-2.32,3.7-3.01,8.2-2.06,13.49l-24.89,4.43c-1.37-7.69-.9-14.82,1.41-21.37,2.3-6.55,6.27-12,11.88-16.35,5.61-4.35,12.45-7.24,20.51-8.68l15.51-2.76c7.82-1.39,14.95-1.2,21.41.56,6.46,1.77,11.79,4.91,16.01,9.43,4.22,4.52,6.93,10.15,8.13,16.88l1.16,6.49c.96,5.41.83,10.09-.39,14.03-1.22,3.94-2.94,7.16-5.16,9.67-2.22,2.51-5.21,5.52-9.12,8.88-4.48,3.85-7.84,7.2-9.9,10.23-2.06,3.04-2.69,6.84-1.88,11.41l.45,2.53-24.89,4.43-.71-3.97Z"/>
      <path class="cls-1" d="m113.92,942.13c-3.89-.03-7.41-1.65-10.59-4.87-3.17-3.22-4.74-6.77-4.71-10.66.03-3.89,1.65-7.41,4.87-10.59s6.77-4.74,10.66-4.71c3.89.03,7.42,1.66,10.59,4.88s4.74,6.77,4.71,10.66c-.03,3.89-1.66,7.42-4.87,10.59-3.22,3.17-6.77,4.74-10.66,4.71Zm-28.69-26.65c-3.77-3.83-6.24-7.78-7.42-11.85-1.18-4.07-1.58-7.91-1.21-11.54.37-3.62,1.18-7.94,2.43-12.94,1.43-5.69,2.13-10.2,2.11-13.52-.02-3.32-1.27-6.25-3.76-8.77l-4.63-4.7c-2.66-2.7-5.74-3.91-9.24-3.63-3.5.28-6.86,2-10.08,5.17l-11.23,11.06c-3.48,3.43-5.13,7.32-4.95,11.69.18,4.36,2.16,8.46,5.93,12.29l-18.01,17.74c-5.48-5.57-9.13-11.71-10.94-18.42-1.81-6.71-1.63-13.44.54-20.21,2.17-6.76,6.17-13.02,12-18.76l11.23-11.06c5.66-5.57,11.65-9.45,17.97-11.65,6.32-2.2,12.5-2.62,18.54-1.28,6.04,1.34,11.45,4.45,16.25,9.32l4.63,4.7c3.86,3.92,6.4,7.85,7.62,11.78,1.22,3.94,1.63,7.57,1.21,10.89-.41,3.32-1.17,7.5-2.49,12.48-1.52,5.71-2.39,10.37-2.37,14.04.02,3.67,1.65,7.16,4.91,10.47l1.8,1.83-18.01,17.74-2.83-2.87Z"/>
      <path class="cls-1" d="m166.89,1029.05c-3.11-2.33-4.99-5.73-5.63-10.2s.2-8.27,2.53-11.38c2.33-3.11,5.73-4.99,10.2-5.63s8.27.2,11.38,2.53c3.11,2.33,4.99,5.73,5.63,10.2s-.2,8.27-2.53,11.38c-2.33,3.11-5.73,4.99-10.2,5.63-4.47.64-8.27-.2-11.38-2.53Zm-7.29-38.47c-.76-5.32-.41-9.96,1.05-13.94,1.47-3.97,3.42-7.31,5.87-10.01,2.45-2.69,5.66-5.69,9.63-8.97,4.52-3.73,7.76-6.95,9.72-9.63,1.96-2.69,2.69-5.78,2.18-9.29l-.94-6.53c-.54-3.75-2.3-6.55-5.28-8.4-2.98-1.85-6.71-2.46-11.18-1.82l-15.6,2.24c-4.84.7-8.47,2.85-10.91,6.47-2.44,3.62-3.28,8.09-2.51,13.41l-25.03,3.6c-1.11-7.73-.41-14.84,2.12-21.31,2.52-6.47,6.66-11.79,12.42-15.95,5.76-4.16,12.68-6.82,20.79-7.99l15.6-2.24c7.86-1.13,14.98-.7,21.38,1.28,6.39,1.98,11.62,5.3,15.68,9.96,4.06,4.66,6.58,10.38,7.56,17.15l.94,6.53c.78,5.44.5,10.11-.86,14.01-1.35,3.9-3.18,7.06-5.48,9.49-2.3,2.43-5.39,5.35-9.41,8.57-4.61,3.7-8.07,6.93-10.24,9.89-2.16,2.97-2.92,6.74-2.26,11.34l.37,2.54-25.03,3.6-.57-3.99Z"/>
      <path class="cls-1" d="m203.58,959.56c-.84-3.79-.05-7.6,2.38-11.41,2.43-3.81,5.54-6.14,9.33-6.98,3.79-.84,7.6-.05,11.41,2.38,3.81,2.43,6.14,5.54,6.98,9.33.84,3.79.05,7.6-2.38,11.41s-5.54,6.14-9.33,6.98c-3.8.84-7.6.05-11.41-2.38s-6.14-5.54-6.98-9.33Zm19.54-33.93c2.89-4.53,6.18-7.83,9.88-9.89,3.7-2.06,7.36-3.32,10.98-3.76,3.61-.45,8-.62,13.15-.53,5.86.11,10.41-.21,13.65-.97,3.24-.76,5.81-2.64,7.71-5.63l3.54-5.56c2.03-3.19,2.52-6.46,1.47-9.81-1.05-3.35-3.49-6.24-7.3-8.66l-13.29-8.46c-4.12-2.62-8.29-3.36-12.5-2.2-4.21,1.16-7.76,4-10.65,8.53l-21.33-13.58c4.2-6.59,9.36-11.52,15.5-14.79,6.13-3.26,12.74-4.6,19.81-4,7.08.6,14.07,3.09,20.97,7.49l13.29,8.46c6.7,4.26,11.82,9.23,15.38,14.9,3.56,5.67,5.36,11.59,5.4,17.78.04,6.18-1.77,12.16-5.44,17.93l-3.54,5.56c-2.95,4.64-6.21,7.99-9.78,10.07-3.57,2.07-7.01,3.28-10.34,3.62-3.33.34-7.57.54-12.72.37-5.91-.2-10.64,0-14.21.83-3.57.84-6.61,3.21-9.1,7.13l-1.38,2.16-21.33-13.58,2.17-3.4Z"/>
      <path class="cls-1" d="m357.44,931.11c-3.23-2.17-5.28-5.46-6.15-9.9s-.23-8.26,1.94-11.49c2.17-3.23,5.47-5.28,9.9-6.15,4.43-.87,8.26-.23,11.49,1.94,3.23,2.17,5.28,5.47,6.15,9.9s.23,8.26-1.94,11.49c-2.17,3.23-5.47,5.28-9.9,6.15-4.43.87-8.26.23-11.49-1.94Zm-9.26-38.04c-1.04-5.27-.93-9.93.33-13.98,1.26-4.04,3.04-7.48,5.35-10.3,2.31-2.82,5.36-5.97,9.16-9.46,4.32-3.96,7.39-7.34,9.21-10.12,1.82-2.78,2.38-5.91,1.7-9.39l-1.27-6.47c-.73-3.71-2.63-6.42-5.71-8.12-3.07-1.7-6.83-2.11-11.26-1.24l-15.46,3.04c-4.79.94-8.32,3.29-10.57,7.03-2.25,3.74-2.86,8.25-1.82,13.52l-24.81,4.88c-1.51-7.67-1.17-14.8,1.02-21.39,2.19-6.59,6.05-12.11,11.59-16.56,5.53-4.45,12.32-7.47,20.35-9.05l15.46-3.04c7.79-1.53,14.93-1.47,21.42.17,6.49,1.65,11.88,4.7,16.18,9.14,4.3,4.45,7.11,10.02,8.43,16.73l1.27,6.47c1.06,5.39,1.02,10.07-.13,14.03-1.15,3.96-2.81,7.21-4.99,9.76-2.18,2.55-5.11,5.62-8.96,9.05-4.41,3.93-7.71,7.34-9.72,10.41-2.01,3.07-2.57,6.89-1.67,11.44l.5,2.52-24.81,4.88-.78-3.96Z"/>
      <path class="cls-1" d="m451.16,935.51c-.31-3.87.99-7.53,3.92-10.98s6.33-5.32,10.2-5.64c3.87-.31,7.53.99,10.98,3.92s5.32,6.33,5.64,10.2c.31,3.87-.99,7.53-3.92,10.98s-6.33,5.32-10.2,5.64c-3.87.31-7.53-.99-10.98-3.92s-5.32-6.33-5.64-10.2Zm24.01-30.93c3.48-4.09,7.19-6.91,11.14-8.44,3.95-1.53,7.74-2.28,11.39-2.22,3.64.05,8.01.48,13.1,1.28,5.79.92,10.34,1.22,13.66.91,3.31-.31,6.11-1.82,8.41-4.52l4.27-5.03c2.45-2.88,3.38-6.06,2.8-9.52-.59-3.46-2.6-6.66-6.04-9.58l-12.01-10.2c-3.72-3.16-7.75-4.46-12.08-3.89-4.33.57-8.24,2.9-11.72,6.99l-19.27-16.37c5.06-5.95,10.85-10.13,17.38-12.52,6.52-2.39,13.25-2.81,20.18-1.25,6.93,1.56,13.51,4.99,19.75,10.29l12.01,10.2c6.05,5.14,10.45,10.77,13.2,16.87,2.75,6.1,3.72,12.22,2.92,18.35-.8,6.13-3.42,11.8-7.85,17.02l-4.27,5.03c-3.56,4.19-7.25,7.06-11.06,8.63-3.82,1.56-7.4,2.29-10.74,2.17-3.35-.12-7.58-.5-12.65-1.38-5.82-1-10.54-1.46-14.19-1.12-3.66.34-6.99,2.28-9.99,5.81l-1.66,1.96-19.27-16.37,2.61-3.07Z"/>
      <path class="cls-1" d="m582.98,935.11c-2.27-3.16-3.04-6.96-2.31-11.42s2.68-7.82,5.83-10.09c3.16-2.27,6.96-3.04,11.42-2.3,4.46.73,7.82,2.67,10.09,5.83,2.27,3.16,3.03,6.97,2.3,11.42s-2.67,7.82-5.83,10.09c-3.16,2.27-6.97,3.04-11.43,2.31s-7.82-2.68-10.09-5.83Zm4.61-38.88c.87-5.3,2.6-9.63,5.19-12.98,2.59-3.35,5.46-5.94,8.61-7.78,3.15-1.83,7.11-3.72,11.88-5.66,5.43-2.2,9.49-4.29,12.17-6.27,2.67-1.97,4.3-4.71,4.87-8.21l1.07-6.51c.61-3.74-.23-6.94-2.51-9.6-2.29-2.66-5.66-4.36-10.12-5.09l-15.55-2.55c-4.82-.79-8.94.18-12.36,2.89-3.42,2.72-5.56,6.73-6.43,12.04l-24.95-4.09c1.26-7.71,4.07-14.28,8.43-19.69,4.35-5.41,9.9-9.24,16.64-11.48,6.74-2.24,14.15-2.69,22.22-1.37l15.55,2.55c7.83,1.28,14.5,3.83,20.01,7.64,5.5,3.81,9.49,8.55,11.97,14.21,2.48,5.67,3.16,11.87,2.05,18.62l-1.07,6.51c-.89,5.42-2.57,9.79-5.03,13.1-2.46,3.31-5.16,5.78-8.08,7.4-2.93,1.63-6.75,3.48-11.55,5.35-5.51,2.14-9.78,4.18-12.74,6.36-2.96,2.18-4.81,5.56-5.56,10.14l-.41,2.53-24.95-4.09.65-3.98Z"/>
      <path class="cls-1" d="m693.61,909.57c-3.85-.53-7.14-2.6-9.87-6.2-2.73-3.6-3.83-7.33-3.3-11.18.53-3.85,2.6-7.14,6.2-9.87,3.6-2.73,7.33-3.83,11.18-3.3,3.85.53,7.14,2.6,9.87,6.2s3.83,7.33,3.3,11.18c-.53,3.85-2.6,7.14-6.2,9.87s-7.33,3.83-11.18,3.3Zm-25.01-30.13c-3.24-4.28-5.19-8.52-5.83-12.71-.64-4.19-.55-8.05.29-11.6.84-3.54,2.2-7.72,4.08-12.52,2.15-5.46,3.43-9.84,3.84-13.14.41-3.3-.45-6.36-2.59-9.19l-3.98-5.26c-2.29-3.02-5.18-4.61-8.69-4.8-3.51-.18-7.06,1.1-10.66,3.83l-12.56,9.52c-3.89,2.95-6.03,6.6-6.41,10.95-.38,4.35,1.05,8.67,4.3,12.95l-20.15,15.27c-4.72-6.23-7.54-12.79-8.47-19.67-.93-6.88.12-13.54,3.15-19.97,3.02-6.43,7.79-12.11,14.32-17.05l12.56-9.52c6.33-4.79,12.77-7.87,19.32-9.24,6.55-1.36,12.73-.99,18.55,1.12,5.81,2.11,10.78,5.89,14.92,11.34l3.98,5.26c3.32,4.38,5.33,8.61,6.03,12.67.7,4.06.64,7.72-.2,10.96-.84,3.24-2.13,7.29-4.08,12.06-2.24,5.47-3.71,9.97-4.17,13.62-.46,3.64.71,7.31,3.52,11.01l1.55,2.05-20.15,15.27-2.43-3.21Z"/>
      <path class="cls-1" d="m772.34,933.67c-3.58-1.51-6.22-4.36-7.92-8.55s-1.79-8.07-.28-11.65c1.51-3.58,4.36-6.22,8.55-7.92s8.07-1.79,11.65-.28c3.58,1.51,6.22,4.37,7.92,8.55,1.7,4.19,1.79,8.07.28,11.65-1.51,3.58-4.37,6.22-8.55,7.92-4.19,1.7-8.07,1.79-11.65.28Zm-16.32-35.59c-2.02-4.98-2.8-9.57-2.33-13.78.47-4.21,1.56-7.92,3.3-11.12,1.73-3.2,4.13-6.88,7.19-11.02,3.49-4.71,5.86-8.61,7.12-11.69,1.25-3.08,1.22-6.26-.11-9.54l-2.48-6.11c-1.42-3.51-3.81-5.8-7.14-6.89-3.34-1.08-7.1-.78-11.29.92l-14.6,5.92c-4.53,1.84-7.54,4.81-9.04,8.91-1.5,4.1-1.24,8.64.78,13.62l-23.43,9.5c-2.94-7.24-3.96-14.31-3.06-21.2.89-6.89,3.64-13.04,8.23-18.46,4.59-5.42,10.68-9.67,18.26-12.74l14.6-5.92c7.36-2.98,14.38-4.28,21.06-3.9,6.68.39,12.55,2.36,17.62,5.9,5.06,3.55,8.88,8.49,11.45,14.83l2.48,6.11c2.07,5.09,2.91,9.69,2.53,13.8-.38,4.11-1.39,7.62-3.05,10.53-1.65,2.91-3.95,6.49-7.08,10.58-3.58,4.7-6.17,8.67-7.56,12.06-1.39,3.4-1.21,7.25.53,11.55l.96,2.38-23.43,9.5-1.52-3.74Z"/>
      <path class="cls-1" d="m884.79,1026.25c-3.68-1.24-6.53-3.89-8.53-7.94s-2.39-7.92-1.15-11.6c1.24-3.68,3.89-6.53,7.94-8.53,4.05-2.01,7.91-2.39,11.6-1.15,3.68,1.24,6.53,3.89,8.53,7.94,2.01,4.05,2.39,7.91,1.15,11.6-1.24,3.68-3.89,6.53-7.94,8.54-4.05,2.01-7.92,2.39-11.6,1.15Zm-18.93-34.28c-2.39-4.81-3.5-9.34-3.35-13.57.15-4.23.97-8.01,2.46-11.34,1.49-3.32,3.6-7.17,6.35-11.53,3.13-4.96,5.21-9.02,6.23-12.19,1.02-3.16.75-6.33-.83-9.51l-2.93-5.91c-1.68-3.39-4.23-5.5-7.64-6.34-3.41-.83-7.14-.24-11.19,1.76l-14.12,7c-4.38,2.17-7.16,5.36-8.35,9.56-1.19,4.2-.59,8.71,1.8,13.53l-22.65,11.23c-3.47-7-5.02-13.97-4.64-20.91.38-6.93,2.65-13.28,6.83-19.03,4.17-5.75,9.92-10.44,17.26-14.07l14.12-7c7.11-3.52,14.02-5.34,20.71-5.46,6.69-.11,12.69,1.41,18.01,4.57,5.32,3.16,9.49,7.8,12.53,13.93l2.93,5.91c2.44,4.93,3.63,9.45,3.56,13.57-.07,4.12-.82,7.7-2.25,10.73-1.43,3.03-3.45,6.76-6.27,11.08-3.22,4.95-5.51,9.1-6.64,12.6-1.13,3.49-.67,7.32,1.39,11.48l1.14,2.3-22.65,11.23-1.79-3.61Z"/>
      <path class="cls-1" d="m941.43,1020.13c-1.09-3.73-.54-7.58,1.63-11.54,2.17-3.96,5.13-6.49,8.86-7.57,3.73-1.09,7.58-.54,11.54,1.63,3.96,2.17,6.49,5.13,7.58,8.86,1.09,3.73.54,7.58-1.63,11.54s-5.13,6.49-8.86,7.57c-3.73,1.09-7.58.54-11.54-1.63s-6.49-5.13-7.57-8.86Zm17.29-35.13c2.58-4.71,5.66-8.21,9.22-10.51,3.56-2.3,7.13-3.79,10.71-4.47,3.58-.68,7.94-1.14,13.09-1.39,5.86-.27,10.38-.89,13.56-1.86,3.18-.97,5.62-3.01,7.33-6.12l3.17-5.78c1.82-3.32,2.1-6.62.83-9.89-1.27-3.27-3.89-6-7.85-8.17l-13.81-7.58c-4.28-2.35-8.49-2.81-12.61-1.38-4.13,1.43-7.48,4.5-10.07,9.21l-22.17-12.16c3.76-6.85,8.59-12.11,14.5-15.76,5.9-3.66,12.41-5.42,19.51-5.28,7.1.13,14.24,2.17,21.41,6.11l13.81,7.58c6.96,3.82,12.4,8.44,16.32,13.87,3.92,5.43,6.1,11.22,6.55,17.39.45,6.17-.97,12.25-4.26,18.25l-3.17,5.78c-2.64,4.82-5.68,8.38-9.1,10.68-3.42,2.3-6.79,3.73-10.09,4.29-3.3.56-7.52,1.03-12.67,1.2-5.91.19-10.62.69-14.13,1.76-3.51,1.07-6.38,3.64-8.62,7.71l-1.23,2.25-22.17-12.16,1.94-3.53Z"/>
      <path class="cls-1" d="m1006.14,973.24c-.03-3.89,1.54-7.44,4.71-10.66,3.17-3.22,6.7-4.85,10.59-4.88,3.89-.03,7.44,1.54,10.66,4.71,3.22,3.17,4.85,6.7,4.88,10.59.03,3.89-1.54,7.44-4.71,10.66s-6.7,4.85-10.58,4.88c-3.89.03-7.44-1.54-10.66-4.71-3.22-3.17-4.85-6.7-4.88-10.59Zm26.2-29.1c3.77-3.83,7.68-6.36,11.73-7.61,4.05-1.24,7.89-1.7,11.52-1.39,3.63.32,7.95,1.06,12.97,2.23,5.71,1.34,10.23,1.97,13.55,1.9,3.32-.07,6.23-1.36,8.72-3.89l4.63-4.7c2.66-2.7,3.82-5.79,3.49-9.29-.33-3.5-2.11-6.83-5.33-10l-11.23-11.05c-3.48-3.43-7.4-5.02-11.76-4.77-4.36.25-8.43,2.29-12.19,6.12l-18.02-17.74c5.48-5.57,11.57-9.31,18.24-11.22,6.68-1.91,13.41-1.83,20.21.23,6.8,2.06,13.11,5.96,18.94,11.71l11.23,11.05c5.66,5.57,9.63,11.5,11.93,17.79,2.29,6.29,2.82,12.46,1.57,18.51-1.25,6.06-4.27,11.52-9.07,16.4l-4.63,4.7c-3.86,3.92-7.75,6.52-11.66,7.8-3.92,1.28-7.54,1.74-10.87,1.38-3.33-.36-7.52-1.05-12.52-2.3-5.73-1.43-10.4-2.23-14.07-2.16-3.67.07-7.13,1.76-10.39,5.07l-1.8,1.83-18.02-17.74,2.83-2.87Z"/>
      <path class="cls-1" d="m1049.78,965.34c-.52-3.85.58-7.57,3.32-11.17s6.03-5.66,9.88-6.18c3.85-.52,7.57.58,11.17,3.32s5.66,6.03,6.18,9.88c.52,3.85-.59,7.58-3.32,11.17-2.74,3.6-6.03,5.66-9.88,6.18-3.85.52-7.58-.58-11.17-3.32-3.6-2.74-5.66-6.03-6.18-9.88Zm22.3-32.19c3.25-4.28,6.81-7.29,10.67-9.03,3.86-1.74,7.61-2.69,11.25-2.84,3.64-.15,8.02.04,13.15.57,5.83.6,10.39.66,13.68.17,3.29-.49,6.01-2.14,8.15-4.96l3.99-5.25c2.29-3.01,3.05-6.23,2.28-9.66-.77-3.43-2.96-6.51-6.55-9.24l-12.54-9.54c-3.89-2.96-7.98-4.04-12.27-3.24-4.29.8-8.07,3.34-11.32,7.62l-20.12-15.31c4.73-6.22,10.29-10.7,16.67-13.44,6.38-2.74,13.07-3.52,20.08-2.34,7,1.18,13.76,4.25,20.27,9.21l12.54,9.54c6.32,4.81,11.01,10.19,14.09,16.13,3.07,5.95,4.37,12,3.91,18.16-.47,6.17-2.77,11.97-6.92,17.41l-3.99,5.25c-3.33,4.38-6.86,7.45-10.58,9.22-3.73,1.77-7.26,2.69-10.61,2.75-3.35.06-7.59-.09-12.71-.69-5.87-.69-10.6-.89-14.23-.35-3.63.54-6.85,2.65-9.66,6.35l-1.55,2.04-20.12-15.31,2.44-3.21Z"/>
      <path class="cls-1" d="m1146.59,971.62c.03-3.89,1.65-7.42,4.86-10.59,3.22-3.17,6.77-4.75,10.66-4.72,3.89.03,7.42,1.65,10.59,4.86,3.17,3.22,4.75,6.77,4.72,10.65-.03,3.89-1.65,7.42-4.86,10.59s-6.77,4.75-10.65,4.72c-3.89-.03-7.42-1.65-10.59-4.86-3.17-3.22-4.75-6.77-4.72-10.65Zm26.62-28.72c3.82-3.77,7.77-6.25,11.84-7.44,4.07-1.18,7.91-1.59,11.54-1.22,3.62.37,7.94,1.18,12.94,2.42,5.69,1.42,10.2,2.12,13.52,2.1,3.32-.02,6.25-1.27,8.77-3.76l4.69-4.63c2.69-2.66,3.9-5.74,3.62-9.24-.28-3.5-2.01-6.86-5.18-10.07l-11.07-11.21c-3.43-3.48-7.33-5.12-11.69-4.94-4.36.19-8.46,2.17-12.28,5.94l-17.76-18c5.56-5.49,11.7-9.14,18.4-10.96,6.7-1.81,13.44-1.64,20.21.52,6.76,2.16,13.02,6.15,18.77,11.98l11.07,11.21c5.58,5.65,9.47,11.64,11.67,17.96,2.2,6.32,2.64,12.5,1.3,18.53-1.34,6.04-4.44,11.46-9.3,16.26l-4.69,4.63c-3.91,3.86-7.84,6.4-11.78,7.63-3.94,1.22-7.57,1.63-10.89,1.22-3.32-.41-7.5-1.16-12.49-2.48-5.71-1.51-10.37-2.38-14.04-2.36-3.67.02-7.16,1.66-10.46,4.92l-1.83,1.8-17.76-18,2.87-2.83Z"/>
      <path class="cls-1" d="m77.99,1194.43c-.07-5.37.87-9.93,2.84-13.69,1.97-3.75,4.33-6.81,7.11-9.17,2.77-2.36,6.35-4.91,10.71-7.66,4.97-3.12,8.59-5.89,10.88-8.3,2.29-2.41,3.41-5.39,3.36-8.93l-.09-6.59c-.05-3.78-1.44-6.79-4.15-9.01-2.72-2.22-6.34-3.3-10.85-3.24l-15.76.22c-4.88.07-8.77,1.74-11.66,5.02-2.89,3.28-4.29,7.6-4.22,12.97l-25.28.35c-.11-7.81,1.51-14.77,4.85-20.86,3.33-6.09,8.13-10.83,14.37-14.21,6.24-3.38,13.46-5.13,21.64-5.25l15.76-.22c7.94-.11,14.95,1.23,21.04,4.02,6.08,2.79,10.84,6.75,14.27,11.9,3.43,5.15,5.19,11.14,5.29,17.98l.09,6.59c.08,5.5-.81,10.09-2.65,13.78-1.84,3.69-4.06,6.59-6.66,8.7-2.6,2.11-6.08,4.54-10.43,7.29-5.09,3-8.9,5.83-11.43,8.49-2.53,2.66-3.76,6.31-3.7,10.95l.04,2.56-25.28.35-.06-4.03Zm2.28,39.09c-2.79-2.71-4.21-6.32-4.27-10.84-.06-4.52,1.26-8.17,3.97-10.96,2.71-2.79,6.32-4.21,10.84-4.27s8.17,1.26,10.96,3.97c2.79,2.71,4.21,6.33,4.27,10.84.06,4.52-1.26,8.17-3.97,10.96-2.71,2.79-6.33,4.21-10.85,4.27s-8.17-1.26-10.96-3.97Z"/>
      <path class="cls-1" d="m123.56,1183.76c-1.29-3.67-.96-7.54,1-11.61s4.77-6.76,8.43-8.05c3.67-1.29,7.54-.96,11.61,1,4.07,1.95,6.76,4.76,8.05,8.43,1.29,3.67.95,7.54-1,11.61s-4.76,6.76-8.43,8.05c-3.67,1.29-7.54.96-11.61-1-4.07-1.95-6.76-4.77-8.05-8.43Zm15.35-36.02c2.32-4.84,5.2-8.51,8.63-11,3.43-2.49,6.91-4.17,10.45-5.05,3.53-.88,7.87-1.58,13-2.1,5.83-.59,10.31-1.45,13.44-2.6,3.12-1.14,5.45-3.31,6.98-6.51l2.85-5.95c1.64-3.41,1.73-6.72.29-9.92-1.45-3.2-4.21-5.78-8.28-7.73l-14.21-6.82c-4.41-2.11-8.63-2.34-12.67-.69-4.04,1.65-7.23,4.9-9.55,9.74l-22.8-10.94c3.38-7.05,7.92-12.56,13.62-16.53,5.7-3.97,12.1-6.08,19.19-6.34,7.1-.25,14.34,1.39,21.71,4.93l14.21,6.82c7.16,3.43,12.84,7.75,17.05,12.96,4.21,5.2,6.7,10.87,7.49,17,.78,6.13-.3,12.28-3.26,18.45l-2.85,5.95c-2.38,4.96-5.21,8.68-8.5,11.16-3.29,2.48-6.57,4.1-9.84,4.83-3.27.74-7.46,1.44-12.59,1.89-5.89.51-10.56,1.27-14.01,2.52-3.45,1.26-6.18,3.98-8.18,8.16l-1.11,2.31-22.8-10.94,1.74-3.64Z"/>
      <path class="cls-1" d="m317.68,1273.3c-3.1-2.34-4.97-5.75-5.59-10.23s.23-8.26,2.58-11.37c2.34-3.1,5.75-4.96,10.23-5.59,4.47-.62,8.26.23,11.37,2.57,3.1,2.34,4.96,5.75,5.59,10.23s-.23,8.26-2.57,11.37c-2.34,3.1-5.75,4.97-10.23,5.59s-8.26-.23-11.37-2.58Zm-7.13-38.5c-.74-5.32-.37-9.97,1.11-13.94,1.48-3.97,3.45-7.3,5.91-9.98,2.46-2.68,5.68-5.66,9.67-8.93,4.54-3.72,7.79-6.92,9.76-9.59,1.97-2.68,2.71-5.77,2.22-9.28l-.91-6.53c-.52-3.75-2.27-6.56-5.25-8.43-2.97-1.87-6.7-2.49-11.17-1.86l-15.61,2.18c-4.84.68-8.49,2.82-10.94,6.43-2.46,3.61-3.31,8.08-2.57,13.4l-25.04,3.5c-1.08-7.74-.35-14.84,2.21-21.3,2.55-6.46,6.71-11.76,12.49-15.9,5.77-4.14,12.71-6.77,20.82-7.9l15.61-2.18c7.86-1.1,14.99-.64,21.37,1.36,6.39,2.01,11.6,5.35,15.64,10.02,4.05,4.68,6.54,10.4,7.49,17.18l.91,6.53c.76,5.44.45,10.11-.91,14-1.37,3.89-3.21,7.05-5.52,9.47-2.31,2.42-5.41,5.33-9.44,8.53-4.62,3.68-8.1,6.9-10.28,9.85-2.18,2.96-2.94,6.73-2.3,11.33l.35,2.54-25.04,3.5-.56-3.99Z"/>
      <path class="cls-1" d="m302.96,1275.82c-.84-3.79-.05-7.6,2.38-11.41s5.54-6.14,9.33-6.98c3.79-.84,7.6-.05,11.41,2.38,3.81,2.43,6.14,5.54,6.98,9.33.84,3.8.05,7.6-2.38,11.41s-5.54,6.14-9.33,6.98c-3.8.84-7.6.05-11.41-2.38s-6.14-5.54-6.98-9.33Zm19.54-33.93c2.89-4.53,6.18-7.83,9.88-9.89,3.7-2.06,7.36-3.31,10.98-3.76,3.61-.45,8-.62,13.15-.53,5.86.12,10.41-.21,13.65-.97,3.24-.76,5.81-2.64,7.71-5.63l3.54-5.56c2.03-3.19,2.52-6.46,1.47-9.81-1.05-3.35-3.49-6.24-7.3-8.67l-13.29-8.46c-4.12-2.62-8.29-3.36-12.5-2.2-4.21,1.16-7.76,4-10.65,8.53l-21.33-13.58c4.2-6.59,9.37-11.52,15.5-14.78,6.13-3.26,12.74-4.6,19.81-4,7.08.6,14.07,3.09,20.97,7.49l13.29,8.46c6.7,4.26,11.82,9.23,15.38,14.9,3.56,5.67,5.36,11.59,5.4,17.78.04,6.18-1.77,12.16-5.44,17.93l-3.54,5.56c-2.95,4.64-6.21,7.99-9.78,10.06-3.57,2.07-7.01,3.28-10.34,3.62-3.33.34-7.57.54-12.72.37-5.91-.2-10.64,0-14.21.83-3.57.84-6.61,3.21-9.1,7.13l-1.38,2.16-21.33-13.58,2.17-3.4Z"/>
      <path class="cls-1" d="m446.88,1198.36c-2.84-2.65-4.35-6.23-4.51-10.75s1.08-8.2,3.73-11.04c2.65-2.84,6.23-4.35,10.75-4.51s8.2,1.08,11.04,3.73c2.84,2.65,4.35,6.23,4.51,10.75s-1.08,8.2-3.73,11.04c-2.65,2.84-6.23,4.35-10.75,4.51-4.52.16-8.2-1.08-11.04-3.73Zm-3.13-39.03c-.19-5.37.65-9.95,2.54-13.75,1.88-3.79,4.18-6.9,6.91-9.32,2.72-2.42,6.24-5.05,10.54-7.89,4.9-3.23,8.46-6.08,10.69-8.54,2.23-2.46,3.29-5.46,3.16-9l-.23-6.59c-.13-3.78-1.59-6.76-4.35-8.92-2.77-2.16-6.41-3.16-10.92-3l-15.75.56c-4.88.17-8.73,1.93-11.55,5.27-2.81,3.34-4.13,7.69-3.94,13.06l-25.27.9c-.28-7.81,1.18-14.8,4.39-20.96,3.2-6.16,7.89-11,14.06-14.52,6.17-3.52,13.34-5.42,21.52-5.72l15.75-.56c7.93-.28,14.97.91,21.12,3.56,6.14,2.65,10.98,6.52,14.53,11.58,3.54,5.07,5.43,11.02,5.68,17.86l.23,6.59c.2,5.49-.59,10.11-2.35,13.83-1.76,3.73-3.92,6.68-6.47,8.85-2.55,2.17-5.93,4.74-10.27,7.52-4.98,3.18-8.77,6.03-11.24,8.74-2.47,2.72-3.62,6.39-3.46,11.03l.09,2.56-25.27.9-.14-4.03Z"/>
      <path class="cls-1" d="m500.54,1254.33c-.55-3.85.54-7.58,3.25-11.19,2.71-3.61,6-5.69,9.85-6.24,3.85-.55,7.58.54,11.19,3.25,3.61,2.71,5.69,6,6.24,9.84.54,3.85-.54,7.58-3.26,11.19s-6,5.69-9.84,6.24c-3.85.54-7.58-.54-11.19-3.25-3.61-2.72-5.69-6-6.24-9.84Zm22.11-32.32c3.23-4.3,6.77-7.33,10.62-9.09,3.85-1.77,7.59-2.74,11.23-2.9,3.64-.17,8.02,0,13.15.49,5.84.57,10.4.59,13.68.09,3.29-.51,5.99-2.18,8.12-5.01l3.96-5.27c2.27-3.03,3.01-6.25,2.23-9.67-.79-3.42-2.99-6.49-6.61-9.2l-12.6-9.47c-3.91-2.94-8-3.99-12.29-3.16-4.29.83-8.05,3.39-11.27,7.68l-20.21-15.19c4.69-6.25,10.23-10.76,16.59-13.54,6.36-2.78,13.05-3.6,20.06-2.45,7.01,1.14,13.79,4.17,20.33,9.09l12.6,9.47c6.35,4.77,11.07,10.12,14.18,16.05,3.11,5.93,4.44,11.97,4.01,18.14-.43,6.17-2.7,11.99-6.81,17.45l-3.96,5.27c-3.3,4.39-6.81,7.49-10.53,9.28-3.72,1.79-7.25,2.73-10.59,2.81-3.35.08-7.59-.05-12.71-.62-5.87-.65-10.61-.83-14.24-.27-3.63.56-6.84,2.69-9.62,6.4l-1.54,2.05-20.21-15.19,2.42-3.22Z"/>
      <path class="cls-1" d="m629.8,1171.02c-1.93-3.38-2.29-7.24-1.1-11.6s3.48-7.5,6.85-9.43c3.38-1.93,7.24-2.29,11.6-1.1,4.36,1.19,7.5,3.47,9.43,6.85,1.93,3.38,2.29,7.25,1.1,11.6s-3.47,7.5-6.85,9.43c-3.38,1.93-7.25,2.29-11.6,1.1s-7.5-3.48-9.43-6.85Zm8.63-38.19c1.42-5.18,3.59-9.3,6.52-12.37,2.93-3.06,6.05-5.34,9.37-6.84,3.32-1.5,7.46-2.96,12.41-4.4,5.63-1.62,9.89-3.28,12.75-4.97,2.87-1.69,4.77-4.24,5.7-7.65l1.74-6.36c1-3.65.5-6.92-1.5-9.81-2-2.89-5.18-4.93-9.53-6.12l-15.2-4.16c-4.71-1.29-8.91-.76-12.59,1.59-3.68,2.35-6.23,6.12-7.65,11.3l-24.39-6.67c2.06-7.54,5.54-13.78,10.43-18.71,4.89-4.93,10.81-8.16,17.75-9.68,6.94-1.52,14.35-1.21,22.25.95l15.2,4.16c7.66,2.09,14.02,5.32,19.1,9.69,5.07,4.36,8.55,9.49,10.42,15.38,1.87,5.89,1.91,12.14.1,18.74l-1.74,6.36c-1.45,5.3-3.57,9.47-6.36,12.51-2.79,3.03-5.73,5.21-8.81,6.52-3.08,1.31-7.08,2.76-12.05,4.12-5.7,1.56-10.17,3.14-13.33,5-3.17,1.86-5.36,5.02-6.59,9.5l-.68,2.48-24.39-6.67,1.06-3.89Z"/>
      <path class="cls-1" d="m745.28,1232.96c-2.17-3.22-2.82-7.05-1.96-11.49.87-4.43,2.91-7.74,6.14-9.91,3.22-2.17,7.05-2.82,11.49-1.95s7.74,2.91,9.91,6.14c2.17,3.23,2.82,7.06,1.95,11.49-.87,4.44-2.91,7.74-6.14,9.91-3.23,2.17-7.06,2.82-11.49,1.95-4.44-.87-7.74-2.91-9.91-6.14Zm5.79-38.72c1.03-5.27,2.89-9.54,5.59-12.82,2.69-3.27,5.64-5.77,8.84-7.51,3.2-1.74,7.22-3.5,12.05-5.3,5.5-2.04,9.62-4,12.35-5.89,2.73-1.89,4.44-4.58,5.12-8.05l1.26-6.47c.73-3.72-.01-6.94-2.22-9.67-2.21-2.73-5.53-4.53-9.96-5.4l-15.46-3.02c-4.8-.94-8.94-.1-12.44,2.52-3.5,2.62-5.76,6.56-6.79,11.83l-24.82-4.85c1.5-7.67,4.51-14.15,9.02-19.42,4.51-5.28,10.18-8.93,16.98-10.96,6.8-2.03,14.22-2.26,22.26-.69l15.46,3.02c7.79,1.52,14.38,4.27,19.76,8.25,5.38,3.98,9.22,8.83,11.53,14.57,2.3,5.74,2.8,11.96,1.48,18.68l-1.26,6.47c-1.05,5.4-2.86,9.71-5.42,12.94-2.56,3.23-5.33,5.62-8.31,7.15-2.98,1.54-6.85,3.27-11.71,4.99-5.57,1.97-9.91,3.88-12.93,5.97-3.02,2.09-4.98,5.41-5.87,9.96l-.49,2.52-24.82-4.85.77-3.96Z"/>
      <path class="cls-1" d="m864.52,1251.04c-3.75-1.02-6.75-3.49-8.99-7.42s-2.85-7.76-1.83-11.51c1.02-3.75,3.49-6.75,7.42-8.99s7.76-2.85,11.51-1.83c3.75,1.02,6.75,3.5,8.99,7.42,2.24,3.92,2.85,7.76,1.83,11.51-1.02,3.75-3.5,6.75-7.42,8.99s-7.76,2.85-11.51,1.83Zm-20.93-33.09c-2.67-4.66-4.05-9.11-4.15-13.35-.1-4.23.49-8.05,1.78-11.47,1.29-3.41,3.17-7.37,5.66-11.89,2.83-5.13,4.66-9.31,5.5-12.53.83-3.22.37-6.37-1.39-9.44l-3.27-5.72c-1.88-3.29-4.55-5.24-8-5.87-3.45-.63-7.14.18-11.07,2.42l-13.68,7.82c-4.24,2.43-6.83,5.77-7.77,10.03-.94,4.27-.07,8.73,2.59,13.4l-21.95,12.55c-3.88-6.78-5.84-13.65-5.87-20.6-.03-6.94,1.86-13.41,5.69-19.4,3.82-5.98,9.29-11.01,16.39-15.07l13.68-7.82c6.89-3.94,13.68-6.16,20.35-6.68,6.67-.51,12.75.66,18.25,3.5,5.49,2.84,9.94,7.23,13.33,13.17l3.27,5.72c2.73,4.77,4.18,9.22,4.35,13.34.17,4.12-.36,7.74-1.61,10.84-1.25,3.11-3.05,6.96-5.6,11.43-2.92,5.13-4.96,9.41-5.88,12.97-.92,3.55-.23,7.34,2.07,11.37l1.27,2.23-21.95,12.55-2-3.5Z"/>
      <path class="cls-1" d="m1002.74,1263.74c-3.87-.35-7.25-2.26-10.15-5.73s-4.17-7.14-3.82-11.01c.35-3.87,2.26-7.25,5.73-10.15,3.47-2.89,7.14-4.17,11.01-3.82,3.87.35,7.25,2.26,10.15,5.73,2.9,3.47,4.17,7.14,3.82,11.01-.35,3.87-2.26,7.26-5.73,10.15s-7.14,4.17-11.01,3.82Zm-26.4-28.92c-3.44-4.13-5.58-8.26-6.42-12.42-.84-4.15-.93-8.02-.25-11.6.67-3.58,1.83-7.81,3.49-12.69,1.89-5.55,2.96-9.99,3.22-13.3.26-3.31-.75-6.33-3.02-9.05l-4.22-5.06c-2.43-2.91-5.39-4.37-8.91-4.38-3.51-.01-7,1.43-10.47,4.32l-12.1,10.09c-3.75,3.13-5.71,6.88-5.89,11.24-.18,4.36,1.46,8.61,4.9,12.73l-19.41,16.2c-5.01-6-8.14-12.42-9.38-19.25-1.25-6.83-.51-13.53,2.21-20.09,2.72-6.56,7.22-12.46,13.5-17.71l12.1-10.09c6.1-5.09,12.39-8.46,18.87-10.13,6.48-1.67,12.67-1.58,18.58.25,5.91,1.83,11.05,5.38,15.43,10.63l4.22,5.06c3.52,4.22,5.73,8.35,6.62,12.37.89,4.03,1,7.68.31,10.95-.69,3.28-1.78,7.38-3.51,12.24-1.98,5.57-3.23,10.14-3.52,13.8-.29,3.66,1.06,7.27,4.03,10.83l1.64,1.97-19.41,16.2-2.58-3.1Z"/>
      <path class="cls-1" d="m1038.29,1163.54c-3.83-.68-7.03-2.88-9.61-6.59-2.58-3.71-3.53-7.48-2.85-11.3.68-3.83,2.88-7.03,6.59-9.61,3.71-2.58,7.47-3.53,11.3-2.85,3.83.68,7.03,2.88,9.61,6.59s3.53,7.47,2.85,11.3c-.68,3.83-2.88,7.03-6.59,9.62-3.71,2.58-7.48,3.53-11.3,2.85Zm-23.79-31.1c-3.07-4.41-4.84-8.72-5.32-12.93-.48-4.21-.23-8.07.75-11.58.98-3.51,2.5-7.62,4.57-12.34,2.36-5.37,3.81-9.69,4.36-12.97.54-3.28-.2-6.37-2.22-9.28l-3.77-5.41c-2.16-3.11-5-4.82-8.49-5.14-3.5-.32-7.1.82-10.81,3.4l-12.93,9.01c-4.01,2.79-6.29,6.36-6.84,10.69-.55,4.33.7,8.7,3.78,13.11l-20.75,14.45c-4.47-6.41-7.03-13.08-7.68-19.99-.65-6.91.66-13.52,3.94-19.83,3.27-6.3,8.27-11.79,14.98-16.47l12.93-9.01c6.51-4.54,13.07-7.36,19.67-8.46,6.6-1.1,12.76-.48,18.49,1.86,5.72,2.34,10.54,6.31,14.45,11.93l3.77,5.41c3.14,4.51,4.98,8.81,5.53,12.9.54,4.09.33,7.74-.64,10.94-.97,3.21-2.42,7.2-4.56,11.89-2.46,5.37-4.1,9.82-4.71,13.44-.6,3.62.42,7.34,3.08,11.14l1.47,2.11-20.75,14.45-2.3-3.31Z"/>
      <path class="cls-1" d="m1166.83,1193.21c-3.88-.13-7.37-1.85-10.45-5.16-3.08-3.3-4.56-6.9-4.42-10.78.13-3.88,1.86-7.37,5.16-10.45s6.9-4.56,10.78-4.42c3.88.14,7.37,1.86,10.45,5.16s4.56,6.9,4.42,10.78c-.14,3.88-1.86,7.37-5.16,10.45s-6.9,4.56-10.78,4.42Zm-27.96-27.42c-3.67-3.93-6.03-7.94-7.1-12.04-1.07-4.1-1.37-7.95-.89-11.57.47-3.61,1.4-7.9,2.78-12.87,1.58-5.65,2.4-10.13,2.48-13.46.07-3.32-1.1-6.28-3.52-8.87l-4.5-4.82c-2.58-2.77-5.63-4.06-9.13-3.88-3.51.18-6.91,1.81-10.22,4.9l-11.52,10.75c-3.57,3.33-5.33,7.18-5.26,11.55.07,4.37,1.93,8.51,5.6,12.44l-18.49,17.25c-5.33-5.71-8.81-11.95-10.43-18.71-1.63-6.75-1.26-13.48,1.09-20.18,2.35-6.7,6.52-12.84,12.5-18.43l11.52-10.75c5.8-5.41,11.9-9.13,18.28-11.16,6.38-2.02,12.57-2.28,18.56-.78,6,1.5,11.33,4.76,16,9.76l4.5,4.82c3.75,4.02,6.18,8.02,7.3,11.99,1.11,3.97,1.42,7.61.92,10.92-.5,3.31-1.37,7.47-2.83,12.41-1.67,5.67-2.67,10.3-2.75,13.97-.08,3.67,1.46,7.2,4.62,10.6l1.75,1.88-18.49,17.25-2.75-2.95Z"/>
      <path class="cls-1" d="m1196.06,1131.98c.43-5.36,1.81-9.81,4.12-13.36,2.31-3.55,4.96-6.37,7.95-8.46,2.99-2.08,6.78-4.29,11.38-6.62,5.24-2.64,9.11-5.05,11.61-7.24,2.5-2.19,3.9-5.04,4.19-8.58l.53-6.57c.31-3.77-.79-6.9-3.28-9.37-2.5-2.47-6-3.89-10.5-4.25l-15.71-1.27c-4.87-.4-8.89.91-12.08,3.89-3.18,2.99-4.99,7.16-5.42,12.52l-25.2-2.04c.63-7.79,2.89-14.56,6.79-20.31,3.89-5.75,9.11-10.02,15.65-12.79,6.53-2.78,13.88-3.84,22.04-3.18l15.71,1.27c7.91.64,14.77,2.64,20.56,5.98,5.79,3.35,10.15,7.75,13.08,13.19,2.93,5.45,4.12,11.58,3.57,18.39l-.53,6.57c-.44,5.48-1.76,9.97-3.94,13.47-2.18,3.5-4.67,6.18-7.45,8.04-2.79,1.86-6.48,3.95-11.08,6.27-5.35,2.51-9.41,4.97-12.18,7.38-2.77,2.41-4.34,5.93-4.71,10.55l-.21,2.56-25.2-2.04.33-4.02Zm-1.42,39.13c-2.52-2.96-3.59-6.69-3.23-11.2.36-4.5,2.03-8.02,4.99-10.53s6.69-3.59,11.2-3.23c4.5.36,8.02,2.03,10.53,4.99,2.52,2.96,3.59,6.7,3.23,11.2-.36,4.51-2.03,8.02-4.99,10.53-2.96,2.52-6.7,3.59-11.2,3.23-4.51-.37-8.02-2.03-10.53-4.99Z"/>
    </g>
  </g>
</svg>