<?xml version="1.0" encoding="UTF-8"?>
<svg id="Layer_2" data-name="Layer 2" xmlns="http://www.w3.org/2000/svg" viewBox="0 0 899 899">
  <defs>
    <style>
      .cls-1 {
        fill: #f2f2f2;
      }

      .cls-2 {
        fill: #3fa9f5;
      }
    </style>
  </defs>
  <g id="Layer_1-2" data-name="Layer 1">
    <g>
      <rect class="cls-2" width="899" height="899"/>
      <path class="cls-1" d="m59.74,123.62c.69-3.45,1.92-6.24,3.7-8.38,1.77-2.13,3.71-3.76,5.81-4.89,2.1-1.13,4.74-2.27,7.91-3.43,3.61-1.32,6.31-2.59,8.11-3.82,1.8-1.23,2.92-2.98,3.38-5.26l.85-4.24c.49-2.43.01-4.55-1.42-6.34-1.44-1.8-3.6-2.99-6.51-3.57l-10.12-2.03c-3.14-.63-5.86-.09-8.15,1.61-2.3,1.7-3.79,4.28-4.48,7.73l-16.24-3.25c1-5.02,3-9.25,5.97-12.7,2.97-3.44,6.69-5.82,11.16-7.13,4.46-1.31,9.32-1.44,14.58-.38l10.12,2.03c5.1,1.02,9.41,2.84,12.92,5.46,3.51,2.62,6.01,5.81,7.5,9.58,1.49,3.77,1.8,7.85.92,12.24l-.85,4.24c-.71,3.53-1.91,6.35-3.59,8.46-1.69,2.11-3.51,3.66-5.46,4.66-1.95,1-4.51,2.08-7.68,3.23-3.67,1.22-6.5,2.51-8.49,3.87-1.98,1.36-3.27,3.53-3.87,6.51l-.33,1.65-16.24-3.25.52-2.59Zm-3.91,25.35c-1.41-2.12-1.83-4.63-1.25-7.53.58-2.9,1.93-5.06,4.05-6.47,2.12-1.41,4.63-1.83,7.53-1.25,2.9.58,5.06,1.93,6.47,4.05,1.41,2.12,1.83,4.63,1.25,7.53-.58,2.9-1.93,5.06-4.05,6.47-2.12,1.41-4.63,1.83-7.53,1.25-2.9-.58-5.06-1.93-6.47-4.05Z"/>
      <path class="cls-1" d="m134.72,104.79c-2.53-.27-4.73-1.56-6.58-3.86s-2.65-4.72-2.38-7.25c.27-2.53,1.56-4.73,3.86-6.58s4.72-2.65,7.25-2.38c2.53.27,4.73,1.56,6.58,3.86s2.65,4.72,2.38,7.25c-.27,2.53-1.56,4.73-3.86,6.59s-4.72,2.65-7.25,2.38Zm-16.97-19.22c-2.21-2.74-3.57-5.47-4.07-8.2-.5-2.73-.52-5.26-.04-7.6.48-2.34,1.29-5.1,2.42-8.27,1.3-3.61,2.05-6.51,2.25-8.68.2-2.17-.42-4.16-1.88-5.96l-2.71-3.36c-1.56-1.93-3.49-2.92-5.78-2.97-2.3-.05-4.6.86-6.9,2.72l-8.03,6.48c-2.49,2.01-3.82,4.44-3.98,7.3-.16,2.86.86,5.65,3.07,8.39l-12.89,10.4c-3.21-3.98-5.19-8.22-5.94-12.71-.74-4.49-.19-8.87,1.66-13.14,1.85-4.27,4.86-8.08,9.03-11.45l8.03-6.48c4.05-3.26,8.2-5.41,12.46-6.43,4.26-1.02,8.32-.9,12.16.36,3.85,1.27,7.18,3.64,9.99,7.13l2.71,3.36c2.26,2.8,3.66,5.53,4.2,8.17.54,2.65.57,5.04.09,7.18-.48,2.14-1.25,4.81-2.43,7.97-1.36,3.62-2.23,6.6-2.46,9-.23,2.39.61,4.77,2.52,7.14l1.06,1.31-12.89,10.4-1.66-2.05Z"/>
      <path class="cls-1" d="m145.84,166.44c-.22-2.54.61-4.94,2.51-7.21s4.12-3.52,6.65-3.74c2.54-.22,4.94.61,7.21,2.51s3.52,4.12,3.74,6.65c.22,2.54-.61,4.94-2.51,7.21s-4.12,3.52-6.65,3.74c-2.54.22-4.94-.61-7.21-2.51s-3.52-4.12-3.74-6.65Zm15.57-20.38c2.26-2.7,4.68-4.56,7.26-5.58,2.58-1.02,5.06-1.53,7.45-1.51,2.38.02,5.25.27,8.59.77,3.8.57,6.78.75,8.95.53,2.17-.22,3.99-1.22,5.48-3l2.77-3.31c1.59-1.9,2.19-3.98,1.79-6.25-.4-2.26-1.73-4.35-4-6.25l-7.91-6.63c-2.45-2.05-5.1-2.88-7.93-2.49-2.83.39-5.38,1.94-7.64,4.64l-12.7-10.63c3.29-3.92,7.06-6.69,11.32-8.29,4.26-1.6,8.66-1.9,13.21-.91,4.54.99,8.87,3.2,12.98,6.64l7.91,6.63c3.99,3.34,6.89,7,8.72,10.98,1.83,3.98,2.49,7.98,2,12-.5,4.02-2.18,7.75-5.06,11.18l-2.77,3.31c-2.31,2.76-4.71,4.66-7.2,5.71-2.49,1.04-4.83,1.54-7.03,1.47-2.19-.06-4.96-.29-8.29-.84-3.82-.63-6.91-.91-9.3-.67-2.39.24-4.56,1.53-6.52,3.86l-1.08,1.29-12.7-10.63,1.69-2.02Z"/>
      <path class="cls-1" d="m216.25,88.16c-.05-2.54.95-4.88,3-7.02s4.35-3.23,6.89-3.28c2.55-.05,4.88.95,7.02,3s3.23,4.35,3.28,6.9c.05,2.54-.95,4.88-3,7.02s-4.35,3.23-6.89,3.28c-2.55.05-4.89-.95-7.02-3s-3.23-4.35-3.28-6.89Zm16.93-19.26c2.44-2.54,4.98-4.23,7.62-5.07,2.64-.84,5.15-1.18,7.53-1,2.38.18,5.22.63,8.51,1.36,3.75.83,6.71,1.21,8.89,1.14,2.18-.07,4.07-.94,5.68-2.62l2.99-3.11c1.72-1.79,2.46-3.82,2.21-6.11-.24-2.29-1.43-4.46-3.56-6.51l-7.44-7.15c-2.31-2.22-4.89-3.23-7.74-3.03-2.85.2-5.5,1.57-7.94,4.1l-11.94-11.48c3.55-3.69,7.5-6.19,11.86-7.49,4.36-1.3,8.77-1.3,13.24,0,4.47,1.3,8.63,3.8,12.5,7.52l7.44,7.15c3.75,3.6,6.4,7.46,7.95,11.56,1.55,4.1,1.94,8.14,1.17,12.11-.77,3.98-2.71,7.58-5.81,10.81l-2.99,3.11c-2.5,2.6-5.02,4.33-7.58,5.2-2.56.87-4.93,1.2-7.11.99-2.18-.21-4.93-.63-8.22-1.41-3.77-.89-6.83-1.38-9.23-1.3-2.4.08-4.66,1.21-6.76,3.4l-1.16,1.21-11.94-11.48,1.83-1.9Z"/>
      <path class="cls-1" d="m331.05,176.27c-2.54-.04-4.85-1.12-6.91-3.25s-3.07-4.46-3.03-7.01c.04-2.55,1.12-4.85,3.25-6.91s4.46-3.07,7.01-3.03c2.54.04,4.85,1.13,6.91,3.25s3.07,4.46,3.03,7.01c-.04,2.55-1.12,4.85-3.25,6.91s-4.46,3.07-7.01,3.03Zm-18.64-17.61c-2.45-2.53-4.05-5.13-4.8-7.8-.75-2.67-.99-5.19-.73-7.56.26-2.37.82-5.19,1.66-8.46.96-3.72,1.45-6.67,1.46-8.84,0-2.18-.8-4.1-2.41-5.77l-3.01-3.1c-1.72-1.78-3.74-2.59-6.03-2.43-2.29.16-4.5,1.27-6.63,3.33l-7.41,7.18c-2.3,2.23-3.4,4.77-3.3,7.63.1,2.86,1.37,5.55,3.82,8.08l-11.89,11.52c-3.56-3.68-5.92-7.72-7.06-12.12-1.15-4.4-.99-8.81.47-13.23,1.46-4.42,4.11-8.49,7.96-12.22l7.41-7.18c3.73-3.62,7.68-6.13,11.83-7.53,4.15-1.4,8.2-1.65,12.15-.74,3.95.91,7.48,2.98,10.59,6.19l3.01,3.1c2.5,2.59,4.15,5.17,4.93,7.76.78,2.59,1.02,4.97.73,7.14-.29,2.18-.81,4.91-1.7,8.16-1.02,3.73-1.62,6.78-1.63,9.18,0,2.4,1.04,4.7,3.16,6.88l1.17,1.21-11.89,11.52-1.84-1.9Z"/>
      <path class="cls-1" d="m392.88,111.3c-2.53-.27-4.72-1.56-6.58-3.87s-2.65-4.72-2.37-7.25c.27-2.53,1.56-4.72,3.87-6.58s4.72-2.65,7.26-2.37c2.53.27,4.72,1.56,6.58,3.87s2.65,4.72,2.38,7.25c-.27,2.53-1.56,4.73-3.87,6.58s-4.72,2.65-7.25,2.37Zm-16.96-19.24c-2.21-2.74-3.56-5.48-4.06-8.21-.5-2.73-.51-5.26-.03-7.6.48-2.34,1.29-5.09,2.43-8.27,1.3-3.61,2.05-6.51,2.26-8.67.21-2.17-.42-4.16-1.87-5.96l-2.71-3.36c-1.55-1.93-3.48-2.92-5.78-2.97-2.3-.05-4.6.86-6.91,2.71l-8.04,6.47c-2.49,2.01-3.82,4.44-3.99,7.29-.17,2.86.85,5.65,3.06,8.4l-12.9,10.39c-3.21-3.99-5.19-8.23-5.92-12.72-.74-4.49-.18-8.87,1.67-13.13,1.85-4.27,4.87-8.08,9.04-11.44l8.04-6.47c4.05-3.26,8.21-5.4,12.47-6.42,4.26-1.02,8.32-.89,12.16.37,3.85,1.27,7.17,3.65,9.98,7.14l2.71,3.36c2.26,2.8,3.66,5.53,4.19,8.18.54,2.65.57,5.04.08,7.18-.49,2.14-1.25,4.81-2.44,7.97-1.36,3.62-2.23,6.6-2.47,8.99-.23,2.39.61,4.77,2.51,7.14l1.05,1.31-12.9,10.39-1.66-2.06Z"/>
      <path class="cls-1" d="m433.08,172.37c-1.63-1.95-2.32-4.4-2.05-7.35s1.37-5.24,3.33-6.87c1.95-1.63,4.4-2.32,7.35-2.05s5.24,1.37,6.87,3.33c1.63,1.95,2.31,4.41,2.05,7.35s-1.37,5.24-3.33,6.87c-1.95,1.63-4.41,2.32-7.35,2.05s-5.24-1.37-6.87-3.33Zm1.16-25.62c.31-3.5,1.24-6.41,2.77-8.73,1.53-2.31,3.28-4.14,5.25-5.49,1.97-1.35,4.47-2.77,7.49-4.27,3.44-1.7,5.99-3.26,7.65-4.67,1.65-1.42,2.58-3.28,2.79-5.59l.39-4.3c.22-2.47-.48-4.52-2.1-6.15-1.62-1.63-3.91-2.58-6.85-2.84l-10.28-.92c-3.19-.29-5.83.54-7.93,2.48-2.1,1.94-3.31,4.66-3.62,8.17l-16.49-1.48c.46-5.1,1.98-9.52,4.56-13.27,2.58-3.74,6.03-6.51,10.32-8.29,4.3-1.78,9.11-2.43,14.45-1.96l10.28.92c5.18.46,9.66,1.81,13.43,4.04,3.78,2.23,6.61,5.13,8.49,8.71,1.89,3.58,2.63,7.61,2.23,12.07l-.39,4.3c-.32,3.59-1.21,6.52-2.66,8.8-1.45,2.28-3.09,4.02-4.93,5.22-1.84,1.2-4.24,2.59-7.29,4.04-3.49,1.66-6.19,3.2-8.02,4.76-1.83,1.56-2.88,3.86-3.15,6.89l-.15,1.67-16.49-1.48.24-2.63Z"/>
      <path class="cls-1" d="m528.4,179.64c-1.35-2.16-1.69-4.68-1.03-7.56s2.08-5,4.23-6.35c2.16-1.35,4.68-1.69,7.56-1.03s5,2.08,6.35,4.23c1.35,2.16,1.69,4.68,1.03,7.56s-2.08,5-4.23,6.35c-2.16,1.35-4.68,1.69-7.56,1.03s-5-2.08-6.35-4.23Zm4.64-25.22c.79-3.43,2.1-6.18,3.94-8.27,1.83-2.08,3.82-3.66,5.95-4.72,2.13-1.07,4.8-2.14,8-3.2,3.64-1.21,6.38-2.41,8.21-3.59,1.83-1.18,3.01-2.9,3.53-5.16l.97-4.21c.56-2.42.14-4.54-1.24-6.38-1.38-1.84-3.52-3.09-6.4-3.75l-10.06-2.32c-3.12-.72-5.85-.26-8.2,1.37-2.35,1.64-3.92,4.17-4.71,7.6l-16.14-3.72c1.15-4.99,3.26-9.16,6.33-12.52,3.07-3.36,6.86-5.62,11.36-6.8,4.5-1.18,9.36-1.17,14.58.04l10.06,2.32c5.07,1.17,9.32,3.11,12.76,5.83,3.44,2.72,5.84,5.99,7.22,9.79,1.38,3.81,1.57,7.89.56,12.26l-.97,4.21c-.81,3.51-2.09,6.29-3.83,8.35-1.75,2.06-3.61,3.56-5.59,4.5-1.98.94-4.56,1.99-7.77,3.01-3.69,1.17-6.57,2.32-8.59,3.62-2.02,1.3-3.38,3.43-4.06,6.39l-.38,1.64-16.14-3.72.59-2.57Z"/>
      <path class="cls-1" d="m556.12,165.33c-.49-2.5.09-4.97,1.74-7.43s3.73-3.93,6.22-4.42c2.5-.49,4.98.09,7.43,1.74s3.93,3.72,4.42,6.22c.49,2.5-.09,4.98-1.74,7.43s-3.72,3.93-6.22,4.42c-2.5.49-4.98-.09-7.43-1.74s-3.93-3.73-4.42-6.22Zm13.34-21.9c1.96-2.92,4.17-5.03,6.63-6.32,2.46-1.29,4.87-2.05,7.25-2.29,2.37-.24,5.25-.28,8.62-.14,3.84.17,6.82.03,8.95-.42,2.13-.45,3.84-1.63,5.14-3.56l2.41-3.59c1.38-2.06,1.76-4.19,1.12-6.4-.64-2.21-2.18-4.14-4.64-5.79l-8.57-5.76c-2.66-1.78-5.37-2.33-8.15-1.64-2.78.69-5.15,2.49-7.11,5.42l-13.75-9.23c2.85-4.25,6.32-7.39,10.38-9.43,4.07-2.04,8.41-2.81,13.04-2.3,4.62.5,9.16,2.25,13.61,5.24l8.57,5.76c4.32,2.9,7.59,6.24,9.83,10,2.24,3.77,3.32,7.68,3.25,11.73-.07,4.05-1.35,7.93-3.85,11.65l-2.41,3.59c-2.01,2.99-4.2,5.13-6.56,6.43-2.37,1.3-4.65,2.04-6.83,2.21-2.19.17-4.97.23-8.34.04-3.86-.22-6.97-.17-9.32.32-2.35.49-4.38,2-6.07,4.52l-.94,1.39-13.75-9.23,1.47-2.19Z"/>
      <path class="cls-1" d="m680.06,178.14c-2.49-.52-4.54-2.03-6.16-4.51s-2.16-4.96-1.64-7.46c.52-2.49,2.03-4.54,4.51-6.16s4.96-2.16,7.46-1.64c2.49.52,4.54,2.03,6.16,4.51s2.16,4.96,1.64,7.46c-.53,2.49-2.03,4.55-4.51,6.16s-4.96,2.16-7.46,1.64Zm-14.95-20.84c-1.92-2.95-3-5.8-3.22-8.57-.23-2.76.01-5.29.73-7.56.71-2.28,1.79-4.94,3.24-7.99,1.66-3.47,2.69-6.27,3.11-8.41.42-2.14,0-4.18-1.27-6.12l-2.36-3.62c-1.35-2.08-3.17-3.25-5.46-3.53-2.28-.28-4.66.39-7.14,2.01l-8.64,5.64c-2.68,1.75-4.24,4.04-4.7,6.86-.45,2.82.29,5.71,2.21,8.66l-13.87,9.05c-2.8-4.29-4.34-8.7-4.62-13.24-.29-4.54.7-8.84,2.98-12.9,2.27-4.06,5.65-7.55,10.14-10.48l8.64-5.64c4.36-2.84,8.71-4.55,13.05-5.14,4.34-.59,8.36-.06,12.07,1.59,3.7,1.65,6.77,4.35,9.22,8.1l2.36,3.62c1.97,3.02,3.08,5.87,3.36,8.55.27,2.69.06,5.07-.64,7.15-.7,2.08-1.73,4.66-3.22,7.69-1.72,3.47-2.88,6.34-3.35,8.7-.47,2.36.13,4.81,1.79,7.36l.92,1.41-13.87,9.05-1.44-2.21Z"/>
      <path class="cls-1" d="m741.79,110.24c-2.49-.53-4.54-2.04-6.15-4.52s-2.15-4.97-1.62-7.46c.53-2.49,2.04-4.54,4.52-6.15s4.97-2.15,7.46-1.62c2.49.53,4.54,2.04,6.15,4.52s2.15,4.97,1.62,7.46c-.53,2.49-2.04,4.54-4.52,6.15s-4.97,2.15-7.46,1.62Zm-14.9-20.87c-1.92-2.95-2.98-5.81-3.2-8.58-.22-2.77.03-5.29.74-7.56.72-2.27,1.8-4.94,3.26-7.98,1.66-3.46,2.71-6.26,3.13-8.4.43-2.14,0-4.18-1.25-6.12l-2.35-3.62c-1.35-2.08-3.17-3.26-5.45-3.55-2.28-.28-4.67.38-7.15,1.99l-8.66,5.62c-2.68,1.74-4.25,4.02-4.71,6.85-.46,2.82.27,5.71,2.19,8.66l-13.89,9.01c-2.79-4.29-4.32-8.71-4.59-13.26-.28-4.54.73-8.84,3.01-12.89,2.28-4.05,5.67-7.54,10.17-10.46l8.66-5.62c4.36-2.83,8.72-4.53,13.06-5.11,4.35-.58,8.36-.04,12.06,1.62,3.7,1.66,6.76,4.36,9.2,8.12l2.35,3.62c1.96,3.02,3.07,5.88,3.34,8.56.26,2.69.05,5.07-.66,7.15-.7,2.08-1.74,4.66-3.24,7.68-1.72,3.46-2.9,6.34-3.37,8.7-.47,2.36.12,4.81,1.77,7.36l.91,1.41-13.89,9.01-1.44-2.21Z"/>
      <path class="cls-1" d="m777.54,126.64c-2.48-.58-4.5-2.13-6.06-4.64s-2.05-5.01-1.47-7.49c.58-2.48,2.13-4.5,4.64-6.06s5.01-2.05,7.49-1.47c2.48.58,4.5,2.13,6.06,4.64s2.05,5.01,1.47,7.49c-.58,2.48-2.13,4.5-4.64,6.06s-5.01,2.05-7.49,1.47Zm-14.49-21.16c-1.86-2.99-2.87-5.87-3.03-8.64-.17-2.77.13-5.28.89-7.55.76-2.26,1.9-4.9,3.42-7.91,1.73-3.43,2.83-6.21,3.3-8.33.47-2.13.09-4.18-1.13-6.15l-2.28-3.67c-1.31-2.11-3.1-3.32-5.38-3.65-2.28-.33-4.67.29-7.19,1.85l-8.77,5.45c-2.72,1.69-4.33,3.94-4.85,6.75-.51,2.81.16,5.72,2.02,8.71l-14.07,8.74c-2.7-4.35-4.15-8.8-4.33-13.34-.19-4.54.9-8.82,3.26-12.83,2.36-4.01,5.82-7.43,10.37-10.25l8.77-5.45c4.42-2.74,8.8-4.36,13.16-4.85,4.36-.49,8.36.13,12.03,1.85,3.66,1.73,6.68,4.49,9.04,8.3l2.28,3.67c1.9,3.06,2.95,5.93,3.17,8.63.21,2.69-.05,5.07-.8,7.13-.74,2.06-1.83,4.62-3.39,7.62-1.79,3.43-3.02,6.28-3.54,8.63-.52,2.35.02,4.81,1.63,7.39l.89,1.43-14.07,8.74-1.39-2.24Z"/>
      <path class="cls-1" d="m794.39,102.21c.15-3.52.93-6.47,2.35-8.85,1.42-2.38,3.08-4.3,4.98-5.74,1.9-1.44,4.33-2.98,7.28-4.62,3.36-1.86,5.83-3.54,7.41-5.04,1.58-1.5,2.42-3.4,2.52-5.72l.18-4.32c.1-2.48-.7-4.49-2.39-6.04-1.7-1.55-4.03-2.39-6.98-2.51l-10.31-.43c-3.2-.13-5.8.82-7.8,2.86-2.01,2.04-3.08,4.82-3.23,8.33l-16.55-.68c.21-5.11,1.52-9.61,3.92-13.47,2.4-3.86,5.7-6.79,9.91-8.78,4.2-1.99,8.99-2.87,14.34-2.65l10.31.43c5.2.21,9.73,1.34,13.61,3.38,3.88,2.04,6.85,4.81,8.9,8.29,2.06,3.49,3,7.47,2.81,11.95l-.18,4.32c-.15,3.6-.89,6.57-2.23,8.92-1.34,2.35-2.9,4.17-4.67,5.45-1.78,1.29-4.14,2.75-7.09,4.39-3.44,1.78-6.03,3.5-7.78,5.14-1.75,1.65-2.69,3.99-2.81,7.03l-.07,1.68-16.55-.68.11-2.64Zm.08,25.64c-1.72-1.87-2.52-4.29-2.4-7.25.12-2.96,1.12-5.3,2.99-7.02,1.87-1.72,4.29-2.53,7.25-2.4,2.96.12,5.3,1.12,7.02,2.99,1.72,1.87,2.52,4.29,2.4,7.25-.12,2.96-1.12,5.3-2.99,7.02-1.87,1.72-4.29,2.53-7.25,2.4-2.96-.12-5.3-1.12-7.02-2.99Z"/>
      <path class="cls-1" d="m83.41,341.79c-2.54-.21-4.76-1.45-6.67-3.71s-2.76-4.66-2.54-7.2c.21-2.54,1.45-4.76,3.71-6.67s4.66-2.76,7.2-2.54c2.54.21,4.76,1.45,6.67,3.71s2.76,4.66,2.54,7.2c-.21,2.54-1.45,4.76-3.71,6.67s-4.66,2.76-7.2,2.54Zm-17.4-18.84c-2.27-2.69-3.69-5.39-4.25-8.11-.56-2.72-.64-5.25-.21-7.6.43-2.35,1.17-5.12,2.24-8.33,1.22-3.64,1.9-6.55,2.06-8.72.15-2.17-.51-4.14-2.01-5.92l-2.79-3.3c-1.6-1.89-3.55-2.84-5.85-2.84-2.3,0-4.58.96-6.84,2.87l-7.89,6.66c-2.45,2.06-3.72,4.53-3.82,7.38-.1,2.86.99,5.63,3.26,8.32l-12.65,10.68c-3.3-3.91-5.38-8.1-6.22-12.57-.84-4.47-.39-8.86,1.37-13.17,1.75-4.31,4.68-8.19,8.78-11.65l7.89-6.66c3.97-3.35,8.08-5.59,12.32-6.71,4.24-1.12,8.29-1.09,12.17.09,3.88,1.18,7.26,3.48,10.15,6.9l2.79,3.3c2.32,2.75,3.78,5.44,4.38,8.08.6,2.63.68,5.03.25,7.17-.44,2.15-1.14,4.84-2.25,8.03-1.28,3.65-2.08,6.65-2.25,9.05-.17,2.4.72,4.76,2.68,7.08l1.08,1.28-12.65,10.68-1.7-2.02Z"/>
      <path class="cls-1" d="m158.92,282.02c-2.23-1.23-3.75-3.27-4.56-6.12s-.61-5.38.63-7.61c1.23-2.23,3.27-3.75,6.12-4.56s5.38-.61,7.61.63c2.23,1.23,3.75,3.27,4.56,6.12s.61,5.38-.63,7.61c-1.23,2.23-3.27,3.75-6.12,4.56s-5.38.61-7.61-.63Zm-8.16-24.31c-.97-3.38-1.16-6.43-.56-9.14.6-2.71,1.57-5.05,2.92-7.02,1.35-1.97,3.17-4.2,5.45-6.68,2.6-2.83,4.42-5.2,5.45-7.12,1.03-1.92,1.23-3.99.59-6.22l-1.19-4.15c-.68-2.38-2.08-4.04-4.18-4.98-2.1-.94-4.57-1-7.42-.18l-9.92,2.85c-3.08.88-5.24,2.61-6.5,5.17-1.26,2.57-1.41,5.54-.43,8.93l-15.92,4.57c-1.41-4.92-1.59-9.59-.53-14.02,1.06-4.42,3.27-8.24,6.64-11.46,3.36-3.21,7.62-5.56,12.77-7.04l9.92-2.85c5-1.43,9.66-1.79,13.99-1.08,4.33.72,8.01,2.4,11.07,5.06,3.05,2.66,5.2,6.15,6.43,10.45l1.19,4.15c.99,3.46,1.22,6.52.69,9.16-.53,2.65-1.43,4.87-2.71,6.65-1.28,1.78-3.02,3.95-5.34,6.4-2.66,2.81-4.62,5.22-5.76,7.33-1.14,2.12-1.29,4.64-.45,7.56l.46,1.62-15.92,4.57-.73-2.54Z"/>
      <path class="cls-1" d="m206.61,340.2c-1.52-2.04-2.07-4.52-1.65-7.45s1.66-5.16,3.7-6.68c2.04-1.52,4.52-2.07,7.45-1.65s5.16,1.66,6.68,3.7c1.52,2.04,2.07,4.53,1.65,7.45s-1.66,5.16-3.7,6.68c-2.04,1.52-4.53,2.07-7.45,1.65s-5.16-1.66-6.68-3.7Zm2.55-25.52c.5-3.48,1.59-6.34,3.24-8.56,1.66-2.22,3.5-3.96,5.54-5.2,2.04-1.24,4.61-2.52,7.71-3.85,3.53-1.51,6.16-2.93,7.89-4.25,1.73-1.33,2.76-3.14,3.09-5.43l.62-4.28c.36-2.45-.23-4.54-1.76-6.26-1.53-1.72-3.76-2.79-6.69-3.21l-10.21-1.48c-3.17-.46-5.85.22-8.06,2.05-2.2,1.82-3.56,4.48-4.06,7.96l-16.39-2.38c.73-5.07,2.49-9.4,5.28-13,2.78-3.6,6.37-6.17,10.76-7.72,4.39-1.55,9.23-1.94,14.54-1.17l10.21,1.48c5.15.75,9.54,2.33,13.19,4.76,3.65,2.43,6.32,5.48,8.01,9.16,1.69,3.68,2.21,7.74,1.57,12.17l-.62,4.28c-.52,3.56-1.56,6.44-3.13,8.64-1.57,2.2-3.31,3.85-5.2,4.94-1.9,1.1-4.38,2.36-7.5,3.64-3.58,1.47-6.36,2.86-8.27,4.32-1.91,1.46-3.08,3.7-3.52,6.7l-.24,1.66-16.39-2.38.38-2.61Z"/>
      <path class="cls-1" d="m217.78,280.32c-.42-2.51.23-4.97,1.95-7.38s3.83-3.82,6.34-4.25c2.51-.42,4.97.23,7.38,1.95s3.83,3.83,4.25,6.34c.42,2.51-.23,4.97-1.95,7.38s-3.83,3.83-6.34,4.25c-2.51.42-4.97-.23-7.38-1.95s-3.82-3.83-4.25-6.34Zm13.95-21.52c2.04-2.87,4.31-4.91,6.8-6.13,2.49-1.22,4.93-1.92,7.31-2.08,2.38-.17,5.25-.13,8.62.11,3.83.28,6.82.22,8.96-.17,2.14-.39,3.89-1.52,5.24-3.41l2.51-3.52c1.44-2.02,1.87-4.14,1.3-6.37-.57-2.23-2.07-4.2-4.48-5.92l-8.4-5.99c-2.61-1.86-5.31-2.48-8.1-1.87-2.79.61-5.21,2.35-7.26,5.22l-13.48-9.62c2.97-4.17,6.52-7.21,10.64-9.14,4.12-1.92,8.49-2.57,13.1-1.94,4.61.63,9.09,2.51,13.46,5.62l8.4,5.99c4.23,3.02,7.42,6.45,9.55,10.27,2.13,3.83,3.11,7.77,2.92,11.81-.18,4.05-1.57,7.89-4.18,11.54l-2.51,3.52c-2.09,2.93-4.34,5.01-6.74,6.25-2.4,1.23-4.7,1.91-6.89,2.01-2.19.11-4.97.09-8.33-.2-3.86-.33-6.96-.37-9.33.06-2.37.43-4.43,1.88-6.2,4.35l-.98,1.37-13.48-9.62,1.53-2.15Z"/>
      <path class="cls-1" d="m346.33,283.34c-2.11-1.43-3.44-3.59-4-6.5s-.13-5.41,1.3-7.52c1.43-2.11,3.59-3.44,6.5-4s5.41-.13,7.52,1.3c2.11,1.43,3.44,3.59,4,6.5s.13,5.41-1.3,7.52c-1.43,2.11-3.59,3.44-6.5,4s-5.41.13-7.52-1.3Zm-5.98-24.94c-.67-3.46-.58-6.51.25-9.15.83-2.65,2.01-4.89,3.53-6.73,1.52-1.84,3.53-3.9,6.02-6.17,2.84-2.58,4.86-4.79,6.06-6.61,1.2-1.82,1.58-3.87,1.14-6.15l-.82-4.24c-.47-2.43-1.71-4.21-3.72-5.33-2.01-1.12-4.47-1.4-7.37-.84l-10.13,1.96c-3.14.61-5.45,2.13-6.94,4.58-1.48,2.45-1.89,5.4-1.22,8.85l-16.26,3.14c-.97-5.03-.73-9.7.72-14.01,1.45-4.31,3.99-7.92,7.63-10.82,3.64-2.9,8.08-4.86,13.35-5.88l10.13-1.96c5.1-.99,9.78-.93,14.03.16,4.24,1.1,7.77,3.1,10.57,6.03,2.8,2.92,4.63,6.58,5.48,10.98l.82,4.24c.68,3.53.64,6.6-.12,9.19-.76,2.59-1.86,4.72-3.29,6.38-1.43,1.66-3.36,3.67-5.89,5.9-2.9,2.56-5.06,4.79-6.39,6.79-1.32,2.01-1.7,4.5-1.12,7.49l.32,1.65-16.26,3.14-.5-2.59Z"/>
      <path class="cls-1" d="m377.25,309.11c-1.57-2-2.18-4.47-1.82-7.41s1.54-5.19,3.54-6.76c2-1.57,4.47-2.18,7.41-1.82s5.19,1.54,6.76,3.54c1.57,2,2.17,4.48,1.82,7.41s-1.54,5.19-3.54,6.76c-2,1.57-4.48,2.18-7.41,1.82s-5.19-1.54-6.76-3.54Zm1.96-25.57c.42-3.49,1.44-6.37,3.04-8.64,1.61-2.26,3.41-4.04,5.42-5.32,2.01-1.29,4.55-2.63,7.62-4.03,3.5-1.59,6.09-3.07,7.79-4.43,1.7-1.37,2.69-3.2,2.97-5.5l.52-4.29c.3-2.46-.34-4.53-1.9-6.22-1.57-1.68-3.82-2.7-6.76-3.06l-10.24-1.25c-3.18-.39-5.85.36-8.01,2.23-2.16,1.87-3.46,4.56-3.88,8.05l-16.44-2c.62-5.08,2.28-9.45,4.98-13.12,2.7-3.66,6.23-6.31,10.58-7.96,4.35-1.65,9.19-2.15,14.51-1.5l10.24,1.25c5.16.63,9.6,2.11,13.3,4.46,3.7,2.34,6.44,5.34,8.22,8.98,1.77,3.64,2.39,7.69,1.85,12.13l-.52,4.29c-.43,3.57-1.41,6.48-2.93,8.71-1.52,2.23-3.22,3.92-5.09,5.06-1.87,1.14-4.32,2.46-7.41,3.81-3.55,1.55-6.29,3-8.16,4.51-1.88,1.51-3,3.77-3.36,6.78l-.2,1.67-16.44-2,.32-2.62Z"/>
      <path class="cls-1" d="m463.36,289.72c-1.65-1.94-2.36-4.38-2.13-7.33s1.32-5.25,3.26-6.9c1.94-1.65,4.38-2.36,7.33-2.13s5.25,1.32,6.9,3.26c1.65,1.94,2.36,4.38,2.13,7.33s-1.32,5.25-3.26,6.9c-1.94,1.65-4.38,2.36-7.33,2.13s-5.25-1.32-6.9-3.26Zm.89-25.63c.28-3.51,1.17-6.43,2.68-8.75,1.51-2.33,3.24-4.18,5.2-5.55,1.95-1.37,4.44-2.82,7.45-4.34,3.43-1.73,5.96-3.32,7.6-4.75,1.64-1.43,2.55-3.31,2.73-5.62l.34-4.31c.2-2.47-.52-4.51-2.16-6.13-1.64-1.61-3.93-2.54-6.88-2.77l-10.29-.82c-3.19-.25-5.83.6-7.91,2.56-2.08,1.96-3.26,4.7-3.54,8.21l-16.51-1.31c.41-5.1,1.88-9.54,4.43-13.31,2.54-3.77,5.96-6.57,10.24-8.4,4.28-1.83,9.09-2.53,14.43-2.1l10.29.82c5.18.41,9.67,1.71,13.47,3.9,3.8,2.19,6.66,5.06,8.58,8.63,1.92,3.56,2.71,7.58,2.35,12.04l-.34,4.31c-.29,3.59-1.14,6.53-2.57,8.82-1.43,2.29-3.05,4.05-4.87,5.27-1.82,1.22-4.22,2.64-7.25,4.12-3.48,1.7-6.16,3.26-7.97,4.84-1.81,1.58-2.84,3.89-3.08,6.92l-.13,1.68-16.51-1.31.21-2.63Z"/>
      <path class="cls-1" d="m529.23,269.92c-2.54-.13-4.81-1.29-6.79-3.48s-2.91-4.56-2.79-7.11c.13-2.54,1.29-4.81,3.48-6.79s4.56-2.92,7.11-2.79c2.54.13,4.81,1.29,6.79,3.48s2.92,4.56,2.79,7.11c-.13,2.54-1.29,4.81-3.48,6.79s-4.56,2.91-7.11,2.79Zm-18.03-18.23c-2.36-2.61-3.87-5.26-4.53-7.96-.66-2.69-.82-5.22-.47-7.59.34-2.36,1-5.16,1.95-8.4,1.09-3.68,1.68-6.61,1.76-8.79.08-2.18-.66-4.12-2.21-5.85l-2.9-3.2c-1.66-1.84-3.64-2.72-5.94-2.63-2.3.08-4.55,1.12-6.74,3.1l-7.65,6.92c-2.37,2.15-3.56,4.65-3.56,7.51,0,2.86,1.18,5.6,3.54,8.21l-12.28,11.11c-3.43-3.8-5.65-7.92-6.65-12.35-1-4.44-.69-8.84.92-13.21,1.61-4.37,4.4-8.35,8.37-11.94l7.65-6.92c3.86-3.49,7.88-5.86,12.08-7.13,4.2-1.26,8.25-1.37,12.16-.33,3.91,1.05,7.37,3.23,10.38,6.55l2.9,3.2c2.42,2.67,3.97,5.31,4.66,7.92.69,2.61.85,5,.49,7.16-.36,2.16-.97,4.88-1.98,8.1-1.15,3.7-1.85,6.72-1.94,9.12-.09,2.4.88,4.73,2.92,6.98l1.13,1.25-12.28,11.11-1.77-1.96Z"/>
      <path class="cls-1" d="m598.49,311.74c-2.11-1.42-3.45-3.59-4.01-6.5s-.13-5.41,1.29-7.52c1.42-2.11,3.59-3.45,6.49-4.01s5.41-.13,7.52,1.29c2.11,1.42,3.45,3.59,4.01,6.5s.13,5.41-1.29,7.52c-1.43,2.11-3.59,3.45-6.5,4.01s-5.41.13-7.52-1.29Zm-6-24.93c-.67-3.45-.59-6.51.24-9.15.83-2.65,2-4.89,3.52-6.73,1.52-1.84,3.52-3.9,6.01-6.18,2.84-2.59,4.85-4.79,6.05-6.61,1.19-1.82,1.57-3.87,1.13-6.15l-.82-4.24c-.47-2.43-1.71-4.21-3.72-5.33-2.01-1.12-4.47-1.39-7.37-.83l-10.13,1.97c-3.14.61-5.45,2.14-6.93,4.58-1.48,2.45-1.89,5.4-1.22,8.85l-16.26,3.15c-.97-5.02-.74-9.7.7-14.01,1.44-4.31,3.98-7.92,7.62-10.83,3.63-2.9,8.08-4.87,13.34-5.89l10.13-1.97c5.1-.99,9.78-.94,14.03.15,4.25,1.09,7.77,3.1,10.58,6.02,2.81,2.92,4.64,6.58,5.49,10.98l.82,4.24c.69,3.53.65,6.6-.11,9.19-.76,2.59-1.86,4.72-3.28,6.38-1.43,1.66-3.36,3.67-5.88,5.91-2.9,2.57-5.06,4.79-6.38,6.8-1.32,2.01-1.69,4.51-1.11,7.49l.32,1.65-16.26,3.15-.5-2.59Z"/>
      <path class="cls-1" d="m661.62,287.96c-2.43-.76-4.33-2.46-5.7-5.08s-1.67-5.15-.91-7.58c.76-2.43,2.46-4.33,5.08-5.7s5.15-1.67,7.58-.91c2.43.76,4.33,2.46,5.7,5.08s1.67,5.15.91,7.58c-.76,2.43-2.46,4.33-5.08,5.7s-5.15,1.67-7.58.91Zm-12.86-22.19c-1.63-3.12-2.42-6.07-2.38-8.84.04-2.77.53-5.26,1.45-7.46.93-2.2,2.26-4.74,4-7.64,1.98-3.29,3.29-5.98,3.91-8.06.63-2.09.4-4.16-.67-6.21l-2-3.83c-1.15-2.2-2.84-3.55-5.09-4.05-2.25-.5-4.68-.06-7.3,1.31l-9.15,4.77c-2.84,1.48-4.62,3.61-5.34,6.37-.72,2.77-.27,5.71,1.36,8.83l-14.68,7.66c-2.37-4.54-3.48-9.08-3.32-13.63.15-4.55,1.56-8.73,4.21-12.55,2.65-3.82,6.36-6.97,11.11-9.45l9.15-4.77c4.61-2.41,9.11-3.69,13.49-3.86,4.38-.16,8.33.75,11.85,2.75,3.52,2,6.32,4.98,8.39,8.95l2,3.83c1.67,3.19,2.5,6.14,2.51,8.84,0,2.7-.43,5.05-1.33,7.05-.9,2-2.17,4.48-3.95,7.34-2.04,3.29-3.48,6.04-4.18,8.34-.69,2.3-.34,4.8,1.07,7.5l.78,1.49-14.68,7.66-1.22-2.34Z"/>
      <path class="cls-1" d="m717.63,314.01c-1.65-1.94-2.35-4.39-2.11-7.34s1.34-5.25,3.28-6.89c1.94-1.65,4.39-2.35,7.34-2.1s5.25,1.33,6.89,3.28c1.65,1.94,2.35,4.39,2.1,7.34s-1.33,5.25-3.28,6.89c-1.94,1.65-4.39,2.35-7.34,2.11s-5.25-1.34-6.89-3.28Zm.97-25.63c.29-3.51,1.19-6.42,2.71-8.75,1.52-2.32,3.25-4.17,5.21-5.53,1.96-1.36,4.45-2.8,7.46-4.32,3.43-1.72,5.97-3.3,7.61-4.73,1.64-1.43,2.56-3.3,2.75-5.61l.35-4.31c.2-2.47-.51-4.52-2.14-6.14-1.63-1.62-3.93-2.55-6.87-2.79l-10.29-.85c-3.19-.26-5.83.59-7.91,2.54-2.09,1.96-3.28,4.69-3.56,8.2l-16.5-1.36c.42-5.1,1.91-9.54,4.47-13.3,2.56-3.76,5.98-6.55,10.26-8.37,4.28-1.81,9.1-2.5,14.44-2.06l10.29.85c5.18.43,9.67,1.74,13.46,3.94,3.79,2.2,6.64,5.08,8.56,8.65,1.91,3.57,2.69,7.59,2.32,12.05l-.35,4.31c-.3,3.59-1.16,6.53-2.59,8.82-1.43,2.29-3.06,4.04-4.89,5.26-1.83,1.22-4.22,2.63-7.26,4.1-3.48,1.69-6.17,3.25-7.98,4.82-1.82,1.58-2.85,3.88-3.1,6.91l-.14,1.67-16.5-1.36.22-2.63Z"/>
      <path class="cls-1" d="m760.23,292.76c-.1-2.54.86-4.9,2.87-7.07s4.29-3.31,6.83-3.41c2.54-.1,4.9.86,7.07,2.87s3.31,4.29,3.41,6.83c.1,2.54-.86,4.9-2.87,7.07s-4.29,3.31-6.83,3.41c-2.54.1-4.9-.86-7.07-2.87s-3.31-4.29-3.41-6.83Zm16.56-19.58c2.39-2.58,4.9-4.32,7.53-5.22,2.63-.89,5.13-1.28,7.51-1.14,2.38.13,5.23.53,8.54,1.2,3.76.76,6.74,1.08,8.91.97,2.17-.11,4.05-1.02,5.63-2.72l2.93-3.17c1.68-1.82,2.38-3.87,2.1-6.15-.29-2.28-1.52-4.43-3.69-6.44l-7.57-7.01c-2.35-2.17-4.95-3.13-7.8-2.88-2.85.25-5.47,1.67-7.86,4.25l-12.15-11.25c3.48-3.76,7.38-6.33,11.72-7.71,4.33-1.39,8.75-1.47,13.24-.26,4.49,1.21,8.7,3.64,12.64,7.28l7.57,7.01c3.82,3.53,6.54,7.33,8.17,11.4,1.63,4.07,2.1,8.1,1.4,12.09-.7,3.99-2.56,7.63-5.61,10.92l-2.93,3.17c-2.45,2.64-4.94,4.42-7.48,5.34-2.54.92-4.9,1.29-7.09,1.12-2.19-.17-4.94-.54-8.24-1.25-3.78-.82-6.86-1.25-9.26-1.13-2.4.12-4.63,1.3-6.7,3.53l-1.14,1.23-12.15-11.25,1.79-1.94Z"/>
      <path class="cls-1" d="m828.98,317.09c-2.48-.57-4.5-2.12-6.07-4.63s-2.06-5.01-1.49-7.49c.57-2.48,2.12-4.5,4.63-6.07s5.01-2.06,7.49-1.49c2.48.57,4.5,2.12,6.07,4.63s2.06,5.01,1.49,7.49c-.58,2.48-2.12,4.5-4.63,6.07s-5.01,2.06-7.49,1.49Zm-14.53-21.13c-1.86-2.99-2.88-5.86-3.05-8.63-.17-2.77.12-5.28.88-7.55.76-2.26,1.89-4.9,3.4-7.92,1.72-3.43,2.82-6.21,3.28-8.34.46-2.13.08-4.18-1.15-6.15l-2.29-3.67c-1.31-2.1-3.11-3.32-5.38-3.64-2.28-.32-4.67.3-7.18,1.86l-8.76,5.46c-2.72,1.69-4.33,3.95-4.83,6.76-.51,2.82.17,5.72,2.03,8.7l-14.05,8.76c-2.71-4.34-4.16-8.79-4.36-13.33-.2-4.54.88-8.82,3.24-12.84,2.35-4.01,5.8-7.44,10.35-10.27l8.76-5.46c4.41-2.75,8.8-4.38,13.15-4.88,4.36-.5,8.36.11,12.03,1.83,3.67,1.72,6.69,4.48,9.06,8.28l2.29,3.67c1.91,3.05,2.97,5.93,3.18,8.62.22,2.69-.04,5.07-.78,7.14-.74,2.07-1.82,4.63-3.38,7.62-1.79,3.43-3.01,6.29-3.53,8.63-.51,2.35.03,4.81,1.64,7.39l.89,1.43-14.05,8.76-1.4-2.24Z"/>
      <path class="cls-1" d="m87.56,443.04c-2.53-.29-4.72-1.59-6.56-3.9s-2.62-4.74-2.34-7.27c.29-2.53,1.59-4.72,3.9-6.56s4.74-2.62,7.27-2.34c2.53.29,4.72,1.59,6.56,3.9s2.62,4.74,2.34,7.27c-.29,2.53-1.59,4.72-3.9,6.56s-4.74,2.62-7.27,2.34Zm-16.86-19.33c-2.19-2.75-3.53-5.49-4.02-8.23-.49-2.73-.49-5.26,0-7.6.49-2.33,1.32-5.09,2.47-8.26,1.32-3.61,2.09-6.5,2.3-8.66.22-2.17-.4-4.16-1.84-5.97l-2.69-3.38c-1.54-1.94-3.47-2.94-5.77-3-2.3-.06-4.61.83-6.92,2.67l-8.07,6.43c-2.5,1.99-3.84,4.42-4.03,7.27-.18,2.86.83,5.66,3.02,8.41l-12.95,10.32c-3.19-4-5.14-8.25-5.86-12.75-.72-4.49-.14-8.87,1.74-13.12,1.88-4.26,4.91-8.05,9.1-11.39l8.07-6.43c4.07-3.24,8.24-5.36,12.5-6.36,4.27-1,8.32-.85,12.16.44,3.84,1.29,7.16,3.68,9.95,7.19l2.69,3.38c2.24,2.82,3.63,5.55,4.15,8.2.52,2.65.54,5.04.04,7.18-.5,2.14-1.28,4.81-2.48,7.96-1.38,3.62-2.27,6.59-2.51,8.98-.24,2.39.58,4.78,2.48,7.15l1.05,1.31-12.95,10.32-1.65-2.07Z"/>
      <path class="cls-1" d="m99.82,459.54c-.59-2.48-.11-4.97,1.45-7.49s3.57-4.07,6.05-4.66c2.48-.59,4.97-.1,7.49,1.45s4.07,3.57,4.66,6.05c.59,2.48.1,4.98-1.45,7.49s-3.57,4.07-6.04,4.66c-2.48.59-4.98.1-7.5-1.45s-4.07-3.57-4.66-6.05Zm12.48-22.41c1.85-3,3.97-5.18,6.38-6.57,2.4-1.38,4.79-2.24,7.15-2.57,2.36-.33,5.23-.48,8.61-.47,3.84.02,6.82-.24,8.93-.77,2.11-.53,3.78-1.78,5-3.76l2.27-3.68c1.3-2.11,1.59-4.26.87-6.44-.72-2.18-2.34-4.05-4.86-5.61l-8.78-5.42c-2.72-1.68-5.46-2.12-8.21-1.32-2.75.8-5.04,2.69-6.89,5.69l-14.1-8.69c2.69-4.36,6.02-7.63,10.01-9.83,3.98-2.2,8.3-3.13,12.94-2.81,4.64.32,9.24,1.89,13.8,4.71l8.78,5.42c4.43,2.73,7.83,5.93,10.22,9.61,2.38,3.68,3.62,7.54,3.71,11.59.09,4.05-1.04,7.98-3.39,11.79l-2.27,3.68c-1.89,3.06-3.99,5.29-6.31,6.68-2.32,1.39-4.56,2.22-6.74,2.47-2.18.26-4.96.43-8.33.36-3.87-.07-6.97.1-9.3.68-2.33.58-4.3,2.17-5.89,4.75l-.88,1.43-14.1-8.69,1.39-2.25Z"/>
      <path class="cls-1" d="m197.59,477.87c-2.4-.84-4.25-2.59-5.53-5.26s-1.51-5.2-.67-7.6c.84-2.4,2.59-4.25,5.26-5.53s5.2-1.51,7.6-.67c2.4.84,4.25,2.59,5.53,5.26s1.51,5.2.67,7.6c-.84,2.4-2.59,4.25-5.26,5.53s-5.2,1.51-7.6.67Zm-12.15-22.58c-1.53-3.17-2.23-6.14-2.1-8.91.13-2.77.69-5.24,1.69-7.41,1-2.17,2.41-4.67,4.24-7.51,2.09-3.22,3.47-5.87,4.17-7.94.69-2.06.53-4.14-.47-6.23l-1.88-3.89c-1.08-2.23-2.73-3.63-4.96-4.2-2.23-.57-4.68-.21-7.34,1.08l-9.3,4.48c-2.88,1.39-4.73,3.46-5.54,6.2-.81,2.74-.45,5.7,1.08,8.87l-14.92,7.19c-2.22-4.61-3.19-9.19-2.89-13.73.3-4.54,1.83-8.68,4.61-12.41,2.77-3.73,6.57-6.77,11.4-9.09l9.3-4.48c4.68-2.26,9.22-3.4,13.6-3.43,4.38-.03,8.3,1.02,11.76,3.12,3.46,2.11,6.16,5.18,8.11,9.21l1.88,3.89c1.56,3.24,2.31,6.22,2.23,8.91-.08,2.7-.59,5.04-1.55,7.01-.96,1.97-2.31,4.4-4.18,7.21-2.15,3.22-3.67,5.92-4.44,8.2-.77,2.28-.49,4.79.83,7.53l.73,1.51-14.92,7.19-1.15-2.38Z"/>
      <path class="cls-1" d="m250.86,455.41c-1.54-2.02-2.12-4.5-1.72-7.44s1.6-5.17,3.63-6.72c2.02-1.54,4.5-2.12,7.44-1.72s5.17,1.6,6.72,3.63c1.54,2.02,2.12,4.5,1.72,7.44s-1.6,5.17-3.63,6.72c-2.02,1.54-4.5,2.12-7.44,1.72s-5.17-1.6-6.72-3.63Zm2.29-25.54c.47-3.49,1.52-6.35,3.16-8.6,1.63-2.24,3.46-3.99,5.49-5.25,2.03-1.26,4.58-2.57,7.67-3.93,3.52-1.54,6.13-2.99,7.85-4.33,1.71-1.34,2.73-3.16,3.04-5.46l.58-4.28c.33-2.46-.28-4.54-1.82-6.24-1.55-1.7-3.79-2.75-6.72-3.14l-10.23-1.38c-3.17-.43-5.85.28-8.04,2.13-2.19,1.85-3.51,4.51-3.98,8l-16.41-2.21c.68-5.07,2.4-9.42,5.15-13.05,2.75-3.63,6.31-6.23,10.68-7.83,4.37-1.59,9.21-2.03,14.52-1.31l10.23,1.38c5.15.69,9.57,2.24,13.24,4.63,3.67,2.39,6.37,5.42,8.1,9.08,1.73,3.66,2.29,7.72,1.69,12.15l-.58,4.28c-.48,3.57-1.5,6.46-3.04,8.67-1.55,2.21-3.27,3.88-5.15,5-1.89,1.12-4.35,2.4-7.46,3.72-3.56,1.51-6.33,2.92-8.22,4.4-1.89,1.48-3.04,3.73-3.45,6.74l-.22,1.67-16.41-2.21.35-2.62Z"/>
      <path class="cls-1" d="m309.31,521.5c-2.1-1.44-3.42-3.61-3.97-6.52s-.1-5.41,1.34-7.52c1.44-2.1,3.61-3.42,6.52-3.97s5.41-.1,7.52,1.34c2.1,1.44,3.42,3.61,3.97,6.52s.1,5.41-1.34,7.52c-1.44,2.1-3.61,3.42-6.52,3.97s-5.41.1-7.52-1.34Zm-5.85-24.97c-.65-3.46-.55-6.51.3-9.15.85-2.64,2.03-4.88,3.56-6.71,1.53-1.83,3.55-3.88,6.05-6.14,2.85-2.57,4.88-4.76,6.09-6.58,1.21-1.81,1.6-3.86,1.17-6.14l-.8-4.25c-.46-2.44-1.69-4.22-3.69-5.35-2-1.13-4.46-1.42-7.37-.88l-10.14,1.9c-3.15.59-5.47,2.1-6.96,4.54-1.5,2.44-1.92,5.39-1.27,8.85l-16.28,3.05c-.94-5.03-.68-9.7.79-14.01,1.47-4.3,4.03-7.9,7.68-10.78,3.65-2.88,8.11-4.82,13.38-5.81l10.14-1.9c5.11-.96,9.79-.88,14.02.24,4.24,1.12,7.75,3.15,10.54,6.08,2.79,2.94,4.6,6.61,5.42,11.01l.8,4.25c.66,3.54.61,6.6-.17,9.19-.78,2.59-1.88,4.71-3.32,6.36-1.44,1.66-3.38,3.65-5.92,5.87-2.91,2.55-5.09,4.76-6.42,6.76-1.33,2-1.72,4.49-1.16,7.48l.31,1.65-16.28,3.05-.49-2.6Z"/>
      <path class="cls-1" d="m356.71,463.13c-.75-2.43-.44-4.96.95-7.57s3.29-4.3,5.72-5.05c2.43-.75,4.96-.44,7.57.95s4.3,3.29,5.05,5.72c.75,2.43.43,4.96-.95,7.57s-3.29,4.3-5.72,5.05c-2.43.75-4.96.43-7.58-.95s-4.3-3.29-5.05-5.72Zm10.96-23.19c1.64-3.11,3.62-5.44,5.93-6.98,2.31-1.54,4.63-2.55,6.97-3.04,2.34-.48,5.19-.83,8.56-1.04,3.83-.24,6.79-.69,8.86-1.36,2.07-.67,3.65-2.03,4.73-4.08l2.02-3.82c1.16-2.19,1.3-4.35.44-6.49-.87-2.13-2.61-3.89-5.22-5.27l-9.13-4.82c-2.83-1.49-5.59-1.75-8.28-.77-2.69.98-4.85,3.02-6.5,6.14l-14.64-7.73c2.39-4.53,5.5-8.02,9.33-10.47,3.83-2.46,8.07-3.68,12.72-3.66,4.65.01,9.35,1.27,14.09,3.78l9.13,4.82c4.6,2.43,8.21,5.4,10.83,8.91,2.62,3.51,4.11,7.28,4.47,11.32.36,4.03-.51,8.03-2.6,11.99l-2.02,3.82c-1.68,3.18-3.63,5.55-5.85,7.09-2.22,1.54-4.4,2.51-6.56,2.91-2.16.4-4.92.76-8.29.92-3.87.18-6.95.56-9.24,1.3-2.29.74-4.14,2.45-5.56,5.14l-.78,1.49-14.64-7.73,1.23-2.33Z"/>
      <path class="cls-1" d="m454.38,520.32c-2.35-.99-4.08-2.85-5.2-5.59s-1.18-5.28-.2-7.63c.99-2.35,2.85-4.08,5.59-5.2s5.28-1.19,7.63-.2c2.35.99,4.08,2.85,5.2,5.59s1.19,5.28.2,7.63c-.99,2.35-2.85,4.08-5.59,5.2s-5.28,1.18-7.63.2Zm-10.74-23.29c-1.33-3.26-1.85-6.27-1.55-9.03.3-2.76,1.01-5.19,2.14-7.29,1.13-2.1,2.69-4.51,4.69-7.23,2.28-3.09,3.83-5.65,4.65-7.67.82-2.02.79-4.1-.09-6.25l-1.63-4c-.94-2.3-2.5-3.8-4.69-4.5-2.19-.7-4.65-.5-7.39.62l-9.55,3.9c-2.96,1.21-4.93,3.16-5.91,5.85-.98,2.69-.8,5.66.53,8.92l-15.33,6.26c-1.93-4.74-2.61-9.37-2.04-13.88.58-4.51,2.36-8.55,5.36-12.11,3-3.56,6.98-6.35,11.94-8.37l9.55-3.9c4.81-1.97,9.41-2.83,13.79-2.58,4.38.24,8.22,1.52,11.55,3.84,3.32,2.32,5.83,5.55,7.52,9.7l1.63,4c1.36,3.33,1.92,6.35,1.68,9.04-.24,2.69-.9,4.99-1.98,6.9-1.08,1.91-2.58,4.25-4.62,6.94-2.34,3.08-4.03,5.69-4.94,7.91-.9,2.23-.78,4.75.37,7.56l.64,1.56-15.33,6.26-1-2.44Z"/>
      <path class="cls-1" d="m498.06,499.96c-1.17-2.26-1.32-4.8-.42-7.62s2.47-4.82,4.73-6c2.26-1.17,4.8-1.32,7.62-.42s4.82,2.47,6,4.72c1.17,2.26,1.31,4.8.42,7.62s-2.47,4.82-4.72,6c-2.26,1.17-4.8,1.32-7.62.42s-4.82-2.47-6-4.72Zm6.63-24.77c1.06-3.36,2.59-6,4.58-7.93,1.99-1.93,4.09-3.34,6.31-4.24,2.21-.89,4.96-1.75,8.23-2.56,3.73-.92,6.55-1.89,8.47-2.92,1.92-1.03,3.23-2.65,3.93-4.86l1.3-4.12c.75-2.36.5-4.52-.73-6.46-1.23-1.94-3.26-3.36-6.08-4.25l-9.84-3.11c-3.05-.96-5.81-.72-8.28.72-2.47,1.44-4.23,3.84-5.29,7.2l-15.79-4.99c1.54-4.88,3.98-8.87,7.31-11.98,3.33-3.1,7.28-5.06,11.86-5.88,4.58-.82,9.42-.42,14.54,1.19l9.84,3.11c4.96,1.57,9.04,3.84,12.25,6.83,3.21,2.99,5.35,6.43,6.43,10.33,1.07,3.91.94,7.99-.41,12.27l-1.3,4.12c-1.08,3.43-2.58,6.11-4.48,8.02-1.91,1.91-3.88,3.26-5.93,4.04-2.05.78-4.7,1.62-7.99,2.39-3.77.87-6.73,1.8-8.85,2.93-2.12,1.14-3.64,3.15-4.55,6.05l-.51,1.6-15.79-4.99.8-2.52Z"/>
      <path class="cls-1" d="m585.97,525.93c-2.54-.2-4.77-1.43-6.69-3.68s-2.78-4.65-2.58-7.18c.2-2.54,1.43-4.77,3.68-6.69s4.65-2.78,7.18-2.58c2.54.2,4.77,1.43,6.69,3.68s2.78,4.65,2.58,7.18c-.2,2.54-1.43,4.77-3.68,6.69s-4.65,2.78-7.18,2.58Zm-17.5-18.75c-2.28-2.68-3.72-5.37-4.3-8.09-.58-2.71-.66-5.24-.25-7.6.41-2.35,1.14-5.13,2.19-8.34,1.2-3.65,1.87-6.56,2.01-8.73.14-2.17-.54-4.14-2.04-5.91l-2.8-3.29c-1.61-1.89-3.56-2.82-5.86-2.81-2.3.02-4.58.99-6.83,2.91l-7.85,6.7c-2.43,2.08-3.69,4.55-3.78,7.4-.08,2.86,1.02,5.63,3.3,8.3l-12.6,10.75c-3.32-3.89-5.42-8.08-6.28-12.54-.87-4.47-.43-8.86,1.3-13.18,1.73-4.32,4.64-8.22,8.71-11.69l7.85-6.7c3.96-3.37,8.05-5.63,12.28-6.77,4.23-1.14,8.29-1.13,12.17.03,3.88,1.16,7.28,3.44,10.18,6.85l2.8,3.29c2.34,2.74,3.81,5.42,4.43,8.05.61,2.63.71,5.02.28,7.17-.43,2.15-1.11,4.85-2.21,8.04-1.26,3.66-2.05,6.66-2.21,9.06-.16,2.4.74,4.75,2.72,7.07l1.09,1.28-12.6,10.75-1.71-2.01Z"/>
      <path class="cls-1" d="m639.15,472.51c-1.63-1.96-2.31-4.41-2.04-7.36s1.38-5.24,3.34-6.86c1.96-1.63,4.41-2.31,7.36-2.04s5.24,1.38,6.87,3.34c1.63,1.96,2.31,4.41,2.04,7.36s-1.38,5.24-3.34,6.86c-1.96,1.63-4.41,2.31-7.36,2.04s-5.24-1.38-6.86-3.34Zm1.2-25.62c.32-3.5,1.25-6.41,2.79-8.72,1.54-2.31,3.29-4.14,5.26-5.48,1.97-1.34,4.47-2.76,7.5-4.25,3.45-1.69,6-3.25,7.66-4.66,1.66-1.41,2.59-3.28,2.8-5.59l.39-4.3c.23-2.47-.47-4.52-2.09-6.16-1.62-1.63-3.9-2.59-6.85-2.86l-10.28-.94c-3.19-.29-5.83.53-7.94,2.47-2.11,1.94-3.32,4.66-3.64,8.16l-16.49-1.51c.47-5.1,2-9.52,4.59-13.26,2.59-3.74,6.04-6.5,10.34-8.27,4.3-1.78,9.12-2.42,14.46-1.93l10.28.94c5.18.47,9.65,1.83,13.43,4.06,3.77,2.23,6.6,5.14,8.48,8.73,1.88,3.59,2.62,7.61,2.21,12.07l-.39,4.3c-.33,3.59-1.22,6.52-2.67,8.79-1.45,2.28-3.1,4.01-4.94,5.21-1.84,1.2-4.25,2.59-7.3,4.03-3.5,1.66-6.2,3.19-8.03,4.75-1.83,1.56-2.88,3.85-3.16,6.88l-.15,1.67-16.49-1.51.24-2.63Z"/>
      <path class="cls-1" d="m720.89,456.19c-2.26-1.18-3.83-3.17-4.72-6s-.75-5.36.43-7.62c1.18-2.26,3.17-3.83,6-4.72s5.36-.75,7.62.43c2.26,1.18,3.83,3.18,4.72,6s.75,5.36-.43,7.62c-1.18,2.26-3.18,3.83-6,4.72s-5.36.75-7.62-.43Zm-8.79-24.09c-1.06-3.36-1.32-6.4-.8-9.12.53-2.72,1.44-5.09,2.74-7.09,1.3-2,3.06-4.28,5.27-6.82,2.53-2.89,4.28-5.31,5.26-7.26.98-1.94,1.12-4.02.42-6.24l-1.3-4.12c-.75-2.36-2.18-3.99-4.3-4.87-2.12-.88-4.6-.88-7.42.01l-9.84,3.1c-3.05.96-5.17,2.74-6.37,5.34-1.19,2.6-1.26,5.58-.2,8.93l-15.79,4.98c-1.54-4.88-1.84-9.55-.89-14,.94-4.45,3.06-8.32,6.34-11.62,3.28-3.3,7.48-5.75,12.59-7.37l9.84-3.1c4.96-1.56,9.61-2.04,13.95-1.44,4.34.6,8.07,2.2,11.19,4.78,3.12,2.58,5.35,6.01,6.7,10.28l1.3,4.12c1.08,3.43,1.39,6.48.93,9.14-.46,2.66-1.31,4.9-2.54,6.71-1.23,1.82-2.92,4.03-5.17,6.54-2.59,2.88-4.48,5.33-5.57,7.48-1.08,2.15-1.17,4.67-.26,7.57l.51,1.6-15.79,4.98-.79-2.52Z"/>
      <path class="cls-1" d="m797.74,456.91c-2.41-.81-4.28-2.54-5.6-5.19s-1.58-5.18-.77-7.6c.81-2.41,2.54-4.28,5.19-5.6s5.18-1.58,7.6-.77c2.41.81,4.28,2.54,5.6,5.19s1.58,5.18.77,7.59c-.81,2.41-2.54,4.28-5.19,5.6s-5.18,1.58-7.59.77Zm-12.44-22.42c-1.57-3.15-2.31-6.11-2.21-8.88.09-2.77.62-5.25,1.59-7.43.97-2.18,2.35-4.7,4.14-7.56,2.04-3.25,3.4-5.92,4.06-7.99.66-2.07.48-4.15-.55-6.23l-1.93-3.87c-1.11-2.22-2.78-3.6-5.01-4.14-2.24-.54-4.68-.15-7.33,1.17l-9.24,4.6c-2.86,1.43-4.68,3.52-5.46,6.27-.77,2.75-.37,5.71,1.19,8.86l-14.82,7.38c-2.28-4.58-3.3-9.15-3.07-13.69.24-4.54,1.72-8.7,4.45-12.47,2.72-3.77,6.49-6.85,11.28-9.24l9.24-4.6c4.65-2.32,9.17-3.52,13.56-3.6,4.38-.08,8.32.91,11.8,2.97,3.49,2.06,6.23,5.1,8.23,9.11l1.93,3.87c1.61,3.22,2.39,6.18,2.35,8.89-.04,2.7-.53,5.04-1.46,7.03-.93,1.99-2.25,4.43-4.09,7.27-2.1,3.25-3.6,5.97-4.33,8.26-.74,2.29-.43,4.79.93,7.51l.75,1.5-14.82,7.38-1.18-2.36Z"/>
      <path class="cls-1" d="m835.64,498.23c-2.09-1.46-3.39-3.64-3.91-6.56s-.05-5.41,1.41-7.5c1.46-2.09,3.64-3.39,6.56-3.91s5.41-.05,7.5,1.41c2.09,1.46,3.39,3.64,3.91,6.56s.05,5.42-1.41,7.5c-1.46,2.09-3.64,3.39-6.56,3.91-2.91.52-5.41.05-7.5-1.41Zm-5.61-25.02c-.62-3.46-.49-6.51.38-9.15.87-2.63,2.08-4.86,3.63-6.68,1.54-1.82,3.58-3.85,6.11-6.09,2.88-2.54,4.93-4.72,6.15-6.52,1.22-1.8,1.63-3.84,1.22-6.13l-.76-4.25c-.43-2.44-1.65-4.24-3.64-5.39-1.99-1.15-4.45-1.46-7.36-.94l-10.16,1.81c-3.15.56-5.48,2.05-7,4.48-1.52,2.42-1.97,5.37-1.35,8.83l-16.3,2.9c-.9-5.04-.59-9.71.92-14,1.51-4.29,4.1-7.86,7.78-10.71,3.68-2.85,8.15-4.74,13.43-5.68l10.16-1.81c5.12-.91,9.79-.79,14.02.37,4.23,1.16,7.72,3.22,10.48,6.18,2.76,2.96,4.54,6.65,5.32,11.06l.76,4.25c.63,3.54.55,6.61-.25,9.19-.8,2.58-1.93,4.69-3.38,6.33-1.46,1.64-3.41,3.62-5.97,5.82-2.94,2.52-5.13,4.71-6.49,6.7-1.35,1.99-1.76,4.48-1.23,7.47l.29,1.65-16.3,2.9-.46-2.6Z"/>
      <path class="cls-1" d="m95.23,638.02c-2.55-.02-4.86-1.08-6.93-3.19s-3.11-4.44-3.09-6.98c.02-2.55,1.08-4.86,3.19-6.93s4.44-3.11,6.98-3.09c2.55.02,4.86,1.09,6.93,3.19s3.11,4.44,3.09,6.98c-.02,2.55-1.08,4.86-3.19,6.93s-4.44,3.11-6.98,3.09Zm-18.79-17.45c-2.47-2.51-4.09-5.09-4.86-7.76-.77-2.66-1.04-5.18-.79-7.56.24-2.37.78-5.2,1.59-8.47.93-3.73,1.39-6.68,1.38-8.86-.01-2.18-.83-4.09-2.46-5.75l-3.03-3.08c-1.74-1.77-3.76-2.56-6.05-2.38-2.29.18-4.49,1.31-6.6,3.39l-7.35,7.24c-2.28,2.25-3.36,4.8-3.24,7.65.12,2.86,1.42,5.54,3.88,8.05l-11.8,11.62c-3.59-3.65-5.98-7.67-7.16-12.06-1.18-4.39-1.07-8.8.36-13.23,1.42-4.43,4.04-8.53,7.86-12.29l7.35-7.24c3.7-3.65,7.63-6.19,11.77-7.63,4.14-1.44,8.19-1.72,12.14-.84,3.95.88,7.5,2.91,10.65,6.11l3.03,3.08c2.53,2.57,4.19,5.14,4.99,7.72.8,2.58,1.07,4.96.79,7.13-.27,2.18-.77,4.91-1.63,8.18-.99,3.74-1.56,6.79-1.56,9.2.01,2.4,1.08,4.69,3.21,6.85l1.18,1.2-11.8,11.62-1.85-1.88Z"/>
      <path class="cls-1" d="m129.93,694.95c-2.04-1.53-3.27-3.75-3.69-6.68s.13-5.41,1.66-7.45c1.53-2.04,3.75-3.27,6.68-3.69s5.41.13,7.45,1.66c2.04,1.53,3.27,3.75,3.69,6.68s-.13,5.41-1.66,7.45c-1.53,2.04-3.75,3.27-6.68,3.69s-5.41-.13-7.45-1.66Zm-4.78-25.2c-.5-3.48-.27-6.53.69-9.13.96-2.6,2.24-4.79,3.85-6.55,1.6-1.76,3.71-3.72,6.31-5.88,2.96-2.45,5.08-4.55,6.37-6.31,1.28-1.76,1.76-3.79,1.43-6.09l-.61-4.28c-.35-2.45-1.51-4.29-3.46-5.5-1.95-1.21-4.4-1.61-7.32-1.19l-10.22,1.47c-3.17.46-5.55,1.87-7.15,4.24-1.6,2.37-2.15,5.3-1.65,8.78l-16.39,2.36c-.73-5.07-.27-9.72,1.39-13.96,1.65-4.24,4.36-7.72,8.14-10.44,3.77-2.72,8.31-4.47,13.61-5.23l10.22-1.47c5.15-.74,9.81-.46,14,.84,4.19,1.3,7.61,3.47,10.27,6.52,2.66,3.05,4.31,6.8,4.95,11.23l.61,4.28c.51,3.56.32,6.62-.56,9.17-.89,2.55-2.08,4.62-3.59,6.21-1.51,1.59-3.53,3.5-6.16,5.61-3.02,2.42-5.29,4.54-6.71,6.48-1.42,1.94-1.91,4.42-1.48,7.43l.24,1.66-16.39,2.36-.38-2.61Z"/>
      <path class="cls-1" d="m153.96,649.44c-.55-2.48-.03-4.98,1.56-7.47s3.63-4.02,6.11-4.57c2.48-.55,4.98-.03,7.47,1.56s4.02,3.63,4.57,6.11c.55,2.49.03,4.98-1.56,7.47s-3.63,4.02-6.11,4.57c-2.49.55-4.98.03-7.47-1.56s-4.02-3.63-4.57-6.11Zm12.8-22.22c1.89-2.97,4.05-5.13,6.47-6.48,2.42-1.35,4.82-2.17,7.19-2.46,2.37-.29,5.24-.41,8.61-.35,3.84.08,6.82-.14,8.94-.64,2.12-.5,3.8-1.73,5.05-3.68l2.32-3.64c1.33-2.09,1.65-4.23.96-6.43-.69-2.19-2.28-4.09-4.78-5.68l-8.71-5.54c-2.7-1.72-5.43-2.2-8.19-1.44-2.76.76-5.08,2.62-6.97,5.59l-13.97-8.89c2.75-4.32,6.13-7.55,10.15-9.68,4.01-2.14,8.34-3.01,12.98-2.62,4.63.39,9.21,2.03,13.73,4.9l8.71,5.54c4.39,2.79,7.74,6.05,10.08,9.76,2.33,3.71,3.51,7.59,3.54,11.64.03,4.05-1.16,7.96-3.56,11.74l-2.32,3.64c-1.93,3.04-4.07,5.23-6.4,6.59-2.34,1.36-4.59,2.15-6.77,2.37-2.18.22-4.96.35-8.33.24-3.87-.13-6.97,0-9.31.54-2.34.55-4.33,2.11-5.96,4.67l-.9,1.42-13.97-8.89,1.42-2.23Z"/>
      <path class="cls-1" d="m254.73,630.81c-2.11-1.42-3.46-3.58-4.03-6.48s-.15-5.41,1.27-7.53c1.42-2.11,3.58-3.46,6.48-4.03s5.41-.15,7.53,1.27c2.11,1.42,3.46,3.58,4.03,6.48s.15,5.41-1.27,7.53c-1.42,2.11-3.58,3.46-6.48,4.03s-5.41.15-7.53-1.27Zm-6.07-24.92c-.68-3.45-.61-6.5.22-9.15.82-2.65,1.99-4.9,3.5-6.74,1.51-1.85,3.51-3.91,6-6.19,2.83-2.59,4.84-4.81,6.03-6.63,1.19-1.82,1.56-3.87,1.11-6.15l-.83-4.24c-.48-2.43-1.73-4.2-3.74-5.32-2.01-1.11-4.47-1.38-7.38-.81l-10.13,1.99c-3.14.62-5.45,2.15-6.92,4.6-1.47,2.45-1.87,5.4-1.19,8.86l-16.25,3.2c-.99-5.02-.77-9.69.67-14.01,1.43-4.32,3.96-7.93,7.59-10.85,3.62-2.91,8.07-4.89,13.33-5.93l10.13-1.99c5.1-1,9.78-.96,14.03.11,4.25,1.08,7.78,3.08,10.59,5.99,2.82,2.91,4.66,6.56,5.52,10.96l.83,4.24c.7,3.53.67,6.6-.09,9.19-.75,2.59-1.84,4.73-3.27,6.39-1.43,1.67-3.35,3.68-5.87,5.92-2.89,2.58-5.05,4.81-6.36,6.82-1.32,2.01-1.68,4.51-1.09,7.49l.32,1.65-16.25,3.2-.51-2.59Z"/>
      <path class="cls-1" d="m316.12,633.69c-.21-2.54.65-4.93,2.57-7.19s4.14-3.49,6.68-3.69c2.54-.21,4.93.65,7.19,2.57s3.49,4.14,3.69,6.68c.21,2.54-.65,4.93-2.57,7.19s-4.14,3.49-6.68,3.69c-2.54.21-4.93-.65-7.19-2.57s-3.49-4.14-3.69-6.68Zm15.72-20.26c2.28-2.68,4.71-4.52,7.3-5.53,2.59-1,5.07-1.49,7.46-1.46,2.38.03,5.25.31,8.58.84,3.79.6,6.78.8,8.94.59,2.17-.2,4-1.19,5.51-2.96l2.8-3.29c1.61-1.89,2.22-3.97,1.84-6.24-.38-2.27-1.7-4.36-3.96-6.28l-7.86-6.68c-2.44-2.07-5.08-2.92-7.91-2.55-2.84.37-5.39,1.9-7.67,4.58l-12.62-10.72c3.31-3.9,7.11-6.64,11.38-8.2,4.27-1.57,8.68-1.84,13.21-.82,4.54,1.02,8.85,3.27,12.93,6.74l7.86,6.68c3.96,3.37,6.84,7.05,8.64,11.05,1.8,4,2.44,8,1.91,12.02-.53,4.02-2.24,7.73-5.14,11.14l-2.8,3.29c-2.33,2.74-4.75,4.63-7.25,5.65-2.5,1.02-4.85,1.5-7.04,1.42-2.19-.08-4.96-.33-8.29-.9-3.81-.66-6.9-.96-9.3-.74-2.39.22-4.58,1.49-6.54,3.81l-1.09,1.28-12.62-10.72,1.71-2.01Z"/>
      <path class="cls-1" d="m402.45,633.43c-1.49-2.07-1.99-4.56-1.51-7.48s1.75-5.12,3.82-6.61c2.07-1.49,4.56-1.99,7.48-1.51s5.12,1.75,6.61,3.82c1.48,2.07,1.99,4.56,1.51,7.48s-1.75,5.12-3.82,6.61c-2.07,1.48-4.56,1.99-7.48,1.51s-5.12-1.75-6.61-3.82Zm3.02-25.47c.57-3.47,1.7-6.31,3.4-8.5,1.7-2.19,3.58-3.89,5.64-5.1,2.06-1.2,4.66-2.44,7.78-3.71,3.56-1.44,6.22-2.81,7.97-4.11,1.75-1.29,2.82-3.08,3.19-5.37l.7-4.26c.4-2.45-.15-4.54-1.64-6.29-1.5-1.74-3.71-2.86-6.63-3.34l-10.18-1.67c-3.16-.52-5.86.12-8.09,1.9-2.24,1.78-3.64,4.41-4.21,7.88l-16.34-2.68c.83-5.05,2.67-9.35,5.52-12.9,2.85-3.55,6.48-6.05,10.9-7.52,4.41-1.47,9.27-1.76,14.56-.9l10.18,1.67c5.13.84,9.5,2.51,13.1,5,3.6,2.5,6.21,5.6,7.84,9.31,1.62,3.71,2.07,7.78,1.35,12.2l-.7,4.26c-.58,3.55-1.68,6.41-3.29,8.58-1.61,2.17-3.38,3.78-5.29,4.85-1.92,1.07-4.42,2.28-7.57,3.5-3.61,1.4-6.41,2.74-8.34,4.17-1.94,1.43-3.15,3.64-3.64,6.64l-.27,1.66-16.34-2.68.43-2.61Z"/>
      <path class="cls-1" d="m474.92,616.7c-2.52-.35-4.68-1.7-6.46-4.06s-2.51-4.8-2.16-7.32c.35-2.52,1.7-4.68,4.06-6.46s4.8-2.51,7.32-2.16c2.52.35,4.68,1.7,6.46,4.06s2.51,4.8,2.16,7.32c-.35,2.52-1.7,4.68-4.06,6.46s-4.8,2.51-7.32,2.16Zm-16.38-19.73c-2.13-2.81-3.4-5.58-3.82-8.32-.42-2.74-.36-5.27.19-7.6.55-2.32,1.44-5.05,2.67-8.2,1.41-3.57,2.24-6.44,2.51-8.6.27-2.16-.3-4.17-1.7-6.02l-2.61-3.44c-1.5-1.98-3.39-3.02-5.69-3.14-2.3-.12-4.63.72-6.98,2.51l-8.23,6.23c-2.55,1.93-3.95,4.32-4.2,7.17-.25,2.85.69,5.68,2.81,8.48l-13.2,10c-3.09-4.08-4.94-8.38-5.55-12.89-.61-4.51.08-8.87,2.06-13.08,1.98-4.21,5.11-7.93,9.38-11.17l8.23-6.23c4.14-3.14,8.36-5.16,12.66-6.05,4.29-.89,8.34-.65,12.15.73,3.81,1.38,7.06,3.86,9.77,7.43l2.61,3.44c2.17,2.87,3.49,5.64,3.95,8.3.46,2.66.42,5.05-.13,7.18-.55,2.12-1.39,4.77-2.67,7.9-1.47,3.58-2.43,6.53-2.73,8.92-.3,2.39.47,4.79,2.3,7.21l1.01,1.34-13.2,10-1.59-2.1Z"/>
      <path class="cls-1" d="m526.48,632.48c-2.34-.99-4.07-2.86-5.19-5.6s-1.17-5.29-.18-7.63c.99-2.34,2.86-4.07,5.6-5.19s5.29-1.17,7.63-.18c2.34.99,4.07,2.86,5.19,5.6s1.17,5.29.18,7.63c-.99,2.34-2.86,4.07-5.6,5.19s-5.29,1.17-7.63.18Zm-10.69-23.31c-1.32-3.26-1.83-6.27-1.52-9.03.31-2.76,1.02-5.19,2.16-7.29,1.13-2.1,2.7-4.51,4.71-7.22,2.29-3.09,3.84-5.64,4.66-7.65.82-2.02.8-4.1-.07-6.25l-1.62-4c-.93-2.3-2.49-3.8-4.68-4.51-2.19-.71-4.65-.51-7.4.6l-9.56,3.88c-2.97,1.2-4.94,3.15-5.92,5.83-.98,2.69-.81,5.66.51,8.92l-15.35,6.22c-1.92-4.74-2.59-9.37-2.01-13.88.59-4.51,2.38-8.54,5.39-12.09,3.01-3.55,6.99-6.33,11.96-8.35l9.56-3.88c4.82-1.95,9.42-2.8,13.79-2.55,4.38.25,8.22,1.54,11.54,3.87,3.32,2.32,5.82,5.56,7.5,9.71l1.62,4c1.35,3.34,1.91,6.35,1.66,9.04-.25,2.69-.91,4.99-1.99,6.9-1.08,1.91-2.59,4.25-4.63,6.93-2.35,3.08-4.04,5.68-4.95,7.9-.91,2.23-.79,4.75.35,7.56l.63,1.56-15.35,6.22-.99-2.45Z"/>
      <path class="cls-1" d="m600.13,693.12c-2.41-.81-4.28-2.55-5.59-5.2s-1.56-5.18-.75-7.6c.81-2.41,2.55-4.27,5.2-5.59s5.18-1.57,7.6-.75c2.41.81,4.28,2.55,5.59,5.2s1.57,5.18.75,7.6c-.81,2.41-2.55,4.28-5.2,5.59s-5.18,1.56-7.6.75Zm-12.4-22.45c-1.56-3.15-2.29-6.12-2.2-8.89.1-2.77.63-5.25,1.61-7.43.97-2.18,2.36-4.7,4.16-7.55,2.05-3.25,3.41-5.91,4.08-7.98.67-2.07.49-4.15-.54-6.23l-1.92-3.87c-1.1-2.22-2.77-3.6-5-4.15-2.23-.54-4.68-.16-7.33,1.15l-9.25,4.58c-2.87,1.42-4.69,3.51-5.47,6.26-.78,2.75-.39,5.71,1.18,8.86l-14.84,7.35c-2.27-4.59-3.29-9.15-3.04-13.7.25-4.54,1.74-8.7,4.47-12.46,2.73-3.76,6.5-6.84,11.3-9.22l9.25-4.58c4.66-2.31,9.18-3.5,13.56-3.57,4.38-.07,8.31.93,11.8,2.99,3.48,2.07,6.22,5.11,8.21,9.13l1.92,3.87c1.6,3.23,2.37,6.19,2.33,8.89-.05,2.7-.54,5.04-1.47,7.03-.94,1.98-2.26,4.43-4.1,7.26-2.11,3.24-3.61,5.96-4.35,8.25-.74,2.29-.44,4.79.91,7.52l.75,1.51-14.84,7.35-1.17-2.37Z"/>
      <path class="cls-1" d="m637.23,689.11c-.71-2.44-.36-4.96,1.07-7.56s3.36-4.25,5.8-4.96c2.44-.71,4.96-.36,7.56,1.07s4.25,3.36,4.96,5.8c.71,2.44.35,4.96-1.07,7.56s-3.36,4.25-5.8,4.96c-2.44.71-4.96.36-7.56-1.07s-4.25-3.36-4.96-5.8Zm11.33-23.01c1.69-3.09,3.7-5.38,6.04-6.88,2.33-1.5,4.67-2.48,7.01-2.93,2.34-.45,5.2-.75,8.57-.91,3.84-.17,6.8-.58,8.88-1.22,2.08-.64,3.68-1.97,4.8-4.01l2.08-3.79c1.19-2.17,1.37-4.33.54-6.48-.83-2.14-2.55-3.93-5.14-5.35l-9.05-4.96c-2.81-1.54-5.56-1.84-8.26-.91-2.7.94-4.9,2.95-6.59,6.03l-14.52-7.97c2.46-4.49,5.63-7.93,9.5-10.32,3.87-2.39,8.13-3.55,12.78-3.46,4.65.09,9.33,1.42,14.02,4l9.05,4.96c4.56,2.5,8.12,5.53,10.69,9.08,2.57,3.55,4,7.35,4.29,11.39.29,4.04-.64,8.02-2.79,11.95l-2.08,3.79c-1.73,3.16-3.72,5.49-5.96,7-2.24,1.51-4.44,2.44-6.61,2.81-2.16.37-4.93.68-8.3.78-3.87.12-6.95.45-9.25,1.15-2.3.7-4.18,2.38-5.64,5.05l-.81,1.47-14.52-7.97,1.27-2.31Z"/>
      <path class="cls-1" d="m679.61,658.4c-.02-2.55,1.01-4.87,3.08-6.98s4.39-3.17,6.93-3.19c2.55-.02,4.87,1.01,6.98,3.09s3.17,4.39,3.19,6.93c.02,2.55-1.01,4.87-3.09,6.98s-4.39,3.17-6.93,3.19c-2.55.02-4.87-1.01-6.98-3.09s-3.17-4.39-3.19-6.93Zm17.16-19.06c2.47-2.51,5.03-4.17,7.68-4.98,2.65-.81,5.17-1.12,7.55-.91,2.38.21,5.21.7,8.5,1.46,3.74.88,6.7,1.29,8.88,1.25,2.18-.05,4.08-.89,5.71-2.55l3.03-3.08c1.74-1.77,2.5-3.8,2.29-6.09-.22-2.29-1.38-4.47-3.49-6.55l-7.35-7.24c-2.28-2.25-4.85-3.28-7.7-3.12-2.86.16-5.52,1.5-7.99,4.01l-11.8-11.62c3.59-3.65,7.58-6.1,11.95-7.35,4.37-1.25,8.79-1.2,13.24.15,4.45,1.35,8.59,3.91,12.41,7.67l7.35,7.24c3.71,3.65,6.31,7.53,7.81,11.65,1.5,4.12,1.84,8.16,1.03,12.13-.82,3.97-2.8,7.55-5.94,10.74l-3.03,3.08c-2.53,2.57-5.07,4.27-7.64,5.11-2.57.84-4.94,1.14-7.12.9-2.18-.24-4.93-.69-8.2-1.5-3.76-.93-6.81-1.46-9.22-1.41-2.4.05-4.67,1.15-6.8,3.32l-1.18,1.2-11.8-11.62,1.85-1.88Z"/>
      <path class="cls-1" d="m708.19,653.23c-.34-2.52.38-4.96,2.17-7.32s3.95-3.7,6.47-4.05c2.52-.34,4.96.38,7.32,2.17s3.71,3.95,4.05,6.47c.34,2.52-.38,4.96-2.18,7.32s-3.95,3.71-6.47,4.05c-2.52.34-4.96-.38-7.32-2.17s-3.7-3.95-4.05-6.47Zm14.6-21.08c2.13-2.8,4.46-4.77,6.99-5.92,2.53-1.14,4.98-1.76,7.37-1.86,2.38-.1,5.26.03,8.61.37,3.82.39,6.81.43,8.96.11,2.15-.32,3.93-1.4,5.34-3.25l2.62-3.44c1.5-1.97,2-4.08,1.5-6.33-.51-2.24-1.94-4.26-4.29-6.05l-8.21-6.25c-2.55-1.94-5.23-2.64-8.04-2.12-2.81.53-5.28,2.19-7.41,4.99l-13.18-10.03c3.1-4.07,6.74-7.01,10.92-8.81,4.18-1.8,8.56-2.31,13.15-1.53,4.59.77,9.01,2.79,13.28,6.03l8.21,6.25c4.14,3.15,7.21,6.67,9.23,10.56,2.01,3.89,2.86,7.86,2.56,11.9-.31,4.04-1.82,7.84-4.53,11.41l-2.62,3.44c-2.18,2.87-4.49,4.88-6.93,6.04-2.44,1.16-4.76,1.76-6.95,1.8-2.19.04-4.97-.06-8.32-.45-3.84-.45-6.94-.58-9.32-.23-2.38.35-4.49,1.74-6.33,4.16l-1.02,1.34-13.18-10.03,1.6-2.1Z"/>
      <path class="cls-1" d="m771.6,657.34c.02-2.55,1.08-4.86,3.18-6.94s4.43-3.11,6.98-3.09c2.55.02,4.86,1.08,6.94,3.19s3.11,4.43,3.09,6.98c-.02,2.55-1.08,4.86-3.19,6.94s-4.43,3.11-6.98,3.09c-2.55-.02-4.86-1.08-6.94-3.19s-3.11-4.43-3.09-6.98Zm17.43-18.81c2.5-2.47,5.09-4.09,7.75-4.87,2.66-.77,5.18-1.04,7.56-.8,2.37.24,5.2.77,8.48,1.58,3.73.93,6.68,1.39,8.86,1.37,2.18-.01,4.09-.83,5.74-2.47l3.07-3.03c1.76-1.74,2.55-3.76,2.37-6.05-.18-2.29-1.31-4.49-3.39-6.6l-7.25-7.35c-2.25-2.28-4.8-3.35-7.66-3.23-2.86.12-5.54,1.42-8.04,3.89l-11.63-11.79c3.64-3.6,7.66-5.99,12.05-7.18,4.39-1.19,8.8-1.07,13.23.34,4.43,1.41,8.53,4.03,12.29,7.84l7.25,7.35c3.65,3.7,6.2,7.62,7.64,11.76,1.44,4.14,1.73,8.18.85,12.14-.87,3.95-2.91,7.51-6.09,10.65l-3.07,3.03c-2.56,2.53-5.13,4.19-7.71,5-2.58.8-4.96,1.07-7.13.8-2.18-.27-4.92-.76-8.18-1.62-3.74-.99-6.79-1.56-9.2-1.55-2.4.01-4.69,1.09-6.85,3.22l-1.2,1.18-11.63-11.79,1.88-1.85Z"/>
      <path class="cls-1" d="m71.7,803.27c-.05-3.52.57-6.51,1.86-8.97,1.29-2.46,2.84-4.46,4.66-6,1.82-1.54,4.16-3.22,7.01-5.02,3.25-2.04,5.63-3.86,7.12-5.44,1.5-1.58,2.23-3.53,2.2-5.85l-.06-4.32c-.03-2.48-.94-4.45-2.72-5.9-1.78-1.46-4.15-2.16-7.11-2.12l-10.32.14c-3.2.04-5.75,1.14-7.63,3.29-1.89,2.15-2.81,4.98-2.76,8.5l-16.56.23c-.07-5.12.99-9.67,3.17-13.67,2.18-3.99,5.32-7.09,9.41-9.31,4.09-2.22,8.81-3.36,14.17-3.44l10.32-.14c5.2-.07,9.79.81,13.78,2.63,3.98,1.83,7.1,4.42,9.35,7.79,2.25,3.37,3.4,7.29,3.46,11.77l.06,4.32c.05,3.6-.53,6.61-1.74,9.02-1.21,2.42-2.66,4.32-4.36,5.7-1.7,1.38-3.98,2.98-6.83,4.77-3.33,1.97-5.83,3.82-7.49,5.56-1.66,1.74-2.46,4.13-2.42,7.17l.02,1.68-16.56.23-.04-2.64Zm1.49,25.6c-1.83-1.78-2.76-4.14-2.8-7.1-.04-2.96.83-5.35,2.6-7.18,1.77-1.83,4.14-2.76,7.1-2.8s5.35.83,7.18,2.6c1.82,1.77,2.75,4.14,2.8,7.1.04,2.96-.83,5.35-2.6,7.18-1.78,1.82-4.14,2.76-7.1,2.8s-5.35-.83-7.18-2.6Z"/>
      <path class="cls-1" d="m101.55,796.29c-.84-2.4-.63-4.94.65-7.61s3.12-4.43,5.52-5.27c2.4-.84,4.94-.63,7.6.65s4.43,3.12,5.27,5.52c.84,2.4.63,4.94-.65,7.61s-3.12,4.43-5.52,5.27c-2.4.84-4.94.63-7.61-.65s-4.43-3.12-5.27-5.52Zm10.05-23.59c1.52-3.17,3.41-5.57,5.65-7.2,2.25-1.63,4.52-2.73,6.84-3.31,2.31-.57,5.15-1.03,8.51-1.37,3.82-.38,6.76-.95,8.8-1.7,2.04-.75,3.57-2.17,4.57-4.26l1.87-3.89c1.07-2.24,1.13-4.4.19-6.5-.95-2.1-2.76-3.78-5.42-5.06l-9.31-4.46c-2.89-1.38-5.65-1.53-8.3-.45-2.65,1.08-4.73,3.21-6.26,6.38l-14.93-7.16c2.21-4.61,5.19-8.23,8.92-10.83,3.73-2.6,7.92-3.99,12.57-4.15,4.65-.17,9.39.91,14.22,3.23l9.31,4.46c4.69,2.25,8.41,5.08,11.17,8.49,2.76,3.41,4.39,7.12,4.9,11.14.51,4.02-.2,8.05-2.14,12.09l-1.87,3.89c-1.56,3.25-3.41,5.68-5.57,7.31-2.16,1.63-4.3,2.68-6.44,3.16-2.14.48-4.88.94-8.25,1.24-3.86.33-6.92.83-9.18,1.65-2.26.82-4.05,2.61-5.36,5.35l-.73,1.52-14.93-7.16,1.14-2.38Z"/>
      <path class="cls-1" d="m228.69,854.93c-2.03-1.53-3.25-3.77-3.66-6.7s.15-5.41,1.69-7.45c1.53-2.03,3.77-3.25,6.7-3.66s5.41.15,7.45,1.69c2.03,1.53,3.25,3.77,3.66,6.7s-.15,5.41-1.69,7.44c-1.53,2.03-3.77,3.25-6.7,3.66s-5.41-.15-7.44-1.69Zm-4.67-25.22c-.49-3.49-.24-6.53.73-9.13.97-2.6,2.26-4.78,3.87-6.54,1.61-1.76,3.72-3.71,6.33-5.85,2.97-2.43,5.1-4.53,6.39-6.28,1.29-1.75,1.77-3.78,1.45-6.08l-.6-4.28c-.34-2.46-1.49-4.29-3.44-5.52-1.95-1.22-4.39-1.63-7.32-1.22l-10.22,1.43c-3.17.44-5.56,1.85-7.17,4.21-1.61,2.37-2.17,5.29-1.68,8.78l-16.4,2.29c-.71-5.07-.23-9.72,1.44-13.95,1.67-4.23,4.4-7.7,8.18-10.41,3.78-2.71,8.33-4.43,13.63-5.18l10.22-1.43c5.15-.72,9.82-.42,14,.89,4.18,1.32,7.6,3.5,10.25,6.57,2.65,3.06,4.28,6.81,4.9,11.25l.6,4.28c.5,3.57.3,6.62-.6,9.17-.9,2.55-2.1,4.62-3.62,6.2-1.52,1.59-3.55,3.49-6.19,5.59-3.03,2.41-5.31,4.52-6.73,6.45-1.43,1.94-1.93,4.41-1.51,7.42l.23,1.66-16.4,2.29-.37-2.62Z"/>
      <path class="cls-1" d="m219.05,856.58c-.55-2.48-.03-4.98,1.56-7.47s3.63-4.02,6.11-4.57c2.48-.55,4.98-.03,7.47,1.56s4.02,3.63,4.57,6.11c.55,2.49.03,4.98-1.56,7.47s-3.63,4.02-6.11,4.57c-2.49.55-4.98.03-7.47-1.56s-4.02-3.63-4.57-6.11Zm12.8-22.22c1.89-2.97,4.05-5.13,6.47-6.48,2.42-1.35,4.82-2.17,7.19-2.46,2.37-.29,5.24-.41,8.61-.35,3.84.08,6.82-.14,8.94-.64,2.12-.5,3.8-1.73,5.05-3.68l2.32-3.64c1.33-2.09,1.65-4.23.96-6.43-.69-2.19-2.28-4.09-4.78-5.68l-8.7-5.54c-2.7-1.72-5.43-2.2-8.19-1.44-2.76.76-5.08,2.62-6.97,5.59l-13.97-8.9c2.75-4.32,6.13-7.55,10.15-9.68,4.02-2.14,8.34-3.01,12.98-2.62,4.63.39,9.21,2.03,13.73,4.91l8.7,5.54c4.39,2.79,7.74,6.05,10.07,9.76,2.33,3.71,3.51,7.59,3.54,11.64.03,4.05-1.16,7.96-3.57,11.74l-2.32,3.64c-1.93,3.04-4.07,5.23-6.4,6.59-2.34,1.36-4.59,2.15-6.77,2.37-2.18.22-4.96.35-8.33.24-3.87-.13-6.97,0-9.31.54-2.34.55-4.33,2.11-5.96,4.67l-.9,1.42-13.97-8.9,1.42-2.23Z"/>
      <path class="cls-1" d="m313.31,805.85c-1.86-1.73-2.85-4.08-2.95-7.04s.71-5.37,2.44-7.23c1.73-1.86,4.08-2.85,7.04-2.95s5.37.71,7.23,2.44c1.86,1.74,2.85,4.08,2.95,7.04s-.71,5.37-2.44,7.23c-1.74,1.86-4.08,2.85-7.04,2.95s-5.37-.71-7.23-2.44Zm-2.05-25.56c-.13-3.52.43-6.52,1.66-9,1.23-2.48,2.74-4.52,4.53-6.11,1.78-1.58,4.09-3.31,6.9-5.17,3.21-2.11,5.54-3.98,7-5.59,1.46-1.61,2.15-3.58,2.07-5.9l-.15-4.32c-.09-2.48-1.04-4.42-2.85-5.84-1.81-1.42-4.2-2.07-7.15-1.97l-10.31.37c-3.2.11-5.72,1.26-7.56,3.45-1.84,2.19-2.7,5.04-2.58,8.56l-16.55.59c-.18-5.11.78-9.69,2.87-13.73,2.1-4.04,5.17-7.21,9.21-9.51,4.04-2.31,8.74-3.55,14.1-3.74l10.31-.37c5.2-.18,9.81.59,13.83,2.33,4.02,1.74,7.19,4.27,9.51,7.59,2.32,3.32,3.56,7.22,3.72,11.7l.15,4.32c.13,3.6-.39,6.62-1.54,9.06-1.16,2.44-2.57,4.37-4.24,5.79-1.67,1.42-3.89,3.1-6.73,4.92-3.26,2.09-5.74,3.95-7.36,5.73-1.62,1.78-2.37,4.19-2.26,7.22l.06,1.68-16.55.59-.09-2.64Z"/>
      <path class="cls-1" d="m348.45,842.51c-.36-2.52.35-4.96,2.13-7.33s3.93-3.73,6.45-4.09c2.52-.36,4.96.35,7.33,2.13s3.73,3.93,4.09,6.45c.36,2.52-.35,4.96-2.13,7.33s-3.93,3.73-6.45,4.09c-2.52.36-4.97-.35-7.33-2.13s-3.73-3.93-4.09-6.45Zm14.48-21.17c2.11-2.81,4.43-4.8,6.95-5.96,2.52-1.16,4.97-1.79,7.36-1.9,2.38-.11,5.26,0,8.62.32,3.82.37,6.81.39,8.96.06,2.15-.33,3.93-1.43,5.32-3.28l2.59-3.45c1.49-1.98,1.97-4.09,1.46-6.33-.52-2.24-1.96-4.25-4.33-6.03l-8.25-6.2c-2.56-1.92-5.24-2.61-8.05-2.07-2.81.54-5.27,2.22-7.38,5.03l-13.24-9.95c3.07-4.09,6.7-7.05,10.87-8.87,4.17-1.82,8.55-2.36,13.14-1.61,4.59.75,9.03,2.73,13.31,5.95l8.25,6.2c4.16,3.12,7.25,6.63,9.29,10.51,2.04,3.88,2.91,7.84,2.63,11.88-.28,4.04-1.77,7.85-4.46,11.43l-2.59,3.45c-2.16,2.88-4.46,4.9-6.89,6.08-2.43,1.17-4.75,1.79-6.94,1.84-2.19.05-4.97-.03-8.33-.4-3.85-.43-6.95-.54-9.32-.18-2.38.37-4.48,1.76-6.3,4.19l-1.01,1.34-13.24-9.95,1.59-2.11Z"/>
      <path class="cls-1" d="m433.12,787.94c-1.26-2.21-1.5-4.74-.72-7.6s2.28-4.91,4.49-6.18c2.21-1.26,4.74-1.5,7.6-.72s4.91,2.28,6.18,4.49c1.26,2.21,1.5,4.75.72,7.6s-2.28,4.91-4.49,6.18c-2.21,1.26-4.75,1.5-7.6.72s-4.91-2.28-6.17-4.49Zm5.66-25.01c.93-3.39,2.35-6.09,4.27-8.1,1.92-2,3.96-3.5,6.14-4.48,2.17-.98,4.88-1.94,8.13-2.88,3.69-1.06,6.47-2.15,8.35-3.25,1.88-1.1,3.12-2.77,3.73-5.01l1.14-4.17c.65-2.39.33-4.53-.98-6.43-1.31-1.89-3.39-3.23-6.24-4.01l-9.96-2.72c-3.09-.84-5.84-.5-8.25,1.04-2.41,1.54-4.08,4.01-5.01,7.4l-15.97-4.37c1.35-4.94,3.63-9.02,6.83-12.25,3.2-3.23,7.08-5.34,11.62-6.34,4.54-1,9.4-.79,14.57.62l9.96,2.72c5.02,1.37,9.19,3.49,12.51,6.34,3.32,2.86,5.6,6.22,6.82,10.08,1.23,3.86,1.25,7.95.07,12.27l-1.14,4.17c-.95,3.47-2.34,6.2-4.17,8.19-1.83,1.99-3.75,3.41-5.77,4.27-2.02.86-4.63,1.81-7.89,2.7-3.73,1.02-6.66,2.06-8.73,3.27-2.07,1.22-3.51,3.29-4.31,6.22l-.44,1.62-15.97-4.37.7-2.55Z"/>
      <path class="cls-1" d="m508.76,828.51c-1.42-2.11-1.85-4.62-1.28-7.52s1.91-5.07,4.02-6.49c2.11-1.42,4.62-1.85,7.52-1.28s5.07,1.91,6.49,4.02c1.42,2.11,1.85,4.62,1.28,7.53s-1.91,5.07-4.02,6.49c-2.11,1.42-4.62,1.85-7.53,1.28s-5.07-1.91-6.49-4.02Zm3.79-25.36c.68-3.45,1.89-6.25,3.66-8.39,1.76-2.14,3.69-3.78,5.79-4.92,2.1-1.14,4.73-2.29,7.89-3.47,3.6-1.33,6.3-2.62,8.09-3.86,1.79-1.24,2.91-3,3.35-5.27l.83-4.24c.48-2.43,0-4.55-1.45-6.34-1.44-1.79-3.62-2.97-6.52-3.54l-10.13-1.98c-3.14-.61-5.86-.06-8.15,1.65-2.29,1.71-3.77,4.3-4.45,7.75l-16.25-3.18c.98-5.02,2.95-9.27,5.91-12.72,2.96-3.46,6.66-5.85,11.12-7.18,4.46-1.33,9.32-1.48,14.58-.45l10.13,1.98c5.1,1,9.42,2.8,12.94,5.4,3.53,2.61,6.04,5.79,7.55,9.55,1.51,3.76,1.83,7.84.97,12.23l-.83,4.24c-.69,3.53-1.88,6.36-3.55,8.48-1.68,2.12-3.49,3.68-5.44,4.68-1.95,1.01-4.49,2.14-7.67,3.27-3.65,1.29-6.49,2.54-8.47,3.91-1.98,1.37-3.26,3.54-3.84,6.52l-.32,1.65-16.25-3.18.51-2.59Z"/>
      <path class="cls-1" d="m586.85,840.35c-2.46-.67-4.42-2.29-5.89-4.86s-1.87-5.08-1.2-7.54c.67-2.46,2.29-4.42,4.86-5.89s5.08-1.87,7.54-1.2c2.46.67,4.42,2.29,5.89,4.86s1.87,5.08,1.2,7.54c-.67,2.46-2.29,4.42-4.86,5.89s-5.08,1.87-7.54,1.2Zm-13.71-21.67c-1.75-3.06-2.65-5.97-2.72-8.74-.06-2.77.32-5.28,1.17-7.51.84-2.23,2.08-4.83,3.7-7.79,1.85-3.36,3.05-6.1,3.6-8.21.54-2.11.24-4.17-.91-6.18l-2.14-3.75c-1.23-2.15-2.98-3.43-5.24-3.85-2.26-.41-4.68.12-7.25,1.59l-8.96,5.12c-2.78,1.59-4.47,3.78-5.09,6.57-.61,2.79-.05,5.72,1.7,8.77l-14.38,8.22c-2.54-4.44-3.82-8.94-3.84-13.49-.02-4.55,1.22-8.78,3.73-12.7,2.5-3.92,6.08-7.21,10.74-9.87l8.96-5.12c4.51-2.58,8.96-4.04,13.33-4.37,4.37-.33,8.35.43,11.95,2.29,3.6,1.86,6.51,4.73,8.73,8.62l2.14,3.75c1.79,3.13,2.74,6.04,2.85,8.74.11,2.7-.24,5.07-1.06,7.1-.82,2.04-2,4.56-3.67,7.49-1.92,3.36-3.25,6.17-3.85,8.49-.6,2.33-.15,4.81,1.36,7.45l.83,1.46-14.38,8.22-1.31-2.29Z"/>
      <path class="cls-1" d="m677.38,848.67c-2.53-.23-4.75-1.48-6.65-3.75s-2.73-4.68-2.5-7.21c.23-2.53,1.48-4.75,3.75-6.65s4.68-2.73,7.21-2.5c2.54.23,4.75,1.48,6.65,3.75s2.73,4.68,2.5,7.21c-.23,2.54-1.48,4.75-3.75,6.65s-4.68,2.73-7.21,2.5Zm-17.29-18.94c-2.25-2.7-3.66-5.41-4.21-8.13-.55-2.72-.61-5.25-.17-7.6.44-2.34,1.2-5.12,2.28-8.31,1.24-3.64,1.94-6.54,2.11-8.71.17-2.17-.49-4.15-1.98-5.93l-2.77-3.32c-1.59-1.9-3.53-2.86-5.83-2.87-2.3,0-4.59.94-6.86,2.83l-7.92,6.61c-2.46,2.05-3.74,4.5-3.86,7.36-.12,2.86.95,5.64,3.21,8.34l-12.72,10.61c-3.28-3.93-5.33-8.14-6.15-12.61-.82-4.47-.34-8.86,1.44-13.16,1.78-4.3,4.73-8.16,8.84-11.6l7.92-6.61c3.99-3.33,8.11-5.54,12.36-6.64,4.25-1.09,8.3-1.04,12.17.16,3.87,1.2,7.24,3.52,10.11,6.96l2.77,3.32c2.31,2.76,3.75,5.47,4.34,8.1.58,2.64.65,5.03.2,7.18-.45,2.15-1.17,4.83-2.3,8.01-1.3,3.65-2.12,6.64-2.31,9.04-.19,2.4.69,4.76,2.64,7.1l1.08,1.29-12.72,10.61-1.69-2.03Z"/>
      <path class="cls-1" d="m700.67,783.04c-2.51-.45-4.6-1.88-6.3-4.31s-2.31-4.9-1.87-7.4c.45-2.51,1.89-4.6,4.31-6.3s4.9-2.31,7.4-1.87c2.51.45,4.61,1.89,6.3,4.32s2.31,4.9,1.87,7.4c-.45,2.51-1.89,4.61-4.32,6.3s-4.9,2.31-7.4,1.87Zm-15.58-20.37c-2.01-2.89-3.17-5.71-3.49-8.47-.31-2.76-.15-5.28.49-7.58.64-2.3,1.64-4.99,3-8.08,1.55-3.51,2.5-6.35,2.85-8.5.36-2.15-.13-4.17-1.46-6.08l-2.47-3.54c-1.42-2.03-3.27-3.15-5.56-3.36-2.29-.21-4.65.53-7.08,2.23l-8.47,5.9c-2.63,1.83-4.12,4.16-4.48,7-.36,2.84.46,5.7,2.47,8.59l-13.59,9.47c-2.93-4.2-4.6-8.57-5.03-13.1-.43-4.53.43-8.86,2.58-12.99,2.14-4.13,5.42-7.72,9.81-10.79l8.47-5.9c4.27-2.97,8.56-4.82,12.89-5.54,4.32-.72,8.36-.31,12.11,1.22,3.75,1.53,6.9,4.14,9.47,7.81l2.47,3.54c2.06,2.95,3.26,5.77,3.62,8.45.35,2.68.21,5.07-.42,7.17-.63,2.1-1.58,4.72-2.98,7.78-1.61,3.52-2.69,6.43-3.08,8.8-.39,2.37.28,4.8,2.01,7.3l.96,1.38-13.59,9.47-1.51-2.17Z"/>
      <path class="cls-1" d="m784.85,802.48c-2.54-.09-4.82-1.21-6.84-3.38s-2.98-4.52-2.9-7.06c.09-2.54,1.22-4.82,3.38-6.84s4.52-2.98,7.06-2.9c2.54.09,4.83,1.22,6.84,3.38s2.98,4.52,2.9,7.06c-.09,2.54-1.22,4.83-3.38,6.85s-4.52,2.98-7.06,2.9Zm-18.31-17.96c-2.4-2.57-3.95-5.2-4.65-7.89-.7-2.68-.9-5.21-.59-7.58.31-2.36.92-5.18,1.82-8.43,1.03-3.7,1.57-6.64,1.62-8.82.05-2.18-.72-4.11-2.3-5.81l-2.95-3.16c-1.69-1.81-3.69-2.66-5.98-2.54-2.3.12-4.53,1.19-6.69,3.21l-7.55,7.04c-2.34,2.18-3.49,4.7-3.45,7.56.04,2.86,1.26,5.58,3.66,8.15l-12.11,11.3c-3.49-3.74-5.77-7.83-6.83-12.25-1.06-4.42-.83-8.83.71-13.22,1.54-4.39,4.27-8.41,8.19-12.07l7.55-7.04c3.8-3.55,7.79-5.98,11.97-7.31,4.18-1.33,8.23-1.5,12.16-.51,3.93.99,7.42,3.12,10.48,6.39l2.95,3.16c2.46,2.63,4.05,5.25,4.78,7.85.73,2.6.93,4.99.6,7.15-.33,2.17-.9,4.89-1.85,8.13-1.09,3.71-1.75,6.75-1.8,9.15-.05,2.4.95,4.72,3.03,6.94l1.15,1.23-12.11,11.3-1.8-1.93Z"/>
      <path class="cls-1" d="m804,762.37c.28-3.51,1.18-6.42,2.7-8.75,1.51-2.33,3.25-4.17,5.2-5.54,1.96-1.37,4.44-2.81,7.45-4.33,3.43-1.73,5.97-3.31,7.61-4.74,1.64-1.43,2.56-3.3,2.74-5.62l.35-4.31c.2-2.47-.52-4.52-2.15-6.13-1.64-1.62-3.93-2.55-6.88-2.79l-10.29-.83c-3.19-.26-5.83.59-7.91,2.55-2.08,1.96-3.27,4.69-3.55,8.2l-16.51-1.34c.41-5.1,1.9-9.54,4.45-13.3,2.55-3.77,5.97-6.56,10.25-8.38,4.28-1.82,9.09-2.51,14.43-2.08l10.29.83c5.18.42,9.67,1.73,13.47,3.92,3.8,2.19,6.65,5.07,8.57,8.64,1.92,3.57,2.7,7.58,2.34,12.05l-.35,4.31c-.29,3.59-1.15,6.53-2.58,8.82-1.43,2.29-3.06,4.05-4.88,5.26-1.82,1.22-4.24,2.59-7.25,4.11-3.5,1.64-6.16,3.25-7.98,4.83-1.81,1.58-2.84,3.88-3.09,6.91l-.14,1.67-16.51-1.34.21-2.63Zm-.93,25.63c-1.65-1.94-2.35-4.38-2.11-7.33.24-2.95,1.33-5.25,3.27-6.9s4.38-2.35,7.33-2.11c2.95.24,5.25,1.33,6.9,3.27,1.65,1.94,2.35,4.39,2.11,7.33-.24,2.95-1.33,5.25-3.27,6.9-1.94,1.65-4.39,2.35-7.33,2.12-2.95-.24-5.25-1.33-6.9-3.27Z"/>
    </g>
  </g>
</svg>